<svg width="38" height="38" viewBox="0 0 38 38" fill="none" xmlns="http://www.w3.org/2000/svg">
<g clip-path="url(#clip0_50_53)">
<path d="M9.5 1.1875C9.5 0.872555 9.37489 0.57051 9.15219 0.347811C8.92949 0.125111 8.62744 0 8.3125 0C7.99756 0 7.69551 0.125111 7.47281 0.347811C7.25011 0.57051 7.125 0.872555 7.125 1.1875V2.375H4.75C3.49022 2.375 2.28204 2.87545 1.39124 3.76624C0.500445 4.65704 0 5.86522 0 7.125L0 9.5H38V7.125C38 5.86522 37.4996 4.65704 36.6088 3.76624C35.718 2.87545 34.5098 2.375 33.25 2.375H30.875V1.1875C30.875 0.872555 30.7499 0.57051 30.5272 0.347811C30.3045 0.125111 30.0024 0 29.6875 0C29.3726 0 29.0705 0.125111 28.8478 0.347811C28.6251 0.57051 28.5 0.872555 28.5 1.1875V2.375H9.5V1.1875ZM38 33.25V11.875H0V33.25C0 34.5098 0.500445 35.718 1.39124 36.6088C2.28204 37.4996 3.49022 38 4.75 38H33.25C34.5098 38 35.718 37.4996 36.6088 36.6088C37.4996 35.718 38 34.5098 38 33.25ZM22.5625 16.625H24.9375C25.2524 16.625 25.5545 16.7501 25.7772 16.9728C25.9999 17.1955 26.125 17.4976 26.125 17.8125V20.1875C26.125 20.5024 25.9999 20.8045 25.7772 21.0272C25.5545 21.2499 25.2524 21.375 24.9375 21.375H22.5625C22.2476 21.375 21.9455 21.2499 21.7228 21.0272C21.5001 20.8045 21.375 20.5024 21.375 20.1875V17.8125C21.375 17.4976 21.5001 17.1955 21.7228 16.9728C21.9455 16.7501 22.2476 16.625 22.5625 16.625ZM29.6875 16.625H32.0625C32.3774 16.625 32.6795 16.7501 32.9022 16.9728C33.1249 17.1955 33.25 17.4976 33.25 17.8125V20.1875C33.25 20.5024 33.1249 20.8045 32.9022 21.0272C32.6795 21.2499 32.3774 21.375 32.0625 21.375H29.6875C29.3726 21.375 29.0705 21.2499 28.8478 21.0272C28.6251 20.8045 28.5 20.5024 28.5 20.1875V17.8125C28.5 17.4976 28.6251 17.1955 28.8478 16.9728C29.0705 16.7501 29.3726 16.625 29.6875 16.625ZM4.75 24.9375C4.75 24.6226 4.87511 24.3205 5.09781 24.0978C5.32051 23.8751 5.62256 23.75 5.9375 23.75H8.3125C8.62744 23.75 8.92949 23.8751 9.15219 24.0978C9.37489 24.3205 9.5 24.6226 9.5 24.9375V27.3125C9.5 27.6274 9.37489 27.9295 9.15219 28.1522C8.92949 28.3749 8.62744 28.5 8.3125 28.5H5.9375C5.62256 28.5 5.32051 28.3749 5.09781 28.1522C4.87511 27.9295 4.75 27.6274 4.75 27.3125V24.9375ZM13.0625 23.75H15.4375C15.7524 23.75 16.0545 23.8751 16.2772 24.0978C16.4999 24.3205 16.625 24.6226 16.625 24.9375V27.3125C16.625 27.6274 16.4999 27.9295 16.2772 28.1522C16.0545 28.3749 15.7524 28.5 15.4375 28.5H13.0625C12.7476 28.5 12.4455 28.3749 12.2228 28.1522C12.0001 27.9295 11.875 27.6274 11.875 27.3125V24.9375C11.875 24.6226 12.0001 24.3205 12.2228 24.0978C12.4455 23.8751 12.7476 23.75 13.0625 23.75V23.75Z" fill="#333333"/>
</g>
<defs>
<clipPath id="clip0_50_53">
<rect width="38" height="38" fill="white"/>
</clipPath>
</defs>
</svg>
