<svg width="90" height="90" viewBox="0 0 90 90" fill="none" xmlns="http://www.w3.org/2000/svg">
<g clip-path="url(#clip0_50_39)">
<path d="M11.25 56.25H28.125C29.6168 56.25 31.0476 56.8426 32.1025 57.8975C33.1574 58.9524 33.75 60.3832 33.75 61.875V78.75C33.75 80.2418 33.1574 81.6726 32.1025 82.7275C31.0476 83.7824 29.6168 84.375 28.125 84.375H11.25C9.75816 84.375 8.32742 83.7824 7.27252 82.7275C6.21763 81.6726 5.625 80.2418 5.625 78.75V61.875C5.625 60.3832 6.21763 58.9524 7.27252 57.8975C8.32742 56.8426 9.75816 56.25 11.25 56.25V56.25ZM61.875 5.625H78.75C80.2418 5.625 81.6726 6.21763 82.7275 7.27252C83.7824 8.32742 84.375 9.75816 84.375 11.25V28.125C84.375 29.6168 83.7824 31.0476 82.7275 32.1025C81.6726 33.1574 80.2418 33.75 78.75 33.75H61.875C60.3832 33.75 58.9524 33.1574 57.8975 32.1025C56.8426 31.0476 56.25 29.6168 56.25 28.125V11.25C56.25 9.75816 56.8426 8.32742 57.8975 7.27252C58.9524 6.21763 60.3832 5.625 61.875 5.625V5.625ZM61.875 56.25C60.3832 56.25 58.9524 56.8426 57.8975 57.8975C56.8426 58.9524 56.25 60.3832 56.25 61.875V78.75C56.25 80.2418 56.8426 81.6726 57.8975 82.7275C58.9524 83.7824 60.3832 84.375 61.875 84.375H78.75C80.2418 84.375 81.6726 83.7824 82.7275 82.7275C83.7824 81.6726 84.375 80.2418 84.375 78.75V61.875C84.375 60.3832 83.7824 58.9524 82.7275 57.8975C81.6726 56.8426 80.2418 56.25 78.75 56.25H61.875ZM61.875 0C58.8913 0 56.0298 1.18526 53.9201 3.29505C51.8103 5.40483 50.625 8.26631 50.625 11.25V28.125C50.625 31.1087 51.8103 33.9702 53.9201 36.08C56.0298 38.1897 58.8913 39.375 61.875 39.375H78.75C81.7337 39.375 84.5952 38.1897 86.7049 36.08C88.8147 33.9702 90 31.1087 90 28.125V11.25C90 8.26631 88.8147 5.40483 86.7049 3.29505C84.5952 1.18526 81.7337 0 78.75 0L61.875 0ZM11.25 50.625C8.26631 50.625 5.40483 51.8103 3.29505 53.9201C1.18526 56.0298 0 58.8913 0 61.875L0 78.75C0 81.7337 1.18526 84.5952 3.29505 86.7049C5.40483 88.8147 8.26631 90 11.25 90H28.125C31.1087 90 33.9702 88.8147 36.08 86.7049C38.1897 84.5952 39.375 81.7337 39.375 78.75V61.875C39.375 58.8913 38.1897 56.0298 36.08 53.9201C33.9702 51.8103 31.1087 50.625 28.125 50.625H11.25ZM50.625 61.875C50.625 58.8913 51.8103 56.0298 53.9201 53.9201C56.0298 51.8103 58.8913 50.625 61.875 50.625H78.75C81.7337 50.625 84.5952 51.8103 86.7049 53.9201C88.8147 56.0298 90 58.8913 90 61.875V78.75C90 81.7337 88.8147 84.5952 86.7049 86.7049C84.5952 88.8147 81.7337 90 78.75 90H61.875C58.8913 90 56.0298 88.8147 53.9201 86.7049C51.8103 84.5952 50.625 81.7337 50.625 78.75V61.875ZM0 11.25C0 8.26631 1.18526 5.40483 3.29505 3.29505C5.40483 1.18526 8.26631 0 11.25 0L28.125 0C31.1087 0 33.9702 1.18526 36.08 3.29505C38.1897 5.40483 39.375 8.26631 39.375 11.25V28.125C39.375 31.1087 38.1897 33.9702 36.08 36.08C33.9702 38.1897 31.1087 39.375 28.125 39.375H11.25C8.26631 39.375 5.40483 38.1897 3.29505 36.08C1.18526 33.9702 0 31.1087 0 28.125V11.25ZM30.1163 16.0538C30.3777 15.7923 30.5852 15.4818 30.7267 15.1402C30.8682 14.7985 30.9411 14.4323 30.9411 14.0625C30.9411 13.6927 30.8682 13.3265 30.7267 12.9848C30.5852 12.6432 30.3777 12.3327 30.1163 12.0712C29.8548 11.8098 29.5443 11.6023 29.2027 11.4608C28.861 11.3193 28.4948 11.2464 28.125 11.2464C27.7552 11.2464 27.389 11.3193 27.0473 11.4608C26.7057 11.6023 26.3952 11.8098 26.1337 12.0712L16.875 21.3356L13.2413 17.6962C12.9798 17.4348 12.6693 17.2273 12.3277 17.0858C11.986 16.9443 11.6198 16.8714 11.25 16.8714C10.8802 16.8714 10.514 16.9443 10.1723 17.0858C9.83068 17.2273 9.52024 17.4348 9.25875 17.6962C8.99726 17.9577 8.78983 18.2682 8.64831 18.6098C8.50679 18.9515 8.43395 19.3177 8.43395 19.6875C8.43395 20.0573 8.50679 20.4235 8.64831 20.7652C8.78983 21.1068 8.99726 21.4173 9.25875 21.6788L14.8837 27.3038C15.145 27.5657 15.4554 27.7735 15.7971 27.9153C16.1388 28.057 16.5051 28.13 16.875 28.13C17.2449 28.13 17.6112 28.057 17.9529 27.9153C18.2946 27.7735 18.605 27.5657 18.8663 27.3038L30.1163 16.0538Z" fill="#96588A"/>
</g>
<defs>
<clipPath id="clip0_50_39">
<rect width="90" height="90" fill="white"/>
</clipPath>
</defs>
</svg>
