<svg width="38" height="38" viewBox="0 0 38 38" fill="none" xmlns="http://www.w3.org/2000/svg">
<g clip-path="url(#clip0_50_49)">
<path d="M27.2175 0.34675C26.9949 0.124761 26.6935 6.67826e-05 26.3791 0L11.6209 0C11.3065 6.67826e-05 11.0051 0.124761 10.7825 0.34675L0.34675 10.7825C0.124761 11.0051 6.67826e-05 11.3065 0 11.6209L0 26.3791C6.67826e-05 26.6935 0.124761 26.9949 0.34675 27.2175L10.7825 37.6533C11.0051 37.8752 11.3065 37.9999 11.6209 38H26.3791C26.6935 37.9999 26.9949 37.8752 27.2175 37.6533L37.6533 27.2175C37.8752 26.9949 37.9999 26.6935 38 26.3791V11.6209C37.9999 11.3065 37.8752 11.0051 37.6533 10.7825L27.2175 0.34675ZM12.7158 11.0342L19 17.3209L25.2842 11.0342C25.3947 10.9238 25.5257 10.8363 25.67 10.7765C25.8142 10.7168 25.9689 10.686 26.125 10.686C26.2811 10.686 26.4358 10.7168 26.58 10.7765C26.7243 10.8363 26.8553 10.9238 26.9658 11.0342C27.0762 11.1447 27.1637 11.2757 27.2235 11.42C27.2832 11.5642 27.314 11.7189 27.314 11.875C27.314 12.0311 27.2832 12.1858 27.2235 12.33C27.1637 12.4743 27.0762 12.6053 26.9658 12.7158L20.6791 19L26.9658 25.2842C27.0762 25.3947 27.1637 25.5257 27.2235 25.67C27.2832 25.8142 27.314 25.9689 27.314 26.125C27.314 26.2811 27.2832 26.4358 27.2235 26.58C27.1637 26.7243 27.0762 26.8553 26.9658 26.9658C26.8553 27.0762 26.7243 27.1637 26.58 27.2235C26.4358 27.2832 26.2811 27.314 26.125 27.314C25.9689 27.314 25.8142 27.2832 25.67 27.2235C25.5257 27.1637 25.3947 27.0762 25.2842 26.9658L19 20.6791L12.7158 26.9658C12.6053 27.0762 12.4743 27.1637 12.33 27.2235C12.1858 27.2832 12.0311 27.314 11.875 27.314C11.7189 27.314 11.5642 27.2832 11.42 27.2235C11.2757 27.1637 11.1447 27.0762 11.0342 26.9658C10.9238 26.8553 10.8363 26.7243 10.7765 26.58C10.7168 26.4358 10.686 26.2811 10.686 26.125C10.686 25.9689 10.7168 25.8142 10.7765 25.67C10.8363 25.5257 10.9238 25.3947 11.0342 25.2842L17.3209 19L11.0342 12.7158C10.8113 12.4928 10.686 12.1903 10.686 11.875C10.686 11.5597 10.8113 11.2572 11.0342 11.0342C11.2572 10.8113 11.5597 10.686 11.875 10.686C12.1903 10.686 12.4928 10.8113 12.7158 11.0342V11.0342Z" fill="#333333"/>
</g>
<defs>
<clipPath id="clip0_50_49">
<rect width="38" height="38" fill="white"/>
</clipPath>
</defs>
</svg>
