<svg width="81" height="80" viewBox="0 0 81 80" fill="none" xmlns="http://www.w3.org/2000/svg">
<path d="M80.6408 39.9477C76.0955 61.3107 62.4463 74.8998 41.0939 79.4947C21.927 83.6192 6.64198 61.7835 1.54698 39.9477C-3.41599 18.6779 19.6862 4.73049 41.0939 0.400836C62.687 -3.96631 83.067 28.5447 80.6408 39.9477Z" fill="#3F3D56"/>
<path d="M14.8912 30.0003C16.2311 30.0003 17.3174 28.9141 17.3174 27.5741C17.3174 26.2342 16.2311 25.1479 14.8912 25.1479C13.5512 25.1479 12.465 26.2342 12.465 27.5741C12.465 28.9141 13.5512 30.0003 14.8912 30.0003Z" fill="white"/>
<path d="M70.9362 30.0003C72.2761 30.0003 73.3624 28.9141 73.3624 27.5741C73.3624 26.2342 72.2761 25.1479 70.9362 25.1479C69.5962 25.1479 68.51 26.2342 68.51 27.5741C68.51 28.9141 69.5962 30.0003 70.9362 30.0003Z" fill="white"/>
<path d="M35.7563 34.3675C37.0962 34.3675 38.1825 33.2813 38.1825 31.9413C38.1825 30.6014 37.0962 29.5151 35.7563 29.5151C34.4163 29.5151 33.3301 30.6014 33.3301 31.9413C33.3301 33.2813 34.4163 34.3675 35.7563 34.3675Z" fill="white"/>
<path d="M53.7101 20.5382C55.0501 20.5382 56.1363 19.452 56.1363 18.112C56.1363 16.7721 55.0501 15.6858 53.7101 15.6858C52.3702 15.6858 51.2839 16.7721 51.2839 18.112C51.2839 19.452 52.3702 20.5382 53.7101 20.5382Z" fill="white"/>
<path d="M32.6023 11.3187C35.0285 12.0465 31.516 13.7448 30.1761 13.7448C28.8361 13.7448 27.7499 12.6586 27.7499 11.3187C27.7499 9.9787 28.8361 8.89246 30.1761 8.89246C31.516 8.89246 30.1761 10.5908 32.6023 11.3187Z" fill="white"/>
<path d="M47.8873 43.587C50.3135 44.3149 46.8011 46.0132 45.4611 46.0132C44.1211 46.0132 43.0349 44.927 43.0349 43.587C43.0349 42.2471 44.1211 41.1608 45.4611 41.1608C46.8011 41.1608 45.4611 42.8592 47.8873 43.587Z" fill="white"/>
<path d="M46.9168 10.8335C49.343 11.5613 45.8306 13.2597 44.4907 13.2597C43.1507 13.2597 42.0645 12.1734 42.0645 10.8335C42.0645 9.4935 43.1507 8.40726 44.4907 8.40726C45.8306 8.40726 44.4907 10.1056 46.9168 10.8335Z" fill="white"/>
<path d="M51.5266 63.7244C53.9528 64.4523 50.4403 66.1506 49.1004 66.1506C47.7604 66.1506 46.6742 65.0644 46.6742 63.7244C46.6742 62.3845 47.7604 61.2982 49.1004 61.2982C50.4403 61.2982 49.1004 62.9966 51.5266 63.7244Z" fill="white"/>
<path d="M21.6844 56.931C24.1106 57.6589 20.5982 59.3572 19.2582 59.3572C17.9183 59.3572 16.832 58.271 16.832 56.931C16.832 55.5911 17.9183 54.5049 19.2582 54.5049C20.5982 54.5049 19.2582 56.2032 21.6844 56.931Z" fill="white"/>
<path d="M65.1133 43.1018C67.5395 43.8297 64.027 45.528 62.6871 45.528C61.3471 45.528 60.2609 44.4418 60.2609 43.1018C60.2609 41.7619 61.3471 40.6756 62.6871 40.6756C64.027 40.6756 62.6871 42.374 65.1133 43.1018Z" fill="white"/>
<path d="M18.773 43.1018C21.1992 43.8297 17.6868 45.528 16.3468 45.528C15.0069 45.528 13.9207 44.4418 13.9207 43.1018C13.9207 41.7619 15.0069 40.6756 16.3468 40.6756C17.6868 40.6756 16.3469 42.374 18.773 43.1018Z" fill="white"/>
<path d="M35.2712 72.2161C37.6974 72.9439 34.185 74.6423 32.845 74.6423C31.5051 74.6423 30.4188 73.556 30.4188 72.2161C30.4188 70.8761 31.5051 69.7899 32.845 69.7899C34.185 69.7899 32.845 71.4882 35.2712 72.2161Z" fill="white"/>
</svg>
