<svg width="120" height="120" viewBox="0 0 120 120" fill="none" xmlns="http://www.w3.org/2000/svg">
<path d="M57.2959 3.25348C57.1403 2.88433 56.88 2.56886 56.5471 2.34609C56.2142 2.12331 55.8233 2.00299 55.4227 2H18.027C17.4895 2.00027 16.9741 2.21392 16.594 2.594C16.2139 2.97408 16.0003 3.4895 16 4.02701V51.3347C16.0003 51.8722 16.2139 52.3876 16.594 52.7677C16.9741 53.1478 17.4895 53.3614 18.027 53.3617H55.4227C55.9601 53.361 56.4752 53.1472 56.8552 52.7672C57.2352 52.3872 57.449 51.8721 57.4497 51.3347V4.0277C57.4506 3.76194 57.3983 3.49869 57.2959 3.25348ZM56.9996 51.3344C56.9987 51.7521 56.8324 52.1524 56.5371 52.4478C56.2417 52.7431 55.8414 52.9094 55.4237 52.9102H18.027C17.6091 52.9102 17.2083 52.7442 16.9127 52.4487C16.6172 52.1531 16.4512 51.7523 16.4512 51.3344V4.0277C16.452 3.61001 16.6183 3.20966 16.9136 2.91431C17.209 2.61895 17.6093 2.45267 18.027 2.45185H55.4227C55.7378 2.45315 56.0454 2.54836 56.3061 2.72532C56.5669 2.90228 56.7689 3.15295 56.8865 3.44532C56.9094 3.50348 56.9292 3.56284 56.9458 3.62312C56.9817 3.7558 56.9998 3.89264 56.9999 4.03009L56.9996 51.3344Z" fill="#CCCCCC"/>
<path d="M49.491 13.17H38.2272C37.9882 13.17 37.759 13.075 37.59 12.906C37.421 12.737 37.326 12.5078 37.326 12.2688C37.326 12.0298 37.421 11.8006 37.59 11.6316C37.759 11.4626 37.9882 11.3677 38.2272 11.3677H49.4907C49.7266 11.3723 49.9514 11.4692 50.1166 11.6377C50.2818 11.8062 50.3744 12.0328 50.3744 12.2688C50.3744 12.5048 50.2818 12.7314 50.1166 12.8999C49.9514 13.0684 49.7266 13.1654 49.4907 13.17H49.491Z" fill="#CCCCCC"/>
<path d="M49.491 17.9009H38.2272C37.9882 17.9009 37.759 17.806 37.59 17.637C37.421 17.468 37.326 17.2388 37.326 16.9998C37.326 16.7608 37.421 16.5316 37.59 16.3626C37.759 16.1936 37.9882 16.0986 38.2272 16.0986H49.4907C49.7266 16.1032 49.9514 16.2002 50.1166 16.3687C50.2818 16.5372 50.3744 16.7638 50.3744 16.9998C50.3744 17.2358 50.2818 17.4624 50.1166 17.6309C49.9514 17.7994 49.7266 17.8963 49.4907 17.9009H49.491Z" fill="#CCCCCC"/>
<path d="M32.4494 20.5946H24.2163C23.9475 20.5943 23.6899 20.4874 23.4998 20.2974C23.3098 20.1073 23.2029 19.8497 23.2026 19.5809V9.86722C23.2029 9.59846 23.3098 9.34078 23.4998 9.15074C23.6899 8.9607 23.9475 8.85382 24.2163 8.85355H32.4494C32.7181 8.85391 32.9757 8.96082 33.1657 9.15084C33.3558 9.34086 33.4627 9.59849 33.4631 9.86722V19.5809C33.4628 19.8497 33.3559 20.1073 33.1659 20.2974C32.9758 20.4874 32.7181 20.5943 32.4494 20.5946V20.5946Z" fill="#CCCCCC"/>
<path d="M49.4125 27.5875H23.9569C23.7179 27.5875 23.4887 27.4926 23.3197 27.3236C23.1507 27.1546 23.0558 26.9254 23.0558 26.6864C23.0558 26.4474 23.1507 26.2182 23.3197 26.0492C23.4887 25.8802 23.7179 25.7852 23.9569 25.7852H49.4125C49.6515 25.7852 49.8807 25.8802 50.0497 26.0492C50.2187 26.2182 50.3137 26.4474 50.3137 26.6864C50.3137 26.9254 50.2187 27.1546 50.0497 27.3236C49.8807 27.4926 49.6515 27.5875 49.4125 27.5875V27.5875Z" fill="#CCCCCC"/>
<path d="M49.4125 32.3198H23.9569C23.7179 32.3198 23.4887 32.2249 23.3197 32.0559C23.1507 31.8869 23.0558 31.6577 23.0558 31.4187C23.0558 31.1797 23.1507 30.9505 23.3197 30.7815C23.4887 30.6125 23.7179 30.5175 23.9569 30.5175H49.4125C49.6515 30.5175 49.8807 30.6125 50.0497 30.7815C50.2187 30.9505 50.3137 31.1797 50.3137 31.4187C50.3137 31.6577 50.2187 31.8869 50.0497 32.0559C49.8807 32.2249 49.6515 32.3198 49.4125 32.3198Z" fill="#CCCCCC"/>
<path d="M49.4125 37.0491H23.9569C23.7179 37.0491 23.4887 36.9541 23.3197 36.7851C23.1507 36.6161 23.0558 36.3869 23.0558 36.1479C23.0558 35.9089 23.1507 35.6797 23.3197 35.5107C23.4887 35.3417 23.7179 35.2468 23.9569 35.2468H49.4125C49.6515 35.2468 49.8807 35.3417 50.0497 35.5107C50.2187 35.6797 50.3137 35.9089 50.3137 36.1479C50.3137 36.3869 50.2187 36.6161 50.0497 36.7851C49.8807 36.9541 49.6515 37.0491 49.4125 37.0491V37.0491Z" fill="#CCCCCC"/>
<path d="M49.4125 41.781H23.9569C23.7179 41.781 23.4887 41.6861 23.3197 41.5171C23.1507 41.3481 23.0558 41.1189 23.0558 40.8799C23.0558 40.6409 23.1507 40.4117 23.3197 40.2427C23.4887 40.0737 23.7179 39.9788 23.9569 39.9788H49.4125C49.6515 39.9788 49.8807 40.0737 50.0497 40.2427C50.2187 40.4117 50.3137 40.6409 50.3137 40.8799C50.3137 41.1189 50.2187 41.3481 50.0497 41.5171C49.8807 41.6861 49.6515 41.781 49.4125 41.781V41.781Z" fill="#CCCCCC"/>
<path d="M49.4125 46.5106H23.9569C23.7179 46.5106 23.4887 46.4157 23.3197 46.2467C23.1507 46.0777 23.0558 45.8485 23.0558 45.6095C23.0558 45.3705 23.1507 45.1413 23.3197 44.9723C23.4887 44.8033 23.7179 44.7083 23.9569 44.7083H49.4125C49.6515 44.7083 49.8807 44.8033 50.0497 44.9723C50.2187 45.1413 50.3137 45.3705 50.3137 45.6095C50.3137 45.8485 50.2187 46.0777 50.0497 46.2467C49.8807 46.4157 49.6515 46.5106 49.4125 46.5106Z" fill="#CCCCCC"/>
<path d="M79.8811 31.1864C79.6835 30.7172 79.3526 30.3162 78.9294 30.033C78.5062 29.7499 78.0093 29.5971 77.5002 29.5934H29.9767C29.2935 29.5938 28.6385 29.8653 28.1555 30.3484C27.6724 30.8314 27.4009 31.4865 27.4005 32.1696V92.2913C27.4009 92.9744 27.6724 93.6294 28.1555 94.1125C28.6385 94.5955 29.2935 94.8671 29.9767 94.8674H77.5019C78.1849 94.8665 78.8396 94.5948 79.3225 94.1119C79.8054 93.629 80.0772 92.9742 80.0781 92.2913V32.1696C80.0792 31.8321 80.0128 31.4978 79.8828 31.1864H79.8811Z" fill="#E6E6E6"/>
<path d="M76.0114 91.4919H31.5987C30.9587 91.4912 30.4575 90.791 30.4575 89.898V34.127C30.4582 33.2331 30.9597 32.5331 31.5987 32.5331H76.0114C76.6518 32.5339 77.1529 33.234 77.1529 34.127V89.898C77.1522 90.7917 76.6508 91.4919 76.0114 91.4919Z" fill="white"/>
<path d="M79.8811 31.1864C79.6835 30.7172 79.3526 30.3162 78.9294 30.033C78.5062 29.7499 78.0093 29.5971 77.5002 29.5934H29.9767C29.2935 29.5938 28.6385 29.8653 28.1555 30.3484C27.6724 30.8314 27.4009 31.4865 27.4005 32.1696V92.2913C27.4009 92.9744 27.6724 93.6294 28.1555 94.1125C28.6385 94.5955 29.2935 94.8671 29.9767 94.8674H77.5019C78.1849 94.8665 78.8396 94.5948 79.3225 94.1119C79.8054 93.629 80.0772 92.9742 80.0781 92.2913V32.1696C80.0792 31.8321 80.0128 31.4978 79.8828 31.1864H79.8811ZM79.5042 92.2913C79.5036 92.8226 79.2923 93.332 78.9166 93.7077C78.5409 94.0834 78.0315 94.2947 77.5002 94.2953H29.9767C29.4453 94.2952 28.9357 94.0842 28.5599 93.7085C28.1841 93.3328 27.9729 92.8233 27.9726 92.292V32.17C27.9733 31.6387 28.1847 31.1293 28.5604 30.7537C28.9361 30.378 29.4454 30.1666 29.9767 30.1659H77.5019C77.9021 30.1674 78.2928 30.2881 78.6241 30.5127C78.9555 30.7372 79.2124 31.0554 79.3621 31.4266C79.3912 31.5005 79.4164 31.576 79.4374 31.6527C79.4829 31.8213 79.5059 31.9953 79.5059 32.17L79.5042 92.2913Z" fill="#3F3D56"/>
<path d="M69.9636 43.788H55.6488C55.345 43.788 55.0538 43.6673 54.839 43.4525C54.6242 43.2378 54.5035 42.9465 54.5035 42.6427C54.5035 42.339 54.6242 42.0477 54.839 41.833C55.0538 41.6182 55.345 41.4975 55.6488 41.4975H69.9636C70.2673 41.4975 70.5586 41.6182 70.7733 41.833C70.9881 42.0477 71.1088 42.339 71.1088 42.6427C71.1088 42.9465 70.9881 43.2378 70.7733 43.4525C70.5586 43.6673 70.2673 43.788 69.9636 43.788V43.788Z" fill="#3F3D56"/>
<path d="M69.9636 49.8002H55.6488C55.345 49.8002 55.0538 49.6795 54.839 49.4648C54.6242 49.25 54.5035 48.9587 54.5035 48.655C54.5035 48.3512 54.6242 48.0599 54.839 47.8452C55.0538 47.6304 55.345 47.5097 55.6488 47.5097H69.9636C70.2673 47.5097 70.5586 47.6304 70.7733 47.8452C70.9881 48.0599 71.1088 48.3512 71.1088 48.655C71.1088 48.9587 70.9881 49.25 70.7733 49.4648C70.5586 49.6795 70.2673 49.8002 69.9636 49.8002V49.8002Z" fill="#3F3D56"/>
<path d="M48.3039 53.2235H37.8427C37.5011 53.2231 37.1736 53.0873 36.9321 52.8457C36.6905 52.6042 36.5547 52.2767 36.5543 51.9351V39.5901C36.5547 39.2485 36.6905 38.921 36.9321 38.6794C37.1736 38.4379 37.5011 38.302 37.8427 38.3017H48.3039C48.6455 38.302 48.973 38.4379 49.2146 38.6794C49.4561 38.921 49.592 39.2485 49.5923 39.5901V51.9351C49.592 52.2767 49.4561 52.6042 49.2146 52.8457C48.973 53.0873 48.6455 53.2231 48.3039 53.2235Z" fill="#96588A"/>
<path d="M69.8643 62.1109H37.513C37.2093 62.1109 36.918 61.9902 36.7032 61.7754C36.4884 61.5606 36.3678 61.2694 36.3678 60.9656C36.3678 60.6619 36.4884 60.3706 36.7032 60.1558C36.918 59.9411 37.2093 59.8204 37.513 59.8204H69.8643C70.168 59.8204 70.4593 59.9411 70.6741 60.1558C70.8889 60.3706 71.0095 60.6619 71.0095 60.9656C71.0095 61.2694 70.8889 61.5606 70.6741 61.7754C70.4593 61.9902 70.168 62.1109 69.8643 62.1109V62.1109Z" fill="#E6E6E6"/>
<path d="M69.8642 68.1231H37.5129C37.2092 68.1239 36.9175 68.004 36.7022 67.7899C36.4868 67.5757 36.3653 67.2847 36.3645 66.981C36.3637 66.6773 36.4835 66.3856 36.6977 66.1703C36.9119 65.9549 37.2028 65.8335 37.5065 65.8326H69.8642C70.1679 65.8326 70.4592 65.9533 70.674 66.168C70.8887 66.3828 71.0094 66.6741 71.0094 66.9778C71.0094 67.2816 70.8887 67.5729 70.674 67.7876C70.4592 68.0024 70.1679 68.1231 69.8642 68.1231V68.1231Z" fill="#E6E6E6"/>
<path d="M69.8643 74.1352H37.513C37.2093 74.1352 36.918 74.0146 36.7032 73.7998C36.4884 73.585 36.3678 73.2937 36.3678 72.99C36.3678 72.6863 36.4884 72.395 36.7032 72.1802C36.918 71.9655 37.2093 71.8448 37.513 71.8448H69.8643C70.168 71.8439 70.4597 71.9638 70.675 72.178C70.8904 72.3922 71.0119 72.6831 71.0127 72.9868C71.0135 73.2906 70.8937 73.5822 70.6795 73.7976C70.4653 74.0129 70.1744 74.1344 69.8707 74.1352H69.8643Z" fill="#E6E6E6"/>
<path d="M69.8642 80.1474H37.5129C37.3625 80.1478 37.2135 80.1186 37.0744 80.0614C36.9353 80.0042 36.8088 79.9202 36.7022 79.8142C36.5955 79.7081 36.5108 79.5821 36.4529 79.4433C36.395 79.3046 36.3649 79.1557 36.3645 79.0053C36.3641 78.8549 36.3933 78.7059 36.4505 78.5668C36.5076 78.4277 36.5916 78.3012 36.6977 78.1946C36.8037 78.088 36.9297 78.0033 37.0685 77.9453C37.2073 77.8874 37.3561 77.8574 37.5065 77.8569H69.8642C70.1679 77.8569 70.4592 77.9776 70.674 78.1924C70.8887 78.4071 71.0094 78.6984 71.0094 79.0022C71.0094 79.3059 70.8887 79.5972 70.674 79.8119C70.4592 80.0267 70.1679 80.1474 69.8642 80.1474V80.1474Z" fill="#E6E6E6"/>
<path d="M69.8642 86.1596H37.5129C37.2092 86.1604 36.9175 86.0405 36.7022 85.8264C36.4868 85.6122 36.3653 85.3212 36.3645 85.0175C36.3637 84.7138 36.4835 84.4221 36.6977 84.2068C36.9119 83.9914 37.2028 83.87 37.5065 83.8691H69.8642C70.1679 83.8691 70.4592 83.9898 70.674 84.2045C70.8887 84.4193 71.0094 84.7106 71.0094 85.0143C71.0094 85.3181 70.8887 85.6094 70.674 85.8241C70.4592 86.0389 70.1679 86.1596 69.8642 86.1596V86.1596Z" fill="#E6E6E6"/>
<path d="M85.8217 43.6667C96.0384 43.6667 104.321 35.3844 104.321 25.1677C104.321 14.951 96.0384 6.66876 85.8217 6.66876C75.605 6.66876 67.3228 14.951 67.3228 25.1677C67.3228 35.3844 75.605 43.6667 85.8217 43.6667Z" fill="#96588A"/>
<path d="M88.7353 25.7813V15.5757H83.4795V25.7813H81.0256L83.5662 30.1817L86.1074 34.5827L88.6486 30.1817L91.1895 25.7806L88.7353 25.7813Z" fill="white"/>
<path d="M117.699 117.696H2.92648C2.84659 117.696 2.76996 117.664 2.71347 117.608C2.65698 117.551 2.62524 117.475 2.62524 117.395C2.62524 117.315 2.65698 117.238 2.71347 117.182C2.76996 117.125 2.84659 117.094 2.92648 117.094H117.699C117.779 117.094 117.855 117.125 117.912 117.182C117.968 117.238 118 117.315 118 117.395C118 117.475 117.968 117.551 117.912 117.608C117.855 117.664 117.779 117.696 117.699 117.696Z" fill="#E6E6E6"/>
<path d="M107.893 115.017C105.001 117.1 101.254 117.205 97.632 116.949C97.1262 116.914 96.6241 116.872 96.1258 116.826H96.1159C96.0921 116.824 96.068 116.822 96.0451 116.82L95.7378 116.79L95.7619 116.836L95.8372 116.978C95.8101 116.931 95.783 116.884 95.7559 116.836C95.7481 116.822 95.739 116.808 95.7312 116.794C94.7928 115.161 93.8635 113.468 93.6249 111.603C93.3794 109.668 94.0693 107.476 95.7725 106.525C95.9958 106.401 96.2323 106.302 96.4777 106.23C96.5795 106.2 96.6827 106.174 96.7873 106.151C97.4262 106.01 98.0914 106.04 98.7144 106.241C99.3374 106.441 99.8958 106.804 100.332 107.292C100.769 107.779 101.067 108.375 101.197 109.016C101.327 109.657 101.284 110.322 101.072 110.941C102.516 109.46 102.247 107.058 101.748 105.05C101.25 103.043 100.645 100.809 101.66 99.0054C101.948 98.5218 102.334 98.1045 102.794 97.7809C103.255 97.4573 103.778 97.2348 104.331 97.1281C104.365 97.1209 104.399 97.1133 104.433 97.107C105.76 96.8383 107.139 97.08 108.296 97.7839C110.425 99.1259 111.519 101.67 111.874 104.162C112.446 108.173 111.181 112.649 107.893 115.017Z" fill="#F2F2F2"/>
</svg>
