<svg width="120" height="121" viewBox="0 0 120 121" fill="none" xmlns="http://www.w3.org/2000/svg">
<path d="M1.19537 104.86C1.80829 99.9314 4.86279 95.0752 9.5632 93.4713C7.70947 98.5443 7.70988 104.109 9.56434 109.182C10.2866 111.136 11.2934 113.234 10.614 115.203C10.1913 116.428 9.15717 117.365 8.00125 117.951C6.84526 118.537 5.56236 118.817 4.2955 119.091L4.04618 119.297C2.03507 114.756 0.582443 109.789 1.19537 104.86Z" fill="#F0F0F0"/>
<path d="M9.60992 93.5645C6.87262 96.6316 5.1713 100.483 4.74763 104.572C4.6408 105.451 4.67313 106.341 4.84344 107.209C5.03669 108.05 5.45155 108.824 6.04492 109.45C6.58645 110.045 7.20928 110.591 7.59675 111.307C7.78965 111.677 7.90224 112.083 7.92715 112.499C7.95205 112.915 7.88871 113.332 7.74127 113.722C7.39917 114.703 6.72492 115.503 6.03838 116.262C5.27611 117.105 4.47099 117.968 4.14696 119.086C4.10769 119.221 3.8999 119.153 3.9391 119.017C4.50285 117.073 6.3902 115.969 7.29028 114.218C7.71027 113.4 7.88655 112.452 7.49281 111.589C7.14851 110.835 6.50673 110.271 5.95321 109.674C5.3654 109.071 4.93403 108.334 4.69679 107.527C4.48281 106.67 4.41624 105.782 4.49994 104.903C4.6568 102.92 5.12447 100.974 5.88581 99.1364C6.74308 97.0343 7.95363 95.0943 9.46509 93.4004C9.55868 93.2956 9.70291 93.4604 9.60993 93.5645L9.60992 93.5645Z" fill="white"/>
<path d="M4.80646 103.248C4.13006 103.083 3.53406 102.684 3.12489 102.121C2.71572 101.558 2.52003 100.868 2.57277 100.174C2.57518 100.145 2.58847 100.119 2.60985 100.1C2.63123 100.082 2.65903 100.072 2.68738 100.073C2.71573 100.075 2.74243 100.087 2.76184 100.108C2.78125 100.129 2.79187 100.156 2.79145 100.185C2.74115 100.831 2.9235 101.474 3.30559 101.997C3.68767 102.521 4.24433 102.89 4.87509 103.04C5.01213 103.072 4.94271 103.28 4.80646 103.248Z" fill="white"/>
<path d="M5.73045 109.185C6.95211 108.455 7.85395 107.292 8.25615 105.927C8.29589 105.792 8.5037 105.861 8.46401 105.996C8.04282 107.415 7.10185 108.624 5.8289 109.38C5.70752 109.452 5.60973 109.256 5.73045 109.185Z" fill="white"/>
<path d="M6.94609 97.2416C7.19457 97.3597 7.46848 97.4142 7.74323 97.4002C8.01797 97.3863 8.28496 97.3043 8.52019 97.1617C8.6406 97.0882 8.73827 97.2842 8.61864 97.3572C8.35801 97.5136 8.06304 97.6037 7.75952 97.6198C7.456 97.6359 7.15316 97.5774 6.87746 97.4495C6.85046 97.4396 6.82824 97.4198 6.81531 97.3941C6.80238 97.3684 6.79971 97.3388 6.80785 97.3112C6.81707 97.2837 6.83677 97.261 6.86266 97.248C6.88855 97.2349 6.91853 97.2327 6.94609 97.2416Z" fill="white"/>
<path d="M23.8907 102.274C23.8168 102.322 23.7429 102.371 23.669 102.42C22.6791 103.071 21.7437 103.802 20.872 104.604C20.8037 104.665 20.7353 104.728 20.6688 104.791C18.5894 106.746 16.8912 109.071 15.6604 111.647C15.1716 112.672 14.7615 113.733 14.4337 114.82C13.981 116.322 13.6097 117.987 12.7137 119.215C12.6216 119.345 12.5217 119.468 12.4144 119.585H4.31705C4.29864 119.576 4.28015 119.568 4.26166 119.559L3.93835 119.574C3.95134 119.517 3.96604 119.457 3.97905 119.4C3.98644 119.367 3.99564 119.334 4.00304 119.3C4.00855 119.278 4.01414 119.256 4.01783 119.236C4.01964 119.228 4.02153 119.221 4.02334 119.215C4.02704 119.195 4.03263 119.177 4.03633 119.158C4.1176 118.827 4.20134 118.497 4.28756 118.166C4.28756 118.164 4.28756 118.164 4.28936 118.162C4.92215 115.636 5.85237 113.194 7.06052 110.887C7.0975 110.819 7.1344 110.749 7.17508 110.68C7.73453 109.659 8.3765 108.685 9.09459 107.769C9.48941 107.268 9.90932 106.788 10.3527 106.33C11.5006 105.148 12.8273 104.154 14.284 103.385C17.1882 101.851 20.5505 101.264 23.6543 102.201C23.7336 102.225 23.8113 102.249 23.8907 102.274Z" fill="#F0F0F0"/>
<path d="M23.8726 102.377C19.8404 103.178 16.1631 105.229 13.3629 108.239C12.7486 108.876 12.2386 109.606 11.8516 110.402C11.4997 111.19 11.3652 112.057 11.4619 112.915C11.5361 113.716 11.7047 114.527 11.5829 115.332C11.5144 115.743 11.3597 116.135 11.1291 116.482C10.8984 116.83 10.5969 117.124 10.2444 117.347C9.38053 117.924 8.36067 118.157 7.35543 118.35C6.23929 118.564 5.07659 118.768 4.14506 119.466C4.0322 119.55 3.90772 119.37 4.02042 119.286C5.64112 118.073 7.81296 118.327 9.58594 117.471C10.4132 117.071 11.1251 116.42 11.3301 115.494C11.5093 114.685 11.3361 113.848 11.254 113.038C11.1474 112.203 11.2468 111.355 11.5435 110.567C11.8887 109.754 12.3698 109.005 12.9661 108.354C14.2852 106.865 15.8302 105.593 17.5445 104.584C19.4946 103.422 21.6291 102.601 23.8558 102.159C23.9936 102.132 24.0095 102.35 23.8726 102.377H23.8726Z" fill="white"/>
<path d="M14.2074 107.217C13.7662 106.678 13.5307 106.001 13.5431 105.305C13.5554 104.609 13.8147 103.94 14.2747 103.417C14.3681 103.312 14.5362 103.452 14.4427 103.558C14.0135 104.043 13.772 104.667 13.7618 105.315C13.7517 105.963 13.9735 106.593 14.3873 107.092C14.4771 107.2 14.2967 107.324 14.2074 107.217Z" fill="white"/>
<path d="M11.3709 112.513C12.7855 112.666 14.2058 112.281 15.3487 111.433C15.4619 111.349 15.5864 111.529 15.4733 111.613C14.2824 112.493 12.8035 112.891 11.3318 112.729C11.1915 112.713 11.2314 112.498 11.3709 112.513Z" fill="white"/>
<path d="M19.5318 103.709C19.6591 103.953 19.845 104.162 20.0727 104.316C20.3005 104.47 20.563 104.566 20.8367 104.593C20.9771 104.607 20.9371 104.822 20.7976 104.809C20.4954 104.777 20.2056 104.671 19.9536 104.501C19.7015 104.331 19.495 104.102 19.3519 103.834C19.3363 103.81 19.3304 103.781 19.3356 103.752C19.3407 103.724 19.3564 103.699 19.3795 103.682C19.4034 103.665 19.4328 103.659 19.4613 103.664C19.4899 103.669 19.5152 103.686 19.5318 103.709L19.5318 103.709Z" fill="white"/>
<path d="M119.412 120.499H0.424515C0.358498 120.499 0.295298 120.473 0.248733 120.426C0.202169 120.379 0.176025 120.316 0.176025 120.25C0.176025 120.184 0.202169 120.12 0.248733 120.074C0.295298 120.027 0.358498 120 0.424515 120H119.412C119.478 120 119.541 120.027 119.588 120.074C119.634 120.12 119.66 120.184 119.66 120.25C119.66 120.316 119.634 120.379 119.588 120.426C119.541 120.473 119.478 120.499 119.412 120.499V120.499Z" fill="#CCCCCC"/>
<path d="M119.335 5.23943H0.664712C0.488478 5.23924 0.319518 5.16914 0.194902 5.04453C0.0702863 4.91991 0.000192624 4.75095 0 4.57472V0.664709C0.000192624 0.488476 0.0702863 0.319516 0.194902 0.1949C0.319518 0.0702843 0.488478 0.000192228 0.664712 0H119.335C119.512 0.000192624 119.68 0.0702866 119.805 0.194902C119.93 0.319518 120 0.488476 120 0.664709V4.57473C120 4.75096 119.93 4.91992 119.805 5.04453C119.68 5.16915 119.512 5.23924 119.335 5.23943Z" fill="#E4E4E4"/>
<path d="M3.85766 3.37274C4.37887 3.37274 4.80139 2.95022 4.80139 2.42901C4.80139 1.90781 4.37887 1.48529 3.85766 1.48529C3.33646 1.48529 2.91394 1.90781 2.91394 2.42901C2.91394 2.95022 3.33646 3.37274 3.85766 3.37274Z" fill="white"/>
<path d="M7.4397 3.37274C7.9609 3.37274 8.38342 2.95022 8.38342 2.42901C8.38342 1.90781 7.9609 1.48529 7.4397 1.48529C6.91849 1.48529 6.49597 1.90781 6.49597 2.42901C6.49597 2.95022 6.91849 3.37274 7.4397 3.37274Z" fill="white"/>
<path d="M11.022 3.37274C11.5432 3.37274 11.9657 2.95022 11.9657 2.42901C11.9657 1.90781 11.5432 1.48529 11.022 1.48529C10.5008 1.48529 10.0782 1.90781 10.0782 2.42901C10.0782 2.95022 10.5008 3.37274 11.022 3.37274Z" fill="white"/>
<path d="M115.826 1.77946H111.701C111.62 1.77928 111.542 1.74701 111.485 1.68973C111.428 1.63244 111.396 1.55483 111.396 1.47391C111.396 1.39299 111.428 1.31538 111.485 1.2581C111.542 1.20082 111.62 1.16854 111.701 1.16837H115.826C115.907 1.16831 115.984 1.20039 116.042 1.25758C116.099 1.31476 116.131 1.39236 116.131 1.47334C116.132 1.55431 116.1 1.63204 116.042 1.68943C115.985 1.74683 115.908 1.77921 115.827 1.77946H115.826Z" fill="white"/>
<path d="M115.826 2.92524H111.701C111.62 2.92506 111.542 2.89279 111.485 2.83551C111.428 2.77823 111.396 2.70061 111.396 2.6197C111.396 2.53878 111.428 2.46116 111.485 2.40388C111.542 2.3466 111.62 2.31433 111.701 2.31415H115.826C115.907 2.31409 115.984 2.34618 116.042 2.40336C116.099 2.46054 116.131 2.53815 116.131 2.61912C116.132 2.70009 116.1 2.77782 116.042 2.83522C115.985 2.89262 115.908 2.92499 115.827 2.92524H115.826Z" fill="white"/>
<path d="M115.826 4.07108H111.701C111.62 4.07108 111.542 4.03889 111.485 3.98159C111.427 3.92429 111.395 3.84658 111.395 3.76554C111.395 3.6845 111.427 3.60679 111.485 3.54948C111.542 3.49218 111.62 3.45999 111.701 3.45999H115.826C115.907 3.45984 115.985 3.49189 116.042 3.54908C116.099 3.60627 116.132 3.68393 116.132 3.76496C116.132 3.846 116.1 3.92378 116.043 3.98119C115.986 4.03859 115.908 4.07093 115.827 4.07108H115.826Z" fill="white"/>
<path d="M48.4239 45.0516H14.6658C13.4288 45.0502 12.2428 44.5582 11.3681 43.6835C10.4934 42.8088 10.0014 41.6229 10 40.3859V12.6658C10.0014 11.4288 10.4934 10.2428 11.3681 9.36811C12.2428 8.49341 13.4288 8.00139 14.6658 8H48.4239C49.6609 8.00139 50.8469 8.49341 51.7216 9.36811C52.5963 10.2428 53.0883 11.4288 53.0897 12.6658V40.3859C53.0883 41.6229 52.5963 42.8088 51.7216 43.6835C50.8469 44.5582 49.6609 45.0502 48.4239 45.0516V45.0516ZM14.6658 8.54891C13.5743 8.55015 12.5279 8.98428 11.7561 9.75608C10.9843 10.5279 10.5501 11.5743 10.5489 12.6658V40.3859C10.5501 41.4773 10.9843 42.5238 11.7561 43.2955C12.5279 44.0673 13.5743 44.5015 14.6658 44.5027H48.4239C49.5154 44.5015 50.5618 44.0673 51.3336 43.2955C52.1054 42.5238 52.5395 41.4773 52.5408 40.3859V12.6658C52.5395 11.5743 52.1054 10.5279 51.3336 9.75608C50.5618 8.98428 49.5154 8.55015 48.4239 8.54891H14.6658Z" fill="#3F3D56"/>
<path d="M106.609 9.37228H72.8505C70.4253 9.37228 68.4592 11.3383 68.4592 13.7636V41.4837C68.4592 43.9089 70.4253 45.875 72.8505 45.875H106.609C109.034 45.875 111 43.9089 111 41.4837V13.7636C111 11.3383 109.034 9.37228 106.609 9.37228Z" fill="#F2F2F2"/>
<path d="M48.6087 60.97H14.8505C12.4253 60.97 10.4592 62.9361 10.4592 65.3613V93.0814C10.4592 95.5067 12.4253 97.4727 14.8505 97.4727H48.6087C51.0339 97.4727 53 95.5067 53 93.0814V65.3613C53 62.9361 51.0339 60.97 48.6087 60.97Z" fill="#F2F2F2"/>
<path d="M106.609 60.9701H72.8505C70.4253 60.9701 68.4592 62.9361 68.4592 65.3614V93.0815C68.4592 95.5067 70.4253 97.4728 72.8505 97.4728H106.609C109.034 97.4728 111 95.5067 111 93.0815V65.3614C111 62.9361 109.034 60.9701 106.609 60.9701Z" fill="#F2F2F2"/>
<path d="M23.1443 91.3474C23.1382 91.3474 23.1321 91.3473 23.126 91.347L19.2863 91.2048C19.1666 91.2012 19.0522 91.1544 18.9643 91.073C18.8764 90.9917 18.8209 90.8812 18.808 90.7622C18.5437 88.4042 17.4562 76.3886 22.0123 71.3945C22.6571 70.6734 23.4544 70.1049 24.3463 69.7302C25.2382 69.3556 26.2023 69.1842 27.1687 69.2284C27.208 69.2309 27.2472 69.2226 27.2821 69.2044C27.317 69.1862 27.3462 69.1589 27.3666 69.1252L28.2962 67.6645C28.347 67.5854 28.4191 67.5221 28.5041 67.4818C28.5891 67.4414 28.6837 67.4257 28.7772 67.4364C29.5224 67.5265 33.3212 67.9516 34.9186 67.4891C35.0128 67.4613 35.1131 67.4619 35.207 67.4908C35.3008 67.5197 35.3841 67.5756 35.4464 67.6515L36.6671 69.1433C36.688 69.1703 36.7151 69.1919 36.7461 69.2063C36.7771 69.2206 36.8111 69.2274 36.8452 69.2259C37.4661 69.2134 39.6429 69.3336 41.5481 71.4646C43.611 73.772 45.7401 78.9781 44.1673 90.6754C44.1509 90.7956 44.0916 90.9058 44.0003 90.9857C43.9091 91.0656 43.7921 91.1098 43.6708 91.1103H40.6467C40.5267 91.1098 40.4108 91.0663 40.32 90.9877C40.2292 90.9092 40.1695 90.8007 40.1517 90.682L39.1639 83.8656C39.1557 83.8096 39.1269 83.7586 39.0829 83.7229C39.039 83.6872 38.9833 83.6693 38.9267 83.6728C38.8702 83.6763 38.8171 83.7009 38.7778 83.7417C38.7386 83.7825 38.7162 83.8366 38.715 83.8932L38.6469 87.0936C38.6448 87.1885 38.6157 87.2809 38.5631 87.36C38.5105 87.439 38.4365 87.5015 38.3497 87.5401C37.2716 88.0141 31.5754 90.2372 25.2795 87.4529C25.1943 87.4146 25.1215 87.3534 25.069 87.2762C25.0165 87.199 24.9865 87.1087 24.9823 87.0154L24.8586 84.1076C24.8561 84.0509 24.8324 83.9971 24.7921 83.9571C24.7517 83.9171 24.6978 83.8937 24.641 83.8918C24.5842 83.8898 24.5288 83.9093 24.4857 83.9464C24.4427 83.9835 24.4153 84.0355 24.4089 84.092L23.6414 90.9033C23.6271 91.0252 23.5687 91.1378 23.4771 91.2196C23.3855 91.3014 23.2671 91.3469 23.1443 91.3474V91.3474Z" fill="white"/>
<path d="M39.0281 37.5637H39.0253L23.9792 37.4684C23.8698 37.4676 23.7645 37.4269 23.6829 37.354C23.6014 37.281 23.5493 37.1808 23.5364 37.0722L22.0229 24.2075C22.0136 24.1245 21.9748 24.0476 21.9133 23.991C21.8519 23.9345 21.7721 23.902 21.6887 23.8996C20.4942 23.8606 17.6523 23.5883 17.0634 21.9061C16.5389 20.408 17.9735 18.1983 21.3272 15.3381C21.3842 15.2893 21.4526 15.2556 21.526 15.24C21.5995 15.2244 21.6756 15.2275 21.7476 15.2489C21.8195 15.2704 21.8849 15.3095 21.9379 15.3628C21.9908 15.416 22.0295 15.4816 22.0506 15.5537L23.7915 21.5602C23.8128 21.6323 23.8566 21.6956 23.9165 21.741C23.9764 21.7863 24.0493 21.8113 24.1245 21.8121L38.3904 21.9079C38.4651 21.9086 38.5381 21.8853 38.5985 21.8412C38.6589 21.7972 38.7035 21.7348 38.7257 21.6634L40.6629 15.4997C40.6844 15.4309 40.7222 15.3683 40.7731 15.3172C40.8239 15.2661 40.8864 15.2281 40.9551 15.2063C41.0238 15.1845 41.0967 15.1795 41.1678 15.1919C41.2388 15.2043 41.3058 15.2336 41.363 15.2773C42.6849 16.2869 46.9432 19.753 46.2423 21.9697C45.8753 23.1307 44.2196 23.7778 41.3213 23.8932C41.238 23.8961 41.1586 23.9287 41.0975 23.9853C41.0363 24.0418 40.9975 24.1184 40.9881 24.2011L39.4738 37.1669C39.4612 37.2762 39.4088 37.3771 39.3266 37.4503C39.2444 37.5234 39.1382 37.5638 39.0281 37.5637V37.5637Z" fill="#96588A"/>
<path d="M104.962 34.3899C100.234 35.3001 95.7752 37.2747 91.9238 40.1641C91.7289 39.6457 91.3619 39.2098 90.8842 38.9295C90.558 38.7272 90.2019 38.5775 89.8291 38.4862C89.4899 38.3997 89.1641 38.6059 88.8649 38.9029C88.5206 39.2838 88.2318 39.7114 88.0071 40.173C82.8401 36.6264 75.0022 34.3633 75.0022 34.3633V33.654C75.0085 33.4868 75.0256 33.3202 75.0532 33.1552C75.0798 32.9646 75.113 32.7961 75.1552 32.59C75.8201 29.2074 78.449 21.4781 78.449 21.4781H81.4215L87.1847 22.6751L93.6683 22.2783L100.198 20.9195L101.045 20.7422C102.457 21.8505 104.06 29.6087 104.689 32.9114C104.769 33.3303 104.831 33.6761 104.878 33.931C104.933 34.2192 104.962 34.3899 104.962 34.3899Z" fill="white"/>
<path d="M87.2256 68.4405C87.2256 68.4405 85.8449 68.7857 83.7037 74.5853C81.5624 80.3849 80.8039 87.8782 80.8039 87.8782C80.8039 87.8782 79.5998 89.9171 84.7391 90.0536C84.7391 90.0536 84.3257 91.4001 87.2256 91.1934C90.1254 90.9867 89.7079 90.9887 89.7079 90.9887C89.7079 90.9887 91.5722 89.8148 92.401 90.0215C93.2298 90.2282 93.7476 90.2984 94.6446 91.057C95.5417 91.8155 98.4094 91.5065 98.4435 90.9205C98.4665 90.6327 98.4665 90.3434 98.4435 90.0556C98.4435 90.0556 102.828 90.3325 101.999 87.1558C101.171 83.979 100.48 78.7654 100.48 78.7654C100.48 78.7654 98.2368 68.581 95.6801 68.4425C93.1235 68.304 87.2256 68.4405 87.2256 68.4405Z" fill="white"/>
<path d="M105.223 108.994C106.782 108.994 108.046 107.73 108.046 106.171C108.046 104.611 106.782 103.347 105.223 103.347C103.664 103.347 102.4 104.611 102.4 106.171C102.4 107.73 103.664 108.994 105.223 108.994Z" fill="#96588A"/>
<path d="M106.395 105.934H105.436V104.974C105.436 104.944 105.43 104.915 105.418 104.887C105.407 104.86 105.39 104.835 105.369 104.814C105.348 104.793 105.323 104.776 105.296 104.765C105.269 104.754 105.239 104.748 105.21 104.748C105.15 104.748 105.092 104.772 105.05 104.814C105.008 104.856 104.984 104.914 104.984 104.974V105.934H104.024C103.964 105.934 103.906 105.957 103.864 106C103.822 106.042 103.798 106.1 103.798 106.159V106.159C103.798 106.189 103.804 106.218 103.815 106.246C103.827 106.273 103.843 106.298 103.864 106.319C103.885 106.34 103.91 106.357 103.937 106.368C103.965 106.379 103.994 106.385 104.024 106.385H104.984V107.345C104.984 107.375 104.99 107.404 105.001 107.432C105.012 107.459 105.029 107.484 105.05 107.505C105.071 107.526 105.096 107.543 105.123 107.554C105.151 107.565 105.18 107.571 105.21 107.571V107.571C105.27 107.571 105.327 107.547 105.369 107.505C105.412 107.463 105.436 107.405 105.436 107.345V106.385H106.395C106.455 106.385 106.513 106.362 106.555 106.319C106.598 106.277 106.621 106.219 106.621 106.159V106.159C106.621 106.13 106.616 106.1 106.604 106.073C106.593 106.046 106.576 106.021 106.555 106C106.534 105.979 106.509 105.962 106.482 105.951C106.455 105.939 106.425 105.934 106.395 105.934L106.395 105.934Z" fill="white"/>
<path d="M112.545 110.237H97.1783C96.5261 110.236 95.9008 109.977 95.4396 109.516C94.9784 109.055 94.719 108.429 94.7183 107.777V98.6043C94.7185 98.4843 94.7664 98.3693 94.8514 98.2845C94.9363 98.1997 95.0515 98.1521 95.1715 98.1521C95.2915 98.1521 95.4066 98.1997 95.4916 98.2845C95.5766 98.3693 95.6244 98.4843 95.6247 98.6043V101.061L113.474 102.683C113.831 102.69 114.171 102.836 114.421 103.09C114.671 103.344 114.811 103.686 114.811 104.043C114.811 104.071 114.809 104.099 114.804 104.127L113.904 108.924C113.892 109.276 113.743 109.61 113.49 109.855C113.236 110.1 112.898 110.237 112.545 110.237V110.237ZM95.6247 101.971V107.777C95.6252 108.189 95.7891 108.584 96.0803 108.875C96.3716 109.166 96.7665 109.33 97.1783 109.331H112.545C112.665 109.331 112.781 109.283 112.866 109.198C112.951 109.113 112.998 108.998 112.998 108.877C112.998 108.849 113.001 108.821 113.006 108.794L113.904 104.008C113.895 103.894 113.843 103.788 113.759 103.711C113.676 103.633 113.566 103.59 113.452 103.59C113.438 103.59 113.424 103.589 113.411 103.588L95.6247 101.971Z" fill="#3F3D56"/>
<path d="M93.0951 114.467C93.5123 114.467 93.8505 114.129 93.8505 113.712C93.8505 113.295 93.5123 112.956 93.0951 112.956C92.6779 112.956 92.3397 113.295 92.3397 113.712C92.3397 114.129 92.6779 114.467 93.0951 114.467Z" fill="#3F3D56"/>
<path d="M111.941 114.467C112.358 114.467 112.696 114.129 112.696 113.712C112.696 113.295 112.358 112.956 111.941 112.956C111.524 112.956 111.186 113.295 111.186 113.712C111.186 114.129 111.524 114.467 111.941 114.467Z" fill="#3F3D56"/>
<path d="M112.696 112.956H92.4907C92.3705 112.956 92.2552 112.909 92.1702 112.824C92.0852 112.739 92.0375 112.623 92.0375 112.503C92.0375 112.383 92.0852 112.268 92.1702 112.183C92.2552 112.098 92.3705 112.05 92.4907 112.05H112.696C112.816 112.05 112.932 112.098 113.017 112.183C113.102 112.268 113.15 112.383 113.15 112.503C113.15 112.623 113.102 112.739 113.017 112.824C112.932 112.909 112.816 112.956 112.696 112.956V112.956Z" fill="#3F3D56"/>
<path d="M96.3802 98.9065H92.4522C92.3322 98.9062 92.2172 98.8583 92.1324 98.7733C92.0476 98.6884 92 98.5733 92 98.4532C92 98.3332 92.0476 98.2181 92.1324 98.1331C92.2172 98.0481 92.3322 98.0003 92.4522 98H96.3802C96.5002 98.0003 96.6152 98.0481 96.7 98.1331C96.7848 98.2181 96.8324 98.3332 96.8324 98.4532C96.8324 98.5733 96.7848 98.6884 96.7 98.7733C96.6152 98.8583 96.5002 98.9062 96.3802 98.9065V98.9065Z" fill="#3F3D56"/>
<path d="M99.5313 112.726C99.4229 112.726 99.3182 112.687 99.2361 112.616L96.2571 110.056C96.2118 110.018 96.1746 109.97 96.1476 109.917C96.1206 109.864 96.1044 109.806 96.0998 109.747C96.0953 109.687 96.1025 109.627 96.121 109.571C96.1396 109.514 96.1691 109.462 96.208 109.417C96.2468 109.371 96.2942 109.334 96.3474 109.307C96.4006 109.28 96.4586 109.264 96.518 109.26C96.5774 109.255 96.6371 109.263 96.6937 109.281C96.7503 109.3 96.8027 109.33 96.8478 109.369L99.8268 111.929C99.8971 111.989 99.9471 112.069 99.9703 112.159C99.9934 112.249 99.9886 112.343 99.9564 112.43C99.9242 112.517 99.8662 112.592 99.7902 112.645C99.7142 112.697 99.6238 112.726 99.5313 112.726V112.726Z" fill="#3F3D56"/>
<path d="M100.159 109.959C100.1 109.959 100.041 109.947 99.9856 109.924C99.9306 109.901 99.8807 109.868 99.8386 109.826C99.7965 109.784 99.7631 109.734 99.7403 109.679C99.7175 109.624 99.7058 109.565 99.7058 109.506V102.23C99.7058 102.11 99.7536 101.995 99.8386 101.91C99.9236 101.825 100.039 101.777 100.159 101.777C100.279 101.777 100.395 101.825 100.48 101.91C100.565 101.995 100.612 102.11 100.612 102.23V109.506C100.612 109.565 100.601 109.624 100.578 109.679C100.555 109.734 100.522 109.784 100.48 109.826C100.437 109.868 100.388 109.901 100.333 109.924C100.278 109.947 100.219 109.959 100.159 109.959H100.159Z" fill="#3F3D56"/>
<path d="M109.733 109.959C109.673 109.959 109.615 109.947 109.56 109.924C109.505 109.901 109.455 109.868 109.413 109.826C109.37 109.784 109.337 109.734 109.314 109.679C109.292 109.624 109.28 109.565 109.28 109.506V102.834C109.28 102.714 109.328 102.599 109.413 102.515C109.498 102.43 109.613 102.382 109.733 102.382C109.853 102.382 109.968 102.43 110.053 102.515C110.138 102.599 110.186 102.714 110.186 102.834V109.506C110.186 109.565 110.175 109.624 110.152 109.679C110.129 109.734 110.096 109.784 110.054 109.826C110.011 109.868 109.961 109.901 109.906 109.924C109.852 109.947 109.793 109.959 109.733 109.959H109.733Z" fill="#3F3D56"/>
<path d="M51.7631 47.9681C54.6992 47.9681 57.0794 45.5878 57.0794 42.6517C57.0794 39.7155 54.6992 37.3353 51.7631 37.3353C48.8269 37.3353 46.4467 39.7155 46.4467 42.6517C46.4467 45.5878 48.8269 47.9681 51.7631 47.9681Z" fill="#96588A"/>
<path d="M53.9709 42.2052H52.1633V40.3976C52.1633 40.3418 52.1523 40.2865 52.1309 40.2349C52.1095 40.1833 52.0782 40.1364 52.0387 40.0969C51.9992 40.0574 51.9523 40.026 51.9007 40.0047C51.8491 39.9833 51.7938 39.9723 51.738 39.9723V39.9723C51.6821 39.9723 51.6268 39.9833 51.5752 40.0047C51.5236 40.026 51.4767 40.0574 51.4372 40.0969C51.3977 40.1364 51.3664 40.1833 51.345 40.2349C51.3236 40.2865 51.3126 40.3418 51.3126 40.3976V40.3976V42.2052H49.5051C49.4492 42.2052 49.3939 42.2162 49.3423 42.2376C49.2907 42.259 49.2438 42.2903 49.2043 42.3298C49.1648 42.3693 49.1335 42.4162 49.1121 42.4678C49.0907 42.5194 49.0797 42.5747 49.0797 42.6305V42.6305C49.0797 42.7433 49.1245 42.8515 49.2043 42.9313C49.2841 43.0111 49.3922 43.0559 49.505 43.0559H51.3126V44.8635C51.3126 44.9193 51.3236 44.9746 51.345 45.0262C51.3664 45.0778 51.3977 45.1247 51.4372 45.1642C51.4767 45.2037 51.5236 45.235 51.5752 45.2564C51.6268 45.2778 51.6821 45.2888 51.738 45.2888V45.2888C51.7938 45.2888 51.8491 45.2778 51.9007 45.2564C51.9523 45.235 51.9992 45.2037 52.0387 45.1642C52.0782 45.1247 52.1095 45.0778 52.1309 45.0262C52.1523 44.9746 52.1633 44.9193 52.1633 44.8635V43.0559H53.9709C54.0267 43.0559 54.082 43.0449 54.1336 43.0235C54.1852 43.0021 54.2321 42.9708 54.2716 42.9313C54.3111 42.8918 54.3425 42.8449 54.3638 42.7933C54.3852 42.7417 54.3962 42.6864 54.3962 42.6305V42.6305C54.3962 42.5177 54.3514 42.4095 54.2716 42.3298C54.1919 42.25 54.0837 42.2052 53.9709 42.2052V42.2052V42.2052Z" fill="white"/>
<path d="M30.4538 50.975C33.2942 50.975 35.5968 48.6724 35.5968 45.832C35.5968 42.9916 33.2942 40.689 30.4538 40.689C27.6134 40.689 25.3108 42.9916 25.3108 45.832C25.3108 48.6724 27.6134 50.975 30.4538 50.975Z" fill="#FFB8B8"/>
<path d="M28.597 76.2642C28.5322 76.2642 28.4671 76.2613 28.4018 76.2556C28.0783 76.2286 27.7642 76.1336 27.48 75.9767C27.1959 75.8199 26.9481 75.6047 26.7528 75.3454C26.5576 75.0861 26.4194 74.7885 26.3472 74.472C26.275 74.1556 26.2705 73.8274 26.334 73.5091C26.349 73.4352 26.3679 73.3621 26.3905 73.2901L18.7998 64.3126C18.5525 64.0178 18.4068 63.6511 18.3844 63.2669C18.362 62.8827 18.464 62.5016 18.6754 62.18L18.6891 62.1632L25.5216 55.4261C25.8947 55.0587 26.3984 54.8546 26.922 54.8585C27.4455 54.8623 27.9461 55.0739 28.3137 55.4468C28.6813 55.8196 28.8858 56.3231 28.8823 56.8467C28.8788 57.3702 28.6676 57.871 28.295 58.2389C28.2864 58.2473 28.2778 58.2557 28.2691 58.264L23.3205 62.9685L28.738 71.6634C28.8406 71.6688 28.9427 71.6813 29.0435 71.701C29.6039 71.8128 30.1027 72.1289 30.4431 72.5879C30.7835 73.0469 30.9412 73.616 30.8856 74.1847C30.8299 74.7534 30.5649 75.2812 30.142 75.6655C29.719 76.0497 29.1684 76.2631 28.597 76.2642Z" fill="#FFB8B8"/>
<path d="M38.9244 117.41H41.4917L42.7129 107.508L38.924 107.508L38.9244 117.41Z" fill="#FFB8B8"/>
<path d="M38.2695 116.572L43.3252 116.572H43.3254C43.7485 116.572 44.1674 116.655 44.5583 116.817C44.9492 116.979 45.3044 117.216 45.6036 117.515C45.9028 117.814 46.1401 118.17 46.302 118.561C46.4639 118.951 46.5473 119.37 46.5473 119.793V119.898L38.2697 119.899L38.2695 116.572Z" fill="#2F2E41"/>
<path d="M13.4082 113.861L15.614 115.174L21.7295 107.291L18.4738 105.353L13.4082 113.861Z" fill="#FFB8B8"/>
<path d="M13.2742 112.806L17.6182 115.392L17.6184 115.392C18.3526 115.829 18.883 116.54 19.0931 117.368C19.3031 118.197 19.1755 119.074 18.7384 119.809L18.7383 119.809L18.6848 119.899L11.5724 115.664L13.2742 112.806Z" fill="#2F2E41"/>
<path d="M42.0972 113.913H39.2226C38.9898 113.913 38.7652 113.827 38.5921 113.671C38.419 113.516 38.3098 113.301 38.2856 113.07L35.3875 85.828C35.3802 85.7594 35.3505 85.6952 35.3031 85.6451C35.2556 85.5951 35.193 85.5621 35.1249 85.5511C35.0568 85.5402 34.987 85.552 34.9263 85.5846C34.8656 85.6173 34.8173 85.669 34.7889 85.7319L29.5607 97.3087L20.3044 112.402C20.1846 112.596 19.9991 112.739 19.7819 112.807C19.5647 112.875 19.3303 112.863 19.1216 112.772L15.4238 111.145C15.3016 111.091 15.1922 111.012 15.1028 110.913C15.0135 110.813 14.9463 110.696 14.9057 110.569C14.8651 110.441 14.852 110.307 14.8673 110.174C14.8826 110.042 14.9259 109.914 14.9944 109.799L23.5035 95.5513L26.1131 83.5469C25.2923 78.341 28.8109 70.6013 28.8466 70.5236L28.8641 70.4857L38.5562 66.6975L38.6048 66.757C42.4271 79.3004 44.7563 92.7993 43.0365 113.049C43.0153 113.284 42.9073 113.503 42.7337 113.662C42.56 113.822 42.3331 113.911 42.0972 113.913V113.913Z" fill="#2F2E41"/>
<path d="M28.4736 71.7542L28.4285 71.6593C28.4069 71.6139 26.2518 67.0685 24.5905 62.2104C24.2712 61.271 24.1505 60.2755 24.236 59.2869C24.3216 58.2984 24.6114 57.3384 25.0873 56.4677C25.5694 55.5881 26.2289 54.8181 27.0241 54.2067C27.8193 53.5952 28.7328 53.1555 29.7068 52.9155V52.9155C31.3976 52.5103 33.1778 52.7259 34.7229 53.5232C36.2681 54.3204 37.4754 55.6463 38.125 57.2591C39.4427 60.5545 39.0228 64.0719 38.6275 66.838L38.6197 66.8934L38.5692 66.9175L28.4736 71.7542Z" fill="#96588A"/>
<path d="M36.6896 42.9268H28.5231V39.367C30.3155 38.6549 32.0695 38.0493 33.1298 39.367C34.0739 39.367 34.9794 39.7421 35.647 40.4097C36.3145 41.0773 36.6896 41.9827 36.6896 42.9268H36.6896Z" fill="#2F2E41"/>
<path d="M28.0709 38.7389C23.1888 38.7389 21.8223 44.8584 21.8223 48.3107C21.8223 50.236 22.693 50.9247 24.0612 51.1577L24.5444 48.5806L25.6762 51.2686C26.0605 51.2705 26.4643 51.263 26.8829 51.2553L27.2666 50.4651L28.1223 51.2411C31.5494 51.2462 34.3194 51.7458 34.3194 48.3107C34.3194 44.8584 33.121 38.7389 28.0709 38.7389Z" fill="#2F2E41"/>
<path d="M49.7714 45.5878C49.8025 45.6446 49.8311 45.7031 49.8574 45.7632C49.9888 46.06 50.056 46.3812 50.0546 46.7058C50.0532 47.0304 49.9832 47.351 49.8493 47.6467C49.7153 47.9423 49.5204 48.2063 49.2773 48.4214C49.0342 48.6365 48.7483 48.7977 48.4386 48.8947C48.3665 48.9169 48.2933 48.9354 48.2193 48.95L43.9801 59.9156C43.8399 60.274 43.588 60.5777 43.2616 60.7815C42.9352 60.9854 42.5518 61.0786 42.1682 61.0473L42.1469 61.0433L32.9588 58.2773C32.4572 58.1262 32.0362 57.7821 31.7883 57.3207C31.5405 56.8592 31.4861 56.3182 31.6371 55.8166C31.7881 55.315 32.1322 54.894 32.5937 54.6461C33.0552 54.3983 33.5962 54.3439 34.0978 54.4949C34.1092 54.4984 34.1206 54.5019 34.1321 54.5056L40.6331 56.5928L45.6662 47.6699C45.6218 47.5773 45.5838 47.4816 45.5528 47.3837C45.3823 46.8383 45.4205 46.249 45.6601 45.7302C45.8997 45.2115 46.3235 44.8003 46.8493 44.5765C47.3751 44.3526 47.9652 44.3322 48.5052 44.5191C49.0452 44.706 49.4965 45.0869 49.7714 45.5878L49.7714 45.5878Z" fill="#FFB8B8"/>
</svg>
