<svg xmlns="http://www.w3.org/2000/svg" viewBox="0 0 722 629" width="722" height="629">
	<style>
		tspan { white-space:pre }
		.shp0 { fill: #e6e6e6 } 
		.shp1 { fill: #96588a } 
		.shp2 { fill: #ffffff } 
		.shp3 { fill: #2f2e41 } 
		.shp4 { fill: #ffb8b8 } 
	</style>
	<path id="Layer" class="shp0" d="M325 628.51C214.95 628.51 126 624.04 126 618.51C126 612.98 214.95 608.51 325 608.51C435.05 608.51 524 612.98 524 618.51C524 624.04 435.05 628.51 325 628.51Z" />
	<path id="Layer" class="shp0" d="M98.75 197.51C44.14 197.51 0 153.36 0 98.75C0 44.14 44.14 0 98.75 0C153.36 0 197.51 44.14 197.51 98.75C197.51 153.36 153.36 197.51 98.75 197.51Z" />
	<path id="Layer" class="shp1" d="M98.75 181.05C53.24 181.05 16.46 144.26 16.46 98.75C16.46 53.24 53.24 16.46 98.75 16.46C144.26 16.46 181.05 53.24 181.05 98.75C181.05 144.26 144.26 181.05 98.75 181.05Z" />
	<path id="Layer" class="shp0" d="M361 197.51C306.39 197.51 262.25 153.36 262.25 98.75C262.25 44.14 306.39 0 361 0C415.61 0 459.75 44.14 459.75 98.75C459.75 153.36 415.61 197.51 361 197.51Z" />
	<path id="Layer" class="shp2" d="M361 181.05C315.49 181.05 278.71 144.26 278.71 98.75C278.71 53.24 315.49 16.46 361 16.46C406.51 16.46 443.29 53.24 443.29 98.75C443.29 144.26 406.51 181.05 361 181.05Z" />
	<path id="Layer" class="shp0" d="M623.25 197.51C568.64 197.51 524.49 153.36 524.49 98.75C524.49 44.14 568.64 0 623.25 0C677.86 0 722 44.14 722 98.75C722 153.36 677.86 197.51 623.25 197.51Z" />
	<path id="Layer" class="shp2" d="M623.25 181.05C577.74 181.05 540.95 144.26 540.95 98.75C540.95 53.24 577.74 16.46 623.25 16.46C668.76 16.46 705.54 53.24 705.54 98.75C705.54 144.26 668.76 181.05 623.25 181.05Z" />
	<path id="Layer" class="shp2" d="M91.12 132.57L67.15 101.74L81.09 90.9L92.44 105.49L130.79 65.01L143.61 77.16L91.12 132.57L91.12 132.57Z" />
	<path id="Layer" class="shp3" d="M273.74 118.89C267.26 103.23 266.21 88.44 275.35 75.31L275.35 75.31L275.35 75.31C275.51 70.9 276.56 66.56 278.43 62.56C280.3 58.56 282.95 54.98 286.23 52.03C289.51 49.07 293.35 46.8 297.52 45.36C301.7 43.92 306.12 43.33 310.52 43.63L316.48 44.03C319.55 44.23 322.56 44.85 325.45 45.89C328.34 46.93 331.07 48.36 333.56 50.16C336.05 51.95 338.27 54.08 340.17 56.5C342.07 58.91 343.62 61.57 344.77 64.41C355.89 91.98 356.24 128.62 353.47 167.89L271.94 167.89C276.78 149.53 279.27 132.29 273.74 118.89Z" />
	<path id="Layer" class="shp4" d="M168.46 166.95L146.92 157.27C144.77 156.31 142.86 154.89 141.3 153.12C139.75 151.36 138.6 149.27 137.92 147.02C137.24 144.77 137.06 142.39 137.38 140.06C137.7 137.73 138.52 135.49 139.78 133.51L139.78 133.51C141.17 131.31 143.07 129.47 145.31 128.15C147.55 126.83 150.07 126.06 152.67 125.91C155.27 125.75 157.87 126.22 160.25 127.26C162.63 128.31 164.73 129.91 166.38 131.93L176.33 144.15L222.73 185.3L253.58 164.72L267.56 188.42L217.52 218.64L168.46 166.95Z" />
	<path id="Layer" class="shp1" d="M265.31 195.39L248.3 162.85L314.53 133.34L315.1 139.57C315.37 142.42 315.26 145.3 314.78 148.12C314.3 150.94 313.45 153.69 312.27 156.3C311.08 158.91 309.55 161.35 307.73 163.56C305.92 165.77 303.82 167.74 301.49 169.41L265.31 195.39Z" />
	<path id="Layer" class="shp4" d="M351.14 131.4L283.59 187.3L279.7 181.87L298.34 148.48L306.88 144.6C308.93 135.93 303.7 124.3 296.79 111.99L329.4 107.33C330.97 117.91 338.14 125.97 351.14 131.4Z" />
	<path id="Layer" class="shp3" d="M432.66 517.29L421.4 533.98L331.73 483.13L344.15 421.79L432.66 517.29L432.66 517.29Z" />
	<path id="Layer" class="shp3" d="M314.26 596.88L296.01 588.72L291.35 375.2L273.88 259.12L341.82 246.31L355.8 276.59C390.14 323.7 340.07 468.03 314.26 596.88Z" />
	<path id="Layer" class="shp3" d="M315.73 593.97L319.47 602.12C320.17 603.65 320.51 605.33 320.45 607.01C320.4 608.7 319.95 610.34 319.14 611.82C318.33 613.3 317.19 614.57 315.81 615.53C314.42 616.5 312.83 617.12 311.17 617.36L261.67 624.43C260.46 624.6 259.23 624.56 258.04 624.29C256.85 624.03 255.72 623.56 254.69 622.89C253.67 622.23 252.78 621.39 252.05 620.41C251.33 619.43 250.78 618.33 250.45 617.15L250.45 617.15C250.14 616.07 250.01 614.95 250.07 613.83C250.13 612.7 250.37 611.6 250.79 610.56C251.21 609.51 251.8 608.55 252.54 607.7C253.28 606.85 254.15 606.13 255.12 605.56L296.7 584.75L315.73 593.97Z" />
	<path id="Layer" class="shp3" d="M430.35 514.14L439.29 513.48C440.97 513.36 442.66 513.63 444.21 514.27C445.77 514.91 447.16 515.91 448.26 517.18C449.36 518.46 450.16 519.97 450.57 521.6C450.99 523.24 451.02 524.94 450.66 526.59L439.96 575.43C439.7 576.62 439.23 577.76 438.57 578.78C437.9 579.81 437.06 580.7 436.08 581.43C435.1 582.16 434 582.7 432.83 583.04C431.66 583.37 430.44 583.5 429.22 583.4L429.22 583.4C428.1 583.31 427 583.04 425.97 582.59C424.94 582.14 423.99 581.53 423.16 580.77C422.33 580.01 421.63 579.12 421.1 578.13C420.56 577.15 420.19 576.08 420 574.97L415.05 528.73L430.35 514.14Z" />
	<path id="Layer" class="shp4" d="M308.43 122.86C291.26 122.86 277.38 108.98 277.38 91.8C277.38 74.63 291.26 60.74 308.43 60.74C325.61 60.74 339.49 74.63 339.49 91.8C339.49 108.98 325.61 122.86 308.43 122.86Z" />
	<path id="Layer" class="shp1" d="M340.27 250.97L272.72 264.95L271.16 219.91C261.38 209.56 284.2 168.08 292.13 148.48L302.22 145.38L285.14 176.43L344.93 127.52L356.57 130.62L359.68 187.3L340.27 250.97Z" />
	<path id="Layer" class="shp4" d="M344.93 278.15L330.28 296.67C328.82 298.52 326.98 300.03 324.88 301.1C322.79 302.18 320.49 302.79 318.14 302.89C315.79 303 313.44 302.6 311.26 301.72C309.07 300.84 307.11 299.5 305.49 297.79L305.49 297.79C303.7 295.9 302.38 293.62 301.65 291.12C300.91 288.62 300.78 285.99 301.27 283.43C301.75 280.87 302.84 278.47 304.44 276.41C306.03 274.36 308.1 272.71 310.46 271.61L324.74 264.95L375.98 230.01L363.56 195.07L389.96 187.3L407.04 243.21L344.93 278.15Z" />
	<path id="Layer" class="shp3" d="M347.64 161.68L291.37 161.68C293.49 151.05 299.16 141.4 314.66 134.48C325.96 112.88 330.79 93.28 314.66 80.19C296.23 75.94 289.09 68.24 291.37 57.64L324.36 52.2C351.48 76.36 351.79 117.6 347.64 161.68Z" />
	<path id="Layer" class="shp1" d="M396.17 191.19L360.45 199.73L348.03 128.29L354.21 129.26C357.04 129.7 359.8 130.51 362.42 131.67C365.04 132.82 367.5 134.31 369.74 136.1C371.97 137.89 373.97 139.96 375.67 142.27C377.37 144.57 378.76 147.09 379.82 149.75L396.17 191.19Z" />
</svg>