<svg width="837" height="545" viewBox="0 0 837 545" fill="none" xmlns="http://www.w3.org/2000/svg">
<g clip-path="url(#clip0_1_51)">
<path d="M129.309 377.027C133.274 396.797 150.7 409.983 150.7 409.983C150.7 409.983 161.698 391.117 157.734 371.348C153.769 351.578 136.343 338.391 136.343 338.391C136.343 338.391 125.345 357.258 129.309 377.027Z" fill="#96588A"/>
<path d="M43.6719 288.735C55.5721 305.129 53.3292 326.756 53.3292 326.756C53.3292 326.756 31.7924 321.802 19.8923 305.408C7.99219 289.014 10.235 267.388 10.235 267.388C10.235 267.388 31.7718 272.341 43.6719 288.735Z" fill="#96588A"/>
<path d="M35.2337 292.595C36.9442 312.765 52.655 327.891 52.655 327.891C52.655 327.891 65.5927 310.314 63.8822 290.143C62.1718 269.973 46.4609 254.847 46.4609 254.847C46.4609 254.847 33.5233 272.424 35.2337 292.595Z" fill="#3F3D56"/>
<path d="M52.0885 364.762C71.5955 359.321 91.2602 368.749 91.2602 368.749C91.2602 368.749 79.298 386.998 59.791 392.439C40.2841 397.879 20.6193 388.451 20.6193 388.451C20.6193 388.451 32.5816 370.202 52.0885 364.762Z" fill="#3F3D56"/>
<path d="M197.145 437.108C210.293 421.474 231.994 418.168 231.994 418.168C231.994 418.168 232.377 440.209 219.229 455.844C206.08 471.478 184.379 474.784 184.379 474.784C184.379 474.784 183.996 452.743 197.145 437.108Z" fill="#3F3D56"/>
<path d="M231.455 418.204C195.935 434.872 189.498 425.797 148.269 405.666C115.424 389.629 84.3443 362.492 53.2531 322.706L51.7836 323.853C83.0527 363.867 114.345 391.176 147.45 407.339C189.181 427.716 196.221 436.796 232.247 419.89C232.247 419.89 231.307 418.259 231.455 418.204Z" fill="#3F3D56"/>
<path d="M38.2698 236.498C39.9632 246.014 33.6221 255.1 24.1066 256.793C14.5911 258.487 5.50453 252.146 3.8112 242.63C2.11788 233.115 8.45899 224.028 17.9745 222.335C27.49 220.641 36.5765 226.983 38.2698 236.498Z" fill="#3F3D56"/>
<path d="M109.194 110.01C89.0357 110.434 73 124.768 73 124.768C73 124.768 89.6475 138.415 109.806 137.99C129.964 137.566 146 123.232 146 123.232C146 123.232 129.353 109.585 109.194 110.01Z" fill="#96588A"/>
<path d="M211.124 40.3007C192.899 48.8988 172 43.0683 172 43.0683C172 43.0683 180.65 23.2974 198.876 14.6993C217.101 6.10122 238 11.9316 238 11.9316C238 11.9316 229.349 31.7025 211.124 40.3007Z" fill="#96588A"/>
<path d="M208.803 32.1763C188.645 30.3901 171 42.7659 171 42.7659C171 42.7659 186.039 58.0375 206.197 59.8237C226.355 61.6099 244 49.2341 244 49.2341C244 49.2341 228.961 33.9625 208.803 32.1763Z" fill="#3F3D56"/>
<path d="M134.799 35.1328C136.738 55.2912 124.01 73 124.01 73C124.01 73 108.14 58.0256 106.201 37.8672C104.262 17.7088 116.99 0 116.99 0C116.99 0 132.86 14.9744 134.799 35.1328Z" fill="#3F3D56"/>
<path d="M40.3642 158.963C51.0719 176.36 47.3879 198 47.3879 198C47.3879 198 26.3434 191.434 15.6358 174.037C4.92814 156.64 8.6121 135 8.6121 135C8.6121 135 29.6566 141.566 40.3642 158.963Z" fill="#3F3D56"/>
<path d="M71.048 347L69.5045 345.956C74.9447 338.055 77.9151 328.713 78.0383 319.119C77.9951 305.083 71.1071 292.102 64.4455 279.548C63.209 277.217 61.9767 274.894 60.7911 272.573C55.8148 263.108 51.8491 253.144 48.9595 242.846C38.6267 204.416 48.7999 159.075 76.1721 121.56C97.8862 91.799 130.256 65.7749 175.129 42L176 43.6476C131.382 67.2868 99.2205 93.132 77.6764 122.659C50.6335 159.723 40.5708 204.472 50.7585 242.362C53.6143 252.533 57.5329 262.375 62.4492 271.725C63.631 274.037 64.8589 276.351 66.0908 278.673C72.8583 291.428 79.8564 304.616 79.901 319.113C79.7779 329.082 76.6963 338.788 71.048 347V347Z" fill="#3F3D56"/>
<path d="M667.813 377.027C663.849 396.797 646.423 409.983 646.423 409.983C646.423 409.983 635.424 391.117 639.389 371.348C643.353 351.578 660.779 338.391 660.779 338.391C660.779 338.391 671.778 357.258 667.813 377.027Z" fill="#96588A"/>
<path d="M753.451 288.735C741.55 305.129 743.793 326.756 743.793 326.756C743.793 326.756 765.33 321.802 777.23 305.408C789.13 289.014 786.887 267.388 786.887 267.388C786.887 267.388 765.351 272.341 753.451 288.735Z" fill="#96588A"/>
<path d="M761.889 292.595C760.178 312.765 744.467 327.891 744.467 327.891C744.467 327.891 731.53 310.314 733.24 290.143C734.951 269.973 750.662 254.847 750.662 254.847C750.662 254.847 763.599 272.424 761.889 292.595Z" fill="#3F3D56"/>
<path d="M745.034 364.762C725.527 359.321 705.862 368.749 705.862 368.749C705.862 368.749 717.824 386.998 737.331 392.439C756.838 397.879 776.503 388.451 776.503 388.451C776.503 388.451 764.541 370.202 745.034 364.762Z" fill="#3F3D56"/>
<path d="M599.978 437.108C586.829 421.474 565.129 418.168 565.129 418.168C565.129 418.168 564.745 440.209 577.894 455.844C591.042 471.478 612.743 474.784 612.743 474.784C612.743 474.784 613.126 452.743 599.978 437.108Z" fill="#3F3D56"/>
<path d="M565.667 418.204C601.187 434.872 607.625 425.797 648.853 405.666C681.699 389.629 712.778 362.492 743.869 322.706L745.339 323.853C714.07 363.867 682.777 391.176 649.672 407.339C607.942 427.716 600.902 436.796 564.875 419.89C564.875 419.89 565.816 418.259 565.667 418.204Z" fill="#3F3D56"/>
<path d="M758.853 236.498C757.159 246.013 763.5 255.1 773.016 256.793C782.531 258.487 791.618 252.146 793.311 242.63C795.005 233.115 788.663 224.028 779.148 222.335C769.633 220.641 760.546 226.983 758.853 236.498Z" fill="#3F3D56"/>
<path d="M686.806 110.01C706.964 110.434 723 124.768 723 124.768C723 124.768 706.353 138.415 686.194 137.99C666.036 137.566 650 123.232 650 123.232C650 123.232 666.647 109.585 686.806 110.01Z" fill="#96588A"/>
<path d="M584.876 40.3007C603.101 48.8988 624 43.0683 624 43.0683C624 43.0683 615.35 23.2974 597.124 14.6993C578.899 6.10122 558 11.9316 558 11.9316C558 11.9316 566.651 31.7025 584.876 40.3007Z" fill="#96588A"/>
<path d="M587.197 32.1763C607.355 30.3901 625 42.7659 625 42.7659C625 42.7659 609.961 58.0375 589.803 59.8237C569.645 61.6099 552 49.2341 552 49.2341C552 49.2341 567.039 33.9625 587.197 32.1763Z" fill="#3F3D56"/>
<path d="M661.201 35.1328C659.262 55.2912 671.99 73 671.99 73C671.99 73 687.86 58.0256 689.799 37.8672C691.738 17.7088 679.01 0 679.01 0C679.01 0 663.14 14.9744 661.201 35.1328Z" fill="#3F3D56"/>
<path d="M755.636 158.963C744.928 176.36 748.612 198 748.612 198C748.612 198 769.657 191.434 780.364 174.037C791.072 156.64 787.388 135 787.388 135C787.388 135 766.343 141.566 755.636 158.963Z" fill="#3F3D56"/>
<path d="M724.952 347L726.495 345.956C721.055 338.055 718.085 328.713 717.962 319.119C718.005 305.083 724.893 292.102 731.555 279.548C732.791 277.217 734.023 274.894 735.209 272.573C740.185 263.108 744.151 253.144 747.04 242.846C757.373 204.416 747.2 159.075 719.828 121.56C698.114 91.799 665.744 65.7749 620.871 42L620 43.6476C664.618 67.2868 696.78 93.132 718.324 122.659C745.367 159.723 755.429 204.472 745.241 242.362C742.386 252.533 738.467 262.375 733.551 271.725C732.369 274.037 731.141 276.351 729.909 278.673C723.142 291.428 716.144 304.616 716.099 319.113C716.222 329.082 719.304 338.788 724.952 347V347Z" fill="#3F3D56"/>
<path d="M326.977 150.212C326.07 150.209 325.188 149.916 324.458 149.378L318.388 144.968C317.885 144.6 317.277 144.402 316.653 144.402C316.03 144.402 315.422 144.6 314.919 144.968L308.849 149.378C308.117 149.91 307.235 150.196 306.33 150.196C305.426 150.196 304.544 149.91 303.812 149.378C303.08 148.847 302.535 148.097 302.255 147.236C301.976 146.376 301.975 145.449 302.255 144.588L304.573 137.453C304.767 136.86 304.768 136.221 304.575 135.628C304.383 135.035 304.007 134.518 303.501 134.152L297.432 129.742C296.7 129.211 296.155 128.461 295.875 127.6C295.595 126.739 295.595 125.812 295.875 124.952C296.155 124.091 296.7 123.341 297.432 122.809C298.164 122.278 299.045 121.991 299.95 121.991H307.453C308.076 121.992 308.684 121.795 309.189 121.429C309.693 121.062 310.068 120.545 310.26 119.952L312.578 112.817C312.858 111.956 313.403 111.206 314.135 110.674C314.867 110.142 315.748 109.855 316.653 109.855C317.558 109.855 318.44 110.142 319.172 110.674C319.904 111.206 320.449 111.956 320.729 112.817L323.047 119.952C323.239 120.545 323.614 121.062 324.118 121.429C324.623 121.795 325.23 121.992 325.854 121.991H333.357C334.262 121.991 335.143 122.278 335.875 122.809C336.607 123.341 337.152 124.091 337.432 124.952C337.711 125.812 337.711 126.739 337.432 127.6C337.152 128.461 336.607 129.211 335.875 129.742L329.805 134.152C329.3 134.518 328.924 135.035 328.732 135.628C328.539 136.221 328.539 136.86 328.733 137.453L331.052 144.588C331.342 145.448 331.347 146.378 331.066 147.241C330.786 148.104 330.235 148.853 329.495 149.378C328.765 149.916 327.883 150.208 326.977 150.212Z" fill="#96588A"/>
<path d="M416.229 138.606C414.687 138.6 413.187 138.103 411.947 137.188L401.628 129.691C400.772 129.066 399.739 128.729 398.679 128.729C397.619 128.729 396.586 129.066 395.73 129.691L385.412 137.188C384.167 138.092 382.668 138.579 381.13 138.58C379.592 138.58 378.093 138.093 376.849 137.189C375.604 136.285 374.678 135.01 374.202 133.547C373.727 132.084 373.727 130.508 374.202 129.045L378.143 116.915C378.473 115.907 378.474 114.821 378.146 113.813C377.819 112.804 377.18 111.926 376.321 111.304L366.002 103.808C364.758 102.904 363.832 101.629 363.356 100.166C362.881 98.7026 362.881 97.1267 363.357 95.6638C363.832 94.2009 364.758 92.926 366.003 92.0218C367.247 91.1177 368.746 90.6307 370.284 90.6306H383.038C384.098 90.6326 385.132 90.2979 385.989 89.6749C386.847 89.0519 387.484 88.1727 387.81 87.164L391.751 75.0339C392.227 73.5708 393.153 72.2957 394.397 71.3914C395.642 70.487 397.141 70 398.679 70C400.218 70 401.717 70.487 402.961 71.3914C404.206 72.2957 405.132 73.5708 405.607 75.0339L409.548 87.164C409.874 88.1727 410.512 89.0519 411.369 89.6749C412.227 90.298 413.26 90.6326 414.32 90.6306H427.075C428.613 90.6307 430.111 91.1177 431.356 92.0218C432.6 92.926 433.527 94.2009 434.002 95.6638C434.477 97.1267 434.477 98.7026 434.002 100.166C433.527 101.629 432.601 102.904 431.356 103.808L421.038 111.304C420.179 111.926 419.539 112.804 419.212 113.813C418.884 114.821 418.885 115.907 419.215 116.915L423.156 129.045C423.649 130.507 423.658 132.088 423.181 133.555C422.704 135.021 421.768 136.296 420.51 137.188C419.269 138.103 417.77 138.6 416.229 138.606V138.606Z" fill="#96588A"/>
<path d="M490.928 150.212C490.022 150.208 489.14 149.916 488.41 149.378L482.34 144.968C481.836 144.601 481.229 144.404 480.605 144.404C479.982 144.404 479.374 144.601 478.87 144.968L472.801 149.378C472.069 149.91 471.187 150.196 470.282 150.196C469.377 150.197 468.496 149.91 467.764 149.378C467.032 148.846 466.487 148.097 466.207 147.236C465.927 146.376 465.927 145.449 466.207 144.588L468.525 137.453C468.719 136.86 468.72 136.221 468.527 135.628C468.334 135.035 467.958 134.518 467.453 134.152L461.383 129.742C460.651 129.21 460.107 128.46 459.827 127.6C459.547 126.739 459.547 125.812 459.827 124.952C460.107 124.091 460.652 123.341 461.384 122.809C462.116 122.278 462.997 121.991 463.902 121.991H471.405C472.028 121.992 472.636 121.795 473.14 121.429C473.645 121.062 474.02 120.545 474.211 119.952L476.53 112.817C476.81 111.956 477.354 111.206 478.087 110.674C478.819 110.142 479.7 109.855 480.605 109.855C481.51 109.855 482.392 110.142 483.124 110.674C483.856 111.206 484.401 111.956 484.68 112.817L486.999 119.952C487.191 120.545 487.566 121.062 488.07 121.429C488.575 121.795 489.182 121.992 489.806 121.991H497.308C498.213 121.991 499.095 122.278 499.827 122.809C500.559 123.341 501.104 124.091 501.383 124.952C501.663 125.812 501.663 126.739 501.383 127.6C501.104 128.46 500.559 129.21 499.827 129.742L493.757 134.152C493.252 134.518 492.876 135.035 492.684 135.628C492.491 136.221 492.491 136.86 492.685 137.453L495.003 144.588C495.293 145.448 495.298 146.378 495.018 147.241C494.738 148.103 494.187 148.853 493.447 149.378C492.717 149.916 491.835 150.208 490.928 150.212V150.212Z" fill="#96588A"/>
<g clip-path="url(#clip1_1_51)">
<path fill-rule="evenodd" clip-rule="evenodd" d="M242.199 205.424H334.189C335.572 205.424 336.941 205.696 338.218 206.226C339.496 206.755 340.656 207.531 341.634 208.508C342.611 209.486 343.386 210.647 343.915 211.925C344.444 213.202 344.716 214.571 344.715 215.954V251.05C344.715 252.432 344.443 253.801 343.914 255.077C343.385 256.354 342.609 257.514 341.632 258.491C340.654 259.468 339.494 260.243 338.217 260.772C336.94 261.3 335.571 261.572 334.189 261.571H301.198L305.713 272.671L285.783 261.571H242.185C239.397 261.568 236.724 260.458 234.753 258.485C232.782 256.513 231.674 253.839 231.673 251.05V215.954C231.673 213.162 232.782 210.484 234.756 208.51C236.73 206.535 239.407 205.425 242.199 205.424V205.424Z" fill="#7D57A4"/>
<path d="M237.363 214.958C237.711 214.522 238.151 214.169 238.65 213.922C239.15 213.676 239.698 213.541 240.255 213.53C242.601 213.366 243.947 214.473 244.294 216.848C245.741 226.484 247.291 234.664 248.943 241.387L259.068 222.133C259.985 220.395 261.143 219.476 262.543 219.375C264.571 219.233 265.839 220.524 266.346 223.25C267.299 228.64 268.764 233.926 270.719 239.038C271.935 227.312 273.966 218.834 276.81 213.605C277.084 213.019 277.513 212.518 278.051 212.158C278.589 211.797 279.215 211.59 279.862 211.559C280.915 211.472 281.96 211.799 282.775 212.471C283.192 212.785 283.534 213.187 283.778 213.648C284.021 214.11 284.161 214.619 284.186 215.14C284.26 215.909 284.105 216.683 283.741 217.364C281.938 220.71 280.455 226.272 279.292 234.051C278.144 241.561 277.72 247.435 278.02 251.673C278.125 252.712 277.939 253.759 277.482 254.698C277.26 255.172 276.914 255.577 276.481 255.871C276.048 256.164 275.544 256.335 275.021 256.366C273.802 256.455 272.588 255.881 271.365 254.653C267.07 250.249 263.659 243.696 261.132 234.995C258.167 240.926 255.942 245.363 254.459 248.305C251.746 253.525 249.42 256.202 247.484 256.335C246.226 256.424 245.156 255.368 244.272 253.168C241.899 247.126 239.355 235.438 236.638 218.103C236.53 217.557 236.54 216.995 236.665 216.453C236.789 215.911 237.028 215.401 237.363 214.958V214.958Z" fill="white"/>
<path d="M336.663 222.218C335.9 220.84 334.842 219.648 333.566 218.725C332.289 217.802 330.825 217.172 329.278 216.879C328.453 216.705 327.612 216.616 326.769 216.612C322.344 216.612 318.729 218.915 315.923 223.521C313.534 227.438 312.29 231.946 312.333 236.534C312.333 240.093 313.074 243.143 314.557 245.685C315.32 247.064 316.377 248.258 317.655 249.18C318.932 250.103 320.398 250.733 321.946 251.023C322.769 251.202 323.609 251.293 324.451 251.295C328.921 251.295 332.534 248.992 335.293 244.386C337.682 240.441 338.926 235.909 338.887 231.298C338.887 227.739 338.146 224.712 336.663 222.218ZM330.835 235.035C330.203 238.06 329.032 240.339 327.321 241.872C325.965 243.091 324.722 243.588 323.592 243.363C322.463 243.137 321.556 242.141 320.874 240.373C320.352 239.032 320.076 237.608 320.06 236.169C320.056 235.03 320.169 233.894 320.398 232.779C320.839 230.806 321.667 228.939 322.836 227.289C324.373 225.032 325.977 224.085 327.65 224.447C328.78 224.675 329.684 225.669 330.363 227.427C330.884 228.767 331.159 230.19 331.173 231.627C331.179 232.771 331.066 233.914 330.835 235.035V235.035Z" fill="white"/>
<path d="M307.711 222.218C306.947 220.84 305.89 219.648 304.614 218.725C303.337 217.802 301.873 217.172 300.326 216.879C299.501 216.705 298.66 216.616 297.817 216.612C293.389 216.612 289.775 218.915 286.975 223.521C284.583 227.437 283.337 231.945 283.381 236.534C283.381 240.093 284.122 243.143 285.605 245.685C286.366 247.065 287.424 248.259 288.701 249.182C289.979 250.105 291.445 250.734 292.994 251.023C293.817 251.202 294.657 251.293 295.499 251.295C299.971 251.295 303.587 248.992 306.345 244.386C308.742 240.443 309.997 235.912 309.971 231.298C309.971 227.739 309.229 224.712 307.746 222.218H307.711ZM301.883 235.035C301.251 238.066 300.077 240.348 298.359 241.881C297.001 243.1 295.758 243.597 294.631 243.372C293.504 243.146 292.601 242.147 291.922 240.373C291.399 239.032 291.124 237.608 291.108 236.169C291.104 235.03 291.217 233.894 291.446 232.779C291.89 230.807 292.719 228.941 293.884 227.289C295.414 225.038 297.019 224.094 298.697 224.456C299.827 224.684 300.731 225.677 301.407 227.436C301.929 228.776 302.205 230.198 302.221 231.636C302.225 232.774 302.112 233.91 301.883 235.026V235.035Z" fill="white"/>
<path d="M356.402 221.822C353.326 224.88 351.788 228.755 351.788 233.446C351.788 238.509 353.313 242.597 356.362 245.712C359.411 248.826 363.398 250.377 368.324 250.365C369.956 250.325 371.576 250.072 373.142 249.613V242.153C371.779 242.584 370.363 242.822 368.934 242.86C366.487 242.86 364.53 242.038 363.062 240.395C361.593 238.752 360.861 236.52 360.864 233.7C360.864 231.081 361.592 228.922 363.048 227.223C363.713 226.411 364.553 225.761 365.506 225.32C366.458 224.879 367.498 224.66 368.547 224.678C370.102 224.689 371.648 224.914 373.142 225.345V217.849C371.494 217.43 369.798 217.225 368.097 217.24C363.385 217.24 359.486 218.767 356.402 221.822ZM388.468 217.24C384.206 217.24 380.877 218.657 378.481 221.493C376.084 224.328 374.898 228.281 374.922 233.353C374.922 238.852 376.108 243.057 378.481 245.97C380.853 248.882 384.303 250.34 388.828 250.343C393.203 250.343 396.572 248.885 398.936 245.97C401.3 243.054 402.489 238.964 402.504 233.7C402.504 228.424 401.303 224.364 398.9 221.519C396.498 218.675 393.021 217.249 388.468 217.24ZM392.129 241.263C391.748 241.885 391.208 242.394 390.564 242.738C389.921 243.082 389.197 243.248 388.468 243.22C387.778 243.241 387.096 243.068 386.499 242.723C385.902 242.377 385.413 241.871 385.087 241.263C384.313 239.964 383.926 237.364 383.926 233.464C383.926 227.393 385.458 224.358 388.522 224.358C391.784 224.358 393.415 227.429 393.415 233.571C393.406 237.385 392.978 239.949 392.129 241.263ZM425.357 218.129L423.702 225.194C423.272 227.003 422.87 228.857 422.496 230.755L421.571 235.649C420.681 230.764 419.476 224.929 417.954 218.143H407.211L403.176 249.595H411.223L413.412 227.921L418.906 249.595H424.658L429.899 227.917L432.172 249.546H440.585L436.314 218.129H425.357ZM463.847 218.129L462.192 225.194C461.762 227.003 461.36 228.857 460.987 230.755L460.061 235.649C459.172 230.764 457.965 224.929 456.44 218.143H445.701L441.653 249.564H449.7L451.885 227.89L457.383 249.564H463.131L468.389 227.917L470.663 249.546H479.075L474.813 218.129H463.847ZM489.966 237.126H497.528V230.586H489.966V224.803H498.658V218.129H481.469V249.582H498.716V242.851H489.966V237.126ZM522.65 232.165C523.803 230.334 524.221 228.135 523.82 226.009C523.419 223.882 522.229 221.986 520.488 220.701C518.172 218.987 515.013 218.129 511.013 218.129H501.11V249.582H509.611V235.239H509.749L516.618 249.564H525.595L518.807 235.382C520.392 234.737 521.737 233.612 522.65 232.165V232.165ZM509.611 231.658V224.189C511.625 224.236 513.068 224.574 513.94 225.203C514.812 225.832 515.248 226.87 515.248 228.317C515.248 230.482 513.369 231.596 509.611 231.658V231.658ZM528.999 221.822C525.914 224.88 524.372 228.755 524.372 233.446C524.372 238.509 525.899 242.59 528.954 245.689C532.009 248.789 535.997 250.34 540.917 250.343C542.554 250.312 544.179 250.066 545.753 249.613V242.153C544.39 242.584 542.973 242.822 541.544 242.86C539.094 242.86 537.135 242.038 535.667 240.395C534.199 238.752 533.462 236.52 533.456 233.7C533.456 231.081 534.186 228.922 535.645 227.223C536.31 226.411 537.15 225.761 538.103 225.32C539.055 224.879 540.095 224.66 541.144 224.678C542.703 224.688 544.254 224.913 545.753 225.345V217.849C544.1 217.429 542.4 217.224 540.694 217.24C535.982 217.24 532.083 218.767 528.999 221.822ZM556.581 242.851V237.126H564.144V230.586H556.581V224.803H565.274V218.129H548.079V249.582H565.327V242.851H556.581Z" fill="black"/>
</g>
<path d="M222.56 338C222.208 338 221.92 337.888 221.696 337.664C221.472 337.44 221.36 337.152 221.36 336.8V305.6C221.36 305.248 221.472 304.96 221.696 304.736C221.92 304.512 222.208 304.4 222.56 304.4H244.976C245.328 304.4 245.616 304.512 245.84 304.736C246.064 304.96 246.176 305.248 246.176 305.6V310.112C246.176 310.464 246.064 310.752 245.84 310.976C245.616 311.2 245.328 311.312 244.976 311.312H229.664V317.792H243.92C244.272 317.792 244.56 317.92 244.784 318.176C245.008 318.4 245.12 318.688 245.12 319.04V323.216C245.12 323.536 245.008 323.824 244.784 324.08C244.56 324.304 244.272 324.416 243.92 324.416H229.664V331.088H245.36C245.712 331.088 246 331.2 246.224 331.424C246.448 331.648 246.56 331.936 246.56 332.288V336.8C246.56 337.152 246.448 337.44 246.224 337.664C246 337.888 245.712 338 245.36 338H222.56ZM260.66 338.48C259.124 338.48 257.732 338.24 256.484 337.76C255.268 337.248 254.212 336.512 253.316 335.552C252.452 334.56 251.78 333.376 251.3 332C250.82 330.592 250.548 328.992 250.484 327.2C250.452 326.56 250.436 326 250.436 325.52C250.436 325.008 250.452 324.448 250.484 323.84C250.548 322.112 250.82 320.56 251.3 319.184C251.78 317.808 252.452 316.624 253.316 315.632C254.18 314.64 255.236 313.888 256.484 313.376C257.732 312.832 259.124 312.56 260.66 312.56C262.26 312.56 263.636 312.832 264.788 313.376C265.94 313.888 266.916 314.56 267.716 315.392V305.12C267.716 304.768 267.828 304.48 268.052 304.256C268.276 304.032 268.564 303.92 268.916 303.92H274.772C275.092 303.92 275.364 304.032 275.588 304.256C275.844 304.48 275.972 304.768 275.972 305.12V336.8C275.972 337.152 275.844 337.44 275.588 337.664C275.364 337.888 275.092 338 274.772 338H269.348C268.996 338 268.708 337.888 268.484 337.664C268.26 337.44 268.148 337.152 268.148 336.8V335.264C267.38 336.192 266.388 336.96 265.172 337.568C263.956 338.176 262.452 338.48 260.66 338.48ZM263.252 332.048C264.34 332.048 265.188 331.824 265.796 331.376C266.436 330.896 266.9 330.288 267.188 329.552C267.508 328.816 267.684 328.016 267.716 327.152C267.748 326.512 267.764 325.904 267.764 325.328C267.764 324.752 267.748 324.16 267.716 323.552C267.684 322.752 267.508 322.016 267.188 321.344C266.868 320.64 266.388 320.08 265.748 319.664C265.108 319.216 264.276 318.992 263.252 318.992C262.196 318.992 261.348 319.216 260.708 319.664C260.1 320.112 259.668 320.72 259.412 321.488C259.156 322.256 258.996 323.104 258.932 324.032C258.836 325.024 258.836 326.016 258.932 327.008C258.996 327.936 259.156 328.784 259.412 329.552C259.668 330.32 260.1 330.928 260.708 331.376C261.348 331.824 262.196 332.048 263.252 332.048ZM282.829 338C282.477 338 282.189 337.888 281.965 337.664C281.741 337.44 281.629 337.152 281.629 336.8V314.24C281.629 313.888 281.741 313.6 281.965 313.376C282.189 313.152 282.477 313.04 282.829 313.04H288.493C288.813 313.04 289.085 313.152 289.309 313.376C289.565 313.6 289.693 313.888 289.693 314.24V336.8C289.693 337.152 289.565 337.44 289.309 337.664C289.085 337.888 288.813 338 288.493 338H282.829ZM282.781 309.44C282.429 309.44 282.141 309.328 281.917 309.104C281.693 308.88 281.581 308.592 281.581 308.24V303.968C281.581 303.616 281.693 303.328 281.917 303.104C282.141 302.848 282.429 302.72 282.781 302.72H288.493C288.845 302.72 289.133 302.848 289.357 303.104C289.613 303.328 289.741 303.616 289.741 303.968V308.24C289.741 308.592 289.613 308.88 289.357 309.104C289.133 309.328 288.845 309.44 288.493 309.44H282.781ZM308.084 338C306.036 338 304.26 337.68 302.756 337.04C301.284 336.368 300.148 335.344 299.348 333.968C298.548 332.56 298.148 330.752 298.148 328.544V319.328H294.404C294.052 319.328 293.748 319.216 293.492 318.992C293.268 318.768 293.156 318.48 293.156 318.128V314.24C293.156 313.888 293.268 313.6 293.492 313.376C293.748 313.152 294.052 313.04 294.404 313.04H298.148V305.12C298.148 304.768 298.26 304.48 298.484 304.256C298.74 304.032 299.028 303.92 299.348 303.92H304.916C305.268 303.92 305.556 304.032 305.78 304.256C306.004 304.48 306.116 304.768 306.116 305.12V313.04H312.116C312.468 313.04 312.756 313.152 312.98 313.376C313.204 313.6 313.316 313.888 313.316 314.24V318.128C313.316 318.48 313.204 318.768 312.98 318.992C312.756 319.216 312.468 319.328 312.116 319.328H306.116V327.872C306.116 328.96 306.324 329.824 306.74 330.464C307.156 331.104 307.86 331.424 308.852 331.424H312.548C312.9 331.424 313.188 331.536 313.412 331.76C313.636 331.984 313.748 332.272 313.748 332.624V336.8C313.748 337.152 313.636 337.44 313.412 337.664C313.188 337.888 312.9 338 312.548 338H308.084ZM329.531 338.48C326.843 338.48 324.571 338.048 322.715 337.184C320.891 336.32 319.483 335.088 318.491 333.488C317.531 331.856 316.987 329.92 316.859 327.68C316.827 327.04 316.811 326.32 316.811 325.52C316.811 324.688 316.827 323.968 316.859 323.36C316.987 321.088 317.563 319.152 318.587 317.552C319.611 315.952 321.035 314.72 322.859 313.856C324.715 312.992 326.939 312.56 329.531 312.56C332.155 312.56 334.379 312.992 336.203 313.856C338.059 314.72 339.499 315.952 340.523 317.552C341.547 319.152 342.123 321.088 342.251 323.36C342.283 323.968 342.299 324.688 342.299 325.52C342.299 326.32 342.283 327.04 342.251 327.68C342.123 329.92 341.563 331.856 340.571 333.488C339.611 335.088 338.203 336.32 336.347 337.184C334.523 338.048 332.251 338.48 329.531 338.48ZM329.531 332.624C330.971 332.624 332.011 332.192 332.651 331.328C333.323 330.464 333.707 329.168 333.803 327.44C333.835 326.96 333.851 326.32 333.851 325.52C333.851 324.72 333.835 324.08 333.803 323.6C333.707 321.904 333.323 320.624 332.651 319.76C332.011 318.864 330.971 318.416 329.531 318.416C328.123 318.416 327.083 318.864 326.411 319.76C325.739 320.624 325.371 321.904 325.307 323.6C325.275 324.08 325.259 324.72 325.259 325.52C325.259 326.32 325.275 326.96 325.307 327.44C325.371 329.168 325.739 330.464 326.411 331.328C327.083 332.192 328.123 332.624 329.531 332.624ZM348.22 338C347.868 338 347.58 337.888 347.355 337.664C347.132 337.44 347.02 337.152 347.02 336.8V314.24C347.02 313.92 347.132 313.648 347.355 313.424C347.58 313.168 347.868 313.04 348.22 313.04H353.74C354.092 313.04 354.38 313.168 354.604 313.424C354.828 313.648 354.94 313.92 354.94 314.24V316.16C355.804 315.168 356.828 314.4 358.012 313.856C359.228 313.312 360.588 313.04 362.092 313.04H364.204C364.524 313.04 364.796 313.152 365.02 313.376C365.276 313.6 365.404 313.888 365.404 314.24V319.184C365.404 319.504 365.276 319.792 365.02 320.048C364.796 320.272 364.524 320.384 364.204 320.384H359.548C358.236 320.384 357.212 320.752 356.476 321.488C355.772 322.192 355.42 323.2 355.42 324.512V336.8C355.42 337.152 355.292 337.44 355.036 337.664C354.812 337.888 354.524 338 354.172 338H348.22ZM379.088 338.48C377.008 338.48 375.232 338.256 373.76 337.808C372.32 337.328 371.136 336.752 370.208 336.08C369.312 335.408 368.64 334.72 368.192 334.016C367.744 333.28 367.504 332.656 367.472 332.144C367.44 331.792 367.552 331.504 367.808 331.28C368.064 331.024 368.336 330.896 368.624 330.896H374.096C374.192 330.896 374.272 330.912 374.336 330.944C374.4 330.976 374.496 331.04 374.624 331.136C375.04 331.36 375.456 331.648 375.872 332C376.288 332.32 376.768 332.608 377.312 332.864C377.856 333.12 378.512 333.248 379.28 333.248C380.176 333.248 380.928 333.072 381.536 332.72C382.144 332.368 382.448 331.84 382.448 331.136C382.448 330.624 382.304 330.208 382.016 329.888C381.728 329.536 381.136 329.2 380.24 328.88C379.376 328.56 378.064 328.24 376.304 327.92C374.64 327.536 373.184 327.04 371.936 326.432C370.688 325.792 369.728 324.976 369.056 323.984C368.384 322.96 368.048 321.728 368.048 320.288C368.048 319.008 368.464 317.776 369.296 316.592C370.128 315.408 371.344 314.448 372.944 313.712C374.544 312.944 376.512 312.56 378.848 312.56C380.704 312.56 382.304 312.784 383.648 313.232C385.024 313.648 386.176 314.192 387.104 314.864C388.064 315.536 388.784 316.224 389.264 316.928C389.744 317.632 390 318.272 390.032 318.848C390.064 319.168 389.968 319.456 389.744 319.712C389.52 319.936 389.264 320.048 388.976 320.048H383.984C383.856 320.048 383.728 320.032 383.6 320C383.472 319.936 383.36 319.872 383.264 319.808C382.88 319.616 382.496 319.36 382.112 319.04C381.728 318.72 381.28 318.432 380.768 318.176C380.256 317.92 379.616 317.792 378.848 317.792C377.984 317.792 377.312 317.984 376.832 318.368C376.352 318.752 376.112 319.248 376.112 319.856C376.112 320.272 376.24 320.656 376.496 321.008C376.784 321.36 377.344 321.68 378.176 321.968C379.04 322.256 380.368 322.576 382.16 322.928C384.368 323.28 386.128 323.856 387.44 324.656C388.752 325.424 389.68 326.336 390.224 327.392C390.768 328.416 391.04 329.504 391.04 330.656C391.04 332.192 390.576 333.552 389.648 334.736C388.752 335.92 387.408 336.848 385.616 337.52C383.824 338.16 381.648 338.48 379.088 338.48ZM395.9 316.592C395.42 316.592 395.084 316.464 394.892 316.208C394.732 315.952 394.62 315.648 394.556 315.296L393.452 305.36C393.42 304.912 393.5 304.56 393.692 304.304C393.916 304.048 394.22 303.92 394.604 303.92H399.98C400.364 303.92 400.668 304.048 400.892 304.304C401.116 304.56 401.196 304.912 401.132 305.36L400.076 315.296C400.044 315.648 399.932 315.952 399.74 316.208C399.548 316.464 399.196 316.592 398.684 316.592H395.9ZM430.511 338.48C427.471 338.48 424.863 337.984 422.687 336.992C420.543 336 418.863 334.544 417.647 332.624C416.463 330.704 415.807 328.32 415.679 325.472C415.647 324.16 415.631 322.752 415.631 321.248C415.631 319.744 415.647 318.304 415.679 316.928C415.807 314.144 416.479 311.792 417.695 309.872C418.911 307.92 420.607 306.448 422.783 305.456C424.959 304.432 427.535 303.92 430.511 303.92C432.623 303.92 434.575 304.192 436.367 304.736C438.159 305.248 439.727 306.016 441.071 307.04C442.415 308.032 443.455 309.248 444.191 310.688C444.959 312.096 445.359 313.696 445.391 315.488C445.423 315.776 445.327 316.016 445.103 316.208C444.911 316.4 444.671 316.496 444.383 316.496H437.903C437.487 316.496 437.167 316.416 436.943 316.256C436.719 316.064 436.527 315.728 436.367 315.248C435.919 313.552 435.183 312.4 434.159 311.792C433.167 311.152 431.935 310.832 430.463 310.832C428.703 310.832 427.311 311.328 426.287 312.32C425.263 313.28 424.703 314.896 424.607 317.168C424.511 319.792 424.511 322.48 424.607 325.232C424.703 327.504 425.263 329.136 426.287 330.128C427.311 331.088 428.703 331.568 430.463 331.568C431.935 331.568 433.183 331.248 434.207 330.608C435.231 329.968 435.951 328.816 436.367 327.152C436.495 326.672 436.671 326.352 436.895 326.192C437.151 326 437.487 325.904 437.903 325.904H444.383C444.671 325.904 444.911 326 445.103 326.192C445.327 326.384 445.423 326.624 445.391 326.912C445.359 328.704 444.959 330.32 444.191 331.76C443.455 333.168 442.415 334.384 441.071 335.408C439.727 336.4 438.159 337.168 436.367 337.712C434.575 338.224 432.623 338.48 430.511 338.48ZM451.11 338C450.758 338 450.47 337.888 450.246 337.664C450.022 337.44 449.91 337.152 449.91 336.8V305.12C449.91 304.768 450.022 304.48 450.246 304.256C450.47 304.032 450.758 303.92 451.11 303.92H457.254C457.606 303.92 457.894 304.032 458.118 304.256C458.342 304.48 458.454 304.768 458.454 305.12V315.824C459.318 314.832 460.374 314.048 461.622 313.472C462.902 312.864 464.374 312.56 466.038 312.56C467.894 312.56 469.542 312.976 470.982 313.808C472.454 314.64 473.606 315.872 474.438 317.504C475.27 319.104 475.686 321.072 475.686 323.408V336.8C475.686 337.152 475.574 337.44 475.35 337.664C475.126 337.888 474.838 338 474.486 338H468.294C467.974 338 467.686 337.888 467.43 337.664C467.206 337.44 467.094 337.152 467.094 336.8V323.696C467.094 322.192 466.726 321.04 465.99 320.24C465.286 319.408 464.23 318.992 462.822 318.992C461.51 318.992 460.454 319.408 459.654 320.24C458.854 321.04 458.454 322.192 458.454 323.696V336.8C458.454 337.152 458.342 337.44 458.118 337.664C457.894 337.888 457.606 338 457.254 338H451.11ZM492.937 338.48C490.249 338.48 487.977 338.048 486.121 337.184C484.297 336.32 482.889 335.088 481.897 333.488C480.937 331.856 480.393 329.92 480.265 327.68C480.233 327.04 480.217 326.32 480.217 325.52C480.217 324.688 480.233 323.968 480.265 323.36C480.393 321.088 480.969 319.152 481.993 317.552C483.017 315.952 484.441 314.72 486.265 313.856C488.121 312.992 490.345 312.56 492.937 312.56C495.561 312.56 497.785 312.992 499.609 313.856C501.465 314.72 502.905 315.952 503.929 317.552C504.953 319.152 505.529 321.088 505.657 323.36C505.689 323.968 505.705 324.688 505.705 325.52C505.705 326.32 505.689 327.04 505.657 327.68C505.529 329.92 504.969 331.856 503.977 333.488C503.017 335.088 501.609 336.32 499.753 337.184C497.929 338.048 495.657 338.48 492.937 338.48ZM492.937 332.624C494.377 332.624 495.417 332.192 496.057 331.328C496.729 330.464 497.113 329.168 497.209 327.44C497.241 326.96 497.257 326.32 497.257 325.52C497.257 324.72 497.241 324.08 497.209 323.6C497.113 321.904 496.729 320.624 496.057 319.76C495.417 318.864 494.377 318.416 492.937 318.416C491.529 318.416 490.489 318.864 489.817 319.76C489.145 320.624 488.777 321.904 488.713 323.6C488.681 324.08 488.665 324.72 488.665 325.52C488.665 326.32 488.681 326.96 488.713 327.44C488.777 329.168 489.145 330.464 489.817 331.328C490.489 332.192 491.529 332.624 492.937 332.624ZM511.626 338C511.274 338 510.986 337.888 510.762 337.664C510.538 337.44 510.426 337.152 510.426 336.8V314.24C510.426 313.888 510.538 313.6 510.762 313.376C510.986 313.152 511.274 313.04 511.626 313.04H517.29C517.61 313.04 517.882 313.152 518.106 313.376C518.362 313.6 518.49 313.888 518.49 314.24V336.8C518.49 337.152 518.362 337.44 518.106 337.664C517.882 337.888 517.61 338 517.29 338H511.626ZM511.578 309.44C511.226 309.44 510.938 309.328 510.714 309.104C510.49 308.88 510.378 308.592 510.378 308.24V303.968C510.378 303.616 510.49 303.328 510.714 303.104C510.938 302.848 511.226 302.72 511.578 302.72H517.29C517.642 302.72 517.93 302.848 518.154 303.104C518.41 303.328 518.538 303.616 518.538 303.968V308.24C518.538 308.592 518.41 308.88 518.154 309.104C517.93 309.328 517.642 309.44 517.29 309.44H511.578ZM535.82 338.48C533.452 338.48 531.356 338.048 529.532 337.184C527.708 336.32 526.252 335.072 525.164 333.44C524.108 331.776 523.532 329.792 523.436 327.488C523.404 326.976 523.388 326.336 523.388 325.568C523.388 324.768 523.404 324.112 523.436 323.6C523.532 321.264 524.108 319.28 525.164 317.648C526.22 315.984 527.66 314.72 529.484 313.856C531.34 312.992 533.452 312.56 535.82 312.56C538.028 312.56 539.916 312.88 541.484 313.52C543.052 314.128 544.332 314.896 545.324 315.824C546.316 316.752 547.052 317.712 547.532 318.704C548.044 319.664 548.316 320.512 548.348 321.248C548.38 321.568 548.268 321.856 548.012 322.112C547.756 322.336 547.468 322.448 547.148 322.448H541.052C540.7 322.448 540.428 322.368 540.236 322.208C540.044 322.048 539.868 321.808 539.708 321.488C539.324 320.496 538.828 319.792 538.22 319.376C537.644 318.96 536.892 318.752 535.964 318.752C534.684 318.752 533.692 319.168 532.988 320C532.316 320.832 531.948 322.112 531.884 323.84C531.852 325.12 531.852 326.256 531.884 327.248C531.948 329.008 532.316 330.288 532.988 331.088C533.692 331.888 534.684 332.288 535.964 332.288C536.956 332.288 537.74 332.08 538.316 331.664C538.892 331.248 539.356 330.544 539.708 329.552C539.868 329.232 540.044 328.992 540.236 328.832C540.428 328.672 540.7 328.592 541.052 328.592H547.148C547.468 328.592 547.756 328.72 548.012 328.976C548.268 329.2 548.38 329.472 548.348 329.792C548.316 330.336 548.156 330.976 547.868 331.712C547.58 332.416 547.132 333.168 546.524 333.968C545.916 334.768 545.116 335.52 544.124 336.224C543.164 336.896 541.996 337.44 540.62 337.856C539.244 338.272 537.644 338.48 535.82 338.48ZM564.18 338.48C560.404 338.48 557.396 337.456 555.156 335.408C552.916 333.36 551.748 330.32 551.652 326.288C551.652 326.064 551.652 325.776 551.652 325.424C551.652 325.072 551.652 324.8 551.652 324.608C551.748 322.08 552.308 319.92 553.332 318.128C554.388 316.304 555.828 314.928 557.652 314C559.508 313.04 561.668 312.56 564.132 312.56C566.948 312.56 569.268 313.12 571.092 314.24C572.948 315.36 574.34 316.88 575.268 318.8C576.196 320.72 576.66 322.912 576.66 325.376V326.528C576.66 326.88 576.532 327.168 576.276 327.392C576.052 327.616 575.78 327.728 575.46 327.728H560.1C560.1 327.76 560.1 327.808 560.1 327.872C560.1 327.936 560.1 328 560.1 328.064C560.132 328.992 560.292 329.84 560.58 330.608C560.868 331.376 561.316 331.984 561.924 332.432C562.532 332.88 563.268 333.104 564.132 333.104C564.772 333.104 565.3 333.008 565.716 332.816C566.164 332.592 566.532 332.352 566.82 332.096C567.108 331.808 567.332 331.568 567.492 331.376C567.78 331.056 568.004 330.864 568.164 330.8C568.356 330.704 568.644 330.656 569.028 330.656H574.98C575.3 330.656 575.556 330.752 575.748 330.944C575.972 331.104 576.068 331.344 576.036 331.664C576.004 332.208 575.732 332.864 575.22 333.632C574.708 334.4 573.956 335.168 572.964 335.936C572.004 336.672 570.788 337.28 569.316 337.76C567.844 338.24 566.132 338.48 564.18 338.48ZM560.1 322.976H568.212V322.88C568.212 321.856 568.052 320.96 567.732 320.192C567.444 319.424 566.98 318.832 566.34 318.416C565.732 318 564.996 317.792 564.132 317.792C563.268 317.792 562.532 318 561.924 318.416C561.348 318.832 560.9 319.424 560.58 320.192C560.26 320.96 560.1 321.856 560.1 322.88V322.976Z" fill="#3F3D56"/>
<path d="M693.297 329.147C693.827 328.989 694.369 328.873 694.917 328.8L716.816 284.303L710.13 274.281L723.938 262.214L741.295 283.454L705.945 334.902C706.814 336.848 707.071 339.012 706.681 341.107C706.29 343.202 705.271 345.129 703.759 346.631C702.247 348.133 700.314 349.139 698.216 349.516C696.118 349.892 693.955 349.621 692.015 348.738C690.075 347.855 688.45 346.403 687.356 344.574C686.262 342.745 685.75 340.627 685.889 338.5C686.028 336.373 686.811 334.339 688.135 332.668C689.458 330.997 691.258 329.769 693.297 329.147V329.147Z" fill="#A0616A"/>
<path d="M730.679 268.361C730.381 268.676 730.038 268.945 729.663 269.162L707.257 282.151C706.719 282.463 706.121 282.66 705.503 282.73C704.884 282.799 704.258 282.74 703.663 282.555C703.069 282.37 702.52 282.064 702.05 281.655C701.58 281.247 701.2 280.746 700.933 280.183L690.036 257.161C689.572 256.192 689.473 255.088 689.755 254.052C690.037 253.016 690.682 252.115 691.573 251.516L705.462 242.067C706.33 241.478 707.375 241.21 708.419 241.309C709.463 241.408 710.44 241.869 711.18 242.611L730.594 262.093C731.419 262.922 731.89 264.04 731.906 265.21C731.922 266.38 731.482 267.51 730.679 268.361H730.679Z" fill="#CCCCCC"/>
<path d="M762.139 523.332L750.309 526.551L732.264 482.454L749.724 477.703L762.139 523.332Z" fill="#A0616A"/>
<path d="M740.94 525.47L763.754 519.263L767.662 533.628L730.483 543.743C729.97 541.857 729.833 539.888 730.081 537.949C730.329 536.009 730.956 534.138 731.927 532.441C732.898 530.744 734.194 529.255 735.74 528.059C737.286 526.863 739.053 525.984 740.94 525.47V525.47Z" fill="#2F2E41"/>
<path d="M661.008 532.359L648.749 532.358L642.916 485.07L661.01 485.071L661.008 532.359Z" fill="#A0616A"/>
<path d="M639.992 528.856H663.635V543.742H625.105C625.105 541.787 625.49 539.852 626.238 538.045C626.986 536.239 628.083 534.598 629.465 533.216C630.847 531.834 632.488 530.737 634.295 529.989C636.101 529.241 638.037 528.856 639.992 528.856Z" fill="#2F2E41"/>
<path d="M673.925 226.37C687.49 226.37 698.486 215.373 698.486 201.809C698.486 188.244 687.49 177.247 673.925 177.247C660.361 177.247 649.364 188.244 649.364 201.809C649.364 215.373 660.361 226.37 673.925 226.37Z" fill="#A0616A"/>
<path d="M660.258 498.643H643.504C642.359 498.641 641.257 498.204 640.422 497.42C639.588 496.636 639.082 495.563 639.009 494.421C634.016 415.059 636.937 358.131 648.198 315.267C648.248 315.08 648.308 314.895 648.381 314.715L649.278 312.472C649.609 311.635 650.185 310.918 650.931 310.413C651.676 309.909 652.556 309.64 653.456 309.643H687.908C688.557 309.643 689.199 309.783 689.789 310.054C690.379 310.325 690.903 310.721 691.325 311.215L696.004 316.674C696.096 316.781 696.181 316.889 696.263 317.004C717.364 346.429 736.275 403.958 758.176 481.282C758.499 482.406 758.371 483.611 757.818 484.642C757.265 485.672 756.332 486.446 755.217 486.799L737.212 492.56C736.179 492.886 735.063 492.829 734.067 492.401C733.071 491.973 732.262 491.202 731.787 490.228L685.065 393.321C684.738 392.644 684.202 392.09 683.536 391.741C682.87 391.392 682.109 391.267 681.366 391.384C680.623 391.502 679.938 391.855 679.412 392.392C678.886 392.93 678.546 393.622 678.444 394.367L664.716 494.753C664.566 495.829 664.032 496.815 663.213 497.53C662.394 498.244 661.345 498.64 660.258 498.643V498.643Z" fill="#2F2E41"/>
<path d="M694.116 317.074C694.069 317.074 694.022 317.073 693.974 317.072L652.126 315.751C651.05 315.72 650.021 315.305 649.226 314.579C648.432 313.853 647.924 312.865 647.797 311.796C642.492 268.855 657.041 257.351 663.543 254.399C664.086 254.154 664.557 253.772 664.91 253.292C665.262 252.811 665.484 252.248 665.555 251.656L666.118 247.155C666.214 246.36 666.521 245.605 667.007 244.969C677.2 231.764 691.12 227.536 698.509 226.191C699.109 226.083 699.724 226.098 700.317 226.236C700.91 226.373 701.47 226.629 701.961 226.99C702.452 227.35 702.865 227.806 703.174 228.33C703.484 228.855 703.683 229.437 703.761 230.041L704.603 236.503C704.689 237.12 704.935 237.703 705.317 238.195C726.576 265.987 702.892 307.022 697.929 314.965C697.523 315.61 696.961 316.142 696.294 316.511C695.627 316.88 694.878 317.073 694.116 317.074Z" fill="#CCCCCC"/>
<path d="M723.479 204.574C717.999 196.859 711.429 189.98 703.973 184.153C697.775 179.312 690.876 175.175 683.264 173.197C675.651 171.218 667.245 171.555 660.3 175.246C653.355 178.937 646.175 186.271 646.131 194.135C646.117 196.662 646.76 200.08 649.248 199.643L649.968 199.739C655.97 198.526 661.973 197.314 667.975 196.102C670.531 204.974 673.088 213.846 675.644 222.717C676.183 224.587 676.906 226.678 678.681 227.476C680.353 228.227 682.285 227.519 683.977 226.813C684.255 226.697 686.645 221.331 686.645 221.331C686.705 221.164 686.808 221.015 686.945 220.901C687.082 220.786 687.246 220.711 687.422 220.681C687.597 220.652 687.778 220.67 687.944 220.733C688.11 220.797 688.256 220.904 688.368 221.043L689.788 222.818C690.059 223.157 690.433 223.398 690.854 223.506C691.275 223.613 691.719 223.581 692.12 223.414C701.908 219.327 711.697 215.241 721.485 211.155C722.838 210.59 724.35 209.853 724.742 208.44C725.118 207.087 724.291 205.719 723.479 204.574Z" fill="#2F2E41"/>
<path d="M836 544.643H535C534.735 544.643 534.48 544.538 534.293 544.35C534.105 544.163 534 543.908 534 543.643C534 543.378 534.105 543.124 534.293 542.936C534.48 542.749 534.735 542.643 535 542.643H836C836.265 542.643 836.52 542.749 836.707 542.936C836.895 543.124 837 543.378 837 543.643C837 543.908 836.895 544.163 836.707 544.35C836.52 544.538 836.265 544.643 836 544.643Z" fill="#E6E6E6"/>
<path d="M672.817 388.807C672.137 388.805 671.475 388.585 670.928 388.182L666.376 384.875C665.998 384.599 665.543 384.45 665.075 384.45C664.607 384.45 664.152 384.599 663.774 384.875L659.222 388.182C658.673 388.581 658.012 388.795 657.333 388.795C656.655 388.795 655.994 388.581 655.445 388.182C654.896 387.783 654.487 387.221 654.277 386.575C654.067 385.93 654.067 385.235 654.277 384.589L656.016 379.238C656.161 378.794 656.162 378.315 656.017 377.87C655.873 377.425 655.59 377.038 655.212 376.764L650.66 373.456C650.111 373.057 649.702 372.495 649.492 371.849C649.283 371.204 649.283 370.509 649.492 369.864C649.702 369.218 650.111 368.656 650.66 368.257C651.209 367.858 651.87 367.643 652.548 367.643H658.175C658.643 367.644 659.098 367.496 659.477 367.222C659.855 366.947 660.136 366.559 660.28 366.114L662.019 360.763C662.228 360.117 662.637 359.555 663.186 359.156C663.735 358.757 664.396 358.542 665.075 358.542C665.753 358.542 666.415 358.757 666.964 359.156C667.513 359.555 667.921 360.117 668.131 360.763L669.87 366.114C670.013 366.559 670.295 366.947 670.673 367.222C671.051 367.496 671.507 367.644 671.975 367.643H677.601C678.28 367.643 678.941 367.858 679.49 368.257C680.039 368.656 680.448 369.218 680.657 369.864C680.867 370.509 680.867 371.204 680.657 371.849C680.448 372.495 680.039 373.057 679.49 373.456L674.938 376.763C674.559 377.038 674.277 377.425 674.133 377.87C673.988 378.315 673.989 378.794 674.134 379.238L675.873 384.589C676.09 385.234 676.094 385.932 675.884 386.579C675.673 387.226 675.26 387.788 674.705 388.182C674.158 388.585 673.497 388.804 672.817 388.807V388.807Z" fill="#96588A"/>
<path d="M690.212 378.109C691.498 377.207 692.571 376.035 693.354 374.674C694.138 373.313 694.613 371.796 694.747 370.231C694.881 368.667 694.671 367.091 694.13 365.617C693.59 364.142 692.732 362.804 691.619 361.697L699.392 267.825L676.248 271.009L675.808 362.214C674.071 364.208 673.127 366.77 673.153 369.414C673.179 372.058 674.174 374.6 675.95 376.56C677.725 378.519 680.158 379.759 682.787 380.045C685.415 380.33 688.057 379.642 690.212 378.109V378.109Z" fill="#A0616A"/>
<path d="M700.905 281.342C700.471 281.342 700.04 281.28 699.624 281.157L674.778 273.849C674.181 273.674 673.626 273.376 673.15 272.975C672.674 272.575 672.286 272.079 672.011 271.521C671.736 270.962 671.58 270.353 671.552 269.731C671.525 269.109 671.626 268.488 671.851 267.908L681.046 244.154C681.43 243.151 682.161 242.319 683.107 241.81C684.053 241.301 685.15 241.149 686.199 241.382L702.613 244.951C703.638 245.174 704.553 245.748 705.199 246.573C705.846 247.399 706.184 248.424 706.156 249.472L705.392 276.964C705.359 278.134 704.873 279.245 704.035 280.062C703.197 280.88 702.075 281.339 700.904 281.342H700.905Z" fill="#CCCCCC"/>
</g>
<defs>
<clipPath id="clip0_1_51">
<rect width="837" height="545" fill="white"/>
</clipPath>
<clipPath id="clip1_1_51">
<rect width="335" height="68" fill="white" transform="translate(231 205)"/>
</clipPath>
</defs>
</svg>
