<svg width="65" height="60" viewBox="0 0 65 60" fill="none" xmlns="http://www.w3.org/2000/svg">
<path d="M63.3566 23.1434C64.2642 12.1769 56.1099 2.551 45.1434 1.64339C34.1769 0.735773 24.551 8.89012 23.6434 19.8566C22.7358 30.8231 30.8901 40.449 41.8566 41.3566C52.8231 42.2642 62.449 34.1099 63.3566 23.1434Z" fill="#96588A"/>
<path d="M48.7341 13.1981L43.5003 18.4319L38.2665 13.1981C37.4193 12.3509 36.0456 12.3509 35.1984 13.1981C34.3512 14.0453 34.3512 15.419 35.1984 16.2662L40.4322 21.5L35.1984 26.7338C34.352 27.5818 34.3533 28.9554 35.2013 29.8019C36.0482 30.6472 37.4196 30.6472 38.2665 29.8019L43.5003 24.5681L48.7341 29.8019C49.5821 30.6483 50.9557 30.647 51.8022 29.799C52.6475 28.9521 52.6475 27.5807 51.8022 26.7338L46.5684 21.5L51.8022 16.2662C52.6494 15.419 52.6494 14.0453 51.8022 13.1981C50.955 12.3509 49.5813 12.3509 48.7341 13.1981V13.1981Z" fill="white"/>
<path d="M18.2857 58.6724L19.4386 58.6723L19.9872 54.225L18.2854 54.2251L18.2857 58.6724Z" fill="#A0616A"/>
<path d="M18.2451 59.8752L21.7906 59.875V59.8302C21.7905 59.0681 21.1727 58.4502 20.4106 58.4502H20.4105L19.7628 57.9589L18.5545 58.4503L18.245 58.4503L18.2451 59.8752V59.8752Z" fill="#2F2E41"/>
<path d="M9.0459 55.479L9.96808 56.1708L13.0758 52.9427L11.7146 51.9215L9.0459 55.479Z" fill="#A0616A"/>
<path d="M8.2915 56.4167L11.1277 58.5444L11.1546 58.5085C11.6119 57.8988 11.4885 57.0339 10.8789 56.5765L10.8788 56.5764L10.6556 55.7947L9.39415 55.4626L9.14657 55.2769L8.29151 56.4167H8.2915Z" fill="#2F2E41"/>
<path d="M12.8786 37.8025C12.8786 37.8025 12.9422 39.5387 13.0225 40.931C13.0357 41.1593 12.5007 41.4074 12.5145 41.6558C12.5237 41.8206 12.6243 41.9808 12.6336 42.1527C12.6435 42.334 12.5047 42.4946 12.5145 42.6821C12.5242 42.8654 12.6826 43.0755 12.6921 43.2631C12.795 45.2816 13.1677 47.698 12.7944 48.3735C12.6105 48.7065 10.2661 53.3185 10.2661 53.3185C10.2661 53.3185 11.5723 55.2779 11.9455 54.6248C12.4385 53.7621 16.2374 49.7264 16.2374 48.9557C16.2374 48.186 17.1163 42.4171 17.1163 42.4171L17.7292 45.8311L18.0102 46.5075L17.9219 46.9046L18.1035 47.4405L18.1133 47.9709L18.2901 48.9557C18.2901 48.9557 17.7583 56.6289 18.0578 56.8425C18.3582 57.0571 19.8128 57.4425 19.9844 57.0571C20.1552 56.6718 21.2665 49.049 21.2665 49.049C21.2665 49.049 21.4457 45.5558 21.6398 42.3089C21.6509 42.1204 21.7834 41.8928 21.7937 41.7071C21.8058 41.4916 21.7219 41.2117 21.7331 41.0027C21.7452 40.7629 21.8515 40.594 21.8618 40.3645C21.9411 38.5908 21.4959 36.431 21.3541 36.2183C20.9258 35.5763 20.5405 35.0632 20.5405 35.0632C20.5405 35.0632 14.7724 33.168 13.231 35.0937L12.8786 37.8025L12.8786 37.8025Z" fill="#2F2E41"/>
<path d="M18.6314 19.9492L16.3448 19.4919L15.2777 20.9401C13.2866 22.8979 13.2566 24.6258 13.6121 27.3954V31.2827L13.3548 33.8886C13.3548 33.8886 12.4441 35.7935 13.3834 36.237C14.3227 36.6805 20.4926 36.6427 21.0817 36.4657C21.6707 36.2886 21.1601 36.0713 21.0054 35.2462C20.7149 33.6963 20.9092 34.4439 20.9292 33.9504C21.2159 26.8716 20.5481 23.9655 20.4803 23.2017L19.3174 21.0925L18.6314 19.9492V19.9492Z" fill="#3F3D56"/>
<path d="M30.6833 25.6566C30.445 26.1082 29.8857 26.281 29.4342 26.0427C29.386 26.0173 29.3402 25.9877 29.2973 25.9542L24.3591 29.0897L24.3734 27.3826L29.1704 24.5988C29.5121 24.2157 30.0996 24.1821 30.4828 24.5238C30.8033 24.8097 30.8862 25.2781 30.6833 25.6566V25.6566Z" fill="#A0616A"/>
<path d="M16.826 21.9262L16.2638 21.8666C15.7443 21.8128 15.2346 22.0352 14.9209 22.4528C14.8008 22.6111 14.7145 22.7925 14.6674 22.9856L14.6671 22.9872C14.5261 23.5684 14.7473 24.1776 15.2284 24.533L17.1701 25.9646C18.5328 27.8059 21.0938 29.0274 24.0978 30.0199L28.7672 27.1199L27.1157 25.1196L23.9129 26.8361L19.1522 23.1508L19.1494 23.1486L17.3375 21.9812L16.826 21.9262L16.826 21.9262Z" fill="#3F3D56"/>
<path d="M17.8588 18.8263C19.3315 18.8263 20.5253 17.6325 20.5253 16.1598C20.5253 14.6872 19.3315 13.4933 17.8588 13.4933C16.3861 13.4933 15.1923 14.6872 15.1923 16.1598C15.1923 17.6325 16.3861 18.8263 17.8588 18.8263Z" fill="#A0616A"/>
<path d="M17.9204 18.8269C17.8989 18.8276 17.8773 18.8281 17.8558 18.8287C17.8466 18.8526 17.8367 18.8763 17.8252 18.8995L17.9204 18.8269V18.8269Z" fill="#2F2E41"/>
<path d="M18.6522 16.2338C18.6564 16.2601 18.6628 16.286 18.6713 16.3112C18.6678 16.2848 18.6614 16.2588 18.6522 16.2338Z" fill="#2F2E41"/>
<path d="M20.5593 13.6074C20.4495 13.9482 20.3516 13.5159 19.9905 13.5937C19.5562 13.6872 19.0507 13.6551 18.695 13.3888C18.1651 13 17.4783 12.8953 16.8565 13.1086C16.2479 13.3239 15.2282 13.4758 15.0697 14.1016C15.0145 14.3191 14.9926 14.5552 14.859 14.7355C14.7422 14.8931 14.5578 14.9829 14.4036 15.1043C13.883 15.5139 14.2809 16.6777 14.5273 17.2926C14.7738 17.9076 15.339 18.3555 15.9604 18.585C16.5617 18.807 17.2143 18.8462 17.8558 18.8287C17.9673 18.5394 17.9191 18.2052 17.8271 17.9052C17.7274 17.5805 17.5799 17.2671 17.5382 16.93C17.4966 16.5928 17.588 16.2099 17.8707 16.0216C18.1305 15.8484 18.5533 15.9539 18.6521 16.2338C18.5945 15.8839 18.949 15.5452 19.3145 15.4856C19.707 15.4217 20.0994 15.5634 20.4907 15.6339C20.8821 15.7044 20.7432 14.0569 20.5593 13.6074V13.6074Z" fill="#2F2E41"/>
<path d="M28.9212 19.4081C28.9511 19.9178 28.5622 20.3552 28.0525 20.3852C27.9982 20.3884 27.9437 20.3868 27.8896 20.3804L25.2888 25.6199L24.4169 24.1521L27.0791 19.2865C27.1731 18.7818 27.6583 18.4489 28.163 18.5428C28.5853 18.6214 28.8987 18.9791 28.9212 19.4081V19.4081Z" fill="#A0616A"/>
<path d="M15.1348 23.3926L14.623 23.6327C14.1507 23.8556 13.8299 24.3099 13.7778 24.8295C13.757 25.0272 13.7771 25.2271 13.8369 25.4166L13.8374 25.4181C14.0177 25.9884 14.5224 26.395 15.118 26.4499L17.5205 26.6691C19.6397 27.5386 22.4631 27.2575 25.547 26.5509L28.0398 21.652L25.5911 20.7961L23.7401 23.923L17.759 23.2356L17.7555 23.2351L15.6009 23.1747L15.1348 23.3926L15.1348 23.3926Z" fill="#3F3D56"/>
<path d="M42.1913 59.9581L5.16172 60C5.07212 59.9997 4.99971 59.9268 5 59.8372C5.00029 59.748 5.07252 59.6758 5.16172 59.6755L42.1913 59.6336C42.2809 59.6339 42.3533 59.7068 42.3531 59.7964C42.3528 59.8856 42.2805 59.9578 42.1913 59.9581Z" fill="#CACACA"/>
</svg>
