<svg width="39" height="38" viewBox="0 0 39 38" fill="none" xmlns="http://www.w3.org/2000/svg">
<g clip-path="url(#clip0_50_67)">
<path d="M19.5 38C19.5 38 33.75 24.4958 33.75 14.25C33.75 10.4707 32.2487 6.84612 29.5763 4.17373C26.9039 1.50133 23.2793 0 19.5 0C15.7207 0 12.0961 1.50133 9.42373 4.17373C6.75133 6.84612 5.25 10.4707 5.25 14.25C5.25 24.4958 19.5 38 19.5 38ZM19.5 21.375C17.6103 21.375 15.7981 20.6243 14.4619 19.2881C13.1257 17.9519 12.375 16.1397 12.375 14.25C12.375 12.3603 13.1257 10.5481 14.4619 9.21186C15.7981 7.87567 17.6103 7.125 19.5 7.125C21.3897 7.125 23.2019 7.87567 24.5381 9.21186C25.8743 10.5481 26.625 12.3603 26.625 14.25C26.625 16.1397 25.8743 17.9519 24.5381 19.2881C23.2019 20.6243 21.3897 21.375 19.5 21.375Z" fill="#333333"/>
</g>
<defs>
<clipPath id="clip0_50_67">
<rect width="38" height="38" fill="white" transform="translate(0.5)"/>
</clipPath>
</defs>
</svg>
