<svg width="25" height="24" viewBox="0 0 25 24" fill="none" xmlns="http://www.w3.org/2000/svg">
<path d="M23.4788 5.89954V17.514L20.4085 23.7085V23.7091L20.3112 23.9047L12.1827 23.3679L9.05799 23.1612L1.80585 22.6821V8.78925L9.05799 8.99377L12.3011 9.08543L20.5057 9.3172L23.4788 5.89954Z" fill="#D92026"/>
<path opacity="0.1" d="M23.4788 6.58484V17.514L22.7286 19.0273V19.0278L21.9594 20.5789V20.5794L20.4085 23.7086L20.5819 12.0941L20.6169 9.75128L22.0917 8.11968V8.11914L22.7347 7.40788L23.4788 6.58484Z" fill="black"/>
<path d="M23.8955 2.81552V6.87224L23.4787 7.53625L22.734 8.72271L22.0744 9.77363L20.6168 12.0959L20.5817 12.0942L1.1667 11.0956V7.09447L1.21569 7.04173L3.53358 4.5326L4.37259 3.62461L5.89026 1.98187L23.8955 2.81552Z" fill="#D92026"/>
<path opacity="0.2" d="M20.6168 8.09475V12.0959L1.1667 11.0956V7.09442L1.21569 7.04169L20.6168 8.09475Z" fill="black"/>
<path opacity="0.25" d="M23.8956 2.81549V6.87221L20.6168 12.0959V8.09476L23.8956 2.81549Z" fill="black"/>
<path d="M22.7364 4.68188L22.7347 7.40774L22.7341 8.7225L22.7286 19.0271V19.0277L21.9594 20.5787L22.0745 9.77341L22.0917 8.11954V8.119L22.1179 5.67778L3.53367 4.53238L4.37268 3.62439L22.7364 4.68188Z" fill="white"/>
<path d="M13.6149 4.8158L12.3127 7.64378L12.3011 9.08535L12.1827 23.3678L9.058 23.1611V7.4555L10.7252 4.8158H13.6149Z" fill="white"/>
<path d="M9.32645 5.00627C8.57409 5.25658 7.76558 5.28496 6.99753 5.08803C6.84796 5.05907 6.70773 4.99404 6.589 4.89858C6.46128 4.75747 6.37398 4.58452 6.33632 4.39795C6.20049 4.01243 6.12522 3.6082 6.11321 3.19963C6.12255 2.79169 6.27864 2.36595 6.61145 2.12986C6.67915 2.08895 6.74256 2.04133 6.80071 1.98771C6.87016 1.9001 6.92009 1.79867 6.94716 1.69021C7.17483 1.01108 7.61618 0.293949 8.32415 0.185238C8.97735 0.0849387 9.57181 0.541126 10.0751 0.969417L11.1797 1.90942C11.3022 1.57998 11.5216 1.29529 11.8088 1.09274C12.0961 0.890193 12.4379 0.779241 12.7894 0.774453C13.1408 0.769666 13.4855 0.871267 13.7782 1.06592C14.0709 1.26057 14.2979 1.53917 14.4294 1.86515C15.0987 1.11114 15.9423 0.532294 16.8867 0.179087C17.0959 0.101105 17.3417 0.0376131 17.5325 0.153736C17.6503 0.240705 17.7398 0.36066 17.7895 0.498441C18.0901 1.1566 18.2531 1.86927 18.2683 2.59269C18.3455 2.56626 18.4294 2.56636 18.5065 2.59298C18.5837 2.61959 18.6497 2.6712 18.6942 2.73961C18.7798 2.87902 18.8286 3.03787 18.836 3.20127C18.8654 3.45373 18.8802 3.70769 18.88 3.96186C18.8799 4.22989 18.855 4.51941 18.6804 4.7227C18.4546 4.98538 18.0649 5.01316 17.7186 5.0214C17.8854 5.16938 17.804 5.4674 17.6195 5.59265C17.4351 5.71791 17.1966 5.72021 16.9737 5.71804C16.1143 5.70967 15.2001 5.68524 14.4853 5.20817C14.203 5.0198 13.9666 4.76894 13.6836 4.58167C12.99 4.12267 12.1191 4.10073 11.3162 4.13871C10.5916 4.17299 10.0164 4.7752 9.32645 5.00627Z" fill="white"/>
<path d="M9.16902 4.8158C9.16902 4.8158 2.00029 5.81609 1 10.1507L2.50043 9.92838L3.55629 11.8178C3.55629 11.8178 4.66772 7.59437 7.94644 6.59409C11.2252 5.5938 12.3922 5.42709 12.3922 5.42709C12.3922 5.42709 14.6706 5.98281 16.7267 12.5958L17.8937 10.9842L19.9499 11.4288C19.9499 11.4288 18.4495 6.26066 14.3927 4.8158L9.16902 4.8158Z" fill="white"/>
</svg>
