<svg width="38" height="38" viewBox="0 0 38 38" fill="none" xmlns="http://www.w3.org/2000/svg">
<g clip-path="url(#clip0_50_63)">
<path d="M0 19C0 13.9609 2.00178 9.12816 5.56497 5.56497C9.12816 2.00178 13.9609 0 19 0C24.0391 0 28.8718 2.00178 32.435 5.56497C35.9982 9.12816 38 13.9609 38 19C38 24.0391 35.9982 28.8718 32.435 32.435C28.8718 35.9982 24.0391 38 19 38C13.9609 38 9.12816 35.9982 5.56497 32.435C2.00178 28.8718 0 24.0391 0 19V19ZM17.8125 2.55788C16.2212 3.04238 14.6419 4.50537 13.3309 6.9635C12.8989 7.78073 12.5274 8.6285 12.2194 9.5H17.8125V2.55788ZM9.71375 9.5C10.1096 8.23844 10.6183 7.01512 11.2338 5.84487C11.6444 5.06838 12.1187 4.32722 12.6516 3.629C9.70901 4.84934 7.17726 6.8866 5.35563 9.5H9.71375ZM8.3315 17.8125C8.40275 15.7296 8.65925 13.7323 9.0725 11.875H3.97575C3.09016 13.7395 2.56171 15.7534 2.41775 17.8125H8.3315ZM11.5116 11.875C11.0445 13.822 10.7755 15.8113 10.7089 17.8125H17.8125V11.875H11.5116ZM20.1875 11.875V17.8125H27.2887C27.2229 15.8114 26.9548 13.8221 26.4884 11.875H20.1875ZM10.7113 20.1875C10.7771 22.1886 11.0453 24.1779 11.5116 26.125H17.8125V20.1875H10.7113ZM20.1875 20.1875V26.125H26.4884C26.9325 24.3081 27.2151 22.306 27.2911 20.1875H20.1875ZM12.2194 28.5C12.5471 29.4168 12.92 30.267 13.3309 31.0365C14.6419 33.4946 16.2236 34.9553 17.8125 35.4421V28.5H12.2194ZM12.6516 34.371C12.1186 33.6728 11.6444 32.9316 11.2338 32.1551C10.6183 30.9849 10.1096 29.7616 9.71375 28.5H5.35563C7.17717 31.1135 9.70894 33.1508 12.6516 34.371V34.371ZM9.0725 26.125C8.64302 24.1729 8.39496 22.1853 8.3315 20.1875H2.41775C2.565 22.3012 3.10888 24.3034 3.97575 26.125H9.0725ZM25.3484 34.371C28.2911 33.1508 30.8228 31.1135 32.6444 28.5H28.2862C27.8904 29.7615 27.3816 30.9849 26.7663 32.1551C26.3557 32.9317 25.8815 33.6729 25.3484 34.371V34.371ZM20.1875 28.5V35.4421C21.7788 34.9576 23.3581 33.4946 24.6691 31.0365C25.08 30.267 25.4529 29.4168 25.7806 28.5H20.1875ZM28.9275 26.125H34.0243C34.8911 24.3034 35.435 22.3012 35.5823 20.1875H29.6685C29.6051 22.1853 29.357 24.1729 28.9275 26.125ZM35.5823 17.8125C35.4382 15.7534 34.9098 13.7395 34.0243 11.875H28.9275C29.3408 13.7323 29.5972 15.7296 29.6685 17.8125H35.5823ZM26.7663 5.84487C27.3529 6.94687 27.8635 8.17237 28.2862 9.5H32.6444C30.8228 6.88651 28.2911 4.84922 25.3484 3.629C25.8661 4.3035 26.3411 5.04925 26.7663 5.84487V5.84487ZM25.7806 9.5C25.4726 8.62848 25.1011 7.78071 24.6691 6.9635C23.3581 4.50537 21.7788 3.04475 20.1875 2.55788V9.5H25.7806Z" fill="#333333"/>
</g>
<defs>
<clipPath id="clip0_50_63">
<rect width="38" height="38" fill="white"/>
</clipPath>
</defs>
</svg>
