<svg xmlns="http://www.w3.org/2000/svg" viewBox="0 0 877 640" width="877" height="640">
	<style>
		tspan { white-space:pre }
		.shp0 { fill: #e6e6e6 } 
		.shp1 { fill: #ffffff } 
		.shp2 { fill: #96588a } 
		.shp3 { fill: #3f3d56 } 
		.shp4 { opacity: 0.102;fill: #000000 } 
		.shp5 { opacity: 0.051;fill: #000000 } 
		.shp6 { fill: #ffb8b8 } 
		.shp7 { fill: #2f2e41 } 
		.shp8 { fill: #575a89 } 
	</style>
	<path id="Layer" class="shp0" d="M0.28 0.37L645 0.37L645 413.28L0.28 413.28L0.28 0.37Z" />
	<path id="Layer" class="shp1" d="M18.71 52.15L626.56 52.15L626.56 388.85L18.71 388.85L18.71 52.15Z" />
	<path id="Layer" class="shp2" d="M0 0L644.72 0L644.72 27.39L0 27.39L0 0Z" />
	<path id="Layer" class="shp1" d="M20.35 19.08C17.55 19.08 15.28 16.81 15.28 14C15.28 11.2 17.55 8.93 20.35 8.93C23.16 8.93 25.43 11.2 25.43 14C25.43 16.81 23.16 19.08 20.35 19.08Z" />
	<path id="Layer" class="shp1" d="M39.62 19.08C36.82 19.08 34.55 16.81 34.55 14C34.55 11.2 36.82 8.93 39.62 8.93C42.43 8.93 44.7 11.2 44.7 14C44.7 16.81 42.43 19.08 39.62 19.08Z" />
	<path id="Layer" class="shp1" d="M58.89 19.08C56.09 19.08 53.82 16.81 53.82 14C53.82 11.2 56.09 8.93 58.89 8.93C61.7 8.93 63.97 11.2 63.97 14C63.97 16.81 61.7 19.08 58.89 19.08Z" />
	<path id="Layer" class="shp0" d="M93.5 79.85L212.39 79.85L212.39 208.83L93.5 208.83L93.5 79.85Z" />
	<path id="Layer" class="shp0" d="M263.19 79.85L382.08 79.85L382.08 208.83L263.19 208.83L263.19 79.85Z" />
	<path id="Layer" class="shp0" d="M432.88 79.85L551.77 79.85L551.77 208.83L432.88 208.83L432.88 79.85Z" />
	<path id="Layer" class="shp0" d="M93.5 232.18L212.39 232.18L212.39 361.16L93.5 361.16L93.5 232.18Z" />
	<path id="Layer" class="shp0" d="M263.19 232.18L382.08 232.18L382.08 361.16L263.19 361.16L263.19 232.18Z" />
	<path id="Layer" class="shp0" d="M432.88 232.18L551.77 232.18L551.77 361.16L432.88 361.16L432.88 232.18Z" />
	<path id="Layer" class="shp1" d="M291.93 265.33L313.65 256.74L316.18 299.68C316.18 299.68 320.72 312.81 319.21 317.86C319.21 317.86 320.22 326.45 317.69 326.95C315.17 327.46 308.09 328.47 307.59 327.97C307.08 327.46 307.08 325.94 307.08 325.94C307.08 325.94 302.03 329.48 301.53 333.52C301.53 333.52 280.31 340.09 279.8 334.03C279.3 327.97 290.41 322.91 290.41 322.91L299 309.78L291.93 265.33Z" />
	<path id="Layer" class="shp1" d="M337.9 265.33L359.62 256.74L362.15 299.68C362.15 299.68 366.69 312.81 365.18 317.86C365.18 317.86 366.19 326.45 363.66 326.95C361.13 327.46 354.06 328.47 353.56 327.97C353.05 327.46 353.05 325.94 353.05 325.94C353.05 325.94 348 329.48 347.5 333.52C347.5 333.52 326.28 340.09 325.77 334.03C325.27 327.97 336.38 322.91 336.38 322.91L344.97 309.78L337.9 265.33Z" />
	<path id="Layer" class="shp3" d="M340.02 99.51C340.02 99.51 335.4 112.43 340.76 118.26L336.29 133.61C336.29 133.61 352.16 181.24 347.63 187.89C347.63 187.89 330.69 196.35 296.83 184.86L310.59 131.5L308.62 108.97L311.34 98.39L317.39 97.78C317.39 97.78 313.76 111.39 320.41 113.51C327.07 115.62 333.56 98.12 333.56 98.12L340.02 99.51Z" />
	<path id="Layer" class="shp1" d="M126.42 182.94L132.26 185.33L160.12 148.72L168.87 191.7L174.71 190.64C178.45 153.58 181.51 115.79 177.76 97.91L156.14 96.98L146.32 128.29L141.54 149.51L126.42 182.94Z" />
	<path id="Layer" class="shp1" d="M480.68 97.61C480.68 97.61 472.71 108.69 473.1 113.16C473.49 117.62 478.54 190.48 478.54 190.48L490.39 191.06L486.9 138.61L489.81 124.42L497 190.48L511.57 190.87L498.55 105.19L496.03 97.61L480.68 97.61Z" />
	<path id="Layer" class="shp3" d="M525.7 276.02C523.59 273.48 519.95 272.11 516.46 271.37C516.56 271.05 505.84 268.83 505.66 269.29L501.62 266.07L489.2 272.52L482.23 267.77L478.99 268.92C479.12 268.35 468.92 270.11 468.92 270.11C466.98 270.18 464.49 270.3 461.71 270.52C451.96 271.27 451.21 296.52 451.21 296.52C452.33 296.06 453.46 295.65 454.62 295.3C455.78 294.94 456.95 294.64 458.13 294.39C459.31 294.15 460.51 293.95 461.71 293.81C462.91 293.67 464.11 293.59 465.32 293.56L467.96 323.76C481.51 322.6 495.72 323.95 510.45 327.26L517.36 303.52L533.45 297.27C533.45 297.27 530.7 282.02 525.7 276.02Z" />
	<path id="Layer" class="shp1" d="M180.44 261.64C178.7 259.55 175.7 258.42 172.83 257.81C172.91 257.54 164.08 255.72 163.93 256.1L160.6 253.44L150.37 258.75L144.62 254.84L141.95 255.79C142.06 255.32 133.66 256.77 133.66 256.77C132.06 256.83 130.01 256.93 127.71 257.11C119.68 257.73 119.06 278.53 119.06 278.53C119.98 278.15 120.92 277.82 121.87 277.52C122.83 277.23 123.79 276.98 124.77 276.78C125.74 276.58 126.72 276.42 127.71 276.3C128.7 276.19 129.7 276.12 130.69 276.09L132.86 337.01C144.03 336.05 155.74 337.16 167.88 339.89L173.57 284.3L186.83 279.15C186.83 279.15 184.56 266.58 180.44 261.64Z" />
	<path id="Layer" class="shp0" d="M613 612.62L532.58 629.08L530.75 628.89L460.07 621.76L460.07 532.2L546.59 517.57L609.35 524.89L609.37 525.28L609.37 525.47L613 612.62L613 612.62Z" />
	<path id="Layer" class="shp4" d="M613 612.62L532.58 629.08L530.75 628.89L530.75 537.08L609.37 525.28L613 612.62L613 612.62Z" />
	<path id="Layer" class="shp5" d="M609.37 525.47L609.35 525.5L530.75 537.08L460.07 532.2L546.59 517.57L609.35 524.89L609.37 525.28L609.37 525.47L609.37 525.47Z" />
	<path id="Layer" class="shp1" d="M469.8 563.45L518.7 566.64L517.2 589.6L468.3 586.4L469.8 563.45Z" />
	<path id="Layer" class="shp2" d="M480.79 571.69L506.73 573.38L506.21 581.36L480.27 579.67L480.79 571.69Z" />
	<path id="Layer" class="shp2" d="M722 612.62L641.58 629.08L639.75 628.89L569.07 621.76L569.07 532.2L655.59 517.57L718.35 524.89L718.37 525.28L718.37 525.47L722 612.62L722 612.62Z" />
	<path id="Layer" class="shp4" d="M722 612.62L641.58 629.08L639.75 628.89L639.75 537.08L718.37 525.28L722 612.62L722 612.62Z" />
	<path id="Layer" class="shp5" d="M718.37 525.47L718.35 525.5L639.75 537.08L569.07 532.2L655.59 517.57L718.35 524.89L718.37 525.28L718.37 525.47L718.37 525.47Z" />
	<path id="Layer" class="shp1" d="M578.8 563.45L627.7 566.64L626.2 589.6L577.3 586.4L578.8 563.45Z" />
	<path id="Layer" class="shp2" d="M589.79 571.69L615.73 573.38L615.21 581.36L589.27 579.67L589.79 571.69Z" />
	<path id="Layer" class="shp6" d="M780.19 165.62C780.19 165.62 794.38 202.28 768.37 202.28C742.36 202.28 808.57 238.93 834.59 217.65C860.6 196.37 845.23 195.18 845.23 195.18C845.23 195.18 810.94 198.73 812.12 167.99L780.19 165.62Z" />
	<path id="Layer" class="shp7" d="M798.68 176.65C775.55 176.65 756.86 157.96 756.86 134.84C756.86 111.71 775.55 93.02 798.68 93.02C821.81 93.02 840.5 111.71 840.5 134.84C840.5 157.96 821.81 176.65 798.68 176.65Z" />
	<path id="Layer" class="shp7" d="M773.1 318.16L728.17 434.04C728.17 434.04 705.7 469.51 713.98 504.99C722.25 540.46 745 605.02 745 605.02C745 605.02 762.18 609.4 761 594.02C759.82 578.65 761.74 504.13 744 484.02L815.67 402.11L818.03 495.53C818.03 495.53 813.3 538.1 814.49 557.02C815.67 575.94 818.03 607.86 818.03 607.86L832.22 605.5C832.22 605.5 851.36 518.4 849 490.02C849 490.02 892.93 352.13 848 319.02L773.1 318.16Z" />
	<path id="Layer" class="shp7" d="M749.94 604.83C749.94 604.83 744.15 603.36 743.49 608.67C742.82 613.97 730.65 637.57 743.36 638.75C756.06 639.93 760.46 628.05 762.58 619.69C764.71 611.33 765.52 610.85 767.3 609.25C769.07 607.65 773.3 598.88 768 598.21C762.69 597.55 759.97 592.33 759.97 592.33C759.97 592.33 758.3 606.96 749.94 604.83Z" />
	<path id="Layer" class="shp7" d="M827.3 600.73C827.3 600.73 816.57 599.2 817.33 603.03C818.1 606.86 815.8 622.95 817.33 624.49C818.87 626.02 821.93 629.09 821.93 631.38C821.93 633.68 822.7 641.35 835.73 639.05C848.76 636.75 845.69 625.25 844.92 623.72C844.16 622.19 834.96 614.52 835.73 609.93C836.49 605.33 831.9 597.66 827.3 600.73Z" />
	<path id="Layer" class="shp6" d="M799.2 181.24C783.18 181.24 770.23 168.29 770.23 152.28C770.23 136.26 783.18 123.31 799.2 123.31C815.21 123.31 828.16 136.26 828.16 152.28C828.16 168.29 815.21 181.24 799.2 181.24Z" />
	<path id="Layer" class="shp8" d="M826.9 192.23C826.9 192.23 837.01 212.22 806.55 212.78C797.19 212.96 786.06 206.13 781.46 197.98C778.75 193.17 778.07 199.81 773.69 199.32C765.4 198.4 756.54 201.84 748.62 206.05C748.11 206.32 747.65 206.68 747.26 207.1C746.88 207.53 746.56 208.02 746.34 208.55C746.12 209.08 745.99 209.65 745.97 210.22C745.94 210.79 746.01 211.37 746.17 211.92C752.18 231.86 769.35 327.8 772 333.02C778.77 346.36 852 324.02 852 324.02C853 287.73 839.83 236.95 863 200.02C860.46 198.12 857.72 196.49 854.83 195.17C851.94 193.84 848.91 192.84 845.81 192.17C842.7 191.5 839.53 191.16 836.35 191.17C833.17 191.18 830 191.54 826.9 192.23L826.9 192.23Z" />
	<path id="Layer" class="shp7" d="M826.28 130L805.06 118.89L775.75 123.43L769.69 150.21L784.78 149.63L789 139.79L789 149.47L795.97 149.2L800.01 133.54L802.53 150.21L827.29 149.71L826.28 130L826.28 130Z" />
	<path id="Layer" class="shp7" d="M800.88 104.02C791.55 104.02 784.01 96.48 784.01 87.15C784.01 77.81 791.55 70.27 800.88 70.27C810.21 70.27 817.75 77.81 817.75 87.15C817.75 96.48 810.21 104.02 800.88 104.02Z" />
	<path id="Layer" class="shp7" d="M779.6 82.01C779.6 80.01 779.96 78.03 780.65 76.15C781.35 74.28 782.37 72.54 783.67 71.02C784.97 69.51 786.53 68.23 788.28 67.26C790.03 66.29 791.93 65.63 793.91 65.33C789.05 64.59 784.1 66 780.37 69.21C776.63 72.41 774.48 77.09 774.48 82.01C774.48 86.93 776.63 91.61 780.37 94.81C784.1 98.02 789.05 99.44 793.91 98.69C791.93 98.39 790.03 97.73 788.28 96.76C786.53 95.79 784.97 94.52 783.67 93C782.37 91.48 781.35 89.74 780.65 87.87C779.96 85.99 779.6 84.01 779.6 82.01L779.6 82.01Z" />
	<path id="Layer" class="shp0" d="M877 483.62L796.58 500.08L794.75 499.89L724.07 492.76L724.07 403.2L810.59 388.57L873.35 395.89L873.37 396.29L873.37 396.47L877 483.62L877 483.62Z" />
	<path id="Layer" class="shp4" d="M877 483.62L796.58 500.08L794.75 499.89L794.75 408.08L873.37 396.29L877 483.62L877 483.62Z" />
	<path id="Layer" class="shp5" d="M873.37 396.47L873.35 396.5L794.75 408.08L724.07 403.2L810.59 388.57L873.35 395.89L873.37 396.29L873.37 396.47L873.37 396.47Z" />
	<path id="Layer" class="shp1" d="M733.8 434.45L782.7 437.64L781.2 460.6L732.3 457.4L733.8 434.45Z" />
	<path id="Layer" class="shp2" d="M744.79 442.69L770.73 444.38L770.21 452.36L744.27 450.67L744.79 442.69Z" />
	<path id="Layer" class="shp6" d="M751.72 380.19C751.72 380.19 722.16 403.84 735.17 412.12C748.17 420.4 763.55 380.19 763.55 380.19L751.72 380.19Z" />
	<path id="Layer" class="shp8" d="M753 205.02C751.47 203.3 732.13 213.16 735 226.02L736.35 315.16C736.35 315.16 729.25 388.47 746.99 388.47C764.73 388.47 762.64 390.94 765 385.02C767.36 379.11 768 329.02 768 329.02L753 205.02Z" />
	<path id="Layer" class="shp6" d="M844.45 372.19C844.45 372.19 859.83 412.4 872.83 404.12C885.84 395.84 856.28 372.19 856.28 372.19L844.45 372.19Z" />
	<path id="Layer" class="shp8" d="M848 322.02C848 322.02 840.63 371.11 843 377.02C845.37 382.94 843.27 380.47 861.01 380.47C878.75 380.47 871.65 307.16 871.65 307.16L873 218.02C875.87 205.16 856.53 195.3 855 197.02L838 255.02L848 322.02Z" />
</svg>