<svg width="90" height="90" viewBox="0 0 90 90" fill="none" xmlns="http://www.w3.org/2000/svg">
<g clip-path="url(#clip0_52_72)">
<path d="M45 84.375C34.5571 84.375 24.5419 80.2266 17.1577 72.8423C9.77343 65.4581 5.625 55.4429 5.625 45C5.625 34.5571 9.77343 24.5419 17.1577 17.1577C24.5419 9.77343 34.5571 5.625 45 5.625C55.4429 5.625 65.4581 9.77343 72.8423 17.1577C80.2266 24.5419 84.375 34.5571 84.375 45C84.375 55.4429 80.2266 65.4581 72.8423 72.8423C65.4581 80.2266 55.4429 84.375 45 84.375ZM45 90C56.9347 90 68.3807 85.2589 76.8198 76.8198C85.2589 68.3807 90 56.9347 90 45C90 33.0653 85.2589 21.6193 76.8198 13.1802C68.3807 4.74106 56.9347 0 45 0C33.0653 0 21.6193 4.74106 13.1802 13.1802C4.74106 21.6193 0 33.0653 0 45C0 56.9347 4.74106 68.3807 13.1802 76.8198C21.6193 85.2589 33.0653 90 45 90V90Z" fill="#96588A"/>
<path d="M50.231 37.0575L37.3497 38.6719L36.8885 40.8094L39.4197 41.2762C41.0735 41.67 41.3997 42.2663 41.0397 43.9144L36.8885 63.4219C35.7972 68.4675 37.4791 70.8412 41.4335 70.8412C44.4991 70.8412 48.0597 69.4238 49.6741 67.4775L50.1691 65.1375C49.0441 66.1275 47.4016 66.5213 46.3104 66.5213C44.7635 66.5213 44.201 65.4356 44.6004 63.5231L50.231 37.0575ZM50.6247 25.3125C50.6247 26.8043 50.0321 28.2351 48.9772 29.29C47.9223 30.3449 46.4916 30.9375 44.9997 30.9375C43.5079 30.9375 42.0771 30.3449 41.0223 29.29C39.9674 28.2351 39.3747 26.8043 39.3747 25.3125C39.3747 23.8207 39.9674 22.3899 41.0223 21.335C42.0771 20.2801 43.5079 19.6875 44.9997 19.6875C46.4916 19.6875 47.9223 20.2801 48.9772 21.335C50.0321 22.3899 50.6247 23.8207 50.6247 25.3125Z" fill="#96588A"/>
</g>
<defs>
<clipPath id="clip0_52_72">
<rect width="90" height="90" fill="white"/>
</clipPath>
</defs>
</svg>
