<svg width="60" height="61" viewBox="0 0 60 61" fill="none" xmlns="http://www.w3.org/2000/svg">
<path d="M4.04512 56.9375C3.7597 56.9375 3.47369 56.951 3.19438 56.9784L3.15373 56.9823C1.30106 57.1708 -0.0540745 58.2647 0.00165829 59.5267L0.0124323 59.7549C0.0195384 59.8992 0.0271084 60.0543 0.0333391 60.2263C0.0367137 60.3112 0.137293 60.3763 0.262446 60.3763H45.8335C49.0465 60.3539 52.2478 60.3256 55.3481 60.2923C55.9299 60.2937 56.5113 60.259 57.0888 60.1885C57.9504 60.0711 58.5484 59.8384 58.9171 59.4771H58.9173C59.3758 59.0291 59.3903 58.4649 59.3625 57.8275C59.3061 56.5404 59.25 55.1883 59.1941 53.8402C59.1447 52.6522 59.0956 51.4673 59.0464 50.3329C59.016 49.6597 58.9485 49.0655 58.4277 48.6114C57.8633 48.1202 56.8339 47.8713 55.368 47.8713C55.3503 47.8713 55.3327 47.8713 55.3148 47.8714C50.721 47.8902 46.1692 49.7086 43.9884 52.3963C43.7373 52.7058 43.5033 53.0371 43.277 53.3576C42.9462 53.8496 42.5811 54.3176 42.1843 54.7582C41.964 54.9957 41.7224 55.2125 41.4625 55.4059C41.4448 55.42 41.4246 55.4351 41.4031 55.4494C41.3541 55.4862 41.3028 55.5217 41.2529 55.5533C40.9639 55.7459 40.6553 55.9074 40.3324 56.0351L40.3001 56.0475C40.2758 56.0575 40.2495 56.0675 40.2232 56.0766C40.037 56.1453 39.8472 56.2037 39.6546 56.2516C38.8234 56.4625 37.8781 56.5131 36.8452 56.4017C35.8913 56.2955 34.9535 56.0755 34.0519 55.7464C33.0954 55.3984 32.2002 54.9646 31.3344 54.545C30.9541 54.3607 30.5608 54.1701 30.168 53.9895C30.0941 53.9555 30.0215 53.9223 29.9478 53.8891C29.468 53.6738 29.033 53.4961 28.618 53.3456C27.5986 52.9732 26.5319 52.7458 25.4492 52.6699C24.3067 52.5979 23.2999 52.7337 22.4574 53.0727C22.2234 53.1666 21.9971 53.2789 21.7807 53.4083C20.7828 54.0049 20.1676 54.8853 19.5728 55.7367C18.8328 56.7958 18.0677 57.891 16.5567 58.4587C14.8133 59.1144 12.2684 58.842 10.4679 58.3683C9.90182 58.2193 9.33645 58.0479 8.78965 57.8821C8.56881 57.8152 8.34782 57.7486 8.12667 57.6826C7.6921 57.5534 7.33644 57.4545 7.0074 57.3709L6.90333 57.3443C6.84544 57.3298 6.78749 57.3153 6.7285 57.3016C6.33766 57.2071 5.97373 57.1328 5.61534 57.0743L5.53054 57.06C5.36055 57.0343 5.20161 57.0128 5.04566 56.9948L4.9834 56.9876C4.67178 56.954 4.35856 56.9372 4.04512 56.9375V56.9375Z" fill="#F2F2F2"/>
<path d="M52.6031 47.4924C52.4881 47.9238 52.186 48.283 51.8213 48.5446C51.7618 48.5875 51.7008 48.6271 51.6389 48.6644C51.6199 48.6755 51.6009 48.6874 51.581 48.6977C51.5596 48.7104 51.5382 48.7223 51.5168 48.7333H49.8018C49.7708 48.6707 49.7407 48.6073 49.7106 48.5446C48.9755 47 48.4594 45.3333 48.5474 43.6357C48.5823 42.9773 48.7206 42.3284 48.9573 41.7129C49.4283 40.4863 50.2878 39.4246 51.47 38.8902C51.4994 38.8767 51.5303 38.8632 51.5604 38.8505C51.5509 38.8846 51.5414 38.9179 51.5319 38.952C51.405 39.4089 51.3154 39.8754 51.2639 40.3467C51.2591 40.3832 51.2552 40.4197 51.252 40.457C51.1393 41.5938 51.2394 42.7417 51.5469 43.8419C51.5477 43.8443 51.5485 43.8474 51.5493 43.8498C51.6167 44.0932 51.695 44.333 51.784 44.569C51.8538 44.7553 51.9291 44.9393 52.0116 45.1201C52.3557 45.8789 52.8172 46.6876 52.6031 47.4924Z" fill="#E6E6E6"/>
<path d="M51.582 38.8862C51.5654 38.9084 51.5487 38.9298 51.5321 38.952C51.1838 39.4135 50.8881 39.9124 50.6504 40.4395C50.6377 40.4657 50.6258 40.4918 50.6155 40.5188C50.2898 41.2548 50.0806 42.0369 49.9954 42.8373C49.9945 42.8428 49.994 42.8483 49.9939 42.8539C49.974 43.041 49.9621 43.2297 49.9574 43.4185C49.9397 43.7722 49.978 44.1265 50.0708 44.4683C50.1553 44.7474 50.3035 45.0031 50.5037 45.2152C50.5235 45.2366 50.5433 45.258 50.5647 45.2786C50.5806 45.2953 50.5981 45.3119 50.6147 45.3278C50.7749 45.4808 50.9501 45.6227 51.1008 45.7869C51.1698 45.8605 51.2322 45.9401 51.2871 46.0248C51.3747 46.1667 51.4314 46.3255 51.4532 46.4909C51.4751 46.6562 51.4617 46.8244 51.414 46.9842C51.3061 47.3854 51.0595 47.724 50.8074 48.0467C50.6813 48.2084 50.5513 48.3718 50.4387 48.5446C50.3974 48.6065 50.3594 48.6691 50.3245 48.7333H50.2246C50.2579 48.6691 50.2944 48.6065 50.334 48.5446C50.6234 48.0887 51.0349 47.697 51.2482 47.1951C51.3925 46.8565 51.4362 46.4727 51.2538 46.1405C51.2003 46.0439 51.1357 45.9539 51.0611 45.8725C50.916 45.7084 50.7424 45.568 50.5846 45.4198C50.5449 45.3825 50.5061 45.3444 50.4688 45.3048C50.2712 45.1041 50.1188 44.8635 50.0216 44.5991C49.9116 44.2633 49.8596 43.9113 49.8678 43.558C49.8678 43.3328 49.8797 43.1061 49.9019 42.8809C49.9043 42.8523 49.9074 42.823 49.9106 42.7936C50.0728 41.3766 50.6113 40.0288 51.4703 38.8902C51.4861 38.868 51.5028 38.8465 51.5194 38.8251C51.5535 38.7807 51.6161 38.8426 51.582 38.8862Z" fill="white"/>
<path d="M49.9425 42.8884C49.6678 42.8423 49.4185 42.7 49.2391 42.487C49.0597 42.2741 48.9618 42.0042 48.9629 41.7258C48.963 41.7144 48.9676 41.7035 48.9756 41.6955C48.9836 41.6874 48.9944 41.6828 49.0058 41.6825C49.0171 41.6823 49.0281 41.6864 49.0365 41.6942C49.0448 41.7019 49.0498 41.7125 49.0505 41.7239C49.0489 41.9832 49.1402 42.2345 49.3077 42.4325C49.4752 42.6305 49.7079 42.762 49.9639 42.8035C50.0195 42.8125 49.9978 42.8974 49.9425 42.8884V42.8884Z" fill="white"/>
<path d="M50.4816 45.2312C50.9482 44.905 51.2747 44.415 51.396 43.8588C51.408 43.8037 51.4929 43.8252 51.481 43.8802C51.3536 44.4588 51.0128 44.968 50.5265 45.3064C50.4801 45.3386 50.4354 45.2632 50.4816 45.2312H50.4816Z" fill="white"/>
<path d="M50.6243 40.4302C50.7268 40.4702 50.8377 40.4841 50.9469 40.4707C51.0562 40.4572 51.1604 40.4168 51.2502 40.3532C51.2961 40.3204 51.3407 40.3958 51.2951 40.4284C51.1955 40.4983 51.0804 40.5427 50.9598 40.5578C50.8391 40.573 50.7166 40.5583 50.6029 40.5151C50.5918 40.512 50.5824 40.5047 50.5765 40.4948C50.5706 40.485 50.5687 40.4732 50.5711 40.462C50.574 40.4507 50.5812 40.4411 50.5912 40.4352C50.6011 40.4292 50.613 40.4274 50.6243 40.4302Z" fill="white"/>
<path d="M57.5303 41.9524C57.5026 41.9738 57.474 41.9952 57.4463 42.0174C57.0698 42.3055 56.7174 42.6237 56.3925 42.9689C56.3671 42.9951 56.3418 43.022 56.3172 43.049L56.3164 43.0498C55.546 43.8861 54.9368 44.8576 54.5197 45.9153L54.5173 45.9225C54.5165 45.9249 54.5157 45.9264 54.5149 45.9288C54.3495 46.3522 54.2162 46.7874 54.1161 47.2308C54.0193 47.6637 53.94 48.1276 53.7886 48.5446C53.7656 48.6089 53.7402 48.6723 53.7133 48.7333H50.188C50.1999 48.6707 50.2126 48.6073 50.2253 48.5446C50.4046 47.6259 50.6849 46.7297 51.061 45.8725C51.0737 45.844 51.0864 45.8154 51.1006 45.7869C51.2948 45.3633 51.5231 44.9563 51.7833 44.5698C51.7833 44.5697 51.7833 44.5696 51.7834 44.5695C51.7834 44.5694 51.7835 44.5693 51.7835 44.5692C51.7836 44.5691 51.7837 44.5691 51.7838 44.569C51.7839 44.569 51.784 44.569 51.7841 44.569C51.927 44.3581 52.0805 44.1546 52.244 43.9592C52.6681 43.4547 53.169 43.0201 53.7283 42.6715C53.7315 42.6692 53.7355 42.6676 53.7386 42.6652C54.8519 41.9746 56.1713 41.6455 57.4328 41.9302H57.4336C57.4661 41.9373 57.4978 41.9444 57.5303 41.9524Z" fill="#E6E6E6"/>
<path d="M57.5263 41.9944C57.4994 42.0015 57.4724 42.0095 57.4462 42.0174C56.8905 42.1762 56.3542 42.3961 55.8469 42.6731C55.8216 42.6866 55.7962 42.7009 55.7708 42.7152C55.0699 43.1064 54.4336 43.6036 53.8845 44.1892C53.8841 44.1896 53.8838 44.1902 53.8837 44.1908C53.8774 44.1971 53.8702 44.2042 53.8647 44.2106C53.7378 44.347 53.6157 44.4889 53.4999 44.6348C53.2735 44.9068 53.091 45.2126 52.9592 45.5411C52.8584 45.8148 52.8228 46.1083 52.8553 46.3982C52.8577 46.4276 52.8616 46.4561 52.8656 46.4854C52.8688 46.5084 52.8719 46.5314 52.8759 46.5552C52.9282 46.8732 53.0186 47.1919 52.9933 47.5162C52.9778 47.6824 52.9274 47.8434 52.8452 47.9887C52.7631 48.134 52.6511 48.2602 52.5167 48.3591C52.4253 48.4297 52.3277 48.4918 52.2249 48.5446C52.078 48.6203 51.925 48.6835 51.7674 48.7333H51.4558C51.4978 48.7214 51.5391 48.7095 51.5811 48.6977C51.7302 48.6556 51.8766 48.6045 52.0196 48.5446C52.1012 48.5105 52.1807 48.4713 52.2574 48.4273C52.5762 48.2441 52.8418 47.9634 52.8973 47.5884C52.9457 47.2601 52.8521 46.9318 52.7966 46.6107C52.7871 46.5552 52.7784 46.5005 52.7736 46.4458C52.7358 46.1677 52.7588 45.8847 52.841 45.6164C52.9551 45.2817 53.1257 44.969 53.3453 44.6919C53.4812 44.5114 53.6262 44.3381 53.7798 44.1725C53.7989 44.1511 53.8187 44.1297 53.8393 44.1083C54.3999 43.5185 55.0473 43.0177 55.7589 42.6232H55.7597C56.2889 42.3286 56.8503 42.096 57.4328 41.9302H57.4336C57.4597 41.9222 57.4867 41.9143 57.5128 41.9072C57.5676 41.8929 57.5802 41.9793 57.5263 41.9944Z" fill="white"/>
<path d="M53.808 44.2026C53.6165 44.0004 53.5031 43.7367 53.488 43.4587C53.473 43.1806 53.5573 42.9062 53.7259 42.6845C53.7601 42.6398 53.8312 42.6909 53.7969 42.7357C53.6396 42.9419 53.5611 43.1975 53.5756 43.4564C53.5902 43.7153 53.6968 43.9605 53.8762 44.1477C53.9152 44.1884 53.8467 44.2431 53.808 44.2026V44.2026Z" fill="white"/>
<path d="M52.828 46.3977C53.3969 46.4182 53.9526 46.2236 54.3844 45.8525C54.4271 45.8157 54.482 45.884 54.4393 45.9208C53.9893 46.306 53.4105 46.5075 52.8186 46.4848C52.7621 46.4826 52.7719 46.3955 52.828 46.3977V46.3977Z" fill="white"/>
<path d="M55.8325 42.6503C55.8903 42.7439 55.9704 42.8218 56.0657 42.8768C56.1611 42.9318 56.2686 42.9623 56.3786 42.9656C56.435 42.967 56.4252 43.0541 56.3692 43.0526C56.2476 43.0485 56.1289 43.0147 56.0235 42.9541C55.918 42.8935 55.829 42.8081 55.7642 42.7052C55.7573 42.696 55.7542 42.6845 55.7554 42.6731C55.7566 42.6616 55.7622 42.6511 55.7709 42.6436C55.78 42.6364 55.7915 42.633 55.8031 42.6343C55.8146 42.6355 55.8252 42.6413 55.8325 42.6503V42.6503Z" fill="white"/>
<path d="M31.2391 58.89C31.1241 59.3214 30.822 59.6805 30.4573 59.9422C30.3978 59.985 30.3368 60.0247 30.2749 60.0619C30.2559 60.073 30.2368 60.0849 30.217 60.0952C30.1956 60.1079 30.1742 60.1198 30.1528 60.1309H28.4377C28.4068 60.0683 28.3767 60.0048 28.3466 59.9422C27.6115 58.3976 27.0953 56.7309 27.1834 55.0333C27.2183 54.3748 27.3566 53.726 27.5933 53.1105C28.0643 51.8839 28.9238 50.8222 30.106 50.2877C30.1354 50.2743 30.1663 50.2608 30.1964 50.2481C30.1869 50.2822 30.1774 50.3155 30.1679 50.3496C30.041 50.8065 29.9514 51.2729 29.8999 51.7443C29.8951 51.7808 29.8911 51.8173 29.888 51.8545C29.7753 52.9914 29.8753 54.1392 30.1829 55.2395C30.1837 55.2418 30.1845 55.245 30.1853 55.2474C30.2527 55.4908 30.3309 55.7305 30.42 55.9666C30.4898 56.1529 30.5651 56.3368 30.6476 56.5176C30.9917 57.2764 31.4532 58.0852 31.2391 58.89Z" fill="#E6E6E6"/>
<path d="M30.2178 50.2838C30.2011 50.306 30.1845 50.3274 30.1678 50.3496C29.8196 50.8111 29.5238 51.31 29.2861 51.8371C29.2734 51.8632 29.2615 51.8894 29.2512 51.9164C28.9255 52.6523 28.7163 53.4345 28.6312 54.2348C28.6303 54.2403 28.6297 54.2459 28.6296 54.2515C28.6098 54.4386 28.5979 54.6273 28.5931 54.816C28.5755 55.1697 28.6138 55.524 28.7065 55.8658C28.7911 56.145 28.9393 56.4006 29.1394 56.6128C29.1593 56.6342 29.1791 56.6556 29.2005 56.6762C29.2163 56.6928 29.2338 56.7095 29.2504 56.7254C29.4106 56.8784 29.5858 57.0203 29.7365 57.1844C29.8055 57.258 29.8679 57.3377 29.9228 57.4223C30.0105 57.5642 30.0671 57.7231 30.089 57.8884C30.1108 58.0538 30.0975 58.2219 30.0497 58.3817C29.9419 58.7829 29.6953 59.1215 29.4431 59.4442C29.317 59.606 29.187 59.7693 29.0744 59.9422C29.0332 60.004 28.9951 60.0667 28.9602 60.1309H28.8603C28.8936 60.0667 28.9301 60.004 28.9698 59.9422C29.2592 59.4863 29.6707 59.0946 29.884 58.5927C30.0283 58.2541 30.0719 57.8703 29.8895 57.5381C29.8361 57.4415 29.7714 57.3515 29.6969 57.2701C29.5517 57.1059 29.3781 56.9656 29.2203 56.8173C29.1807 56.7801 29.1418 56.742 29.1046 56.7024C28.907 56.5016 28.7545 56.261 28.6574 55.9967C28.5473 55.6609 28.4953 55.3088 28.5035 54.9556C28.5035 54.7304 28.5154 54.5036 28.5376 54.2784C28.54 54.2499 28.5432 54.2206 28.5463 54.1912C28.7085 52.7742 29.247 51.4264 30.106 50.2877C30.1219 50.2655 30.1385 50.2441 30.1552 50.2227C30.1892 50.1783 30.2519 50.2401 30.2178 50.2838Z" fill="white"/>
<path d="M28.5785 54.286C28.3038 54.2398 28.0545 54.0976 27.8751 53.8846C27.6956 53.6716 27.5978 53.4018 27.5989 53.1233C27.599 53.112 27.6036 53.1011 27.6116 53.093C27.6196 53.085 27.6304 53.0803 27.6418 53.0801C27.6531 53.0798 27.6641 53.084 27.6725 53.0917C27.6808 53.0994 27.6858 53.1101 27.6865 53.1214C27.6849 53.3807 27.7761 53.6321 27.9436 53.83C28.1111 54.028 28.3439 54.1596 28.5999 54.201C28.6555 54.2101 28.6338 54.295 28.5785 54.286V54.286Z" fill="white"/>
<path d="M29.1173 56.6287C29.5839 56.3026 29.9104 55.8125 30.0318 55.2563C30.0438 55.2012 30.1287 55.2227 30.1167 55.2778C29.9893 55.8563 29.6485 56.3656 29.1622 56.7039C29.1158 56.7361 29.0712 56.6608 29.1173 56.6287V56.6287Z" fill="white"/>
<path d="M29.26 51.8278C29.3626 51.8678 29.4734 51.8817 29.5827 51.8682C29.6919 51.8548 29.7961 51.8144 29.8859 51.7508C29.9319 51.718 29.9764 51.7934 29.9308 51.826C29.8313 51.8958 29.7162 51.9403 29.5955 51.9554C29.4748 51.9705 29.3523 51.9559 29.2386 51.9127C29.2275 51.9096 29.2181 51.9023 29.2122 51.8924C29.2063 51.8825 29.2044 51.8708 29.2069 51.8596C29.2097 51.8483 29.217 51.8387 29.2269 51.8327C29.2369 51.8268 29.2488 51.825 29.26 51.8278V51.8278Z" fill="white"/>
<path d="M36.1663 53.3499C36.1386 53.3713 36.11 53.3928 36.0823 53.415C35.7058 53.7031 35.3534 54.0213 35.0285 54.3664C35.0031 54.3926 34.9777 54.4196 34.9532 54.4465L34.9524 54.4473C34.182 55.2836 33.5728 56.2551 33.1556 57.3129L33.1533 57.32C33.1525 57.3224 33.1517 57.324 33.1509 57.3264C32.9855 57.7498 32.8522 58.185 32.752 58.6283C32.6553 59.0613 32.576 59.5251 32.4246 59.9422C32.4016 60.0064 32.3762 60.0698 32.3492 60.1309H28.824C28.8359 60.0683 28.8486 60.0048 28.8612 59.9422C29.0406 59.0234 29.3208 58.1273 29.697 57.2701C29.7097 57.2415 29.7223 57.213 29.7366 57.1845C29.9308 56.7609 30.1591 56.3538 30.4193 55.9673C30.4193 55.9672 30.4193 55.9671 30.4194 55.967C30.4194 55.9669 30.4195 55.9668 30.4195 55.9668C30.4196 55.9667 30.4197 55.9666 30.4198 55.9666C30.4199 55.9666 30.42 55.9665 30.4201 55.9665C30.563 55.7556 30.7165 55.5521 30.88 55.3568C31.3041 54.8523 31.805 54.4177 32.3643 54.0691C32.3675 54.0667 32.3714 54.0651 32.3746 54.0628C33.4879 53.3721 34.8073 53.0431 36.0688 53.3277H36.0696C36.1021 53.3349 36.1338 53.342 36.1663 53.3499Z" fill="#E6E6E6"/>
<path d="M36.1623 53.392C36.1354 53.3991 36.1084 53.407 36.0822 53.415C35.5265 53.5738 34.9901 53.7937 34.4829 54.0707C34.4576 54.0842 34.4322 54.0985 34.4068 54.1127C33.7058 54.504 33.0696 55.0012 32.5205 55.5868C32.52 55.5872 32.5198 55.5877 32.5197 55.5883C32.5133 55.5947 32.5062 55.6018 32.5007 55.6082C32.3738 55.7445 32.2517 55.8865 32.1359 56.0324C31.9095 56.3044 31.727 56.6102 31.5952 56.9387C31.4944 57.2124 31.4588 57.5059 31.4913 57.7958C31.4937 57.8251 31.4976 57.8537 31.5016 57.883C31.5048 57.906 31.5079 57.929 31.5119 57.9528C31.5642 58.2708 31.6546 58.5895 31.6292 58.9138C31.6138 59.08 31.5634 59.241 31.4812 59.3863C31.3991 59.5315 31.2871 59.6578 31.1527 59.7567C31.0613 59.8273 30.9637 59.8894 30.8609 59.9422C30.714 60.0179 30.561 60.0811 30.4034 60.1309H30.0918C30.1338 60.119 30.1751 60.1071 30.2171 60.0952C30.3662 60.0532 30.5126 60.0021 30.6556 59.9422C30.7372 59.9081 30.8166 59.8689 30.8934 59.8249C31.2122 59.6417 31.4778 59.361 31.5333 58.986C31.5817 58.6577 31.4881 58.3294 31.4326 58.0083C31.4231 57.9528 31.4144 57.8981 31.4096 57.8434C31.3718 57.5653 31.3948 57.2823 31.477 57.014C31.5911 56.6793 31.7617 56.3666 31.9813 56.0895C32.1172 55.909 32.2622 55.7357 32.4158 55.5701C32.4348 55.5487 32.4547 55.5273 32.4753 55.5059C33.0359 54.9161 33.6832 54.4153 34.3949 54.0208H34.3957C34.9249 53.7262 35.4863 53.4936 36.0688 53.3278H36.0695C36.0957 53.3198 36.1227 53.3119 36.1488 53.3048C36.2035 53.2905 36.2162 53.3769 36.1623 53.392Z" fill="white"/>
<path d="M32.4435 55.6002C32.252 55.398 32.1386 55.1343 32.1235 54.8562C32.1085 54.5781 32.1928 54.3038 32.3614 54.0821C32.3956 54.0374 32.4667 54.0885 32.4324 54.1333C32.2751 54.3394 32.1966 54.595 32.2111 54.8539C32.2257 55.1129 32.3323 55.358 32.5117 55.5453C32.5507 55.586 32.4822 55.6407 32.4435 55.6002V55.6002Z" fill="white"/>
<path d="M31.4637 57.7953C32.0326 57.8158 32.5884 57.6212 33.0201 57.2501C33.0629 57.2133 33.1177 57.2816 33.075 57.3184C32.625 57.7036 32.0463 57.905 31.4543 57.8824C31.3979 57.8802 31.4076 57.7931 31.4637 57.7953V57.7953Z" fill="white"/>
<path d="M34.4677 54.0478C34.5255 54.1415 34.6057 54.2194 34.701 54.2744C34.7963 54.3294 34.9038 54.3599 35.0138 54.3631C35.0703 54.3646 35.0605 54.4517 35.0044 54.4502C34.8829 54.4461 34.7642 54.4123 34.6587 54.3517C34.5533 54.2911 34.4643 54.2056 34.3995 54.1027C34.3926 54.0935 34.3894 54.0821 34.3906 54.0706C34.3919 54.0592 34.3974 54.0487 34.4062 54.0412C34.4152 54.0339 34.4268 54.0306 34.4383 54.0318C34.4498 54.0331 34.4604 54.0388 34.4677 54.0478V54.0478Z" fill="white"/>
<path d="M35.0518 37.3004C35.5773 37.3004 36.0033 36.8744 36.0033 36.3489C36.0033 35.8234 35.5773 35.3974 35.0518 35.3974C34.5263 35.3974 34.1003 35.8234 34.1003 36.3489C34.1003 36.8744 34.5263 37.3004 35.0518 37.3004Z" fill="#F2F2F2"/>
<path d="M46.8719 25.903C47.3974 25.903 47.8234 25.477 47.8234 24.9515C47.8234 24.426 47.3974 24 46.8719 24C46.3464 24 45.9204 24.426 45.9204 24.9515C45.9204 25.477 46.3464 25.903 46.8719 25.903Z" fill="#F2F2F2"/>
<path d="M0.0988765 60.2825H59.2722C59.2984 60.2825 59.3236 60.2721 59.3421 60.2535C59.3607 60.235 59.3711 60.2098 59.3711 60.1836C59.3711 60.1574 59.3607 60.1322 59.3421 60.1137C59.3236 60.0951 59.2984 60.0847 59.2722 60.0847H0.0988765C0.072653 60.0847 0.0475038 60.0951 0.028961 60.1137C0.0104182 60.1322 0 60.1574 0 60.1836C0 60.2098 0.0104182 60.235 0.028961 60.2535C0.0475038 60.2721 0.072653 60.2825 0.0988765 60.2825V60.2825Z" fill="#CCCCCC"/>
<path d="M27.5273 28.399C27.373 28.4213 27.2156 28.4094 27.0663 28.3643C26.917 28.3193 26.7795 28.242 26.6633 28.138C26.5471 28.034 26.4551 27.9058 26.3937 27.7624C26.3324 27.619 26.3033 27.4639 26.3083 27.3081L22.7695 25.9481L24.3718 24.802L27.4867 26.2691C27.748 26.295 27.9908 26.4159 28.1689 26.6089C28.347 26.8019 28.4482 27.0535 28.4532 27.3161C28.4582 27.5786 28.3667 27.8339 28.196 28.0335C28.0253 28.2331 27.7874 28.3632 27.5272 28.399L27.5273 28.399Z" fill="#FFB7B7"/>
<path d="M25.5053 27.4234L26.0578 25.4744L26.0306 25.4559L20.855 21.94L16.381 17.4509L13.7748 18.4921L13.9459 19.317L13.9571 19.3271L19.9055 24.6551L19.911 24.6578L25.5053 27.4234Z" fill="#3F3D56"/>
<path d="M20.2032 31.8753L12.1932 30.7525L12.8982 25.8375H18.7952L20.2032 31.8753Z" fill="#FFB6B6"/>
<path d="M6.59302 55.9424L8.23615 56.3242L10.4909 50.1683L8.0658 49.6048L6.59302 55.9424Z" fill="#FFB6B6"/>
<path d="M5.06409 58.5878L6.2424 58.8616L6.71124 57.798L6.9914 59.0356L10.1166 59.7619C10.2664 59.7967 10.4234 59.7827 10.5647 59.722C10.706 59.6613 10.8242 59.557 10.902 59.4243C10.9798 59.2917 11.0132 59.1376 10.9972 58.9846C10.9813 58.8317 10.9169 58.6878 10.8134 58.574L8.71824 56.2705L8.9796 55.1458L6.31816 54.6925L5.06409 58.5878Z" fill="#2F2E41"/>
<path d="M16.7313 56.858H18.4182L19.2209 50.3516H16.7313V56.858Z" fill="#FFB6B6"/>
<path d="M15.8411 59.7808H17.0508L17.2667 58.6387L17.8197 59.7808H21.0282C21.182 59.7808 21.3318 59.7316 21.4557 59.6405C21.5795 59.5494 21.671 59.421 21.7168 59.2742C21.7626 59.1274 21.7602 58.9698 21.7101 58.8244C21.6599 58.679 21.5646 58.5534 21.438 58.466L18.8758 56.6965V55.5419L16.1809 55.7027L15.8411 59.7808Z" fill="#2F2E41"/>
<path d="M12.0918 29.9185L19.9252 29.2954C22.2368 34.6951 20.767 43.3151 18.9906 53.0188L16.471 53.3446L16.2756 37.7519L9.95946 52.2577L7.3335 52.1235L12.0918 29.9185Z" fill="#2F2E41"/>
<path d="M16.6517 15.6995V13.0493C16.6517 12.1075 16.2776 11.2043 15.6116 10.5383C14.9456 9.87232 14.0424 9.49818 13.1006 9.49818C12.1587 9.49818 11.2555 9.87232 10.5895 10.5383C9.92356 11.2043 9.54942 12.1075 9.54942 13.0493C8.92353 14.3536 9.31509 14.9737 9.54942 15.6995C9.54963 15.8259 9.59993 15.947 9.6893 16.0364C9.77868 16.1258 9.89983 16.1761 10.0262 16.1763H16.1747C16.3011 16.1761 16.4223 16.1259 16.5117 16.0365C16.6012 15.9471 16.6515 15.8259 16.6517 15.6995Z" fill="#2F2E41"/>
<path d="M13.9768 16.1363C15.4147 16.1363 16.5804 14.9707 16.5804 13.5327C16.5804 12.0948 15.4147 10.9291 13.9768 10.9291C12.5388 10.9291 11.3732 12.0948 11.3732 13.5327C11.3732 14.9707 12.5388 16.1363 13.9768 16.1363Z" fill="#FFB7B7"/>
<path d="M17.4917 13.2613C17.4909 12.5165 17.1947 11.8025 16.668 11.2759C16.1414 10.7493 15.4274 10.453 14.6827 10.4522H14.1526C13.4078 10.453 12.6938 10.7493 12.1672 11.2759C11.6406 11.8025 11.3443 12.5165 11.3435 13.2613V13.3143C11.7405 13.5857 12.1173 13.6254 12.4637 13.3143L12.8457 12.2445L12.9221 13.3143H13.5011L13.6941 12.7746L13.7327 13.3143C14.5147 13.9803 15.9934 13.6611 17.4917 13.3143V13.2613Z" fill="#2F2E41"/>
<path d="M12.4586 27.274L19.0876 27.0218L19.4582 22.6851C19.7439 21.8913 19.7486 21.2092 19.4719 20.6593C19.2339 20.2073 18.8341 19.8617 18.3524 19.6917L16.9019 17.9398C16.7153 17.7146 16.481 17.5337 16.216 17.4102C15.9509 17.2866 15.6617 17.2234 15.3693 17.2253L11.6002 17.251C11.5094 17.1964 10.9583 16.9164 9.87156 17.3873C8.69282 17.8981 8.96654 19.673 8.96948 19.6908L8.97221 19.7075L8.98515 19.7189L11.492 21.8305L12.4586 27.274Z" fill="#3F3D56"/>
<path d="M42.6674 19.6492C38.3898 24.4699 25.5195 25.3894 17.142 34.2383C14.3333 25.685 18.3121 10.9203 22.2774 5.28977C24.1815 2.58589 27.0818 0.749177 30.3402 0.183694C33.5986 -0.381788 36.9482 0.37028 39.6521 2.27445C45.2826 6.23969 47.2382 14.498 42.6674 19.6492Z" fill="#96588A"/>
<path d="M32.3028 15.0245C34.5487 15.0245 36.3695 13.2037 36.3695 10.9578C36.3695 8.7118 34.5487 6.89108 32.3028 6.89108C30.0568 6.89108 28.2361 8.7118 28.2361 10.9578C28.2361 13.2037 30.0568 15.0245 32.3028 15.0245Z" fill="white"/>
<path d="M13.7042 38.6672C15.1753 38.6672 16.3678 37.4747 16.3678 36.0036C16.3678 34.5325 15.1753 33.34 13.7042 33.34C12.2332 33.34 11.0406 34.5325 11.0406 36.0036C11.0406 37.4747 12.2332 38.6672 13.7042 38.6672Z" fill="#96588A"/>
<path d="M10.6571 35.8109C10.5411 35.7067 10.4493 35.5784 10.3883 35.4349C10.3273 35.2914 10.2984 35.1363 10.3037 34.9804C10.3091 34.8246 10.3485 34.6718 10.4193 34.5329C10.4901 34.3939 10.5904 34.2722 10.7133 34.1762L9.48914 30.5882L11.3964 31.0836L12.2655 34.4147C12.4132 34.6319 12.4761 34.8957 12.4421 35.1562C12.4082 35.4167 12.2799 35.6556 12.0816 35.8278C11.8832 36 11.6286 36.0934 11.3659 36.0903C11.1033 36.0872 10.8509 35.9878 10.6566 35.8111L10.6571 35.8109Z" fill="#FFB7B7"/>
<path d="M10.1103 33.6335L11.9608 32.8089L11.3391 26.5498L11.9181 20.2385L9.44742 18.9051L8.92395 19.5652V19.5801L8.64661 27.561L8.64808 27.567L10.1103 33.6335Z" fill="#3F3D56"/>
<path opacity="0.2" d="M35.8214 9.01082C36.3089 9.84431 36.4839 10.8241 36.315 11.7748C36.1462 12.7256 35.6445 13.5852 34.8997 14.1998C34.155 14.8145 33.2158 15.144 32.2503 15.1294C31.2848 15.1149 30.356 14.7572 29.6301 14.1204C29.9273 14.6293 30.3315 15.0676 30.8148 15.4049C31.2982 15.7421 31.849 15.9703 32.4292 16.0736C33.0095 16.1769 33.6052 16.1528 34.1752 16.0031C34.7452 15.8533 35.2759 15.5815 35.7304 15.2063C36.185 14.8312 36.5525 14.3618 36.8077 13.8305C37.0628 13.2993 37.1995 12.7189 37.2081 12.1296C37.2168 11.5403 37.0972 10.9562 36.8578 10.4177C36.6183 9.87916 36.2647 9.39913 35.8214 9.01082V9.01082Z" fill="#231F20"/>
<path opacity="0.2" d="M40.8141 3.46353C44.1525 7.77993 44.7283 13.9834 41.0292 18.1521C36.8963 22.8098 24.7425 23.8264 16.3691 31.8709C16.5085 32.7099 16.7098 33.5374 16.9713 34.3467C25.3488 25.4977 38.2191 24.5782 42.4967 19.7575C46.6854 15.037 45.3927 7.70767 40.8141 3.46353Z" fill="#231F20"/>
</svg>
