<svg xmlns="http://www.w3.org/2000/svg" viewBox="0 0 525 133" width="158" height="40">
	<style>
		tspan { white-space:pre }
		.shp0 { fill: #dee2e6 } 
		.shp1 { fill: #ffffff } 
	</style>
	<path id="Path 1" fill-rule="evenodd" class="shp0" d="M251.37 118.05C251.32 118.25 251.27 118.5 251.26 118.66C251.25 119.07 251.45 119.28 252.02 119.28C253.09 119.28 255.76 118.13 257.27 117.39L259.88 104.94L265.87 104.12L261.58 124.5L256.65 124.5L256.67 122.65C253.5 124.13 251 124.91 248.7 124.91C246.07 124.91 245.1 123.35 245.19 120.84C245.21 120.02 245.32 119.36 245.47 118.54L248.33 104.94L254.28 104.12L251.37 118.05ZM266.25 123.59L267.51 119.32C269.01 119.85 270.72 120.35 272.9 120.35C274.83 120.35 274.98 119.77 275.17 118.83C275.37 117.92 274.81 117.43 272.59 116.24C268.48 114.02 268.36 112.54 269 109.54C269.93 105.23 271.25 104.08 276.8 104.08C278.69 104.08 281.1 104.49 282.72 105.03L281.62 109.38C280.16 108.97 277.99 108.64 276.59 108.64C274.87 108.64 274.61 108.85 274.37 109.91C274.17 110.86 274.37 111.06 276.27 112.09C280.79 114.56 281.46 115.42 280.77 118.58C279.79 123.1 278.41 124.91 272.41 124.91C270.56 124.91 267.99 124.37 266.25 123.59ZM284.99 111.64C285.98 107.04 288.13 104.08 294.46 104.08C298.25 104.08 301.06 105.72 300.95 109.09C300.81 112.99 298.73 114.8 293.75 116.28C291.3 117.02 291.26 117.02 289.52 117.47L289.22 118.87C289.07 119.61 289.13 120.27 290.2 120.27C292.3 120.27 295.37 119.24 298.13 118.05L299.1 122.16C296.62 123.68 292.75 124.91 289.22 124.91C285.07 124.91 283.36 123.1 283.48 119.69C283.5 118.95 283.61 118.13 283.81 117.27L284.99 111.64ZM295.54 109.71C295.57 109.01 294.96 108.56 293.9 108.56C291.8 108.56 291.14 109.75 290.8 111.39L290.5 112.79C291.49 112.54 291.95 112.46 293.16 112.09C294.73 111.64 295.5 110.9 295.54 109.71ZM315.94 109.34C313.34 110.74 312.37 111.27 310.02 112.71L307.51 124.5L301.72 124.5L305.81 104.98L310.94 104.12L310.72 106.83C312.69 105.68 314.29 104.86 316.04 104.12L315.94 109.34ZM329.46 96.11L335.45 95.29L334.13 101.45L328.18 102.27L329.46 96.11ZM327.59 104.94L333.58 104.12L329.25 124.5L323.45 124.5L327.59 104.94ZM348.63 110.9C348.68 110.65 348.73 110.45 348.73 110.28C348.75 109.87 348.55 109.71 347.97 109.71C346.9 109.71 344.32 110.78 342.72 111.6L340.01 124.5L334.22 124.5L338.31 104.98L343.44 104.12L343.32 106.34C346.5 104.86 348.99 104.08 351.29 104.08C353.96 104.08 354.89 105.6 354.81 108.15C354.78 108.85 354.72 109.42 354.52 110.45L351.56 124.5L345.77 124.5L348.63 110.9ZM366.4 109.13L364.28 119.12C364.23 119.32 364.18 119.53 364.18 119.65C364.17 119.94 364.33 120.06 364.74 120.06C365.73 120.06 366.85 119.65 367.89 119.24L368.9 123.26C367.23 124.17 364.82 124.91 362.48 124.91C359.56 124.91 358.04 123.51 358.12 121.13C358.14 120.84 358.19 120.55 358.24 120.27L360.6 109.13L357.64 109.13L358.62 104.49L361.58 104.49L362.58 99.69L368.56 98.86L367.38 104.49L372.15 104.49L370.84 109.13L366.4 109.13Z" />
	<path id="Path 2" fill-rule="evenodd" class="shp0" d="M373.29 111.64C374.27 107.04 376.43 104.08 382.76 104.08C386.54 104.08 389.36 105.72 389.24 109.09C389.11 112.99 387.03 114.8 382.05 116.28C379.6 117.02 379.56 117.02 377.81 117.47L377.52 118.87C377.37 119.61 377.43 120.27 378.5 120.27C380.59 120.27 383.67 119.24 386.42 118.05L387.39 122.16C384.91 123.68 381.05 124.91 377.51 124.91C373.36 124.91 371.66 123.1 371.78 119.69C371.8 118.95 371.91 118.13 372.11 117.27L373.29 111.64ZM383.84 109.71C383.86 109.01 383.26 108.56 382.2 108.56C380.1 108.56 379.44 109.75 379.1 111.39L378.8 112.79C379.79 112.54 380.25 112.46 381.46 112.09C383.03 111.64 383.8 110.9 383.84 109.71ZM404.23 109.34C401.64 110.74 400.67 111.27 398.32 112.71L395.81 124.5L390.01 124.5L394.11 104.98L399.23 104.12L399.02 106.83C400.99 105.68 402.58 104.86 404.33 104.12L404.23 109.34ZM401.67 129.55C403.76 127.5 404.08 126.43 404.48 124.5L407.72 109.22L404.85 109.22L405.83 104.49L408.71 104.49L409.3 101.86C410.27 97.43 411.9 95.5 416.75 95.5C418.4 95.5 420.32 95.78 421.86 96.36L420.51 100.92C419.62 100.59 418.02 100.3 417.12 100.3C415.8 100.3 415.38 100.63 415.14 101.66L414.5 104.49L419.69 104.49L418.29 109.22L413.52 109.22L410.17 125.15C409.58 127.95 408.52 129.92 405.29 133L401.67 129.55Z" />
	<path id="Path 3" fill-rule="evenodd" class="shp0" d="M429.09 124.5L428.99 122.77C427.55 123.84 425.42 124.91 422.55 124.91C418.19 124.91 417.41 122.28 418.35 117.8L419.49 112.42C420.48 107.65 422.49 104.12 430.38 104.12C432.48 104.12 435.22 104.49 437.98 105.36L433.98 124.5L429.09 124.5ZM424.04 118.42C423.84 119.48 424.07 119.9 425.1 119.9C426.58 119.9 428.22 119.03 429.57 117.92L431.4 109.26C430.62 109.09 429.76 109.05 429.14 109.05C426.14 109.05 425.72 110.53 425.28 112.46L424.04 118.42ZM439.32 119.81C439.35 118.79 439.47 117.92 439.75 116.77L441.06 111.19C442.36 105.52 445.17 104.08 450.84 104.08C452.61 104.08 454.33 104.45 455.46 104.9L453.9 109.59C452.93 109.26 451.74 109.01 450.59 109.01C447.96 109.01 447.06 109.83 446.57 112.13L445.3 118.21C445.25 118.46 445.19 118.79 445.19 118.99C445.16 119.65 445.48 119.98 446.22 119.98C447.7 119.98 450.48 119.16 451.9 118.75L452.26 123.39C450.55 124.21 447.73 124.91 445.6 124.91C440.99 124.91 439.2 123.35 439.32 119.81ZM457.28 111.64C458.25 107.04 460.41 104.08 466.74 104.08C470.52 104.08 473.35 105.72 473.23 109.09C473.09 112.99 471.01 114.8 466.03 116.28C463.58 117.02 463.54 117.02 461.8 117.47L461.5 118.87C461.35 119.61 461.41 120.27 462.48 120.27C464.58 120.27 467.65 119.24 470.41 118.05L471.37 122.16C468.9 123.68 465.03 124.91 461.49 124.91C457.34 124.91 455.64 123.1 455.76 119.69C455.79 118.95 455.9 118.13 456.09 117.27L457.28 111.64ZM467.82 109.71C467.85 109.01 467.25 108.56 466.18 108.56C464.08 108.56 463.42 109.75 463.08 111.39L462.78 112.79C463.78 112.54 464.23 112.46 465.44 112.09C467.01 111.64 467.78 110.9 467.82 109.71ZM112.92 17.68L112.92 47.96C112.92 78.33 87.19 102.95 56.46 102.95C25.74 102.95 0 78.33 0 47.96L0 17.68C0 10.83 5.85 4.82 12.71 4.82L99.03 4.82C105.89 4.82 112.92 10.83 112.92 17.68Z" />
	<path id="Path 4" class="shp1" d="M19.4 48.68C19.4 68.94 35.69 85.1 56.18 85.1C76.68 85.1 92.97 68.69 92.97 48.16L74.42 48.16C74.42 58.42 66.84 66.76 56.6 66.76C46.35 66.76 38.78 58.81 38.78 48.68L38.78 31.05L19.4 31.05L19.4 48.68ZM19.4 48.28C19.4 68.53 35.69 84.9 56.18 84.9C76.68 84.9 92.97 68.69 92.97 48.16L74.42 48.16C74.42 58.42 66.84 66.56 56.6 66.56C46.35 66.56 38.78 58.4 38.78 48.28L38.78 31.05L19.4 31.05L19.4 48.28ZM79.06 19.86L74.73 37.59L92.67 42.17L97.31 24.44L79.06 19.86Z" />
	<path id="Path 5" class="shp0" d="M468.11 30.71L468.77 33.51C468.96 34.31 468.45 34.96 467.63 34.96M414.82 25.91C414.66 26.68 414.46 27.66 414.32 28.31L408.48 55.67L414.63 26.85L414.82 25.91ZM239.71 44.21L236.48 55.65L239.71 44.22L239.71 44.21ZM468.77 33.51L467.09 26.39C465.76 21.23 462 18.8 453.54 18.8L417.95 18.8C417.13 18.8 416.31 19.17 416.14 19.97L402.64 84C402.46 84.81 402.41 85.39 402.51 85.79C402.6 86.2 404.18 86.12 404.99 86.12L417.32 86.12C418.15 86.12 419.65 86.18 420.08 86.01C420.54 85.82 420.74 84.6 420.91 83.79L425.26 61.34L430.58 36.44C430.76 35.64 431.56 34.98 432.38 34.98L467.63 34.96C468.45 34.96 468.96 34.31 468.77 33.51ZM518.92 7.55C518.1 7.56 503.29 7.55 503.29 7.55C502.47 7.55 501.42 8.43 500.96 9.11L473.52 49.48C473.05 50.16 472.52 50.14 472.34 49.34L470.31 40.49C470.14 39.69 469.32 39.03 468.49 39.03L450.85 39.03C450.04 39.03 449.55 39.71 449.76 40.5L457.67 68.22C457.9 69.02 457.92 70.31 457.72 71.1L454.03 85.15C453.84 85.94 454.34 86.18 455.17 86.18L472.58 86.18C473.4 86.18 474.25 85.94 474.45 85.15L478.14 70.91C478.34 70.12 478.91 69.03 479.4 68.37L524.19 8.98C524.69 8.33 524.62 7.55 523.8 7.55L518.92 7.55ZM335.29 18.85L319.37 18.85C318.56 18.85 317.72 19.14 317.56 19.94L312.3 44.56L307.06 68.13C306.89 68.93 306.08 68.87 305.26 68.87L294.8 68.87C284.45 68.87 285.65 62.34 287.77 52.54C287.8 52.44 294.41 19.94 294.41 19.94C294.56 19.14 294.02 18.85 293.21 18.85L278.04 18.85C277.23 18.85 276.41 19.14 276.25 19.94L270.15 52.51C267.11 70.12 267.02 85.62 287.44 86.13C287.77 86.14 319.69 86.13 319.69 86.13C320.51 86.13 321.32 85.86 321.5 85.06L328.42 52.4L335.32 19.6C335.32 19.6 335.57 18.85 335.29 18.85ZM176.74 18.8L159.67 18.8C158.85 18.8 158.03 18.99 157.84 19.8L154.76 33.12C154.59 33.91 155.11 34.54 155.94 34.54L172.28 34.54C173.1 34.54 173.92 33.8 174.1 33L177.06 19.58C177.06 19.58 177.3 18.8 176.74 18.8ZM154.83 39.03C154.02 39.03 153.19 39.68 153.01 40.48L150.71 50.65L145.58 74.12C145.58 74.12 142.85 86.6 142.58 87.38C142.58 87.38 140.28 96.39 134.79 96.02C132.23 95.85 129.31 95.27 129.31 95.27L129.3 95.27C127.77 94.81 127.66 96.4 127.47 97.2L124.08 111.82C123.89 112.62 124.41 113.34 125.22 113.35C125.22 113.35 132.57 114.39 137.76 114.39L138.61 114.39C151.43 114.39 158.2 106.85 162.53 86.39L167.6 62.7L172.36 40.66C172.53 39.86 172.05 39.11 171.23 39.11" />
	<path id="Path 6" fill-rule="evenodd" class="shp0" d="M398.27 58.73C398.27 58.73 398.21 59.78 396.41 59.79L355.25 59.79C354.44 59.79 353.56 61.73 353.57 62.49C353.23 69.19 356.7 72.17 366.38 72.17L393.09 72.17C393.9 72.17 394.45 72.41 394.28 73.21L391.36 84.59C391.2 85.38 390.39 86.12 389.59 86.13C389.59 86.13 374.19 86.13 362.41 86.13C332.71 86.13 332.38 71.96 336.2 54.03C340.01 36.44 346.86 18.7 375.57 18.7C402.73 18.7 402.46 39.82 398.27 58.73ZM383.26 44.62C383.26 39.55 381.3 34.99 372.09 34.99C363.91 34.99 358.75 38.41 357.02 44.42C356.95 44.64 356.9 45.54 356.9 45.57C356.95 46.34 357.17 47.43 357.95 47.43L380.32 47.59C380.32 47.59 383.14 47.76 383.14 46.87M251.41 67.96C251.32 68.56 251.72 69.01 252.42 69.02L255.97 69.03L259.52 69.06C260.35 69.06 260.85 69.71 260.65 70.51L256.93 84.66C256.72 85.45 255.88 86.1 255.06 86.11L210.98 86.13C182.09 86.29 175.8 66.35 180.61 43.45C185.43 20.71 198.04 -0.21 227.08 -0.21C256.3 -0.21 263.86 21.7 261.36 36.81C259.54 48.1 251.5 67.63 251.5 67.63C251.44 67.74 251.43 67.85 251.41 67.96ZM239.94 42.79C244.16 28.65 240.6 16.35 223.18 17.66C210.45 18.62 204.18 28.06 201.02 43.33C197.88 58.27 201.02 68.28 213.98 68.28L231.04 68.28C231.86 68.28 232.79 67.75 233.02 66.95L236.33 55.65L239.94 42.79Z" />
</svg>