<svg xmlns="http://www.w3.org/2000/svg" viewBox="0 0 581 148" width="157" height="40">
	<style>
		tspan { white-space:pre }
		.shp0 { fill: #dee2e6 } 
	</style>
	<path id="Path 1" class="shp0" d="M223.36 131.83C223.31 133.1 223.23 134.41 223.06 135.81L228.25 126.41L227.68 123.34L232.89 122.54L234.78 135.57L237.18 127.4C237.36 126.61 237.46 126.01 237.49 125.41C237.5 124.81 237.45 124.18 237.24 123.3L242.69 122.26C242.89 123.38 243.02 124.34 242.99 125.33C242.94 126.65 242.61 128.08 241.7 130.23L237.3 142.02L230.81 142.02L229.44 133.22L224.36 142.02L218.06 142.02C218.31 133.82 218.01 128.68 217.44 123.3L222.85 122.46C223.26 125.45 223.48 128.44 223.36 131.83ZM257.17 127.32C254.66 128.68 253.72 129.2 251.44 130.59L249.01 142.02L243.4 142.02L247.36 123.1L252.33 122.26L252.12 124.89C254.03 123.78 255.57 122.98 257.27 122.26L257.17 127.32ZM262.32 114.49L268.12 113.7L266.84 119.67L261.08 120.47L262.32 114.49ZM260.51 123.06L266.31 122.26L262.12 142.02L256.5 142.02L260.51 123.06ZM276.65 127.12L274.6 136.81C274.56 137 274.51 137.2 274.51 137.32C274.5 137.6 274.65 137.72 275.05 137.72C276.01 137.72 277.09 137.32 278.11 136.93L279.08 140.83C277.46 141.71 275.12 142.42 272.85 142.42C270.03 142.42 268.56 141.07 268.64 138.76C268.65 138.48 268.7 138.2 268.75 137.92L271.04 127.12L268.17 127.12L269.12 122.62L271.99 122.62L272.95 117.96L278.75 117.17L277.61 122.62L282.23 122.62L280.96 127.12L276.65 127.12Z" />
	<path id="Path 2" fill-rule="evenodd" class="shp0" d="M283.34 129.55C284.29 125.09 286.39 122.22 292.52 122.22C296.18 122.22 298.92 123.82 298.8 127.09C298.67 130.87 296.66 132.62 291.83 134.06C289.45 134.77 289.41 134.77 287.73 135.21L287.44 136.57C287.29 137.28 287.35 137.92 288.39 137.92C290.42 137.92 293.4 136.93 296.07 135.77L297.01 139.75C294.6 141.23 290.86 142.42 287.43 142.42C283.41 142.42 281.76 140.67 281.87 137.36C281.9 136.65 282.01 135.85 282.2 135.01L283.34 129.55ZM293.56 127.68C293.59 127 293.01 126.57 291.97 126.57C289.94 126.57 289.3 127.72 288.97 129.32L288.68 130.67C289.65 130.43 290.09 130.35 291.25 129.99C292.78 129.55 293.52 128.84 293.56 127.68ZM313.29 114.69L319.1 113.9L313.18 142.02L307.56 142.02L313.29 114.69Z" />
	<path id="Path 3" fill-rule="evenodd" class="shp0" d="M319.83 129.55C320.78 125.09 322.87 122.22 329 122.22C332.67 122.22 335.4 123.82 335.29 127.09C335.15 130.87 333.14 132.62 328.31 134.06C325.94 134.77 325.9 134.77 324.21 135.21L323.92 136.57C323.78 137.28 323.83 137.92 324.87 137.92C326.9 137.92 329.88 136.93 332.55 135.77L333.49 139.75C331.09 141.23 327.34 142.42 323.92 142.42C319.89 142.42 318.24 140.67 318.36 137.36C318.38 136.65 318.49 135.85 318.68 135.01L319.83 129.55ZM330.05 127.68C330.07 127 329.49 126.57 328.45 126.57C326.42 126.57 325.78 127.72 325.45 129.32L325.16 130.67C326.13 130.43 326.57 130.35 327.74 129.99C329.26 129.55 330.01 128.84 330.05 127.68ZM335.75 141.15L336.97 137C338.43 137.52 340.08 138 342.19 138C344.06 138 344.2 137.44 344.39 136.53C344.58 135.65 344.04 135.17 341.89 134.02C337.91 131.87 337.8 130.43 338.42 127.52C339.32 123.34 340.59 122.22 345.97 122.22C347.8 122.22 350.14 122.62 351.71 123.14L350.65 127.36C349.23 126.97 347.13 126.65 345.78 126.65C344.1 126.65 343.85 126.85 343.62 127.88C343.43 128.8 343.62 129 345.46 129.99C349.84 132.38 350.49 133.22 349.82 136.29C348.87 140.67 347.54 142.42 341.72 142.42C339.93 142.42 337.44 141.9 335.75 141.15ZM351.84 141.15L353.06 137C354.52 137.52 356.17 138 358.29 138C360.16 138 360.3 137.44 360.49 136.53C360.68 135.65 360.14 135.17 357.99 134.02C354 131.87 353.89 130.43 354.51 127.52C355.41 123.34 356.69 122.22 362.06 122.22C363.89 122.22 366.23 122.62 367.81 123.14L366.74 127.36C365.32 126.97 363.22 126.65 361.87 126.65C360.2 126.65 359.95 126.85 359.71 127.88C359.52 128.8 359.71 129 361.55 129.99C365.93 132.38 366.58 133.22 365.91 136.29C364.96 140.67 363.63 142.42 357.81 142.42C356.02 142.42 353.53 141.9 351.84 141.15ZM367.23 146.37L370.45 142.02L368.34 142.02L369.73 135.41L375.34 135.41L373.82 142.5L369.2 148L367.23 146.37ZM397.93 142.02L397.83 140.35C396.4 141.51 394.38 142.42 391.59 142.42C387.36 142.42 386.42 139.87 387.33 135.53L388.43 130.31C389.38 125.69 390.7 122.22 398.86 122.22C399.46 122.22 400.69 122.3 401.21 122.42L402.83 114.69L408.59 113.9L402.67 142.02L397.93 142.02ZM392.8 136.21C392.56 137.24 392.83 137.72 393.82 137.72C395.81 137.72 397.28 136.69 398.39 135.73L400.21 127.09C399.57 126.97 398.82 126.93 398.02 126.93C395.11 126.93 394.46 128.48 394.04 130.35L392.8 136.21Z" />
	<path id="Path 4" fill-rule="evenodd" class="shp0" d="M407.9 135.93C407.92 135.49 407.98 135.01 408.07 134.57L409.03 130.07C410.07 125.09 412.6 122.22 419.38 122.22C424.59 122.22 426.84 125.21 426.72 128.68C426.7 129.12 426.65 129.59 426.55 130.07L425.6 134.57C424.6 139.24 422.25 142.42 415.2 142.42C410.26 142.42 407.78 139.47 407.9 135.93ZM421.09 129.12C421.14 127.68 420.29 126.93 418.45 126.93C416.34 126.93 415.07 128 414.69 129.91L413.68 134.73C413.63 135.01 413.58 135.29 413.57 135.53C413.53 136.93 414.37 137.72 416.21 137.72C418.36 137.72 419.59 136.65 419.97 134.73L420.98 129.91C421.03 129.63 421.08 129.36 421.09 129.12ZM461.01 128.84C461.05 128.6 461.1 128.4 461.11 128.24C461.12 127.84 460.93 127.68 460.37 127.68C459.33 127.68 456.87 128.72 455.25 129.55L452.62 142.02L447.04 142.02L449.81 128.84C449.86 128.6 449.91 128.4 449.91 128.24C449.93 127.84 449.74 127.68 449.18 127.68C448.14 127.68 445.64 128.72 444.09 129.51L441.47 142.02L435.85 142.02L439.82 123.1L444.79 122.26L444.67 124.42C447.75 122.98 450.16 122.22 452.4 122.22C454.31 122.22 455.27 123.06 455.66 124.5C458.67 122.78 461.36 122.22 463.59 122.22C466.18 122.22 467.08 123.7 467 126.17C466.97 126.85 466.9 127.6 466.72 128.4L463.85 142.02L458.24 142.02L461.01 128.84ZM468.88 135.93C468.9 135.49 468.95 135.01 469.05 134.57L470 130.07C471.05 125.09 473.58 122.22 480.35 122.22C485.57 122.22 487.82 125.21 487.7 128.68C487.68 129.12 487.62 129.59 487.53 130.07L486.57 134.57C485.58 139.24 483.23 142.42 476.18 142.42C471.24 142.42 468.76 139.47 468.88 135.93ZM482.06 129.12C482.11 127.68 481.26 126.93 479.43 126.93C477.32 126.93 476.05 128 475.66 129.91L474.66 134.73C474.61 135.01 474.56 135.29 474.55 135.53C474.5 136.93 475.35 137.72 477.18 137.72C479.34 137.72 480.56 136.65 480.95 134.73L481.96 129.91C482.01 129.63 482.05 129.36 482.06 129.12ZM502.6 127.32C500.08 128.68 499.15 129.2 496.87 130.59L494.44 142.02L488.82 142.02L492.79 123.1L497.76 122.26L497.55 124.89C499.46 123.78 501 122.98 502.7 122.26L502.6 127.32Z" />
	<path id="Path 5" fill-rule="evenodd" class="shp0" d="M503.88 129.55C504.83 125.09 506.92 122.22 513.05 122.22C516.72 122.22 519.45 123.82 519.34 127.09C519.2 130.87 517.19 132.62 512.36 134.06C509.99 134.77 509.95 134.77 508.26 135.21L507.97 136.57C507.83 137.28 507.89 137.92 508.92 137.92C510.95 137.92 513.94 136.93 516.6 135.77L517.54 139.75C515.14 141.23 511.39 142.42 507.97 142.42C503.94 142.42 502.29 140.67 502.41 137.36C502.43 136.65 502.54 135.85 502.73 135.01L503.88 129.55ZM514.1 127.68C514.12 127 513.54 126.57 512.5 126.57C510.47 126.57 509.83 127.72 509.5 129.32L509.21 130.67C510.18 130.43 510.62 130.35 511.79 129.99C513.32 129.55 514.06 128.84 514.1 127.68ZM521.63 135.41L527.25 135.41L525.86 142.02L520.25 142.02L521.63 135.41ZM14.22 19.22C5.86 35.36 9.63 55.04 20.08 69.3C20.46 69.82 20.84 70.33 21.24 70.84C21.36 71 21.49 71.15 21.6 71.31C21.94 71.72 22.27 72.14 22.61 72.55C22.73 72.69 22.85 72.84 22.97 72.98C23.43 73.52 23.89 74.05 24.36 74.57C24.39 74.59 24.41 74.62 24.43 74.64C24.88 75.13 25.34 75.62 25.81 76.09C25.96 76.24 26.1 76.38 26.25 76.54C26.62 76.91 26.99 77.26 27.37 77.63C27.52 77.77 27.65 77.91 27.81 78.05C28.32 78.53 28.84 79.01 29.36 79.47C29.42 79.52 29.49 79.56 29.53 79.61C30.02 80.04 30.51 80.45 31.02 80.86C31.19 81 31.37 81.14 31.54 81.28C31.94 81.6 32.33 81.91 32.73 82.21C32.93 82.36 33.13 82.51 33.31 82.66C33.76 82.98 34.19 83.29 34.64 83.61C34.79 83.71 34.94 83.82 35.09 83.93C35.54 84.24 36.01 84.55 36.49 84.85C36.66 84.97 36.83 85.09 37.01 85.21C37.66 85.62 38.32 86.02 38.97 86.41C39.15 86.51 39.32 86.6 39.48 86.7C39.99 86.98 40.49 87.27 41 87.54C41.27 87.69 41.55 87.83 41.84 87.98C42.25 88.19 42.67 88.42 43.09 88.61C43.25 88.7 43.4 88.77 43.56 88.84C44.1 89.1 44.63 89.35 45.18 89.6C45.31 89.66 45.43 89.71 45.57 89.76C46.2 90.04 46.84 90.32 47.5 90.57C47.66 90.64 47.83 90.69 47.99 90.76C48.59 90.99 49.18 91.22 49.78 91.42C49.87 91.46 49.97 91.5 50.06 91.53C50.72 91.76 51.4 91.98 52.08 92.18C52.25 92.24 52.43 92.3 52.6 92.34C53.31 92.55 54 92.77 54.7 92.93C73.53 97.22 93.41 93.36 104.62 78.78C104.62 78.78 91.28 114.73 45.38 106.37C44.66 106.23 43.97 105.98 43.27 105.77C43.1 105.73 42.93 105.67 42.77 105.62C42.08 105.41 41.4 105.18 40.72 104.95C40.64 104.92 40.57 104.9 40.49 104.87C39.88 104.65 39.25 104.42 38.66 104.18C38.49 104.13 38.34 104.06 38.18 104C37.52 103.74 36.87 103.47 36.23 103.19C36.11 103.14 36 103.09 35.89 103.04C35.31 102.78 34.75 102.53 34.21 102.26C34.07 102.19 33.93 102.12 33.78 102.05C33.7 102.01 33.62 101.98 33.53 101.94C33.17 101.76 32.82 101.57 32.49 101.39C32.21 101.25 31.94 101.12 31.66 100.97C31.17 100.7 30.68 100.43 30.2 100.15C30.02 100.04 29.83 99.94 29.64 99.84C29 99.45 28.34 99.05 27.69 98.63C27.51 98.51 27.33 98.4 27.15 98.28C26.73 98 26.32 97.73 25.9 97.45C25.86 97.42 25.81 97.38 25.77 97.35C25.61 97.25 25.45 97.13 25.3 97.02C24.87 96.72 24.43 96.41 24.01 96.09C23.8 95.93 23.6 95.78 23.4 95.63C23.01 95.33 22.62 95.04 22.23 94.73C22.05 94.58 21.86 94.43 21.67 94.27C21.21 93.89 20.75 93.5 20.29 93.11C20.21 93.03 20.12 92.96 20.03 92.89C20.02 92.88 20.02 92.88 20.01 92.87C19.49 92.42 18.99 91.95 18.49 91.49C18.34 91.34 18.19 91.2 18.03 91.05C17.65 90.69 17.29 90.33 16.94 89.97C16.77 89.81 16.63 89.67 16.48 89.52C16.01 89.04 15.55 88.55 15.1 88.06C15.07 88.04 15.06 88.02 15.04 88C15.03 87.99 15.02 87.98 15.02 87.97C14.55 87.46 14.09 86.93 13.66 86.41C13.52 86.26 13.4 86.11 13.27 85.97C12.95 85.57 12.62 85.16 12.29 84.76C12.16 84.59 12.02 84.42 11.9 84.25C11.53 83.78 11.18 83.32 10.83 82.84C10.77 82.75 10.7 82.66 10.64 82.57C10.62 82.56 10.61 82.55 10.61 82.53C10.2 81.98 9.82 81.42 9.45 80.85C9.32 80.68 9.22 80.5 9.1 80.32C8.84 79.9 8.55 79.49 8.31 79.07C8.16 78.85 8.03 78.63 7.9 78.42C7.67 78.03 7.44 77.63 7.2 77.23C7.08 77.01 6.95 76.79 6.84 76.55C6.77 76.44 6.68 76.3 6.63 76.18C6.5 75.97 6.39 75.74 6.28 75.52C6.11 75.18 5.92 74.85 5.76 74.49C-1.51 60 -2.68 42.25 6.81 28.61M41.88 9.2C37.32 16.91 36.73 26.42 39.38 34.89C41.88 43.04 47.17 50.24 53.86 55.5C54 55.62 54.14 55.73 54.29 55.85C54.92 56.32 55.55 56.8 56.19 57.25C56.51 57.46 56.81 57.66 57.12 57.86C57.27 57.95 57.4 58.05 57.56 58.14C58.01 58.44 58.5 58.73 58.97 59.01C59.07 59.07 59.16 59.12 59.25 59.17C59.64 59.4 60.02 59.62 60.44 59.83C60.6 59.92 60.78 60.01 60.97 60.1C61.28 60.27 61.58 60.42 61.89 60.58C62.5 60.87 63.12 61.16 63.75 61.44C63.87 61.5 64.01 61.55 64.15 61.61C64.64 61.83 65.15 62.02 65.65 62.22C65.86 62.3 66.08 62.38 66.29 62.46C66.75 62.63 67.23 62.79 67.7 62.94C67.9 63.01 68.09 63.07 68.3 63.13C68.95 63.34 69.62 63.54 70.3 63.71C85.54 67.67 99.83 62.61 107.21 51.98C107.21 51.98 99.01 79.27 63.59 73.39C62.89 73.28 62.23 73.02 61.58 72.81C61.38 72.75 61.17 72.68 60.95 72.61C60.49 72.46 60.02 72.3 59.57 72.14C59.36 72.06 59.15 71.97 58.92 71.9C58.42 71.71 57.92 71.5 57.42 71.28C57.28 71.23 57.15 71.18 57.01 71.12C56.4 70.84 55.79 70.57 55.18 70.27C55.13 70.25 55.08 70.22 55.04 70.2C54.75 70.05 54.46 69.9 54.16 69.75C54.01 69.67 53.87 69.6 53.72 69.51C53.29 69.29 52.86 69.05 52.46 68.8C52.39 68.77 52.32 68.73 52.25 68.7C51.77 68.41 51.3 68.12 50.82 67.82C50.69 67.73 50.55 67.63 50.42 67.55C50.12 67.35 49.82 67.17 49.54 66.97C49.51 66.95 49.5 66.94 49.47 66.93C48.83 66.47 48.19 66.01 47.57 65.52C47.42 65.41 47.29 65.3 47.14 65.19C46.51 64.7 45.9 64.2 45.3 63.67C45.3 63.67 45.3 63.66 45.29 63.66C45.27 63.64 45.24 63.62 45.23 63.6C44.69 63.13 44.17 62.64 43.66 62.15C43.52 62.01 43.38 61.88 43.25 61.75C42.71 61.22 42.19 60.69 41.71 60.14C40.33 58.96 39.2 57.21 38.17 55.73C37.04 54.12 36.03 52.42 35.14 50.67C29.78 40.22 29.4 26.99 36.28 17.12M64.08 4.36C58.48 14.47 63.8 26.88 72.39 33.39C73.9 34.54 75.53 35.52 77.22 36.34C78.12 36.77 79.04 37.15 79.98 37.48C80.71 37.75 81.53 38.02 82.29 38.2C91.87 40.53 99.68 38.93 104.34 32.24C102.91 34.31 97.59 48.08 78.05 44.31C77.62 44.22 77.21 44.07 76.8 43.94C76.66 43.9 76.53 43.85 76.4 43.82C76.1 43.72 75.82 43.62 75.53 43.51C68.45 40.92 62.38 35.44 59.41 28.45C56.61 21.88 57 14.48 61.06 8.53M104.35 32.23C104.35 32.23 104.34 32.24 104.34 32.24C104.34 32.24 104.35 32.23 104.35 32.23Z" />
	<path id="Path 6" class="shp0" d="M514.57 36.43L515.34 39.67C515.56 40.6 514.97 41.35 514.02 41.35M452.83 30.86C452.64 31.76 452.4 32.9 452.25 33.65L445.48 65.35L452.6 31.95L452.83 30.86ZM249.92 52.08L246.18 65.32L249.92 52.08L249.92 52.08ZM515.34 39.67L513.39 31.42C511.85 25.45 507.49 22.62 497.68 22.62L456.45 22.62C455.5 22.62 454.55 23.05 454.35 23.98L438.71 98.18C438.51 99.12 438.45 99.78 438.55 100.25C438.66 100.73 440.5 100.64 441.44 100.64L455.72 100.64C456.68 100.64 458.41 100.71 458.92 100.5C459.45 100.29 459.68 98.87 459.88 97.94L464.92 71.92L471.09 43.06C471.29 42.14 472.22 41.38 473.17 41.38L514.02 41.35C514.96 41.35 515.56 40.6 515.34 39.67ZM573.45 9.6C572.49 9.61 555.33 9.6 555.33 9.6C554.39 9.6 553.16 10.61 552.64 11.4L520.84 58.18C520.3 58.97 519.68 58.94 519.47 58.01L517.12 47.76C516.92 46.83 515.97 46.07 515.01 46.07L494.57 46.07C493.63 46.07 493.06 46.86 493.31 47.78L502.47 79.89C502.74 80.81 502.76 82.32 502.53 83.23L498.25 99.5C498.03 100.42 498.61 100.7 499.58 100.7L519.75 100.7C520.7 100.7 521.68 100.43 521.91 99.5L526.19 83.01C526.42 82.09 527.08 80.84 527.65 80.07L579.54 11.25C580.13 10.49 580.04 9.59 579.1 9.59L573.45 9.6ZM360.67 22.69L342.22 22.69C341.28 22.69 340.32 23.02 340.13 23.95L334.04 52.48L327.96 79.79C327.77 80.71 326.83 80.65 325.88 80.65L313.76 80.65C301.76 80.65 303.15 73.07 305.61 61.72C305.64 61.6 313.3 23.95 313.3 23.95C313.48 23.02 312.85 22.69 311.91 22.69L294.34 22.69C293.39 22.69 292.45 23.02 292.26 23.95L285.19 61.69C281.67 82.1 281.56 100.05 305.22 100.64C305.61 100.66 342.59 100.64 342.59 100.64C343.55 100.64 344.49 100.33 344.69 99.41L352.71 61.56L360.71 23.56C360.71 23.56 360.99 22.69 360.67 22.69ZM176.95 22.62L157.18 22.62C156.23 22.62 155.27 22.85 155.06 23.78L151.49 39.22C151.29 40.14 151.9 40.87 152.85 40.87L171.79 40.87C172.75 40.87 173.69 40 173.9 39.08L177.33 23.53C177.33 23.53 177.61 22.62 176.95 22.62ZM151.57 46.07C150.63 46.07 149.67 46.82 149.46 47.75L146.8 59.53L140.85 86.73C140.85 86.73 137.68 101.18 137.38 102.09C137.38 102.09 134.71 112.53 128.35 112.11C125.39 111.91 122 111.23 122 111.23L121.99 111.23C120.21 110.7 120.09 112.54 119.87 113.47L115.94 130.41C115.72 131.34 116.32 132.17 117.26 132.18C117.26 132.18 125.78 133.39 131.79 133.39L132.78 133.39C147.63 133.39 155.47 124.65 160.49 100.94L166.37 73.5L171.88 47.96C172.08 47.03 171.52 46.17 170.58 46.17" />
	<path id="Path 7" fill-rule="evenodd" class="shp0" d="M433.65 68.89C433.65 68.89 433.58 70.12 431.49 70.13L383.8 70.13C382.85 70.13 381.84 72.37 381.85 73.26C381.46 81.01 385.47 84.47 396.69 84.47L427.64 84.47C428.58 84.47 429.21 84.74 429.02 85.68L425.64 98.86C425.45 99.78 424.51 100.63 423.58 100.65C423.58 100.65 405.75 100.65 392.1 100.65C357.68 100.65 357.3 84.23 361.72 63.45C366.14 43.07 374.07 22.51 407.34 22.51C438.82 22.51 438.5 46.98 433.65 68.89ZM416.26 52.54C416.26 46.68 413.98 41.38 403.31 41.38C393.83 41.38 387.85 45.36 385.85 52.31C385.77 52.57 385.7 53.62 385.71 53.65C385.77 54.54 386.03 55.8 386.92 55.8L412.85 55.99C412.85 55.99 416.11 56.18 416.11 55.15M263.48 79.59C263.37 80.28 263.84 80.81 264.65 80.82L268.76 80.84L272.88 80.87C273.83 80.87 274.42 81.62 274.18 82.55L269.88 98.95C269.64 99.85 268.65 100.61 267.71 100.62L216.63 100.65C183.16 100.84 175.87 77.73 181.44 51.19C187.03 24.84 201.63 0.61 235.29 0.61C269.14 0.61 277.9 25.99 275.01 43.5C272.89 56.58 263.58 79.21 263.58 79.21C263.51 79.34 263.5 79.46 263.48 79.59ZM250.19 50.42C255.08 34.04 250.95 19.79 230.77 21.31C216.01 22.42 208.76 33.36 205.09 51.05C201.45 68.36 205.09 79.96 220.1 79.96L239.87 79.96C240.83 79.96 241.91 79.34 242.17 78.43L246 65.32L250.19 50.42Z" />
</svg>