<svg width="192" height="192" viewBox="0 0 192 192" fill="none" xmlns="http://www.w3.org/2000/svg">
<path fill-rule="evenodd" clip-rule="evenodd" d="M117.853 176.9C108.499 122.126 131.569 86.1158 139.514 75.6381C140.218 78.6906 140.729 82.4135 140.09 85.447L143.418 88.4418L140.09 89.1073C140.09 89.1073 139.092 95.7624 137.428 97.759L139.757 99.4227L136.097 101.087C136.097 101.087 132.769 107.742 129.442 111.735C129.442 111.735 148.076 108.407 151.071 93.7659L148.409 91.7693H152.402C152.402 91.7693 150.449 81.4443 148.842 77.9159C152.318 81.5186 155.685 85.8405 157.061 90.1056L165.712 91.7693L160.055 95.0969C160.055 95.0969 164.048 106.078 163.383 110.736H169.04L163.716 117.059C163.716 117.059 164.714 129.703 161.719 138.355C161.719 138.355 191.334 117.059 183.348 92.7676L177.359 92.1021L184.014 88.4418C184.014 88.4418 168.707 72.1368 163.383 70.473L160.388 74.7988L161.719 69.142C161.719 69.142 159.799 68.4218 156.888 67.8021C158.48 67.855 160.014 68.0587 161.386 68.4765L166.045 64.1507L165.712 69.1421C165.712 69.1421 174.031 71.4713 176.36 73.8006L178.69 70.4731L180.021 76.1299C180.021 76.1299 188.007 81.1212 192 86.7781C192 86.7781 192 59.8249 174.364 54.1681L171.036 57.4956L172.035 51.8387C172.035 51.8387 155.73 53.8353 152.402 56.1646L153.733 59.8249L151.071 56.4973C151.071 56.4973 149.836 57.3522 148.228 58.8466C149.083 56.3062 149.407 54.5008 149.407 54.5008L144.416 53.1698L149.074 52.837C150.073 47.8456 144.749 28.5458 144.749 28.5458L138.759 32.2061L140.756 26.882C125.782 9.57874 95.5009 22.889 95.5009 22.889C103.487 24.8855 113.137 31.2079 113.137 31.2079L120.125 29.8769L117.795 34.2027C121.789 35.8665 128.111 43.8526 128.111 43.8526L133.435 41.5233L130.773 48.8439C134.969 53.7026 136.966 62.6653 137.835 68.1442C132.51 59.9172 121.789 56.1646 121.789 56.1646L119.459 61.4887L119.792 56.1646C114.468 54.168 92.506 56.4974 92.506 56.4974L95.1681 63.818L90.1768 60.4904C68.5477 73.8006 77.532 109.405 77.532 109.405C80.8596 100.754 89.5112 91.7694 89.5112 91.7694V83.4505L93.8371 86.7781C96.1664 83.1178 106.482 77.1282 106.482 77.1282L104.485 71.1386L112.139 75.4644C119.49 70.5636 133.079 70.7866 137.776 71.0296C100.479 100.092 98.5251 150.918 99.8826 174.536C86.1858 173.13 72.0151 172.635 58.4977 173.787C59.627 160.473 59.9847 124.637 34.3717 104.73L34.3787 104.71C37.4231 104.649 46.0391 104.764 50.9116 107.742L55.9029 104.747L54.5719 108.74C54.5719 108.74 60.8942 112.4 62.558 115.062L65.2201 112.733V118.057C65.2201 118.057 70.8769 124.047 72.8735 129.371C72.8735 129.371 78.8631 106.743 64.8873 98.0918L61.5598 100.421L63.5563 95.7625C63.5563 95.7625 49.2478 94.0987 45.9202 95.4297L46.253 98.7573L44.5892 95.4297C44.5892 95.4297 37.9533 97.8187 34.4014 102.834C35.018 99.3113 36.3479 93.7865 38.9325 90.7711L37.2687 86.1125L40.5963 87.7763C40.5963 87.7763 44.9221 82.4522 47.2514 81.4539L45.5876 78.7919L50.2462 79.4574C50.2462 79.4574 56.2358 75.4643 61.5599 74.1333C61.5599 74.1333 42.26 65.8144 32.6101 76.7953L33.9412 80.1229L29.9481 77.7936C29.9481 77.7936 26.6206 90.1055 27.2861 93.4331H30.2809L27.2861 94.4314C27.2861 94.4314 27.498 95.7028 28.0909 97.4635C26.9151 96.3838 25.9549 95.7625 25.9549 95.7625L24.2911 97.759L25.2894 95.4297C22.9602 94.0987 12.6447 92.7677 12.6447 92.7677L13.3102 96.0952L11.3137 94.0987C-2.06271e-05 97.759 0 115.062 0 115.062C2.66204 111.402 7.32066 108.407 7.32066 108.407L8.31889 104.414L9.98267 106.411C11.6464 105.08 16.6378 103.749 16.6378 103.749V100.421L19.6326 103.416C20.3661 103.154 21.1822 102.999 22.0367 102.924C20.3709 103.32 19.2997 103.749 19.2997 103.749L19.9653 107.409L18.3015 104.414C14.974 105.745 4.9913 116.06 4.9913 116.06L9.31708 118.39L5.32408 118.723C0.332742 134.029 19.2997 148.005 19.2997 148.005C17.3032 142.348 17.9687 134.362 17.9687 134.362L14.6412 130.369L17.9687 130.036C17.636 127.374 20.2981 120.386 20.2981 120.386L16.6377 118.057L22.2946 117.059C23.1539 114.195 25.4306 111.331 27.7456 108.997C26.4866 110.873 25.2893 118.057 25.2893 118.057H27.6185L25.9548 119.388C27.9513 128.705 39.9305 130.702 39.9305 130.702C37.6013 128.372 35.6048 124.047 35.6048 124.047L33.2754 123.048L34.6064 122.05C33.6082 120.719 32.9427 116.393 32.9427 116.393L30.9461 116.06L32.9427 114.064C32.6156 112.101 33.0119 109.656 33.4996 107.677C38.5934 114.437 54.0392 138.617 46.7176 175.259C31.3871 177.835 17.4214 182.992 6.65511 191.929H180.021C180.021 191.929 152.353 182.381 117.853 176.9ZM147.449 76.514L145.747 78.4591L148.182 77.2417C147.937 76.9952 147.693 76.7526 147.449 76.514ZM28.2722 108.475C28.1751 108.57 28.0779 108.665 27.9806 108.762L29.2823 109.738L28.2722 108.475Z" fill="#E11D74"/>
</svg>
