<svg xmlns="http://www.w3.org/2000/svg" viewBox="0 0 725 149" width="195" height="40">
	<style>
		tspan { white-space:pre }
		.shp0 { fill: #dee2e6 } 
		.shp1 { fill: #ffffff } 
	</style>
	<g id="Layer">
		<path id="Layer" fill-rule="evenodd" class="shp0" d="M24.7 1.2L223.8 1.2C236.4 1.2 246.6 11.4 246.6 24L246.6 100C246.6 112.6 236.4 122.8 223.8 122.8L152.4 122.8L162.2 146.8L119.1 122.8L24.8 122.8C12.2 122.8 2 112.6 2 100L2 24C1.9 11.5 12.1 1.2 24.7 1.2Z" />
		<path id="Layer" class="shp1" d="M14.2 21.9C15.6 20 17.7 19 20.5 18.8C25.6 18.4 28.5 20.8 29.2 26C32.3 46.9 35.7 64.6 39.3 79.1L61.2 37.4C63.2 33.6 65.7 31.6 68.7 31.4C73.1 31.1 75.8 33.9 76.9 39.8C79.4 53.1 82.6 64.4 86.4 74C89 48.6 93.4 30.3 99.6 19C101.1 16.2 103.3 14.8 106.2 14.6C108.5 14.4 110.6 15.1 112.5 16.6C114.4 18.1 115.4 20 115.6 22.3C115.7 24.1 115.4 25.6 114.6 27.1C110.7 34.3 107.5 46.4 104.9 63.2C102.4 79.5 101.5 92.2 102.1 101.3C102.3 103.8 101.9 106 100.9 107.9C99.7 110.1 97.9 111.3 95.6 111.5C93 111.7 90.3 110.5 87.7 107.8C78.4 98.3 71 84.1 65.6 65.2C59.1 78 54.3 87.6 51.2 94C45.3 105.3 40.3 111.1 36.1 111.4C33.4 111.6 31.1 109.3 29.1 104.5C24 91.4 18.5 66.1 12.6 28.6C12.3 26 12.8 23.7 14.2 21.9Z" />
		<path id="Layer" fill-rule="evenodd" class="shp1" d="M229.2 37.6C232.4 43 234 49.5 234 57.3C234 67.6 231.4 77 226.2 85.6C220.2 95.6 212.4 100.6 202.7 100.6C201 100.6 199.2 100.4 197.3 100C190.2 98.5 184.9 94.7 181.3 88.4C178.1 82.9 176.5 76.3 176.5 68.6C176.5 58.3 179.1 48.9 184.3 40.4C190.4 30.4 198.2 25.4 207.8 25.4C209.5 25.4 211.3 25.6 213.2 26C220.3 27.5 225.6 31.3 229.2 37.6ZM216.6 65.3C217 63 217.3 60.5 217.3 57.9C217.3 55 216.7 51.9 215.5 48.8C214 44.9 212 42.8 209.6 42.3C206 41.6 202.5 43.6 199.2 48.5C196.5 52.3 194.8 56.3 193.9 60.4C193.4 62.7 193.2 65.2 193.2 67.7C193.2 70.6 193.8 73.7 195 76.8C196.5 80.7 198.5 82.8 200.9 83.3C203.4 83.8 206.1 82.7 209 80.1C212.7 76.8 215.2 71.9 216.6 65.3Z" />
		<path id="Layer" fill-rule="evenodd" class="shp1" d="M166.5 37.6C169.7 43 171.3 49.5 171.3 57.3C171.3 67.6 168.7 77 163.5 85.6C157.5 95.6 149.7 100.6 140 100.6C138.3 100.6 136.5 100.4 134.6 100C127.5 98.5 122.2 94.7 118.6 88.4C115.4 82.9 113.8 76.3 113.8 68.6C113.8 58.3 116.4 48.9 121.6 40.4C127.7 30.4 135.5 25.4 145.1 25.4C146.8 25.4 148.6 25.6 150.5 26C157.5 27.5 162.9 31.3 166.5 37.6ZM153.9 65.3C154.4 63 154.6 60.5 154.6 57.9C154.6 55 154 51.9 152.8 48.8C151.3 44.9 149.3 42.8 146.9 42.3C143.3 41.6 139.8 43.6 136.5 48.5C133.8 52.3 132.1 56.3 131.2 60.4C130.7 62.7 130.5 65.2 130.5 67.7C130.5 70.6 131.1 73.7 132.3 76.8C133.8 80.7 135.8 82.8 138.2 83.3C140.7 83.8 143.4 82.7 146.3 80.1C150 76.8 152.5 71.9 153.9 65.3Z" />
		<g id="Layer">
			<g id="Layer">
				<path id="Layer" fill-rule="evenodd" class="shp0" d="M297.2 26.9C301.1 26.9 304.8 27.3 308.1 28.2L308.1 44.4C304.5 43.4 301.2 42.9 298.1 42.9C293.3 42.9 289.4 44.7 286.2 48.4C283.1 52 281.5 56.7 281.5 62.4C281.5 68.5 283.1 73.3 286.3 76.9C289.5 80.4 293.7 82.2 299 82.2C301.6 82.2 304.6 81.7 308.1 80.7L308.1 96.9C304.3 98 300.8 98.5 297.7 98.5C287 98.5 278.4 95.1 271.8 88.4C265.2 81.7 261.9 72.8 261.9 61.9C261.9 51.7 265.2 43.3 271.9 36.7C278.6 30.1 287 26.8 297.2 26.9ZM363.9 36C369.1 42.2 371.7 51 371.7 62.4C371.7 73.8 369.1 82.7 364 89C358.9 95.3 351.6 98.5 342.1 98.5C332.3 98.5 324.8 95.3 319.7 89C314.6 82.7 312 73.6 312 61.7C312 50.7 314.5 42.1 319.7 36C324.9 29.9 332.1 26.8 341.3 26.8C351.1 26.8 358.6 29.9 363.9 36ZM352.1 62.2C352.1 48.9 348.5 42.3 341.5 42.3C334.8 42.3 331.5 48.8 331.5 61.9C331.5 70.4 332.3 76 334 78.8C335.7 81.6 338.1 83 341.3 83C344.7 83 347.4 81.6 349.2 78.8C351 76 352 70.4 352.1 62.2ZM421.1 28.7L444.9 28.7L454.1 96.8L435.9 96.8L431 50L419.6 96.8L407.2 96.8L395.3 49.9L390.6 96.8L373.2 96.8L381.9 28.7L405.1 28.7C408.4 43.4 411 56 412.9 66.6L414.9 56C415.7 51.9 416.6 47.9 417.5 44L421.1 28.7ZM504.4 28.7L528.1 28.7L537.3 96.8L519.1 96.8L514.2 50L502.9 96.8L490.5 96.8L478.6 49.9L473.9 96.8L456.5 96.8L465.2 28.7L488.4 28.7C491.7 43.4 494.3 56 496.2 66.6L498.2 56C499 51.9 499.9 47.9 500.8 44L504.4 28.7ZM561 82.4L579.9 82.4L579.9 96.9L542.6 96.9L542.6 28.8L579.8 28.8L579.8 43.3L561 43.3L561 55.8L577.3 55.8L577.3 69.9L561 69.9L561 82.4ZM623.5 66.1L638.2 96.8L618.8 96.8L603.9 65.8L603.6 65.8L603.6 96.8L585.2 96.8L585.2 28.7L606.6 28.7C615.2 28.7 622.1 30.6 627.1 34.3C632.1 38 634.6 43.1 634.6 49.5C634.6 52.8 633.6 56 631.7 59.1C629.8 62.2 627 64.5 623.5 66.1ZM615.7 50.8C615.7 47.6 614.8 45.4 612.9 44C611 42.6 607.9 41.9 603.5 41.8L603.5 58C611.6 57.9 615.7 55.5 615.7 50.8ZM670.7 26.9C674.6 26.9 678.3 27.3 681.6 28.2L681.6 44.4C678 43.4 674.7 42.9 671.6 42.9C666.8 42.9 662.9 44.7 659.7 48.4C656.6 52 655 56.7 655 62.4C655 68.5 656.6 73.3 659.8 76.9C663 80.4 667.2 82.2 672.5 82.2C675.1 82.2 678.1 81.7 681.6 80.7L681.6 96.9C677.8 98 674.3 98.5 671.2 98.5C660.5 98.5 651.9 95.1 645.3 88.4C638.7 81.7 635.4 72.8 635.4 61.9C635.4 51.7 638.7 43.3 645.4 36.7C652.1 30.1 660.6 26.8 670.7 26.9ZM705.1 82.3L724.1 82.3L724.1 96.8L686.8 96.8L686.8 28.7L724 28.7L724 43.2L705.1 43.2L705.1 55.7L721.4 55.7L721.4 69.8L705.1 69.8L705.1 82.3Z" />
			</g>
		</g>
	</g>
</svg>