<svg xmlns="http://www.w3.org/2000/svg" viewBox="0 0 1000 210" width="238" height="50">
	<style>
		tspan { white-space:pre }
		.shp0 { fill: #dee2e6 } 
	</style>
	<path id="Path 1" fill-rule="evenodd" class="shp0" d="M615.75 117.05C615.75 137.39 601.87 154.36 569.85 154.36L504.68 154.36L479.83 123.31L476.02 123.31L476.02 131.35C476.02 147.22 478.04 150.12 490.58 150.12L490.58 154.36L446.02 154.36L446.02 150.12C458.55 150.12 460.57 147.22 460.57 131.35L460.57 102.75C460.57 86.89 458.55 84.21 446.02 84.21L446.02 79.96L485.43 79.96C505.13 79.96 515.66 89.35 515.66 101.63C515.66 111.47 508.27 120.18 494.38 122.64L504.68 133.81C513.64 143.64 520.14 148.78 529.76 150.12C542.3 150.12 544.32 147.22 544.32 131.35L544.32 102.75C544.32 86.89 542.3 84.21 529.76 84.21L529.76 79.96L569.85 79.96C601.87 79.96 615.75 96.72 615.75 117.05ZM485.2 116.38C495.28 116.38 499.76 109.46 499.76 101.63C499.76 93.59 495.28 86.67 485.2 86.67L476.02 86.67L476.02 116.38L485.2 116.38ZM598.06 116.83C598.06 103.64 593.8 86.67 570.52 86.67L559.77 86.67L559.77 135.15C559.77 145.43 560.89 147.44 568.95 147.44L570.52 147.44C593.8 147.44 598.06 130.46 598.06 116.83ZM321.3 124.65L336.75 79.07C341.23 65.89 339.21 62.09 324.88 62.09L324.88 57.62L366.98 57.62L366.98 62.09C352.87 62.09 349.51 65.44 343.91 81.75L318.38 158.16L315.47 158.16L292.63 88.23L269.35 158.16L266.43 158.16L241.58 81.75C236.2 65.44 232.62 62.09 219.63 62.09L219.63 57.62L269.35 57.62L269.35 62.09C256.13 62.09 252.55 65.22 257.25 79.07L272.25 124.65L294.87 57.62L299.13 57.62L321.3 124.65Z" />
	<path id="Path 2" fill-rule="evenodd" class="shp0" d="M397.43 157.27C372.8 157.27 352.64 139.17 352.64 117.05C352.64 95.16 372.8 77.06 397.43 77.06C422.06 77.06 442.21 95.16 442.21 117.05C442.21 139.17 422.06 157.27 397.43 157.27ZM397.43 83.99C376.83 83.99 369.66 102.53 369.66 117.05C369.66 131.8 376.83 150.12 397.43 150.12C418.25 150.12 425.42 131.8 425.42 117.05C425.42 102.53 418.25 83.99 397.43 83.99ZM671.06 149.9L671.06 154.36L619.78 154.36L619.78 149.9C634.78 149.9 637.47 146.1 637.47 123.75L637.47 88.01C637.47 65.66 634.78 62.09 619.78 62.09L619.78 57.62L666.13 57.62C689.19 57.62 701.96 69.46 701.96 85.33C701.96 100.74 689.19 112.81 666.13 112.81L653.36 112.81L653.36 123.75C653.36 146.1 656.05 149.9 671.06 149.9ZM666.13 65.66L653.36 65.66L653.36 104.54L666.13 104.54C678.67 104.54 684.49 95.83 684.49 85.33C684.49 74.6 678.67 65.66 666.13 65.66ZM859.15 133.36L857.8 154.36L765.77 154.36L740.92 123.31L737.11 123.31L737.11 131.35C737.11 147.22 739.13 150.12 751.67 150.12L751.67 154.36L707.11 154.36L707.11 150.12C719.65 150.12 721.66 147.22 721.66 131.35L721.66 102.75C721.66 86.89 719.65 84.21 707.11 84.21L707.11 79.96L746.52 79.96C766.22 79.96 776.75 89.35 776.75 101.63C776.75 111.47 769.36 120.18 755.47 122.64L765.77 133.81C774.6 143.49 781.05 148.61 790.45 150.04C800.33 149.52 802.05 145.86 802.05 131.35L802.05 102.75C802.05 86.89 800.03 84.21 787.49 84.21L787.49 79.96L853.33 79.96L854.89 100.96L851.31 100.96L850.19 96.72C848.18 89.35 845.71 86.67 829.81 86.67L817.5 86.67L817.5 111.69C834.97 111.69 836.31 110.13 836.31 98.51L840.56 98.51L840.56 131.8L836.31 131.8C836.31 120.18 834.97 118.62 817.5 118.62L817.5 128.89C817.5 144.76 819.52 147.44 831.16 147.44L834.29 147.44C850.19 147.44 852.66 144.76 854.67 137.39L855.79 133.36L859.15 133.36ZM746.29 116.38C756.37 116.38 760.85 109.46 760.85 101.63C760.85 93.59 756.37 86.67 746.29 86.67L737.11 86.67L737.11 116.38L746.29 116.38ZM901.25 157.27C892.29 157.27 884.45 152.58 881.09 149.67C879.97 150.79 877.96 154.14 877.51 157.27L873.26 157.27L873.26 126.44L877.73 126.44C879.53 141.18 889.82 149.9 903.04 149.9C910.2 149.9 916.02 145.87 916.02 139.17C916.02 133.36 910.87 128.89 901.69 124.65L888.93 118.62C879.97 114.37 873.26 107 873.26 97.17C873.26 86.44 883.33 77.28 897.22 77.28C904.61 77.28 910.87 79.96 914.68 83.09C915.8 82.2 916.92 79.74 917.59 77.06L921.85 77.06L921.85 103.42L917.14 103.42C915.58 92.92 909.75 84.21 897.89 84.21C891.62 84.21 885.79 87.78 885.79 93.37C885.79 99.18 890.5 102.3 901.25 107.22L913.56 113.25C924.31 118.39 928.56 126.66 928.56 133.36C928.56 147.44 916.25 157.27 901.25 157.27ZM968.95 157.27C960 157.27 952.16 152.58 948.8 149.67C947.68 150.79 945.67 154.14 945.22 157.27L940.96 157.27L940.96 126.44L945.44 126.44C947.23 141.18 957.53 149.9 970.75 149.9C977.91 149.9 983.73 145.87 983.73 139.17C983.73 133.36 978.58 128.89 969.4 124.65L956.64 118.62C947.68 114.37 940.96 107 940.96 97.17C940.96 86.44 951.04 77.28 964.92 77.28C972.31 77.28 978.58 79.96 982.39 83.09C983.51 82.2 984.63 79.74 985.3 77.06L989.55 77.06L989.55 103.42L984.85 103.42C983.28 92.92 977.46 84.21 965.6 84.21C959.33 84.21 953.5 87.78 953.5 93.37C953.5 99.18 958.2 102.3 968.95 107.22L981.27 113.25C992.02 118.39 996.27 126.66 996.27 133.36C996.27 147.44 983.96 157.27 968.95 157.27ZM209.56 105.88C209.56 161.41 164.44 206.43 108.79 206.43C53.14 206.43 8.02 161.41 8.02 105.88C8.02 50.35 53.14 5.33 108.79 5.33C164.44 5.33 209.56 50.35 209.56 105.88ZM71.92 18.79C66.31 21.16 60.9 24.09 55.83 27.5C50.82 30.89 46.1 34.77 41.81 39.05C37.52 43.33 33.63 48.04 30.24 53.04C26.82 58.09 23.88 63.49 21.51 69.09C16.57 80.74 14.07 93.12 14.07 105.88C14.07 118.64 16.57 131.02 21.51 142.67C23.88 148.27 26.82 153.67 30.24 158.72C33.63 163.72 37.52 168.43 41.81 172.71C46.1 176.99 50.82 180.87 55.83 184.26C60.9 187.67 66.31 190.6 71.92 192.97C83.59 197.89 96 200.39 108.79 200.39C121.58 200.39 133.98 197.89 145.66 192.97C151.27 190.6 156.68 187.67 161.74 184.26C166.76 180.87 171.48 176.99 175.77 172.71C180.06 168.43 183.95 163.72 187.34 158.72C190.76 153.67 193.7 148.27 196.07 142.67C201.01 131.02 203.51 118.64 203.51 105.88C203.51 93.12 201.01 80.74 196.07 69.09C193.7 63.49 190.76 58.09 187.34 53.04C183.95 48.04 180.06 43.33 175.77 39.05C171.48 34.77 166.76 30.89 161.74 27.5C156.68 24.09 151.27 21.16 145.66 18.79C133.98 13.87 121.58 11.37 108.79 11.37C96 11.37 83.59 13.87 71.92 18.79ZM192.76 105.88C192.76 136.79 175.97 163.77 151.01 178.3L176.66 104.31C181.45 92.35 183.04 82.8 183.04 74.3C183.04 71.21 182.84 68.35 182.48 65.68C189.03 77.61 192.76 91.31 192.76 105.88ZM136.07 183.76C136.24 184.18 136.45 184.56 136.68 184.92C127.95 187.98 118.57 189.67 108.79 189.67C100.55 189.67 92.59 188.46 85.07 186.25L110.26 113.21L136.07 183.76ZM159.37 129.27L150.71 156.66L120.36 66.59C125.42 66.33 129.97 65.8 129.97 65.8C134.5 65.26 133.96 58.63 129.44 58.89C129.44 58.89 115.84 59.96 107.05 59.96C98.8 59.96 84.94 58.89 84.94 58.89C80.41 58.63 79.88 65.53 84.41 65.8C84.41 65.8 88.69 66.33 93.21 66.59L106.3 102.36L87.92 157.35L57.34 66.59C62.4 66.33 66.95 65.8 66.95 65.8C71.47 65.26 70.94 58.63 66.41 58.89C66.41 58.89 52.81 59.96 44.03 59.96C42.46 59.96 40.6 59.92 38.63 59.86C53.64 37.11 79.45 22.09 108.79 22.09C130.65 22.09 150.56 30.43 165.5 44.09C165.13 44.07 164.78 44.02 164.41 44.02C156.16 44.02 150.31 51.19 150.31 58.89C150.31 65.8 154.3 71.64 158.56 78.54C161.75 84.12 165.48 91.29 165.48 101.65C165.48 108.82 163.22 117.3 159.37 129.27ZM32.09 71.78L72.14 181.28C44.13 167.7 24.82 139.04 24.82 105.88C24.82 93.73 27.43 82.2 32.09 71.78Z" />
</svg>