<svg xmlns="http://www.w3.org/2000/svg" viewBox="0 0 722 629" width="722" height="629">
	<style>
		tspan { white-space:pre }
		.shp0 { fill: #ffb9b9 } 
		.shp1 { fill: #2f2e41 } 
		.shp2 { fill: #ffffff } 
		.shp3 { fill: #3f3d56 } 
		.shp4 { fill: #e6e6e6 } 
		.shp5 { fill: #96588a } 
	</style>
	<g id="Folder 1">
		<path id="Layer" class="shp0" d="M557.98 536.05L546.15 542.5L553.68 567.21L565.51 568.28L571.96 554.32L557.98 536.05L557.98 536.05Z" />
		<path id="Layer" class="shp0" d="M594.54 585.48L594.54 597.29L612.82 596.22L612.56 586.49L594.54 585.48L594.54 585.48Z" />
		<path id="Layer" class="shp1" d="M553.68 394.22L560.13 474.81L580.56 593L612.82 588.7L602.07 495.22L606.37 409.27L553.68 394.22L553.68 394.22Z" />
		<path id="Layer" class="shp1" d="M639.7 334.05L562.28 335.13L553.68 394.22L606.37 418.94L619.27 466.21L553.68 536.05L579.49 568.28C579.49 568.28 616.05 518.86 642.93 490.92C669.81 462.99 656.9 378.11 656.9 378.11L639.7 334.05Z" />
		<path id="Layer" class="shp0" d="M593.47 181.48C606.55 181.48 617.12 170.92 617.12 157.84C617.12 144.77 606.55 134.21 593.47 134.21C580.38 134.21 569.81 144.77 569.81 157.84C569.81 170.92 580.38 181.48 593.47 181.48Z" />
		<path id="Layer" class="shp0" d="M584.86 173.96L584.86 197.6L600.99 223.39C600.99 223.39 625.72 205.12 620.35 200.82C614.97 196.52 613.89 163.22 613.89 163.22L584.86 173.96Z" />
		<path id="Layer" class="shp2" d="M584.86 193.3L568.73 212.64L575.19 346.95L625.72 345.87L634.32 228.76L623.57 198.67L616.2 188.65L603.14 208.34L584.86 193.3L584.86 193.3Z" />
		<path id="Layer" class="shp1" d="M559.06 263.14L547.23 308.27L559.06 353.39L539.7 379.18L522.5 297.52C522.5 297.52 535.4 230.91 536.48 223.39C537.55 215.86 539.7 214.79 539.7 214.79L548.3 215.86L559.06 263.14Z" />
		<path id="Layer" class="shp1" d="M645.08 280.33L652.6 294.3L654.75 317.94L650.45 344.8L665.51 369.51L680.56 301.82L664.43 214.79L657.98 214.79L645.08 280.33L645.08 280.33Z" />
		<path id="Layer" class="shp1" d="M553.68 534.98C553.68 534.98 538.63 539.27 533.25 540.35C527.88 541.42 536.48 561.84 536.48 561.84C536.48 561.84 541.85 589.77 542.93 595.15C544 600.52 551.53 618.78 561.21 620.93C570.89 623.08 564.43 583.33 564.43 583.33C564.43 583.33 568.73 570.43 568.73 566.14C568.73 561.84 562.28 563.99 562.28 563.99C545.08 561.84 553.68 534.98 553.68 534.98Z" />
		<path id="Layer" class="shp1" d="M589.16 617.71C590.24 624.16 588.09 624.16 605.29 626.31C622.5 628.45 618.2 614.49 618.2 614.49C618.02 612.84 617.79 611.2 617.52 609.57C617.25 607.94 616.94 606.31 616.58 604.7C616.22 603.08 615.82 601.48 615.37 599.89C614.92 598.29 614.43 596.71 613.89 595.15C610.67 586.55 593.47 597.29 593.47 597.29C593.47 597.29 588.09 611.26 589.16 617.71Z" />
		<path id="Layer" class="shp1" d="M613.92 163.97L614.48 173.52C614.48 173.52 621.42 157.84 622.5 141.73C623.57 125.61 605.29 122.39 594.54 121.31C583.79 120.24 565.51 127.76 565.51 136.35C565.51 144.95 584.86 142.8 592.39 140.65C599.92 138.5 603.14 156.77 603.14 156.77L607.44 157.84L613.92 163.97Z" />
		<path id="Layer" class="shp2" d="M578.52 200.91L584.86 193.3L603.14 208.34L584.86 221.24L578.52 200.91L578.52 200.91Z" />
		<path id="Layer" class="shp2" d="M623.57 198.67L616.05 189L603.14 208.34L619.27 220.16L623.57 198.67L623.57 198.67Z" />
		<path id="Layer" class="shp1" d="M555.83 278.18L560.13 319.01L551.53 343.72L546.15 367.36C546.15 367.36 546.15 389.93 567.66 391C589.16 392.07 607.44 323.31 607.44 323.31C607.44 323.31 610.67 338.35 612.82 346.95C614.97 355.54 651.53 389.93 651.53 389.93C651.53 389.93 660.13 388.85 667.66 371.66C675.18 354.47 652.6 338.35 652.6 338.35L646.15 315.79L648.3 287.85L663.36 214.79L618.73 191.69L623.57 253.47L607.44 301.82L583.25 194.91L575.19 200.82L540.78 214.79L555.83 278.18Z" />
		<path id="Layer" class="shp3" d="M447.41 627.2L722 627.2L722 624.96L447 624.96L447.41 627.2L447.41 627.2Z" />
	</g>
	<g id="Folder 2">
		<path id="Layer" class="shp4" d="M44.07 172.7L131.23 172.7L131.23 259.79L44.07 259.79L44.07 172.7Z" />
		<path id="Layer" class="shp5" d="M60.39 188.7L115.85 188.7L115.85 244.12L60.39 244.12L60.39 188.7Z" />
		<path id="Layer" class="shp5" d="M0 0L175.3 0L175.3 121.73L0 121.73L0 0Z" />
		<path id="Layer copy" class="shp5" d="M174 0L349.3 0L349.3 121.73L174 121.73L174 0Z" />
		<path id="Layer" fill-rule="evenodd" class="shp2" d="M87.65 23.75C92.52 23.77 97.35 24.74 101.85 26.61C106.35 28.48 110.44 31.21 113.88 34.65C117.33 38.1 120.06 42.18 121.93 46.68C123.81 51.18 124.78 56 124.79 60.86C124.79 75.88 115.74 89.41 101.86 95.15C87.99 100.9 72.01 97.72 61.39 87.11C50.77 76.49 47.59 60.53 53.34 46.66C59.09 32.79 72.63 23.75 87.65 23.75ZM87.65 34.89C86.19 34.89 84.74 35.18 83.39 35.74C82.04 36.3 80.82 37.13 79.78 38.16C78.75 39.19 77.93 40.42 77.37 41.76C76.81 43.11 76.51 44.56 76.51 46.02C76.51 50.52 79.22 54.58 83.39 56.31C87.55 58.03 92.34 57.08 95.53 53.89C98.72 50.71 99.67 45.92 97.94 41.76C96.22 37.6 92.16 34.89 87.65 34.89ZM87.65 88.49C89.84 88.47 92.03 88.2 94.15 87.66C96.28 87.12 98.33 86.33 100.26 85.3C102.2 84.27 104 83 105.63 81.54C107.26 80.07 108.7 78.42 109.93 76.6C109.76 69.18 95.08 65.09 87.65 65.09C80.22 65.09 65.55 69.18 65.37 76.6C66.6 78.42 68.04 80.08 69.67 81.54C71.3 83.01 73.1 84.27 75.04 85.3C76.97 86.33 79.02 87.13 81.15 87.66C83.27 88.2 85.46 88.48 87.65 88.49L87.65 88.49Z" />
		<path id="Layer" class="shp4" d="M218.36 172.7L305.52 172.7L305.52 259.79L218.36 259.79L218.36 172.7Z" />
		<path id="Layer" class="shp5" d="M234.68 188.7L290.14 188.7L290.14 244.12L234.68 244.12L234.68 188.7Z" />
		<path id="Layer" fill-rule="evenodd" class="shp2" d="M261.94 23.75C266.81 23.77 271.64 24.74 276.14 26.61C280.64 28.48 284.72 31.21 288.17 34.65C291.62 38.1 294.35 42.18 296.22 46.68C298.1 51.18 299.07 56 299.08 60.86C299.08 75.88 290.03 89.41 276.15 95.15C262.27 100.9 246.3 97.72 235.68 87.11C225.06 76.49 221.88 60.53 227.63 46.66C233.38 32.79 246.92 23.75 261.94 23.75ZM261.94 34.89C260.48 34.89 259.03 35.18 257.68 35.74C256.33 36.3 255.11 37.13 254.07 38.16C253.04 39.19 252.22 40.42 251.66 41.76C251.09 43.11 250.8 44.56 250.8 46.02C250.8 50.52 253.51 54.58 257.68 56.31C261.84 58.03 266.63 57.08 269.82 53.89C273.01 50.71 273.96 45.92 272.23 41.76C270.51 37.6 266.45 34.89 261.94 34.89ZM261.94 88.49C264.13 88.47 266.31 88.2 268.44 87.66C270.57 87.12 272.62 86.33 274.55 85.3C276.49 84.27 278.29 83 279.92 81.54C281.55 80.07 282.99 78.42 284.22 76.6C284.05 69.18 269.37 65.09 261.94 65.09C254.51 65.09 239.83 69.18 239.66 76.6C240.88 78.42 242.33 80.08 243.96 81.54C245.59 83.01 247.39 84.27 249.32 85.3C251.26 86.33 253.31 87.13 255.44 87.66C257.56 88.2 259.75 88.48 261.94 88.49L261.94 88.49Z" />
		<path id="Layer" class="shp4" d="M348.7 0L524 0L524 121.73L348.7 121.73L348.7 0Z" />
		<path id="Layer" fill-rule="evenodd" class="shp2" d="M436.35 23.75C441.22 23.77 446.05 24.74 450.55 26.61C455.04 28.48 459.13 31.21 462.58 34.65C466.03 38.1 468.76 42.18 470.63 46.68C472.5 51.18 473.48 56 473.49 60.86C473.49 75.88 464.44 89.41 450.56 95.15C436.68 100.9 420.71 97.72 410.09 87.11C399.47 76.49 396.29 60.53 402.04 46.66C407.78 32.79 421.33 23.75 436.35 23.75ZM436.35 34.89C434.89 34.89 433.44 35.18 432.09 35.74C430.74 36.3 429.52 37.13 428.48 38.16C427.45 39.19 426.63 40.42 426.07 41.76C425.5 43.11 425.21 44.56 425.21 46.02C425.21 50.52 427.92 54.58 432.09 56.31C436.25 58.03 441.04 57.08 444.23 53.89C447.41 50.71 448.37 45.92 446.64 41.76C444.92 37.6 440.86 34.89 436.35 34.89ZM436.35 88.49C438.54 88.47 440.72 88.2 442.85 87.66C444.98 87.12 447.03 86.33 448.96 85.3C450.9 84.27 452.7 83 454.33 81.54C455.96 80.07 457.4 78.42 458.63 76.6C458.45 69.18 443.78 65.09 436.35 65.09C428.92 65.09 414.24 69.18 414.07 76.6C415.29 78.42 416.74 80.08 418.37 81.54C420 83.01 421.8 84.27 423.73 85.3C425.67 86.33 427.72 87.13 429.85 87.66C431.97 88.2 434.16 88.48 436.35 88.49L436.35 88.49Z" />
		<path id="Layer" class="shp4" d="M392.77 172.7L479.93 172.7L479.93 259.79L392.77 259.79L392.77 172.7Z" />
		<path id="Layer" class="shp2" d="M409.09 188.7L464.55 188.7L464.55 244.12L409.09 244.12L409.09 188.7Z" />
		<path id="Layer" class="shp2" d="M84.81 228.22L75.19 215.87L80.78 211.52L85.34 217.37L100.72 201.14L105.87 206.01L84.81 228.22L84.81 228.22Z" />
		<path id="Layer" class="shp2" d="M258.94 228.22L249.32 215.87L254.91 211.52L259.46 217.37L274.85 201.14L280 206.01L258.94 228.22L258.94 228.22Z" />
		<path id="Layer" class="shp4" d="M433.06 228.22L423.45 215.87L429.04 211.52L433.59 217.37L448.98 201.14L454.12 206.01L433.06 228.22L433.06 228.22Z" />
	</g>
</svg>