<svg width="63" height="61" viewBox="0 0 63 61" fill="none" xmlns="http://www.w3.org/2000/svg">
<path d="M58.3647 21.4693C58.3548 26.5281 56.4528 31.4003 53.0327 35.1279C49.6126 38.8556 44.9218 41.169 39.8825 41.6134C34.8432 42.0578 29.8199 40.6011 25.8002 37.5296C21.7805 34.4581 19.0551 29.9941 18.1599 25.015C17.2647 20.036 18.2644 14.9022 20.9625 10.6229C23.6606 6.34355 27.8618 3.22829 32.7403 1.88954C37.6189 0.550794 42.8217 1.0854 47.3261 3.38825C51.8304 5.69111 55.3104 9.59562 57.0819 14.3342C57.126 14.4532 57.1691 14.5722 57.211 14.6923V14.6934C57.398 15.2215 57.5627 15.7595 57.7051 16.3072C58.1445 17.9927 58.3661 19.7275 58.3647 21.4693V21.4693Z" fill="#3F3D56"/>
<path d="M35.7339 7.70641C34.8172 7.21067 33.7993 6.93083 32.758 6.88823C31.7167 6.84563 30.6794 7.04139 29.7253 7.46058C28.8852 7.8262 28.0006 8.48207 27.7203 9.66645C28.8538 8.99751 30.3211 10.0544 30.6127 11.7499L30.5447 11.7687C30.3906 12.9431 30.7345 14.2217 31.4003 14.9499C31.4498 14.6213 31.5719 14.3079 31.7576 14.0324C31.9434 13.7569 32.1882 13.5262 32.4743 13.3571C32.9634 13.0355 33.5046 12.8019 33.878 12.2492C34.3206 11.5939 34.433 10.6362 34.6089 9.76254C34.7847 8.88887 35.1183 7.94985 35.7339 7.70641Z" fill="#96588A"/>
<path d="M29.3895 17.7C29.0756 18.1714 28.6562 18.4672 28.28 18.8355C27.8457 19.2306 27.5607 19.7633 27.4731 20.3439C27.4255 20.7541 27.4992 21.1712 27.489 21.586C27.4788 22.0007 27.3405 22.4676 27.0583 22.5708C26.613 22.7317 26.273 21.9044 25.8152 21.8466C25.4514 21.8013 25.1239 22.3736 25.2292 22.87C25.3346 23.3663 25.8299 23.5862 26.1143 23.2621C26.3716 23.6938 26.1902 24.4769 25.8038 24.6095C25.763 24.8815 25.7222 25.1524 25.6825 25.4243C24.7057 24.741 23.7186 24.0463 22.8879 23.0456C21.964 21.9421 21.391 20.5877 21.2424 19.1562C21.1347 18.006 21.2945 16.6902 20.7664 15.8052C20.3437 15.0969 19.6184 14.9405 18.9657 14.9847C18.8467 14.9926 18.7266 15.0062 18.6075 15.0209C18.9925 13.8647 19.4814 12.7458 20.0683 11.6778C20.2011 11.6208 20.3245 11.544 20.4344 11.45C21.0418 10.9344 21.3115 9.8906 21.8045 9.1687C21.8362 9.12224 21.8691 9.07691 21.9031 9.03271C22.4074 8.37428 23.0828 8.03544 23.7356 7.72038C25.1805 7.01889 26.6673 6.30834 28.1927 6.40579L27.7587 6.44772C27.2521 7.86657 26.7452 9.28544 26.2378 10.7043C26.1607 10.9219 26.0829 11.1398 26.0044 11.3582C25.7165 12.1651 25.4196 13.0241 25.4638 13.9273C25.4899 14.4622 25.6757 15.0334 26.0293 15.217C26.3591 15.387 26.7195 15.1784 27.0379 14.9722C27.1728 14.8861 27.3065 14.7999 27.4413 14.7127C27.9252 14.401 28.4613 14.0814 28.9724 14.2899C29.4404 14.4803 29.7861 15.1161 29.8518 15.8017C29.9121 16.4682 29.7495 17.1359 29.3895 17.7Z" fill="#96588A"/>
<path d="M32.2675 27.3868C30.8542 26.5167 29.4409 25.6465 28.0276 24.7763L28.0516 24.7145C27.1728 25.0492 26.808 26.6112 26.9532 27.8885C27.0985 29.1659 27.5909 30.3078 27.8396 31.5524C28.1751 33.2557 28.0485 35.0176 27.473 36.6554C29.3314 34.5702 30.9761 32.3039 32.3823 29.8905C32.5788 29.5864 32.7285 29.2545 32.8264 28.9059C32.9301 28.5344 32.8932 28.1376 32.7226 27.7917C32.6069 27.621 32.4505 27.4819 32.2675 27.3868V27.3868Z" fill="#96588A"/>
<path d="M26.6897 11.5556C26.5237 11.9119 26.4982 12.3177 26.6181 12.6921C26.7575 12.9937 27.0105 13.228 27.3219 13.344L28.1028 13.731C28.3626 13.8598 28.6426 13.9899 28.9074 13.8839C29.2269 13.7561 29.4483 13.2553 29.3911 12.7904C29.3301 12.2957 29.0182 11.9554 28.7298 11.6656C28.3262 11.2601 27.9226 10.8545 27.519 10.449L27.2916 10.7276C27.0455 10.9676 26.842 11.2475 26.6897 11.5556V11.5556Z" fill="#96588A"/>
<path d="M54.1785 16.8444C54.5298 16.9271 54.8812 17.0098 55.2325 17.0926C55.1713 18.2791 54.5831 19.3773 53.7943 19.775C53.4657 19.9405 53.0996 20.0017 52.8277 20.3111C52.5817 20.5921 52.4571 21.0295 52.3426 21.4477C52.142 22.1776 51.9414 22.9074 51.7408 23.6372C51.5255 24.4237 51.249 25.2974 50.6892 25.5808C50.2087 25.8244 49.659 25.5264 49.2896 25.0266C48.9202 24.5268 48.6946 23.8548 48.4759 23.1998C48.4895 23.9137 48.1575 24.6141 47.6871 24.8623C47.2157 25.1104 46.6423 24.8861 46.3272 24.3319C46.1006 23.9341 46.0065 23.4094 45.7844 23.006C45.5623 22.6025 45.0965 22.3714 44.854 22.7499C44.6942 23.0015 44.7146 23.3868 44.6352 23.7063C44.5953 23.9185 44.4902 24.113 44.3347 24.2627C44.1791 24.4123 43.9807 24.5098 43.7672 24.5416C43.5708 24.5371 43.3774 24.4926 43.1987 24.411C43.0201 24.3294 42.8599 24.2122 42.728 24.0667C42.034 23.3568 41.5822 22.4457 41.4372 21.4636C41.3389 20.9927 41.3513 20.5055 41.4734 20.0402C41.6128 19.5994 41.9494 19.2594 42.2837 19.3433C42.5036 18.8786 42.0695 18.2621 41.6786 18.3165C41.2864 18.3709 40.9793 18.7914 40.6575 19.1143C40.3368 19.4373 39.888 19.6719 39.565 19.3512C39.5722 19.4685 39.5326 19.5839 39.4547 19.6719C39.3769 19.76 39.2672 19.8135 39.1499 19.8207C39.1383 19.8214 39.1267 19.8217 39.1151 19.8215C38.9003 19.7599 38.7008 19.6541 38.5292 19.511C37.7892 19.0497 36.8497 19.3557 36.3239 20.2283C36.6525 18.8299 37.1341 17.2252 38.1439 16.8965C38.5564 16.7617 39.0063 16.8727 39.3961 16.6392C40.0863 16.2256 40.2257 14.6628 39.6296 14.018C39.7055 14.6277 39.6908 15.3394 39.3689 15.7565C39.0471 16.1735 38.3717 15.9015 38.4125 15.285C38.4033 15.3717 38.367 15.4533 38.3086 15.5181C38.2502 15.5829 38.1728 15.6275 38.0876 15.6456C38.0023 15.6637 37.9134 15.6544 37.8338 15.6189C37.7541 15.5835 37.6877 15.5237 37.6441 15.4482C37.4299 15.1218 37.4481 14.5881 37.5999 14.1982C37.7565 13.8451 37.981 13.5263 38.2606 13.2599C38.7989 12.683 39.3452 12.0994 39.9685 11.7368C40.5929 11.3741 41.3137 11.2517 41.9392 11.6121C42.269 11.8025 42.5591 12.1198 42.8957 12.2875C42.9748 12.3366 43.0628 12.3696 43.1546 12.3847C43.2465 12.3998 43.3404 12.3966 43.431 12.3754C43.5217 12.3542 43.6072 12.3153 43.6828 12.261C43.7584 12.2067 43.8226 12.1381 43.8717 12.059L43.8717 12.059C43.8755 12.0529 43.8792 12.0467 43.8828 12.0405C44.1332 11.6007 44.0154 10.948 44.1083 10.3984C44.2749 9.42716 45.2461 8.97271 45.7844 9.61413C45.3821 9.51101 44.9662 9.98698 44.9163 10.5638C44.8653 11.1406 45.1566 11.7232 45.5464 11.8977C46.2015 12.1878 46.8429 11.458 47.3381 10.7825C47.8549 10.0754 48.3724 9.3686 48.8907 8.6622C48.9735 8.54193 49.0663 8.42894 49.1683 8.32448C49.3307 8.16626 49.5471 8.07566 49.7737 8.07103C50.0003 8.06641 50.2202 8.1481 50.3889 8.29956C50.9124 8.72679 51.1584 9.60282 51.5879 10.2057C52.2112 11.0817 53.1439 11.2948 54.0119 11.4648C54.659 11.5906 55.3065 11.7171 55.9544 11.8444C56.3862 12.6478 56.763 13.4797 57.082 14.3342C55.8939 14.8759 54.8863 15.7471 54.1785 16.8444V16.8444Z" fill="#96588A"/>
<path d="M56.2706 30.4799C55.7851 31.4657 55.2204 32.4106 54.582 33.3051C54.1741 33.1306 53.7355 33.4422 53.3536 33.7346C52.9547 34.0406 52.4753 34.3387 52.0662 34.0599C51.648 33.7743 51.5131 32.9753 51.6457 32.3418C51.7981 31.7574 52.0647 31.209 52.43 30.7281C52.7699 30.2203 53.1337 29.6934 53.6063 29.4962C54.08 29.299 54.6886 29.5778 54.8268 30.2509L55.1623 30.2396C54.9741 29.9812 55.0728 29.4463 55.3255 29.3523C55.6167 29.2423 55.8695 29.6424 56.0417 29.996C56.1188 30.1557 56.1969 30.3167 56.2706 30.4799Z" fill="#96588A"/>
<path d="M43.4229 25.693C42.7019 25.7384 42.1307 24.8508 41.7512 23.9775C41.3717 23.1043 41.0254 22.1057 40.3748 21.6613C40.0031 21.4073 39.5793 21.3724 39.1761 21.2494C38.9474 21.1916 38.7357 21.0802 38.5587 20.9243C38.3817 20.7684 38.2443 20.5726 38.1581 20.3531L37.7007 20.1683C37.0609 20.4881 36.475 20.9059 35.9642 21.4065C35.3804 22.0266 35.0168 22.8215 34.9294 23.6687C34.842 24.5842 35.1647 25.605 35.7675 25.9489C36.2438 26.2206 36.7984 26.0494 37.2809 26.2981C37.8838 26.6089 38.2417 27.5118 38.3772 28.4033C38.5126 29.2948 38.4783 30.2212 38.5752 31.1228C38.6722 32.0244 38.9393 32.9626 39.4921 33.4246C40.184 34.0028 41.1991 33.5224 41.5095 32.4699C41.6617 31.9536 41.6565 31.3711 41.7704 30.8352C41.9709 29.8914 42.512 29.1912 42.9412 28.4171C43.3704 27.6429 43.7083 26.5915 43.4229 25.693Z" fill="#96588A"/>
<path d="M36.2983 16.4193C36.3656 16.4812 36.4283 16.5478 36.4861 16.6186C36.5459 16.7217 36.5764 16.8392 36.5744 16.9584C36.5723 17.0775 36.5378 17.1939 36.4746 17.2949C36.5614 17.2899 36.6463 17.267 36.7238 17.2276C36.8014 17.1882 36.8699 17.1331 36.9251 17.0659C37.0567 16.916 37.1725 16.753 37.2705 16.5793C37.3167 16.5198 37.3496 16.4512 37.3672 16.378C37.3847 16.3048 37.3865 16.2287 37.3724 16.1548C37.3383 16.0576 37.2578 16.0161 37.2013 15.943C37.1231 15.8001 37.0696 15.6449 37.0433 15.4841C37.012 15.3333 36.9393 15.1943 36.8333 15.0826C36.7273 14.9709 36.5923 14.891 36.4434 14.8519L36.4796 14.8588C36.418 14.8953 36.3695 14.9501 36.3407 15.0156C36.3119 15.081 36.3043 15.1539 36.319 15.2239C36.3409 15.3653 36.4318 15.4827 36.4227 15.6269C36.4097 15.8343 36.2025 15.9317 36.1896 16.1391C36.1876 16.2432 36.2267 16.3438 36.2983 16.4193V16.4193Z" fill="#96588A"/>
<path d="M35.0629 12.8959L35.0661 12.8953C35.0887 12.8747 35.1096 12.8524 35.1287 12.8286L35.0629 12.8959Z" fill="#96588A"/>
<path d="M35.2791 13.8683C35.3657 13.7924 35.4298 13.694 35.4643 13.5841C35.4988 13.4742 35.5025 13.3569 35.4749 13.245C35.4225 13.0092 35.2371 12.8506 35.0661 12.8942C35.0165 12.9445 34.9549 12.9813 34.8872 13.0013C34.8194 13.0212 34.7477 13.0236 34.6787 13.0082C34.573 12.981 34.457 12.9109 34.3653 12.9906C34.3128 13.0501 34.2761 13.1218 34.2585 13.1991C34.2246 13.3033 34.1906 13.4074 34.1567 13.5116C34.1406 13.5489 34.1364 13.5903 34.1446 13.63C34.1511 13.646 34.1616 13.66 34.1751 13.6707C34.1886 13.6814 34.2046 13.6885 34.2216 13.6912L34.8324 13.8713C34.9026 13.9036 34.9789 13.9201 35.0561 13.9196C35.1333 13.9191 35.2095 13.9016 35.2791 13.8683V13.8683Z" fill="#96588A"/>
<path d="M50.6512 27.3088C50.5571 27.1547 50.4629 27.0006 50.3688 26.8465C50.2764 26.6681 50.15 26.5094 49.9967 26.3793C49.9297 26.3232 49.8431 26.2959 49.756 26.3036C49.6689 26.3113 49.5884 26.3533 49.5323 26.4203L49.5323 26.4203L49.5273 26.4263L49.5388 26.5144C49.7908 26.7845 49.9626 27.1196 50.0347 27.482C50.0562 27.6395 50.0487 27.8025 50.0676 27.9607C50.0695 28.034 50.086 28.1063 50.1159 28.1732C50.1458 28.2402 50.1886 28.3007 50.2419 28.3511C50.3902 28.4501 50.5642 28.3041 50.6697 28.126C50.764 27.9797 50.8063 27.8059 50.7898 27.6326C50.7662 27.5163 50.7191 27.4061 50.6512 27.3088V27.3088Z" fill="#96588A"/>
<path d="M52.1276 27.5094C52.1456 27.3651 52.1339 27.2187 52.0932 27.0791C52.0865 26.8903 52.1365 26.7037 52.2369 26.5437C52.3366 26.3926 52.4122 26.227 52.4609 26.0527C52.4814 25.9733 52.4776 25.8895 52.4501 25.8122C52.419 25.7423 52.3435 25.7103 52.3002 25.7658L52.3929 25.8254C52.2678 25.8031 52.1393 25.8093 52.0169 25.8436C51.9471 25.8703 51.8848 25.9135 51.8352 25.9694C51.7856 26.0253 51.7502 26.0923 51.732 26.1648C51.7167 26.2778 51.6917 26.3893 51.6573 26.498C51.602 26.6116 51.4951 26.6494 51.4279 26.7491C51.382 26.8374 51.3589 26.9358 51.3606 27.0354C51.3622 27.1349 51.3886 27.2325 51.4373 27.3193C51.5217 27.4613 51.6559 27.5668 51.8138 27.6153C51.9269 27.6559 52.0759 27.6581 52.1276 27.5094Z" fill="#96588A"/>
<path d="M54.7571 28.3027C54.798 28.4091 54.8528 28.5097 54.9201 28.6017C55.046 28.7285 55.217 28.6506 55.3698 28.6198C55.5083 28.5979 55.6503 28.6139 55.7805 28.6662C55.9107 28.7184 56.0243 28.8049 56.1094 28.9165C56.0501 28.6211 55.9209 28.3443 55.7325 28.1092C55.5441 27.8741 55.302 27.6877 55.0266 27.5656C54.6688 27.4417 54.2917 27.3828 53.9131 27.3915L53.8484 27.4081C54.0132 27.8877 54.5306 27.877 54.7571 28.3027Z" fill="#96588A"/>
<path d="M43.6201 29.2844L43.6211 29.2865L43.6402 29.2497L43.6201 29.2844Z" fill="#96588A"/>
<path d="M43.2216 30.0559C43.1346 30.2138 43.0598 30.3782 42.9978 30.5475C42.9157 30.8218 42.8614 31.1036 42.8356 31.3887C42.8153 31.5508 42.8091 31.7578 42.9107 31.8368C42.9398 31.8562 42.975 31.8643 43.0097 31.8596C43.0444 31.8549 43.0762 31.8377 43.0991 31.8112C43.1556 31.7515 43.2017 31.6829 43.2358 31.6082C43.4354 31.2644 43.5904 30.8965 43.697 30.5135C43.8082 30.1072 43.7817 29.6755 43.6214 29.2859C43.4882 29.5426 43.3549 29.7993 43.2216 30.0559Z" fill="#96588A"/>
<path d="M39.3733 9.48531C39.4367 9.54724 39.5168 9.58929 39.6037 9.60626C39.6907 9.62323 39.7807 9.61439 39.8627 9.58083C40.0326 9.50659 40.1883 9.40369 40.3233 9.27664C40.435 9.19398 40.5298 9.09059 40.6024 8.97211C40.6425 8.90131 40.6681 8.8233 40.6779 8.74256C40.6877 8.66181 40.6815 8.57993 40.6595 8.50161C40.6283 8.42657 40.5785 8.36073 40.5148 8.31031C40.451 8.25989 40.3755 8.22655 40.2953 8.21346C40.0693 8.14643 39.8433 8.07941 39.6172 8.0124L39.7807 7.86504C39.6125 7.77477 39.4264 7.94231 39.3213 8.14974C39.2539 8.28518 39.2069 8.42986 39.1818 8.57908C39.1461 8.73498 39.1447 8.8968 39.1777 9.05329C39.2108 9.20978 39.2775 9.3572 39.3733 9.48531V9.48531Z" fill="#96588A"/>
<path d="M43.3636 8.14574C43.4274 8.21596 43.5154 8.25932 43.6099 8.267C43.7044 8.27469 43.7983 8.24613 43.8725 8.18713C43.9364 8.13915 43.9894 8.07826 44.0282 8.00842C44.067 7.93857 44.0906 7.86133 44.0976 7.78175C44.1136 7.60397 44.0257 7.40638 43.9001 7.39102L43.9289 7.22457C43.687 7.18089 43.3894 7.17215 43.2598 7.46584C43.2161 7.57834 43.2027 7.70034 43.2209 7.81965C43.2391 7.93897 43.2883 8.05141 43.3636 8.14574V8.14574Z" fill="#96588A"/>
<path d="M30.233 25.8258C30.8651 25.8258 31.3775 25.1387 31.3775 24.2911C31.3775 23.4435 30.8651 22.7563 30.233 22.7563C29.6009 22.7563 29.0885 23.4435 29.0885 24.2911C29.0885 25.1387 29.6009 25.8258 30.233 25.8258Z" fill="#E6E6E6"/>
<path d="M51.1483 44.8301C51.6947 44.6845 52.0556 44.2584 51.9544 43.8783C51.8531 43.4982 51.3281 43.308 50.7817 43.4536C50.2353 43.5991 49.8744 44.0252 49.9757 44.4053C50.0769 44.7854 50.6019 44.9756 51.1483 44.8301Z" fill="#E6E6E6"/>
<path d="M44.456 44.9538C45.0025 44.8083 45.3633 44.3822 45.2621 44.0021C45.1609 43.622 44.6359 43.4318 44.0895 43.5773C43.5431 43.7228 43.1822 44.1489 43.2834 44.529C43.3846 44.9091 43.9096 45.0993 44.456 44.9538Z" fill="#E6E6E6"/>
<path d="M52.3373 39.2618C52.8837 39.1163 53.2446 38.6902 53.1433 38.3101C53.0421 37.93 52.5171 37.7398 51.9707 37.8853C51.4243 38.0309 51.0634 38.457 51.1646 38.8371C51.2658 39.2172 51.7909 39.4073 52.3373 39.2618Z" fill="#E6E6E6"/>
<path d="M54.3113 36.8949C54.558 36.8643 54.7223 36.552 54.6784 36.1974C54.6344 35.8427 54.3987 35.58 54.152 35.6106C53.9053 35.6412 53.741 35.9535 53.7849 36.3081C53.8289 36.6628 54.0646 36.9255 54.3113 36.8949Z" fill="#E6E6E6"/>
<path d="M54.8109 32.694C55.0576 32.6634 55.222 32.3511 55.178 31.9965C55.134 31.6418 54.8984 31.3791 54.6517 31.4097C54.405 31.4403 54.2406 31.7526 54.2846 32.1073C54.3285 32.4619 54.5642 32.7246 54.8109 32.694Z" fill="#E6E6E6"/>
<path d="M48.0644 40.7697C48.3111 40.7391 48.4755 40.4268 48.4315 40.0721C48.3876 39.7175 48.1519 39.4548 47.9052 39.4854C47.6585 39.5159 47.4941 39.8282 47.5381 40.1829C47.5821 40.5375 47.8177 40.8002 48.0644 40.7697Z" fill="#E6E6E6"/>
<path d="M51.4482 41.9944C51.6949 41.9638 51.8593 41.6515 51.8153 41.2968C51.7714 40.9422 51.5357 40.6795 51.289 40.7101C51.0423 40.7407 50.8779 41.053 50.9219 41.4076C50.9659 41.7623 51.2015 42.025 51.4482 41.9944Z" fill="#E6E6E6"/>
<path d="M47.3398 45.4633C47.5865 45.4327 47.7509 45.1204 47.7069 44.7657C47.663 44.4111 47.4273 44.1484 47.1806 44.179C46.9339 44.2095 46.7695 44.5218 46.8135 44.8765C46.8575 45.2311 47.0931 45.4938 47.3398 45.4633Z" fill="#E6E6E6"/>
<path d="M17.8821 39.2098C18.4285 39.0642 18.7894 38.6381 18.6881 38.258C18.5869 37.8779 18.0619 37.6877 17.5155 37.8333C16.9691 37.9788 16.6082 38.4049 16.7094 38.785C16.8106 39.1651 17.3357 39.3553 17.8821 39.2098Z" fill="#E6E6E6"/>
<path d="M11.1893 39.3337C11.7357 39.1882 12.0966 38.7621 11.9954 38.382C11.8942 38.0019 11.3691 37.8117 10.8227 37.9573C10.2763 38.1028 9.91544 38.5289 10.0167 38.909C10.1179 39.2891 10.6429 39.4793 11.1893 39.3337Z" fill="#E6E6E6"/>
<path d="M19.0713 33.6414C19.6177 33.4959 19.9786 33.0698 19.8773 32.6897C19.7761 32.3095 19.2511 32.1194 18.7047 32.2649C18.1583 32.4104 17.7974 32.8365 17.8986 33.2166C17.9999 33.5967 18.5249 33.7869 19.0713 33.6414Z" fill="#E6E6E6"/>
<path d="M21.0448 31.2746C21.2915 31.244 21.4559 30.9317 21.4119 30.5771C21.3679 30.2224 21.1323 29.9597 20.8856 29.9903C20.6388 30.0209 20.4745 30.3332 20.5185 30.6879C20.5624 31.0425 20.7981 31.3052 21.0448 31.2746Z" fill="#E6E6E6"/>
<path d="M21.5445 27.0738C21.7913 27.0432 21.9556 26.7309 21.9116 26.3762C21.8677 26.0216 21.632 25.7589 21.3853 25.7895C21.1386 25.8201 20.9742 26.1323 21.0182 26.487C21.0622 26.8416 21.2978 27.1044 21.5445 27.0738Z" fill="#E6E6E6"/>
<path d="M14.7982 35.1494C15.0449 35.1188 15.2093 34.8065 15.1653 34.4519C15.1213 34.0972 14.8857 33.8345 14.639 33.8651C14.3923 33.8957 14.2279 34.208 14.2719 34.5626C14.3158 34.9173 14.5515 35.18 14.7982 35.1494Z" fill="#E6E6E6"/>
<path d="M18.1821 36.3741C18.4288 36.3435 18.5932 36.0312 18.5492 35.6766C18.5052 35.3219 18.2696 35.0592 18.0229 35.0898C17.7762 35.1204 17.6118 35.4327 17.6558 35.7873C17.6998 36.142 17.9354 36.4047 18.1821 36.3741Z" fill="#E6E6E6"/>
<path d="M14.0736 39.8429C14.3203 39.8123 14.4847 39.5 14.4407 39.1454C14.3967 38.7907 14.1611 38.528 13.9144 38.5586C13.6676 38.5892 13.5033 38.9015 13.5473 39.2562C13.5912 39.6108 13.8269 39.8735 14.0736 39.8429Z" fill="#E6E6E6"/>
<path d="M58.5427 13.4757C59.0891 13.3302 59.45 12.9041 59.3488 12.524C59.2475 12.1438 58.7225 11.9537 58.1761 12.0992C57.6297 12.2447 57.2688 12.6708 57.3701 13.0509C57.4713 13.431 57.9963 13.6212 58.5427 13.4757Z" fill="#E6E6E6"/>
<path d="M51.8502 13.5997C52.3966 13.4542 52.7575 13.0281 52.6563 12.648C52.555 12.2678 52.03 12.0777 51.4836 12.2232C50.9372 12.3687 50.5763 12.7948 50.6776 13.1749C50.7788 13.555 51.3038 13.7452 51.8502 13.5997Z" fill="#E6E6E6"/>
<path d="M59.7319 7.9072C60.2783 7.76168 60.6392 7.33558 60.538 6.95547C60.4368 6.57536 59.9117 6.38518 59.3653 6.5307C58.8189 6.67622 58.458 7.10233 58.5593 7.48244C58.6605 7.86255 59.1855 8.05272 59.7319 7.9072Z" fill="#E6E6E6"/>
<path d="M61.7058 5.54056C61.9525 5.50997 62.1169 5.19768 62.0729 4.84303C62.0289 4.48838 61.7933 4.22567 61.5466 4.25626C61.2998 4.28685 61.1355 4.59915 61.1795 4.9538C61.2234 5.30845 61.4591 5.57115 61.7058 5.54056Z" fill="#E6E6E6"/>
<path d="M62.2056 1.33969C62.4523 1.30911 62.6166 0.996807 62.5727 0.642158C62.5287 0.287508 62.293 0.0248046 62.0463 0.0553931C61.7996 0.0859815 61.6353 0.398278 61.6792 0.752928C61.7232 1.10758 61.9588 1.37028 62.2056 1.33969Z" fill="#E6E6E6"/>
<path d="M55.4592 9.41533C55.7059 9.38474 55.8703 9.07245 55.8263 8.7178C55.7823 8.36315 55.5467 8.10044 55.3 8.13103C55.0533 8.16162 54.8889 8.47392 54.9329 8.82857C54.9769 9.18322 55.2125 9.44592 55.4592 9.41533Z" fill="#E6E6E6"/>
<path d="M58.8428 10.64C59.0895 10.6095 59.2538 10.2972 59.2099 9.94251C59.1659 9.58786 58.9302 9.32516 58.6835 9.35575C58.4368 9.38634 58.2725 9.69863 58.3164 10.0533C58.3604 10.4079 58.596 10.6706 58.8428 10.64Z" fill="#E6E6E6"/>
<path d="M54.7344 14.1089C54.9811 14.0783 55.1454 13.766 55.1015 13.4113C55.0575 13.0567 54.8218 12.794 54.5751 12.8246C54.3284 12.8552 54.1641 13.1675 54.208 13.5221C54.252 13.8768 54.4877 14.1395 54.7344 14.1089Z" fill="#E6E6E6"/>
<path d="M22.4381 15.2603C22.3057 15.2968 22.183 15.3617 22.0785 15.4507C21.974 15.5397 21.8902 15.6505 21.8332 15.7754C21.7761 15.9002 21.7471 16.0361 21.7483 16.1733C21.7494 16.3106 21.7806 16.446 21.8397 16.5698L20.4048 18.1651L21.1616 19.2735L23.1563 16.9922C23.3578 16.8792 23.5109 16.6961 23.5865 16.4777C23.6621 16.2593 23.655 16.0208 23.5664 15.8073C23.4779 15.5938 23.3141 15.4202 23.1062 15.3194C22.8982 15.2186 22.6605 15.1976 22.4381 15.2603V15.2603Z" fill="#A0616A"/>
<path d="M9.00497 19.1775C9.13433 18.967 9.30397 18.7841 9.50418 18.6392C9.70438 18.4944 9.93121 18.3905 10.1717 18.3335C10.4121 18.2766 10.6614 18.2676 10.9053 18.3072C11.1493 18.3468 11.3829 18.4341 11.593 18.5643L16.312 21.4869L21.4023 17.1599L22.6688 18.3391L17.0454 25.6351L9.7367 21.825C9.90727 21.9139 8.79888 19.513 9.00497 19.1775Z" fill="#CCCCCC"/>
<path d="M10.2847 57.0832H11.5432L12.142 52.2288L10.2844 52.2289L10.2847 57.0832Z" fill="#A0616A"/>
<path d="M9.60777 59.4729H10.5008L10.6602 58.6297L11.0685 59.4729H13.437C13.5506 59.4729 13.6611 59.4366 13.7526 59.3693C13.844 59.302 13.9116 59.2073 13.9454 59.0989C13.9791 58.9905 13.9774 58.8742 13.9404 58.7668C13.9034 58.6595 13.833 58.5668 13.7396 58.5023L11.8481 57.196V56.3436L9.85863 56.4624L9.60777 59.4729Z" fill="#2F2E41"/>
<path d="M15.1595 57.0832H16.418L17.0167 52.2288L15.1592 52.2289L15.1595 57.0832Z" fill="#A0616A"/>
<path d="M14.4823 59.4729H15.3753L15.5347 58.6297L15.943 59.4729H18.3115C18.4251 59.4729 18.5356 59.4366 18.6271 59.3693C18.7185 59.302 18.7861 59.2073 18.8199 59.0989C18.8537 58.9905 18.8519 58.8742 18.8149 58.7668C18.7779 58.6595 18.7075 58.5668 18.6141 58.5023L16.7226 57.196V56.3436L14.7331 56.4624L14.4823 59.4729Z" fill="#2F2E41"/>
<path d="M19.9407 44.2666C19.6999 44.6278 17.0798 54.559 17.0798 54.559L14.7566 54.8239L15.0323 52.3251L15.4538 47.9033L16.1065 44.9517C16.1065 44.9517 13.8016 39.7062 13.6559 39.2883L13.5524 38.9885L12.8322 45.5238C12.7467 45.7571 12.7094 46.0053 12.7227 46.2535C12.7443 46.6617 12.3349 52.8032 12.3349 52.8032L12.1381 55.0057L10.1476 55.2822L9.34002 51.4714C8.66566 50.2334 9.05222 45.8344 9.32797 45.425C9.60372 45.0156 9.49416 42.164 9.49416 42.164C9.14201 42.0401 7.04215 34.8795 8.09246 34.9218C8.02502 34.5401 7.97204 34.1993 7.97204 34.1993L9.79522 32.7289L14.358 31.5428L15.5091 30.9901C15.5091 30.9901 17.5651 34.7918 17.5446 34.9808C17.5163 35.2203 17.5711 35.4622 17.7 35.666L19.7757 42.6132C19.7757 42.6132 20.184 43.9017 19.9407 44.2666Z" fill="#2F2E41"/>
<path d="M8.47766 19.4072L9.20354 17.866L11.6741 17.9609L12.4799 19.5643C12.4799 19.5643 14.7829 22.315 14.8574 23.2094C14.9512 24.3343 14.172 29.8476 14.9512 29.4902C14.9512 29.4902 16.7881 31.6463 15.7011 31.6463C14.6142 31.6463 9.69758 34.7327 9.37498 35.0798C9.05237 35.4269 7.61218 35.6519 7.73295 34.9273C7.85372 34.2027 8.47767 30.2838 8.47767 30.2838L6.78853 24.1218C6.30241 22.7914 6.15112 21.2991 7.25003 20.4055L8.47766 19.4072Z" fill="#CCCCCC"/>
<path opacity="0.2" d="M16.1087 18.39C16.7673 19.6246 19.4379 20.4713 20.7578 22.7642C20.8541 22.6066 20.9385 22.4421 21.0105 22.272C19.6506 20.1492 17.1363 19.3183 16.4999 18.1255C15.9303 17.0578 16.3664 15.7774 17.29 15.0354C16.1082 15.6992 15.4637 17.1811 16.1087 18.39Z" fill="#231F20"/>
<path d="M21.6573 23.1083C21.5229 23.0806 21.384 23.0827 21.2505 23.1145C21.1169 23.1463 20.992 23.2069 20.8844 23.2922C20.7768 23.3775 20.6893 23.4853 20.6279 23.6081C20.5665 23.7309 20.5328 23.8656 20.5292 24.0028L18.526 24.7717L18.6964 26.103L21.5099 24.9774C21.7409 24.9683 21.9604 24.8748 22.127 24.7146C22.2936 24.5545 22.3957 24.3387 22.4138 24.1083C22.432 23.8779 22.365 23.6489 22.2256 23.4646C22.0861 23.2803 21.884 23.1535 21.6573 23.1083L21.6573 23.1083Z" fill="#A0616A"/>
<path d="M7.66083 20.365C7.87174 20.2362 8.10598 20.1503 8.35014 20.1123C8.5943 20.0743 8.84357 20.0848 9.08364 20.1434C9.32372 20.2019 9.54988 20.3072 9.74915 20.4533C9.94842 20.5995 10.1169 20.7835 10.2449 20.9948L13.1201 25.7429L19.6209 24.2019L20.2131 25.8279L11.8882 29.7713L7.67192 23.0557C7.04065 22.1686 6.73153 20.9323 7.66083 20.365Z" fill="#CCCCCC"/>
<path d="M7.5535 14.5461C7.55333 15.0038 7.6655 15.4544 7.88016 15.8586C8.09483 16.2627 8.40542 16.608 8.78467 16.8641C9.16392 17.1202 9.60024 17.2793 10.0553 17.3274C10.5104 17.3755 10.9704 17.3111 11.3948 17.14C11.8192 16.9688 12.1951 16.6961 12.4895 16.3458C12.7839 15.9954 12.9878 15.5782 13.0833 15.1306C13.1788 14.6831 13.163 14.2189 13.0373 13.7789C12.9115 13.3389 12.6797 12.9365 12.3621 12.607L12.3487 12.5936C12.3263 12.5701 12.3039 12.5466 12.2805 12.5243C12.2803 12.5243 12.2802 12.5242 12.28 12.5242C12.2799 12.5241 12.2798 12.5241 12.2797 12.5239C12.2796 12.5238 12.2795 12.5237 12.2794 12.5236C12.2794 12.5234 12.2793 12.5233 12.2794 12.5232C12.2503 12.4963 12.2212 12.4695 12.191 12.4438C11.787 12.0896 11.2895 11.8593 10.7581 11.7806C10.2266 11.7019 9.68376 11.778 9.19444 11.9998C8.70513 12.2216 8.29011 12.5798 7.99909 13.0314C7.70806 13.483 7.55336 14.0089 7.5535 14.5461V14.5461Z" fill="#2F2E41"/>
<path d="M11.038 17.5373C9.74329 17.5373 8.6937 16.4877 8.6937 15.193C8.6937 13.8982 9.74329 12.8487 11.038 12.8487C12.3327 12.8487 13.3823 13.8982 13.3823 15.193C13.3823 16.4877 12.3327 17.5373 11.038 17.5373Z" fill="#9E616A"/>
<path d="M8.54853 15.8615L8.93696 15.7929C9.154 15.7535 9.35381 15.6487 9.50969 15.4926C9.66556 15.3365 9.77006 15.1366 9.80922 14.9195L10.1882 15.5547L10.2048 15.5602C11.1078 15.86 12.0473 15.7703 13.0765 15.2864C13.3707 15.1468 13.6562 14.9894 13.9313 14.8151L13.9516 14.8024L13.9532 14.7786C14.0057 14.0159 13.8346 13.3788 13.4713 12.9846C13.3318 12.8363 13.1625 12.7191 12.9745 12.6407C12.7866 12.5624 12.5842 12.5246 12.3807 12.53C12.3662 12.5262 12.3529 12.5188 12.3419 12.5086C12.3367 12.5048 12.3315 12.501 12.3263 12.4973V12.4934L12.2994 12.4807C12.2415 12.4535 12.1826 12.4275 12.1236 12.4037C11.6597 12.2241 11.1546 12.1791 10.6663 12.2737C10.1779 12.3684 9.72621 12.5989 9.36302 12.9388C8.6409 13.6282 8.30969 14.7851 8.53883 15.8177L8.54853 15.8615Z" fill="#2F2E41"/>
<path d="M3.60389 17.8589C4.40165 17.4471 3.37564 15.9527 3.58181 15.0789C3.78799 14.2051 5.27266 13.9241 5.36725 13.0313C5.46183 12.1386 5.68433 11.2178 6.27344 10.5404C6.64989 10.1075 7.20458 9.7879 7.77567 9.84212C7.9689 9.86047 8.15591 9.92024 8.32396 10.0174C8.492 10.1145 8.63714 10.2467 8.74949 10.405C8.86183 10.5633 8.93874 10.7439 8.97498 10.9346C9.01122 11.1253 9.00593 11.3216 8.95949 11.51C9.12209 11.2796 9.54289 11.3295 9.64705 11.5916C9.73966 11.8246 9.53509 12.1068 9.29434 12.1274C8.97932 12.5164 8.61858 12.9293 8.12505 13.0078C8.04642 13.0259 7.96471 13.0258 7.8861 13.0077C7.80749 12.9895 7.73403 12.9537 7.67126 12.9031C7.55516 12.7916 7.54613 12.5686 7.68386 12.4853C7.06364 12.7317 6.70001 13.4023 6.60798 14.0633C6.51596 14.7242 6.64328 15.393 6.72718 16.0551C6.81108 16.7172 6.84722 17.4136 6.58763 18.0284C6.28092 18.7548 5.57478 19.2755 4.80414 19.4424C4.03351 19.6094 3.2128 19.4462 2.51525 19.0786C1.8177 18.7109 1.23601 18.1496 0.760825 17.5204C1.57937 18.1016 2.71182 18.3193 3.60389 17.8589Z" fill="#2F2E41"/>
<path d="M8.64843 15.7964C8.64843 15.7964 9.34288 13.2042 12.3197 12.6059C12.3231 12.6048 12.3343 12.6003 12.3488 12.5936C12.3578 12.588 12.3689 12.5824 12.3801 12.5769C12.3466 12.5578 12.3142 12.5411 12.2806 12.5243C12.2805 12.5243 12.2803 12.5243 12.2802 12.5242C12.28 12.5242 12.2799 12.5241 12.2798 12.524C12.2797 12.5239 12.2796 12.5237 12.2796 12.5236C12.2795 12.5235 12.2795 12.5233 12.2795 12.5232C12.2504 12.4963 12.2213 12.4695 12.1911 12.4438L12.1061 12.4471C12.1061 12.4471 9.11922 11.9741 8.64843 15.7964Z" fill="#FD6584"/>
<path opacity="0.2" d="M10.2031 24.114L11.8844 26.0618L14.6625 25.2415L11.6339 26.6371L10.2031 24.114Z" fill="black"/>
<path d="M0.111598 60.2922L25.9613 60.321C25.9909 60.3209 26.0192 60.3091 26.0401 60.2882C26.0609 60.2673 26.0726 60.2389 26.0726 60.2094C26.0726 60.1798 26.0609 60.1515 26.0401 60.1306C26.0192 60.1097 25.9909 60.0979 25.9613 60.0978L0.111598 60.069C0.0819954 60.069 0.0536066 60.0807 0.0326741 60.1017C0.0117416 60.1226 -1.93735e-05 60.151 -1.93735e-05 60.1806C-1.93735e-05 60.2102 0.0117416 60.2386 0.0326741 60.2595C0.0536066 60.2804 0.0819954 60.2922 0.111598 60.2922V60.2922Z" fill="#CACACA"/>
</svg>
