<svg width="120" height="121" viewBox="0 0 120 121" fill="none" xmlns="http://www.w3.org/2000/svg">
<path d="M100.446 116.073C100.91 116.102 101.167 115.524 100.815 115.188L100.78 115.049C100.785 115.038 100.789 115.027 100.794 115.016C101.071 114.354 101.834 114.041 102.497 114.315C104.592 115.181 102.38 117.172 102.546 118.518C102.605 118.983 104.425 119.009 104.322 119.465C105.291 117.348 105.8 115.037 105.799 112.712C105.799 112.128 105.767 111.544 105.701 110.962C105.647 110.485 105.573 110.012 105.477 109.543C104.957 107.006 103.834 104.591 102.213 102.574C101.434 102.148 101.909 101.483 101.517 100.686C101.376 100.398 100.118 100.391 100.066 100.076C100.122 100.084 100.935 99.2393 100.667 98.822C100.49 98.5473 100.545 98.1975 100.772 97.9628C100.794 97.9397 100.815 97.9155 100.834 97.8893C101.505 96.9797 102.429 97.1381 102.912 98.3738C103.943 98.8936 103.953 99.7562 103.321 100.586C102.919 101.114 102.864 101.828 102.511 102.394C102.547 102.44 102.585 102.485 102.621 102.531C103.288 103.385 103.864 104.303 104.35 105.268C104.212 104.196 104.414 102.904 104.76 102.072C105.155 101.116 105.9 100.312 106.552 99.4859C107.331 98.4989 108.916 98.9468 109.053 100.197C109.055 100.209 109.056 100.221 109.057 100.233C108.961 100.287 108.866 100.345 108.774 100.406C108.248 100.754 108.43 101.57 109.054 101.666L109.068 101.668C109.033 102.015 107.801 103.109 107.714 103.447C108.547 106.665 107.924 107.09 105.36 107.144L105.226 107.336C105.469 108.034 105.664 108.75 105.811 109.474C105.949 110.147 106.045 110.827 106.099 111.509C106.166 112.371 106.161 113.237 106.088 114.097L106.093 114.066C106.277 113.119 106.791 112.234 107.537 111.621C108.649 110.707 110.221 110.37 111.421 109.635C111.998 109.281 112.739 109.738 112.638 110.407L112.633 110.439C112.454 110.512 112.28 110.596 112.112 110.691C112.015 110.745 111.921 110.803 111.828 110.864C111.302 111.213 111.484 112.028 112.108 112.124L112.122 112.126C112.132 112.128 112.141 112.129 112.151 112.13C111.845 112.858 108.927 113.885 108.393 114.468C107.873 117.279 108.128 117.195 105.736 116.377H105.735C105.474 117.516 105.092 118.629 104.601 119.69L100.548 119.691C100.534 119.646 100.521 119.6 100.508 119.555C100.883 119.578 101.26 119.556 101.629 119.488C101.328 119.119 101.028 118.747 100.727 118.378C100.719 118.371 100.714 118.363 100.708 118.356L100.703 118.351L100.286 116.977C100.319 116.672 100.373 116.37 100.446 116.073L100.446 116.073V116.073V116.073Z" fill="#F2F2F2"/>
<path d="M0.994751 119.807C0.994803 119.956 1.11405 120.075 1.2625 120.075L118.732 120.034C118.881 120.034 119 119.915 119 119.766C119 119.618 118.881 119.499 118.732 119.499L1.26232 119.539C1.11387 119.539 0.994699 119.659 0.994751 119.807H0.994751Z" fill="#CCCCCC"/>
<path d="M115.641 51.3741H3.76008C2.7632 51.3729 1.80747 50.9764 1.10257 50.2715C0.397669 49.5666 0.00115108 48.6109 0 47.614V3.76005C0.00115108 2.76317 0.397669 1.80744 1.10257 1.10254C1.80747 0.397639 2.7632 0.00112056 3.76008 -3.05176e-05H115.641C116.638 0.00112056 117.593 0.397639 118.298 1.10254C119.003 1.80744 119.4 2.76317 119.401 3.76005V47.614C119.4 48.6109 119.003 49.5666 118.298 50.2715C117.593 50.9764 116.638 51.3729 115.641 51.3741V51.3741Z" fill="#F2F2F2"/>
<path d="M89.5476 48.976H21.5194C16.45 48.9702 11.5899 46.9539 8.00532 43.3693C4.42073 39.7847 2.4044 34.9246 2.39868 29.8553V21.5209C2.4044 16.4515 4.42072 11.5914 8.00531 8.00675C11.5899 4.42214 16.45 2.40577 21.5194 2.40002H97.882C102.951 2.40577 107.812 4.42214 111.396 8.00675C114.981 11.5914 116.997 16.4515 117.003 21.5209C116.994 28.7999 114.099 35.7784 108.952 40.9255C103.805 46.0725 96.8267 48.9677 89.5476 48.976Z" fill="white"/>
<path d="M71.9992 14.954H27.0317C26.7745 14.954 26.5279 14.8518 26.346 14.67C26.1642 14.4881 26.062 14.2414 26.062 13.9843C26.062 13.7271 26.1642 13.4804 26.346 13.2986C26.5279 13.1167 26.7745 13.0145 27.0317 13.0145H71.9992C72.2564 13.0145 72.5031 13.1167 72.6849 13.2986C72.8668 13.4804 72.969 13.7271 72.969 13.9843C72.969 14.2414 72.8668 14.4881 72.6849 14.67C72.5031 14.8518 72.2564 14.954 71.9992 14.954V14.954Z" fill="#E6E6E6"/>
<path d="M94.7626 25.3004H27.0317C26.7745 25.3004 26.5279 25.1982 26.346 25.0163C26.1642 24.8345 26.062 24.5878 26.062 24.3306C26.062 24.0734 26.1642 23.8268 26.346 23.6449C26.5279 23.4631 26.7745 23.3609 27.0317 23.3609H94.7626C95.0198 23.3609 95.2664 23.4631 95.4483 23.6449C95.6301 23.8268 95.7323 24.0734 95.7323 24.3306C95.7323 24.5878 95.6301 24.8345 95.4483 25.0163C95.2664 25.1982 95.0198 25.3004 94.7626 25.3004V25.3004Z" fill="#E6E6E6"/>
<path d="M94.7626 35.6467H27.0317C26.7745 35.6467 26.5279 35.5445 26.346 35.3627C26.1642 35.1808 26.062 34.9342 26.062 34.677C26.062 34.4198 26.1642 34.1731 26.346 33.9913C26.5279 33.8094 26.7745 33.7072 27.0317 33.7072H94.7626C95.0198 33.7072 95.2664 33.8094 95.4483 33.9913C95.6301 34.1731 95.7323 34.4198 95.7323 34.677C95.7323 34.9342 95.6301 35.1808 95.4483 35.3627C95.2664 35.5445 95.0198 35.6467 94.7626 35.6467V35.6467Z" fill="#E6E6E6"/>
<path d="M94.7626 35.6467H27.0317C26.7745 35.6467 26.5279 35.5445 26.346 35.3627C26.1642 35.1808 26.062 34.9342 26.062 34.677C26.062 34.4198 26.1642 34.1731 26.346 33.9913C26.5279 33.8094 26.7745 33.7072 27.0317 33.7072H94.7626C95.0198 33.7072 95.2664 33.8094 95.4483 33.9913C95.6301 34.1731 95.7323 34.4198 95.7323 34.677C95.7323 34.9342 95.6301 35.1808 95.4483 35.3627C95.2664 35.5445 95.0198 35.6467 94.7626 35.6467V35.6467Z" fill="#E6E6E6"/>
<path d="M45.4409 44.6607L16.2464 44.6708C14.7798 44.6713 13.466 43.9134 12.7322 42.6435C12.3653 42.0084 12.1818 41.3118 12.1815 40.6151C12.1813 39.9184 12.3644 39.2215 12.7308 38.5863L27.3188 12.0297C28.0517 10.7592 29.365 10.0005 30.8317 10C32.2983 9.99949 33.6121 10.7573 34.346 12.0273L48.9542 38.5771C49.3202 39.2105 49.5032 39.9063 49.5033 40.6026C49.5032 41.2989 49.3202 41.9957 48.9537 42.631C48.2208 43.9014 46.9076 44.6602 45.4409 44.6607H45.4409H45.4409ZM12.5485 40.6146C12.5484 41.2488 15.77 39.8822 16.1037 40.4598C16.7713 41.6152 14.9119 44.3051 16.2463 44.3046C16.2463 44.3046 47.9698 43.6038 48.6366 42.448C48.9699 41.8701 49.1365 41.2361 49.1363 40.6023C49.1361 39.9684 48.969 39.3347 48.6352 38.757L34.027 12.2072C33.3613 11.0552 32.1661 10.3657 30.8318 10.3662C29.4981 10.3666 12.5485 39.9803 12.5485 40.6146H12.5485V40.6146Z" fill="#3F3D56"/>
<path d="M39.3507 38.804C46.7322 38.804 52.716 32.8201 52.716 25.4387C52.716 18.0572 46.7322 12.0733 39.3507 12.0733C31.9692 12.0733 25.9854 18.0572 25.9854 25.4387C25.9854 32.8201 31.9692 38.804 39.3507 38.804Z" fill="#96588A"/>
<path d="M39.353 33.6318C40.0308 33.6318 40.5802 33.0824 40.5802 32.4047C40.5802 31.7269 40.0308 31.1775 39.353 31.1775C38.6753 31.1775 38.1259 31.7269 38.1259 32.4047C38.1259 33.0824 38.6753 33.6318 39.353 33.6318Z" fill="white"/>
<path d="M39.3477 17.2455C39.235 17.9946 39.4369 18.1513 39.4381 21.3806C39.4392 24.6098 40.1092 28.9394 39.3517 28.9397C38.5943 28.94 38.3172 20.0045 35.6869 19.2137C32.5944 18.2839 39.7126 14.8207 39.3477 17.2455V17.2455Z" fill="white"/>
<path d="M21.4124 32.2624L20.2048 34.8138C21.6646 33.767 23.9448 32.8647 25.7593 32.3814C24.0686 31.5647 21.9999 30.2481 20.764 28.9445L21.4585 31.6403C13.3159 29.9818 7.4686 23.7352 7.46612 16.5797L7.172 16.4785C7.17458 23.9526 12.941 30.5691 21.4124 32.2624V32.2624Z" fill="#3F3D56"/>
<path d="M90.944 117.102L88.171 117.101L86.8517 106.406L90.9445 106.406L90.944 117.102Z" fill="#A0616A"/>
<path d="M90.87 116.195L87.9113 114.994L87.824 114.958L86.1902 116.195C85.2936 116.195 84.4316 116.541 83.784 117.161C83.1364 117.782 82.7532 118.628 82.7144 119.523C82.71 119.573 82.71 119.624 82.71 119.676V119.79H91.6511V116.195H90.87Z" fill="#2F2E41"/>
<path d="M84.45 114.521L81.8341 115.441L77.0397 105.79L80.9004 104.432L84.45 114.521Z" fill="#A0616A"/>
<path d="M84.0794 113.691L80.8895 113.539L80.7953 113.534L79.6649 115.244C78.8191 115.542 78.1208 116.154 77.7157 116.954C77.3106 117.754 77.2301 118.679 77.4908 119.537C77.5029 119.585 77.52 119.634 77.5371 119.682L77.5749 119.79L86.0093 116.822L84.8162 113.432L84.0794 113.691Z" fill="#2F2E41"/>
<path d="M91.9239 70.9839C94.4608 70.8855 91.3182 91.1021 91.3182 91.1021C91.3182 91.1021 92.2374 108.851 92.0426 109.783C91.8477 110.714 92.018 113.226 92.018 113.226C91.521 112.322 86.3932 113.005 86.3932 113.005L85.6956 95.0157L82.134 80.6024L77.1963 90.2638L81.9289 105.094C81.9289 105.094 83.8454 106.867 83.6416 107.568C83.4378 108.269 78.4177 109.849 77.4952 109.885C76.5727 109.921 76.9892 108.75 76.9445 107.597C76.8998 106.443 72.5588 95.756 71.032 92.1197C69.5051 88.4833 70.6921 83.3559 71.4715 79.6301C72.2509 75.9042 76.3513 68.9121 76.3513 68.9121C81.4411 63.1714 89.387 71.0822 91.9239 70.9839Z" fill="#2F2E41"/>
<path d="M61.0073 54.6462C61.1463 54.9117 61.3417 55.1435 61.58 55.3253C61.8182 55.507 62.0934 55.6344 62.3862 55.6983C62.6789 55.7622 62.9822 55.7612 63.2745 55.6952C63.5668 55.6293 63.8411 55.5 64.0781 55.3166L70.1787 59.2968L70.1601 55.5116L64.3697 52.3122C64.0352 51.9346 63.5737 51.6927 63.0728 51.6325C62.5719 51.5724 62.0663 51.698 61.6518 51.9857C61.2374 52.2734 60.9428 52.7031 60.8241 53.1935C60.7053 53.6838 60.7705 54.2007 61.0073 54.6462V54.6462Z" fill="#A0616A"/>
<path d="M90.6063 74.2248C84.3151 74.225 80.8481 72.9656 79.007 71.8411C76.7558 70.4661 76.3706 69.0162 76.3553 68.955L76.3508 68.9375L76.5699 66.1801L76.6658 65.9654C77.1074 64.977 77.166 63.8598 76.8301 62.8306L76.8233 62.8094L76.825 62.7873L78.296 43.7087L83.5018 42.0035L85.0162 40.4819L91.759 40.3841L92.6985 42.2887L98.0142 44.2899L95.4027 59.8349L94.1508 61.9928L94.6546 64.3435L94.6511 64.3647L93.0087 74.1675L92.9183 74.1714C92.1083 74.2077 91.3376 74.2255 90.6063 74.2248Z" fill="#3F3D56"/>
<path d="M74.3304 62.3222L71.8622 60.8589L71.7076 60.6355C71.3934 60.1834 70.9776 59.8113 70.4935 59.549C70.0094 59.2867 69.4706 59.1416 68.9203 59.1253L68.8915 59.1244L65.4922 57.1258L66.9013 52.998L72.2302 54.5724L75.9453 45.3414C76.1494 44.8344 76.49 44.394 76.9294 44.0691C77.3688 43.7442 77.8898 43.5475 78.4343 43.501C78.9788 43.4544 79.5255 43.5598 80.0137 43.8055C80.5018 44.0511 80.9123 44.4274 81.1994 44.8924C81.4935 45.3784 81.646 45.9369 81.6397 46.5049V52.545L81.6174 52.5749L74.3304 62.3222Z" fill="#3F3D56"/>
<path d="M90.8312 70.6745C90.884 70.3796 91.0008 70.0997 91.1734 69.8548C91.346 69.6098 91.5703 69.4057 91.8303 69.2568C92.0904 69.1079 92.3799 69.0178 92.6785 68.9928C92.9771 68.9679 93.2776 69.0088 93.5587 69.1125L98.1817 63.4833L99.3012 67.0993L94.7395 71.8905C94.5339 72.3512 94.1664 72.7205 93.7067 72.9284C93.247 73.1363 92.727 73.1683 92.2453 73.0185C91.7635 72.8686 91.3535 72.5472 91.0929 72.1152C90.8323 71.6832 90.7392 71.1706 90.8312 70.6745V70.6745Z" fill="#A0616A"/>
<path d="M97.7433 69.9632L94.6735 66.893L96.6277 62.1316L99.4597 58.2646C96.4419 56.7954 94.1766 53.315 92.5352 50.4339L92.5167 50.4015L92.9254 47.2002C93.0211 46.4514 93.321 45.7435 93.7924 45.1539C94.2023 44.6412 94.729 44.2341 95.3285 43.9666C95.9279 43.6992 96.5827 43.5792 97.2381 43.6166C97.8934 43.6541 98.5303 43.8479 99.0954 44.1819C99.6605 44.5159 100.137 44.9803 100.486 45.5364L105.99 57.7717L105.928 57.8642L101.501 65.4107L100.293 66.1943L97.7433 69.9632Z" fill="#3F3D56"/>
<path d="M93.2289 33.9664C93.0265 35.4417 92.2467 36.7763 91.0609 37.677C89.875 38.5777 88.3802 38.9708 86.9047 38.77C85.4292 38.5692 84.0937 37.7908 83.1918 36.606C82.2898 35.4212 81.895 33.9267 82.0942 32.451L82.1051 32.3712C82.3379 30.9152 83.1337 29.6091 84.3208 28.7346C85.508 27.8601 86.9913 27.4872 88.4509 27.6965C89.9104 27.9058 91.2292 28.6805 92.1227 29.8534C93.0163 31.0263 93.413 32.5035 93.2272 33.9662L93.2289 33.9664Z" fill="#A0616A"/>
<path d="M91.7989 36.8604C92.0874 36.2743 92.3838 35.6451 92.3027 34.9968C92.2216 34.3486 91.5859 33.729 90.9617 33.9216C90.5884 34.0368 90.3062 34.4054 89.916 34.4243C89.3792 34.4503 89.0713 33.8358 88.9042 33.3249L88.2236 31.2443C87.5701 31.7536 86.8121 32.1124 86.0039 32.2951C85.1956 32.4777 84.3571 32.4797 83.548 32.3008C82.9161 32.1563 82.2777 31.8747 81.907 31.3429C81.5363 30.8111 81.5385 29.9862 82.047 29.5841C82.2962 29.3869 82.6281 29.312 82.8663 29.1016C83.0141 28.9711 83.1159 28.7965 83.1568 28.6036C83.1976 28.4107 83.1752 28.2097 83.093 28.0305C83.0108 27.8513 82.873 27.7034 82.7002 27.6085C82.5273 27.5137 82.3285 27.477 82.1332 27.5039L83.8469 27.2897L83.3363 26.3663C83.5304 26.4984 83.7499 26.5885 83.9808 26.6308C84.2117 26.6732 84.4489 26.6669 84.6773 26.6123C85.1383 26.5293 85.5726 26.3394 86.0236 26.2128C87.1169 25.9337 88.2714 26.019 89.3118 26.4558C90.3522 26.8927 91.2215 27.6572 91.7877 28.6333C92.2094 28.4924 92.6639 28.4831 93.0911 28.6064C93.5182 28.7298 93.8978 28.98 94.1795 29.3239C94.6383 29.9062 94.763 30.6832 94.7808 31.4242C94.8142 32.8854 94.4956 34.3331 93.8519 35.6453C93.6673 36.0621 93.4021 36.4383 93.0716 36.7522C92.9052 36.9079 92.7068 37.0252 92.4902 37.096C92.2736 37.1669 92.0442 37.1894 91.818 37.1622" fill="#2F2E41"/>
</svg>
