<svg width="278" height="24" viewBox="0 0 278 24" fill="none" xmlns="http://www.w3.org/2000/svg">
<g clip-path="url(#clip0_12_1875)">
<path d="M34 0.5H4C1.51472 0.5 0.5 1.51472 0.5 4V20C0.5 22.4853 1.51472 23.5 4 23.5H34C36.4853 23.5 37.5 22.4853 37.5 20V4C37.5 1.51472 36.4853 0.5 34 0.5Z" fill="white"/>
<path d="M34 1C36.1787 1 37 1.82133 37 4V20C37 22.1787 36.1787 23 34 23H4C1.82133 23 1 22.1787 1 20V4C1 1.82133 1.82133 1 4 1H34ZM34 0H4C1.27667 0 0 1.27667 0 4L0 20C0 22.7233 1.27667 24 4 24H34C36.7233 24 38 22.7233 38 20V4C38 1.27667 36.7233 0 34 0Z" fill="#E9ECEF"/>
<path d="M10.42 9C10.2216 8.8077 9.98388 8.66073 9.72318 8.56923C9.46249 8.47773 9.18504 8.44387 8.91 8.47H6.91C6.8401 8.47136 6.77288 8.49708 6.71993 8.54272C6.66698 8.58837 6.63163 8.65107 6.62 8.72L5.73 14C5.72717 14.0253 5.72973 14.0508 5.7375 14.075C5.74527 14.0992 5.75808 14.1215 5.77509 14.1404C5.79209 14.1593 5.81291 14.1744 5.83616 14.1847C5.85941 14.1949 5.88458 14.2002 5.91 14.2H6.91C6.96982 14.1974 7.02751 14.177 7.07562 14.1413C7.12374 14.1057 7.16009 14.0565 7.18 14L7.4 12.56C7.40743 12.4911 7.44017 12.4273 7.4919 12.3811C7.54363 12.3349 7.61065 12.3096 7.68 12.31H8.33C8.61752 12.3432 8.9088 12.3169 9.18572 12.2328C9.46265 12.1486 9.7193 12.0084 9.93971 11.8208C10.1601 11.6332 10.3396 11.4023 10.4669 11.1424C10.5943 10.8825 10.6668 10.5991 10.68 10.31C10.7363 10.086 10.7422 9.85231 10.6973 9.62577C10.6523 9.39923 10.5576 9.18549 10.42 9V9ZM9.15 10.39C9.04 11.13 8.47 11.13 7.93 11.13H7.62L7.83 9.74C7.83684 9.6993 7.85746 9.66218 7.88841 9.63487C7.91936 9.60756 7.95876 9.59172 8 9.59H8.14C8.51 9.59 8.87 9.59 9.04 9.8C9.10225 9.88337 9.14454 9.97992 9.16361 10.0822C9.18268 10.1845 9.17802 10.2898 9.15 10.39Z" fill="#253B80"/>
<path d="M15.09 10.36H14.09C14.0493 10.3622 14.0102 10.3768 13.9781 10.4018C13.9459 10.4269 13.9221 10.4611 13.91 10.5V10.79L13.84 10.68C13.6886 10.5276 13.5047 10.4116 13.3021 10.3406C13.0994 10.2696 12.8833 10.2454 12.67 10.27C12.1229 10.2827 11.5986 10.4917 11.1929 10.8589C10.7872 11.2261 10.527 11.7269 10.46 12.27C10.4094 12.5367 10.4162 12.8111 10.48 13.0749C10.5438 13.3387 10.6631 13.5859 10.83 13.8C10.9864 13.9731 11.1804 14.1082 11.397 14.1949C11.6137 14.2815 11.8473 14.3175 12.08 14.3C12.3335 14.3027 12.585 14.2536 12.8189 14.1555C13.0527 14.0575 13.2641 13.9127 13.44 13.73V14.02C13.4371 14.0662 13.4522 14.1116 13.4819 14.147C13.5117 14.1824 13.554 14.205 13.6 14.21H14.49C14.5595 14.2132 14.6277 14.1904 14.6813 14.146C14.7349 14.1016 14.7701 14.0389 14.78 13.97L15.31 10.56C15.3212 10.53 15.3232 10.4973 15.3157 10.4662C15.3082 10.4351 15.2915 10.4069 15.2678 10.3854C15.2441 10.3638 15.2145 10.3499 15.1828 10.3454C15.1511 10.3409 15.1187 10.346 15.09 10.36ZM12.59 13.25C12.4677 13.2568 12.3455 13.237 12.2316 13.1921C12.1176 13.1473 12.0148 13.0783 11.93 12.99C11.8569 12.8885 11.8051 12.7733 11.7776 12.6513C11.7501 12.5293 11.7475 12.403 11.77 12.28C11.8016 12.0068 11.9318 11.7545 12.1361 11.5704C12.3405 11.3863 12.6049 11.283 12.88 11.28C13.0039 11.2744 13.1275 11.2966 13.2418 11.3451C13.356 11.3935 13.4579 11.467 13.54 11.56C13.6218 11.6548 13.6798 11.7678 13.7094 11.8895C13.739 12.0112 13.7392 12.1382 13.71 12.26C13.6801 12.5349 13.5488 12.7887 13.3416 12.9718C13.1344 13.1549 12.8664 13.2541 12.59 13.25Z" fill="#253B80"/>
<path d="M20.35 10.36H19.35C19.3022 10.3594 19.2551 10.371 19.2131 10.3938C19.1711 10.4165 19.1356 10.4497 19.11 10.49L17.74 12.49L17.16 10.54C17.1412 10.4801 17.104 10.4276 17.0538 10.3899C17.0036 10.3523 16.9428 10.3313 16.88 10.33H15.88C15.8524 10.3298 15.8252 10.3364 15.8007 10.3491C15.7763 10.3618 15.7552 10.3803 15.7395 10.4029C15.7237 10.4256 15.7137 10.4517 15.7103 10.4791C15.7069 10.5064 15.7103 10.5342 15.72 10.56L16.81 13.8L15.81 15.26C15.7914 15.2855 15.7803 15.3157 15.7779 15.3472C15.7756 15.3787 15.782 15.4102 15.7965 15.4383C15.8111 15.4663 15.8331 15.4897 15.8602 15.5059C15.8873 15.5221 15.9184 15.5305 15.95 15.53H16.95C16.997 15.5327 17.0439 15.523 17.0859 15.5019C17.128 15.4809 17.1639 15.4492 17.19 15.41L20.49 10.6C20.5013 10.5752 20.5065 10.5481 20.5051 10.5209C20.5038 10.4937 20.4959 10.4672 20.4822 10.4437C20.4685 10.4202 20.4493 10.4003 20.4263 10.3857C20.4033 10.3712 20.3771 10.3623 20.35 10.36V10.36Z" fill="#253B80"/>
<path d="M25.15 9C24.9513 8.80825 24.7135 8.66165 24.4529 8.57018C24.1923 8.47871 23.915 8.44454 23.64 8.47H21.57C21.5018 8.46981 21.4359 8.4955 21.3858 8.54188C21.3357 8.58827 21.3051 8.65191 21.3 8.72L20.45 14C20.4472 14.0253 20.4498 14.0508 20.4575 14.075C20.4653 14.0992 20.4781 14.1215 20.4951 14.1404C20.5121 14.1593 20.5329 14.1744 20.5562 14.1847C20.5794 14.1949 20.6046 14.2002 20.63 14.2H21.69C21.738 14.1978 21.7837 14.1784 21.8186 14.1454C21.8534 14.1123 21.8753 14.0678 21.88 14.02L22.12 12.51C22.1295 12.4419 22.1628 12.3794 22.2141 12.3336C22.2654 12.2878 22.3313 12.2617 22.4 12.26H23.06C23.347 12.2903 23.6372 12.2619 23.9129 12.1766C24.1886 12.0913 24.444 11.9509 24.6638 11.7638C24.8836 11.5768 25.063 11.347 25.1913 11.0885C25.3196 10.83 25.394 10.5481 25.41 10.26C25.4544 10.0433 25.4543 9.81988 25.4096 9.60326C25.3649 9.38665 25.2766 9.18139 25.15 9V9ZM23.87 10.42C23.77 11.16 23.2 11.16 22.65 11.16H22.34L22.56 9.77C22.5613 9.74897 22.5667 9.72841 22.576 9.70948C22.5852 9.69055 22.5981 9.67363 22.6139 9.65969C22.6297 9.64576 22.6481 9.63508 22.668 9.62827C22.6879 9.62145 22.709 9.61865 22.73 9.62H22.88C23.25 9.62 23.6 9.62 23.78 9.83C23.8345 9.91136 23.8707 10.0035 23.8862 10.1002C23.9017 10.1968 23.8962 10.2957 23.87 10.39V10.42Z" fill="#179BD7"/>
<path d="M29.81 10.36H28.81C28.7684 10.359 28.7278 10.3723 28.695 10.3979C28.6622 10.4234 28.6392 10.4595 28.63 10.5V10.79L28.56 10.68C28.4111 10.5272 28.229 10.4108 28.0278 10.3397C27.8267 10.2686 27.6119 10.2447 27.4 10.27C26.8529 10.2827 26.3287 10.4917 25.9229 10.8589C25.5172 11.226 25.2571 11.7269 25.19 12.27C25.134 12.5365 25.1381 12.8121 25.2021 13.0768C25.2661 13.3415 25.3884 13.5886 25.56 13.8C25.7139 13.9736 25.9061 14.109 26.1212 14.1958C26.3364 14.2826 26.5687 14.3182 26.8 14.3C27.055 14.3023 27.3078 14.253 27.5433 14.1551C27.7787 14.0571 27.9919 13.9125 28.17 13.73V14.02C28.1672 14.0439 28.1695 14.0682 28.1767 14.0912C28.184 14.1142 28.1961 14.1354 28.2121 14.1534C28.2282 14.1713 28.2479 14.1857 28.27 14.1954C28.292 14.2052 28.3159 14.2102 28.34 14.21H29.23C29.2978 14.2107 29.3636 14.1867 29.4151 14.1426C29.4666 14.0985 29.5003 14.0371 29.51 13.97L30 10.56C30.005 10.5335 30.0036 10.5062 29.996 10.4804C29.9884 10.4546 29.9748 10.4309 29.9562 10.4114C29.9376 10.3918 29.9147 10.377 29.8893 10.368C29.8639 10.3591 29.8367 10.3564 29.81 10.36ZM27.32 13.25C27.1962 13.2575 27.0722 13.2382 26.9565 13.1933C26.8409 13.1485 26.7363 13.0791 26.65 12.99C26.5765 12.8888 26.5252 12.7733 26.4994 12.651C26.4735 12.5286 26.4737 12.4022 26.5 12.28C26.5272 12.0068 26.6547 11.7533 26.8579 11.5687C27.061 11.384 27.3254 11.2811 27.6 11.28C27.7273 11.2688 27.8554 11.2886 27.9734 11.3378C28.0913 11.387 28.1955 11.4641 28.2772 11.5624C28.3588 11.6607 28.4153 11.7774 28.4419 11.9024C28.4686 12.0274 28.4645 12.1569 28.43 12.28C28.4 12.5513 28.2694 12.8015 28.0638 12.9811C27.8583 13.1607 27.5929 13.2567 27.32 13.25V13.25Z" fill="#179BD7"/>
<path d="M32.1 8.44H31.1C31.0591 8.43713 31.0187 8.45005 30.9871 8.4761C30.9554 8.50214 30.935 8.53933 30.93 8.58L30.13 14C30.1256 14.0247 30.1267 14.0501 30.1332 14.0743C30.1397 14.0985 30.1515 14.121 30.1678 14.1401C30.184 14.1592 30.2043 14.1745 30.2272 14.1849C30.25 14.1952 30.2749 14.2004 30.3 14.2H31.15C31.2178 14.2007 31.2836 14.1767 31.3351 14.1326C31.3866 14.0885 31.4203 14.0271 31.43 13.96L32.27 8.63C32.2728 8.60605 32.2705 8.58178 32.2633 8.55879C32.256 8.53579 32.2439 8.51461 32.2279 8.49664C32.2118 8.47867 32.1921 8.46433 32.17 8.45456C32.148 8.4448 32.1241 8.43983 32.1 8.44Z" fill="#179BD7"/>
</g>
<g clip-path="url(#clip1_12_1875)">
<path d="M74 0.5H44C41.5147 0.5 40.5 1.51472 40.5 4V20C40.5 22.4853 41.5147 23.5 44 23.5H74C76.4853 23.5 77.5 22.4853 77.5 20V4C77.5 1.51472 76.4853 0.5 74 0.5Z" fill="white"/>
<path d="M74 1C76.1787 1 77 1.82133 77 4V20C77 22.1787 76.1787 23 74 23H44C41.8213 23 41 22.1787 41 20V4C41 1.82133 41.8213 1 44 1H74ZM74 0H44C41.2767 0 40 1.27667 40 4V20C40 22.7233 41.2767 24 44 24H74C76.7233 24 78 22.7233 78 20V4C78 1.27667 76.7233 0 74 0Z" fill="#E9ECEF"/>
<path d="M55.76 8.56L52.89 15.45H51L49.61 10C49.5988 9.87067 49.5542 9.74646 49.4806 9.63954C49.4069 9.53262 49.3068 9.44663 49.19 9.39C48.6357 9.1245 48.0515 8.92642 47.45 8.8V8.6H50.45C50.6486 8.60234 50.8399 8.67493 50.99 8.80491C51.1401 8.93488 51.2393 9.11383 51.27 9.31L52.01 13.31L53.85 8.62L55.76 8.56ZM63.09 13.2C63.09 11.39 60.59 11.29 60.61 10.47C60.61 10.23 60.85 9.96 61.36 9.9C61.9598 9.83927 62.5647 9.94298 63.11 10.2L63.42 8.74C62.888 8.54537 62.3265 8.44389 61.76 8.44C60.01 8.44 58.76 9.37 58.76 10.72C58.76 11.72 59.64 12.26 60.31 12.59C60.98 12.92 61.23 13.15 61.23 13.45C61.23 13.91 60.68 14.11 60.17 14.12C59.5363 14.1367 58.9092 13.9885 58.35 13.69L58 15.2C58.638 15.4453 59.3166 15.5674 60 15.56C61.86 15.56 63.07 14.64 63.08 13.2M67.7 15.45H69.33L67.91 8.56H66.41C66.247 8.55983 66.0876 8.60826 65.9522 8.6991C65.8169 8.78994 65.7116 8.91907 65.65 9.07L63 15.45H64.86L65.22 14.45H67.49L67.7 15.45ZM65.7 13.01L66.64 10.43L67.2 13L65.7 13.01ZM58.26 8.56L56.8 15.45H55.06L56.52 8.56H58.26Z" fill="#122A96"/>
</g>
<g clip-path="url(#clip2_12_1875)">
<path d="M114 0.5H84C81.5147 0.5 80.5 1.51472 80.5 4V20C80.5 22.4853 81.5147 23.5 84 23.5H114C116.485 23.5 117.5 22.4853 117.5 20V4C117.5 1.51472 116.485 0.5 114 0.5Z" fill="white"/>
<path d="M114 1C116.179 1 117 1.82133 117 4V20C117 22.1787 116.179 23 114 23H84C81.8213 23 81 22.1787 81 20V4C81 1.82133 81.8213 1 84 1H114ZM114 0H84C81.2767 0 80 1.27667 80 4V20C80 22.7233 81.2767 24 84 24H114C116.723 24 118 22.7233 118 20V4C118 1.27667 116.723 0 114 0Z" fill="#E9ECEF"/>
<path d="M107.31 12C107.309 12.9641 107.015 13.9051 106.466 14.6979C105.918 15.4908 105.141 16.0979 104.239 16.4387C103.337 16.7795 102.353 16.8378 101.417 16.6058C100.481 16.3738 99.6383 15.8626 99 15.14C99.7663 14.2735 100.189 13.1567 100.189 12C100.189 10.8433 99.7663 9.7265 99 8.86C99.6383 8.13743 100.481 7.62618 101.417 7.39421C102.353 7.16223 103.337 7.2205 104.239 7.56128C105.141 7.90206 105.918 8.50921 106.466 9.30206C107.015 10.0949 107.309 11.0359 107.31 12V12Z" fill="#F79E1B"/>
<path d="M99 15.14C99.6572 15.14 100.19 13.7342 100.19 12C100.19 10.2658 99.6572 8.86 99 8.86C98.3428 8.86 97.81 10.2658 97.81 12C97.81 13.7342 98.3428 15.14 99 15.14Z" fill="#FF5F00"/>
<path d="M97.81 12C97.8121 13.1565 98.2351 14.2726 99 15.14C98.3621 15.8641 97.5187 16.3767 96.5822 16.6096C95.6457 16.8425 94.6605 16.7846 93.7577 16.4437C92.8549 16.1027 92.0774 15.4948 91.5286 14.701C90.9799 13.9072 90.6859 12.965 90.6859 12C90.6859 11.035 90.9799 10.0928 91.5286 9.299C92.0774 8.50517 92.8549 7.89731 93.7577 7.55635C94.6605 7.21539 95.6457 7.1575 96.5822 7.39039C97.5187 7.62328 98.3621 8.1359 99 8.86C98.2351 9.72736 97.8121 10.8435 97.81 12Z" fill="#EB001B"/>
</g>
<g clip-path="url(#clip3_12_1875)">
<path d="M154 0.5H124C121.515 0.5 120.5 1.51472 120.5 4V20C120.5 22.4853 121.515 23.5 124 23.5H154C156.485 23.5 157.5 22.4853 157.5 20V4C157.5 1.51472 156.485 0.5 154 0.5Z" fill="white"/>
<path d="M154 1C156.179 1 157 1.82133 157 4V20C157 22.1787 156.179 23 154 23H124C121.821 23 121 22.1787 121 20V4C121 1.82133 121.821 1 124 1H154ZM154 0H124C121.277 0 120 1.27667 120 4V20C120 22.7233 121.277 24 124 24H154C156.723 24 158 22.7233 158 20V4C158 1.27667 156.723 0 154 0Z" fill="#E9ECEF"/>
<path d="M131.66 8.47C131.526 8.64353 131.353 8.78291 131.155 8.87676C130.957 8.97061 130.739 9.01627 130.52 9.01C130.496 8.57798 130.643 8.15384 130.93 7.83C131.217 7.49709 131.622 7.28905 132.06 7.25C132.089 7.69305 131.946 8.13021 131.66 8.47M132.05 9.1C131.42 9.1 130.89 9.46 130.59 9.46C130.29 9.46 129.83 9.12 129.33 9.13C129.007 9.13639 128.69 9.22747 128.413 9.39416C128.136 9.56086 127.907 9.79733 127.75 10.08C127.497 10.7097 127.408 11.3936 127.492 12.0671C127.576 12.7406 127.83 13.3817 128.23 13.93C128.55 14.4 128.94 14.93 129.44 14.93C129.94 14.93 130.11 14.62 130.69 14.62C131.27 14.62 131.44 14.93 131.95 14.92C132.46 14.91 132.8 14.45 133.12 13.98C133.35 13.6488 133.529 13.2847 133.65 12.9C133.352 12.7653 133.099 12.5474 132.922 12.2724C132.744 11.9975 132.65 11.6772 132.65 11.35C132.655 11.059 132.732 10.7738 132.875 10.5205C133.018 10.2672 133.223 10.0538 133.47 9.9C133.312 9.67329 133.103 9.48657 132.86 9.35465C132.617 9.22273 132.346 9.14924 132.07 9.14M135.7 7.83V14.83H136.8V12.42H138.31C138.621 12.437 138.931 12.3889 139.222 12.2787C139.513 12.1685 139.777 11.9988 139.999 11.7803C140.22 11.5618 140.393 11.2995 140.507 11.0101C140.621 10.7207 140.673 10.4107 140.66 10.1C140.676 9.79248 140.627 9.48506 140.516 9.19765C140.406 8.91023 140.236 8.6492 140.019 8.43147C139.801 8.21373 139.54 8.04412 139.252 7.93363C138.965 7.82313 138.658 7.7742 138.35 7.79L135.7 7.83ZM136.8 8.75H138C138.194 8.72433 138.391 8.74211 138.578 8.80206C138.764 8.862 138.934 8.96261 139.077 9.09661C139.22 9.2306 139.331 9.39463 139.402 9.57682C139.474 9.759 139.504 9.95479 139.49 10.15C139.504 10.3462 139.474 10.543 139.402 10.726C139.33 10.909 139.218 11.0736 139.074 11.2078C138.93 11.342 138.758 11.4423 138.571 11.5015C138.383 11.5607 138.185 11.5773 137.99 11.55H136.78L136.8 8.75ZM142.66 14.93C142.985 14.9402 143.306 14.8619 143.59 14.7033C143.873 14.5448 144.109 14.312 144.27 14.03V14.03V14.87H145.27V11.37C145.27 10.37 144.46 9.69 143.2 9.69C142.727 9.64423 142.255 9.78313 141.882 10.0776C141.509 10.3721 141.265 10.7994 141.2 11.27H142.2C142.262 11.0556 142.395 10.8682 142.576 10.7377C142.757 10.6072 142.977 10.5411 143.2 10.55C143.87 10.55 144.2 10.86 144.2 11.44V11.83L142.83 11.91C141.56 11.99 140.83 12.51 140.83 13.41C140.837 13.6315 140.891 13.8489 140.989 14.0476C141.087 14.2464 141.227 14.4218 141.398 14.562C141.57 14.7023 141.769 14.8041 141.983 14.8607C142.198 14.9173 142.422 14.9273 142.64 14.89L142.66 14.93ZM142.96 14.09C142.37 14.09 141.96 13.81 141.96 13.38C141.96 12.95 142.32 12.68 142.96 12.64L144.18 12.56V12.96C144.154 13.2668 144.011 13.5518 143.78 13.755C143.549 13.9583 143.248 14.064 142.94 14.05L142.96 14.09ZM146.66 16.79C147.73 16.79 148.23 16.38 148.66 15.15L150.58 9.76H149.46L148.17 13.92L146.88 9.76H145.71L147.57 14.89L147.47 15.2C147.436 15.4154 147.323 15.6104 147.153 15.7472C146.983 15.8839 146.768 15.9526 146.55 15.94H146.23V16.78C146.367 16.7807 146.504 16.7707 146.64 16.75L146.66 16.79Z" fill="#231F20"/>
</g>
<g clip-path="url(#clip4_12_1875)">
<path d="M194 0.5H164C161.515 0.5 160.5 1.51472 160.5 4V20C160.5 22.4853 161.515 23.5 164 23.5H194C196.485 23.5 197.5 22.4853 197.5 20V4C197.5 1.51472 196.485 0.5 194 0.5Z" fill="white"/>
<path d="M194 1C196.179 1 197 1.82133 197 4V20C197 22.1787 196.179 23 194 23H164C161.821 23 161 22.1787 161 20V4C161 1.82133 161.821 1 164 1H194ZM194 0H164C161.277 0 160 1.27667 160 4V20C160 22.7233 161.277 24 164 24H194C196.723 24 198 22.7233 198 20V4C198 1.27667 196.723 0 194 0Z" fill="#E9ECEF"/>
<path fill-rule="evenodd" clip-rule="evenodd" d="M178.069 14.8602V11.9601H179.566C180.179 11.9601 180.697 11.7545 181.119 11.3492L181.22 11.2465C181.991 10.4072 181.94 9.09991 181.119 8.3235C180.708 7.91246 180.145 7.68981 179.566 7.70123H177.163V14.8602H178.069ZM178.069 11.0809V8.58044H179.589C179.915 8.58044 180.225 8.70603 180.455 8.93439C180.945 9.41394 180.956 10.2132 180.483 10.7099C180.253 10.9553 179.926 11.0924 179.589 11.0809H178.069ZM185.446 10.3444C185.058 9.98476 184.529 9.80207 183.859 9.80207C182.998 9.80207 182.351 10.1218 181.923 10.7555L182.723 11.2635C183.015 10.8297 183.415 10.6127 183.921 10.6127C184.242 10.6127 184.551 10.7326 184.793 10.9496C185.03 11.1551 185.165 11.4519 185.165 11.7659V11.9772C184.816 11.7831 184.377 11.6803 183.837 11.6803C183.206 11.6803 182.7 11.8287 182.323 12.1313C181.946 12.4339 181.755 12.8335 181.755 13.3416C181.743 13.804 181.94 14.2436 182.289 14.5405C182.644 14.8602 183.094 15.02 183.623 15.02C184.247 15.02 184.743 14.7403 185.12 14.1808H185.159V14.8602H186.026V11.8401C186.026 11.2065 185.834 10.7041 185.446 10.3444ZM182.987 13.9582C182.801 13.8212 182.689 13.5986 182.689 13.3588C182.689 13.0905 182.813 12.8678 183.055 12.6909C183.302 12.5139 183.612 12.4225 183.978 12.4225C184.484 12.4168 184.878 12.531 185.16 12.7594C185.16 13.1476 185.008 13.4844 184.709 13.7698C184.439 14.0439 184.073 14.198 183.691 14.198C183.437 14.2037 183.19 14.1181 182.987 13.9582ZM187.973 17.0125L191 9.96206H190.015L188.614 13.4787H188.597L187.162 9.96206H186.178L188.164 14.5463L187.039 17.0125H187.973Z" fill="#5E6268"/>
<path d="M174.941 11.332C174.941 11.0522 174.919 10.7725 174.874 10.4985H171.053V12.0798H173.242C173.152 12.5879 172.859 13.0446 172.431 13.3301V14.3577H173.737C174.502 13.6441 174.941 12.5879 174.941 11.332Z" fill="#4285F4"/>
<path d="M171.053 15.3512C172.145 15.3512 173.068 14.9858 173.737 14.3578L172.432 13.3302C172.066 13.5814 171.599 13.7242 171.053 13.7242C169.995 13.7242 169.1 12.9991 168.78 12.0286H167.435V13.0905C168.121 14.4777 169.522 15.3512 171.053 15.3512Z" fill="#34A853"/>
<path d="M168.78 12.0286C168.611 11.5205 168.611 10.9668 168.78 10.453V9.39684H167.435C166.855 10.5557 166.855 11.9259 167.435 13.0848L168.78 12.0286Z" fill="#FBBC04"/>
<path d="M171.053 8.75728C171.633 8.74586 172.19 8.96851 172.606 9.37384L173.765 8.19781C173.028 7.50132 172.06 7.11882 171.053 7.13024C169.522 7.13024 168.121 8.00941 167.435 9.39667L168.78 10.4585C169.1 9.48231 169.995 8.75728 171.053 8.75728Z" fill="#EA4335"/>
</g>
<g clip-path="url(#clip5_12_1875)">
<path d="M234 0.5H204C201.515 0.5 200.5 1.51472 200.5 4V20C200.5 22.4853 201.515 23.5 204 23.5H234C236.485 23.5 237.5 22.4853 237.5 20V4C237.5 1.51472 236.485 0.5 234 0.5Z" fill="white"/>
<path d="M234 1C236.179 1 237 1.82133 237 4V20C237 22.1787 236.179 23 234 23H204C201.821 23 201 22.1787 201 20V4C201 1.82133 201.821 1 204 1H234ZM234 0H204C201.277 0 200 1.27667 200 4V20C200 22.7233 201.277 24 204 24H234C236.723 24 238 22.7233 238 20V4C238 1.27667 236.723 0 234 0Z" fill="#E9ECEF"/>
<path fill-rule="evenodd" clip-rule="evenodd" d="M211 5.05H219.245C224.847 5.05 227 8.11174 227 11.9818C227 16.6111 223.991 18.9381 219.245 18.9381H211V5.05ZM211.783 5.88279V18.1543H219.245C223.746 18.1543 226.193 16.0478 226.193 12.0063C226.193 7.84231 223.55 5.88279 219.245 5.88279H211.783ZM213.985 12.2267C214.809 12.2267 215.477 11.5578 215.477 10.7326C215.477 9.90739 214.809 9.23845 213.985 9.23845C213.16 9.23845 212.492 9.90739 212.492 10.7326C212.492 11.5578 213.16 12.2267 213.985 12.2267ZM212.786 12.8636H215.184V17.1255H212.786V12.8636Z" fill="black"/>
<path fill-rule="evenodd" clip-rule="evenodd" d="M223.477 9.36093H224.162V11.4184H225.165C224.896 7.67085 221.936 6.83805 219.245 6.83805H216.382V9.36093H216.798C217.581 9.36093 218.046 9.8753 218.046 10.7326C218.046 11.5899 217.581 12.1043 216.823 12.1043H216.382V17.1255H219.245C223.624 17.1255 225.116 15.0925 225.19 12.1043H223.477V9.36093ZM220.174 11.4184V12.1043H218.462V9.36093H220.125V10.0468H219.147V10.3652H220.076V11.051H219.171V11.4184H220.174ZM220.468 12.1043L221.3 9.36093H222.278L223.11 12.1043H222.401L222.254 11.5899H221.349L221.202 12.1043H220.468ZM221.552 10.8795H221.544V10.904L221.552 10.8795ZM221.552 10.8795H222.034L221.813 10.1202H221.789L221.552 10.8795ZM216.382 11.4184V10.0468H216.798C217.067 10.0468 217.361 10.1202 217.361 10.7326C217.361 11.3449 217.092 11.4184 216.798 11.4184H216.382Z" fill="#CC0066"/>
</g>
<g clip-path="url(#clip6_12_1875)">
<path d="M274 0.5H244C241.515 0.5 240.5 1.51472 240.5 4V20C240.5 22.4853 241.515 23.5 244 23.5H274C276.485 23.5 277.5 22.4853 277.5 20V4C277.5 1.51472 276.485 0.5 274 0.5Z" fill="white"/>
<path d="M274 1C276.179 1 277 1.82133 277 4V20C277 22.1787 276.179 23 274 23H244C241.821 23 241 22.1787 241 20V4C241 1.82133 241.821 1 244 1H274ZM274 0H244C241.277 0 240 1.27667 240 4V20C240 22.7233 241.277 24 244 24H274C276.723 24 278 22.7233 278 20V4C278 1.27667 276.723 0 274 0Z" fill="#E9ECEF"/>
<path d="M273.993 10.3059L274 10.2981H272.879L272.171 12.7518H272.134L271.321 10.2981H269.989L271.592 14.3474L270.922 15.5817V15.6114H271.968L273.993 10.3059Z" fill="black"/>
<path d="M261.567 10.2981H260.378V14.3325H261.567V10.2981Z" fill="black"/>
<path d="M269.755 13.3236V11.638C269.755 10.7197 269.213 10.2152 268.257 10.2152C267.647 10.2152 267.226 10.3208 266.458 10.5539L266.669 11.48C267.369 11.164 267.677 11.0286 268.001 11.0286C268.392 11.0286 268.566 11.3071 268.566 11.7364V11.7662C267.203 12.022 266.781 12.1651 266.519 12.4287C266.323 12.6242 266.24 12.9027 266.24 13.2265C266.24 14.0016 266.842 14.4154 267.406 14.4154C267.828 14.4154 268.167 14.2574 268.626 13.9109L268.709 14.3325H269.898L269.755 13.3236ZM268.566 13.354C268.25 13.5269 268.07 13.5949 267.859 13.5949C267.573 13.5949 267.392 13.4065 267.392 13.106C267.392 12.9934 267.415 12.88 267.505 12.79C267.648 12.6469 267.926 12.5413 268.566 12.3911V13.354Z" fill="black"/>
<path d="M264.525 10.2152C264.088 10.2152 263.75 10.381 263.366 10.697V10.2981H262.177V15.6114H263.366V14.2943C263.592 14.3545 263.802 14.3849 264.058 14.3849C265.119 14.3849 266.075 13.602 266.075 12.2097C266.075 10.9606 265.383 10.2152 264.525 10.2152ZM263.772 13.6396C263.636 13.6396 263.508 13.6247 263.365 13.5793V11.3971C263.614 11.2242 263.816 11.1413 264.072 11.1413C264.516 11.1413 264.87 11.4948 264.87 12.248C264.871 13.2109 264.351 13.6396 263.772 13.6396Z" fill="black"/>
<path d="M250.3 8.22H245.202C244.538 8.22 244 8.76274 244 9.43159V14.5727C244 15.2416 244.538 15.7843 245.202 15.7843H250.3C250.963 15.7843 251.501 15.2416 251.501 14.5727V9.43159C251.501 8.76203 250.963 8.22 250.3 8.22Z" fill="#0F78FF"/>
<path d="M250.176 12.97C249.876 12.8687 249.473 12.7135 249.024 12.5498C249.294 12.0773 249.509 11.5395 249.651 10.9549H248.172V10.4179H249.983V10.1182H248.172V9.22257H247.433C247.303 9.22257 247.303 9.35153 247.303 9.35153V10.1174H245.472V10.4172H247.303V10.9542H245.791V11.2539H248.724C248.617 11.6266 248.472 11.9773 248.302 12.2955C247.35 11.9788 246.334 11.7223 245.696 11.8803C245.288 11.9816 245.025 12.1623 244.871 12.3522C244.162 13.2215 244.67 14.5422 246.167 14.5422C247.052 14.5422 247.904 14.0448 248.564 13.2251C249.55 13.7026 251.501 14.5231 251.501 14.5231V13.354C251.501 13.354 251.256 13.3342 250.176 12.97ZM246.027 14.0371C244.86 14.0371 244.515 13.1103 245.092 12.603C245.285 12.4315 245.636 12.3479 245.823 12.3295C246.516 12.2608 247.158 12.5272 247.915 12.8999C247.383 13.5999 246.705 14.0371 246.027 14.0371Z" fill="white"/>
<path d="M256.291 9.02631H254.695L252.912 14.3325H254.011L254.312 13.2938H256.201L256.487 14.3325H257.894L256.291 9.02631ZM254.56 12.428L255.267 9.98212H255.297L255.966 12.428H254.56Z" fill="black"/>
<path d="M259.564 8.83784H258.375V14.3318H259.564V8.83784Z" fill="black"/>
<path d="M260.287 9.32743C260.287 9.71854 260.573 9.98212 260.972 9.98212C261.371 9.98212 261.657 9.71854 261.657 9.32743C261.657 8.94341 261.371 8.67275 260.972 8.67275C260.573 8.67275 260.287 8.94341 260.287 9.32743Z" fill="#0F78FF"/>
</g>
<defs>
<clipPath id="clip0_12_1875">
<rect width="38" height="24" fill="white"/>
</clipPath>
<clipPath id="clip1_12_1875">
<rect width="38" height="24" fill="white" transform="translate(40)"/>
</clipPath>
<clipPath id="clip2_12_1875">
<rect width="38" height="24" fill="white" transform="translate(80)"/>
</clipPath>
<clipPath id="clip3_12_1875">
<rect width="38" height="24" fill="white" transform="translate(120)"/>
</clipPath>
<clipPath id="clip4_12_1875">
<rect width="38" height="24" fill="white" transform="translate(160)"/>
</clipPath>
<clipPath id="clip5_12_1875">
<rect width="38" height="24" fill="white" transform="translate(200)"/>
</clipPath>
<clipPath id="clip6_12_1875">
<rect width="38" height="24" fill="white" transform="translate(240)"/>
</clipPath>
</defs>
</svg>
