<svg width="33" height="32" viewBox="0 0 33 32" fill="none" xmlns="http://www.w3.org/2000/svg">
<path d="M7.69236 24.5336C7.78637 24.6316 7.88536 24.7248 7.98894 24.8127L7.99313 24.8168C8.25385 25.0482 8.55012 25.2361 8.87056 25.3732C9.46437 25.6206 10.1372 25.6547 10.7683 25.7829C11.1702 25.8664 11.5546 25.9866 11.8894 26.2252C12.0936 26.3707 12.2706 26.5546 12.4858 26.6841C12.7292 26.8282 13.0089 26.896 13.2843 26.9546C13.8989 27.0871 14.5857 27.1748 15.1996 27.0744C15.6767 26.9992 16.1093 26.809 16.4299 26.4408C16.5 26.4877 16.5717 26.5332 16.6446 26.5745C18.2409 27.5047 20.4568 27.2561 21.7892 25.9669C22.4395 25.9543 23.0853 25.8566 23.7102 25.6761C24.8568 25.3515 25.9113 24.7624 26.7889 23.9563C27.2198 23.5583 27.6021 23.1106 27.9277 22.6226C28.0607 22.4246 28.1836 22.2198 28.2994 22.0089C28.7848 21.119 29.087 20.1409 29.1882 19.1322C29.2904 18.0928 29.1762 17.0437 29.0513 16.0065C29.0247 15.7839 28.9971 15.5613 28.966 15.3375C28.9244 15.0266 28.8753 14.7158 28.8133 14.4082C28.6491 13.5898 28.3977 12.7962 27.9457 12.103C27.4678 11.3712 26.7908 10.7903 26.0751 10.2866C24.9202 9.47474 23.6487 8.84293 22.3041 8.41278C21.918 8.28942 21.5227 8.18077 21.1421 8.03906C20.9716 7.9768 20.8047 7.90497 20.6423 7.82391C20.5359 7.77193 20.4323 7.71452 20.3319 7.65191C20.1077 7.50992 19.8991 7.34327 19.6532 7.24967C19.3504 7.13652 19.0174 7.14544 18.6937 7.13442C18.3941 7.12376 18.0946 7.09395 17.7954 7.06481C17.8554 7.23969 17.9265 7.41053 18.0084 7.57628C18.2749 8.11364 18.6584 8.67489 18.7538 9.23839C18.8481 9.22074 18.9426 9.20457 19.0359 9.19373C19.6125 9.12857 20.1937 9.26745 20.6785 9.58625L19.3044 9.5829C19.5626 9.87449 19.7942 10.1887 19.9963 10.5216C19.5914 10.5842 19.2152 10.7686 18.9177 11.0502C18.6121 10.8526 18.1356 11.0479 18.0562 11.4031C17.6675 11.4504 17.3098 11.6388 17.0507 11.9323C16.8343 11.6361 16.5406 11.3047 16.1779 11.3608C15.752 11.4254 15.5537 11.9864 15.134 12.083C15.0505 11.6975 14.8777 11.337 14.6296 11.0304C14.3814 10.7238 14.0648 10.4797 13.7051 10.3178C14.1349 10.2445 14.5355 10.0523 14.8616 9.76306C14.5186 9.48251 14.0205 9.17104 13.791 8.83233C14.2145 8.93715 14.5826 9.19569 14.9753 9.37753C15.1034 9.43724 15.2362 9.48637 15.3724 9.52442C15.2823 8.8774 15.197 8.19726 15.4345 7.58898C15.4948 7.44168 15.5664 7.29923 15.6485 7.16289C15.1859 7.31664 14.7715 7.5857 14.5214 7.99751C14.479 7.98319 14.4349 7.96764 14.3924 7.95495C14.3499 7.94227 14.2999 7.92524 14.252 7.91291C13.885 7.81119 13.5078 7.75104 13.1274 7.73361C11.855 7.67161 10.554 8.06423 9.49508 8.78577C7.95309 9.83672 7.2392 11.3189 6.49238 12.9542C5.67062 14.7533 5.23121 16.7434 5.33708 18.736C5.44114 20.6996 6.10838 22.6554 7.36897 24.1657C7.47148 24.297 7.57934 24.4176 7.69236 24.5336ZM19.5284 15.4574C19.677 15.0644 20.1716 14.0118 20.1716 14.0118C20.5132 14.2882 20.6208 14.375 20.7782 14.612C20.8883 14.7746 20.9721 14.9538 21.0871 15.1123C21.2514 15.3387 21.4711 15.518 21.6673 15.7179C22.0306 16.0888 22.313 16.5309 22.4968 17.0164C21.6872 17.0092 20.878 17.057 20.0749 17.1597C19.7015 17.2076 19.3153 17.2666 18.9531 17.1636C19.1442 16.5961 19.3186 16.0186 19.5284 15.4574V15.4574ZM17.245 17.1954C17.3795 17.3336 18.2219 18.9171 18.3024 18.8943C17.6741 19.0065 17.0179 19.1177 16.4131 18.9185C16.7055 18.3737 16.8963 17.6921 17.245 17.1954V17.1954ZM12.8617 15.6993L14.1237 14.1053C14.335 15.2227 14.5476 16.3447 14.9127 17.4218C14.929 17.4705 12.0226 17.3283 11.724 17.2177C11.8758 16.7066 12.5185 16.1331 12.8617 15.6993V15.6993ZM11.6047 19.3876C12.0231 19.6049 12.402 19.8958 12.851 20.0772L12.831 20.7272C13.2841 20.8926 13.7799 20.8992 14.2372 20.7458L14.2599 20.1627L15.0096 20.2715C15.0781 20.5603 15.1466 20.8484 15.2151 21.1358C15.4936 21.2109 15.8313 21.272 16.0382 21.0727C16.1176 20.9985 16.163 20.8945 16.2226 20.8031C16.3353 20.6311 16.4981 20.498 16.6889 20.4216C16.8798 20.3452 17.0895 20.3294 17.2897 20.3762C17.4898 20.423 17.6708 20.5301 17.808 20.6832C17.9453 20.8362 18.0321 21.0277 18.0569 21.2318L18.8797 21.2067C18.9449 20.8887 19.0195 20.5491 19.2516 20.3234C19.4837 20.0977 19.9262 20.0566 20.1013 20.33C20.2162 20.5093 20.2206 20.7996 20.4272 20.8512L21.0811 20.5687C20.9532 20.1171 21.3869 19.7 21.8199 19.5145C22.2529 19.329 22.7533 19.2305 23.0532 18.8677C22.7566 19.5715 22.4565 20.2801 22.0181 20.9074C21.5798 21.5348 20.9825 22.0716 20.2573 22.3097C20.2083 22.1348 20.1591 21.9596 20.1099 21.7842L19.1052 21.9469L18.9446 22.4347L18.2002 22.5012L18.0129 22.112L17.0904 22.0962C17.0797 22.2558 17.069 22.4152 17.0581 22.5743C16.7973 22.7344 16.4832 22.4884 16.2695 22.2694C16.0558 22.0504 15.7091 21.8304 15.4752 22.0278L15.3066 22.6309C14.4756 22.9502 13.581 22.3606 12.9578 21.7246C12.376 21.1356 11.6173 20.2541 11.6041 19.3863L11.6047 19.3876Z" fill="#FF8931"/>
<path d="M15.3002 22.629L15.4687 22.0258C15.702 21.8287 16.0494 22.0484 16.2631 22.2674C16.4767 22.4864 16.7909 22.7324 17.0517 22.5723C17.0626 22.4132 17.0733 22.2538 17.084 22.0942L18.0064 22.11L18.1938 22.4992L18.9382 22.4327L19.0988 21.9449L20.1034 21.7822C20.1526 21.9574 20.2017 22.1326 20.2509 22.3077C20.9766 22.0709 21.5725 21.53 22.0117 20.9054C22.4508 20.2809 22.7507 19.5709 23.0468 18.8657C22.7483 19.228 22.246 19.3268 21.8134 19.5125C21.3809 19.6982 20.9485 20.1144 21.0747 20.5667L20.4208 20.8492C20.2142 20.7976 20.2098 20.5073 20.0949 20.328C19.9198 20.0546 19.4762 20.0942 19.2452 20.3214C19.0142 20.5486 18.9385 20.8867 18.8733 21.2047L18.0505 21.2298C18.0257 21.0258 17.9388 20.8342 17.8016 20.6812C17.6644 20.5281 17.4834 20.421 17.2832 20.3742C17.0831 20.3274 16.8734 20.3433 16.6825 20.4196C16.4916 20.496 16.3289 20.6291 16.2162 20.8011C16.1566 20.8925 16.1105 20.9949 16.0317 21.0707C15.8235 21.2706 15.4871 21.2089 15.2086 21.1338C15.1401 20.8449 15.0716 20.5568 15.0031 20.2695L14.2535 20.1607L14.2307 20.7438C13.7735 20.8972 13.2776 20.8907 12.8245 20.7253L12.8446 20.0752C12.3956 19.8939 12.0165 19.6026 11.5983 19.3856C11.6114 20.2534 12.3702 21.135 12.9455 21.722C13.5746 22.3587 14.4692 22.9483 15.3002 22.629Z" fill="#262626"/>
<path d="M14.9117 17.4223C14.5469 16.3458 14.334 15.2231 14.1227 14.1058L12.8607 15.6997C12.5175 16.1335 11.8748 16.7071 11.722 17.2186C12.0222 17.3301 14.928 17.471 14.9117 17.4223Z" fill="#262626"/>
<path d="M22.4965 17.0165C22.3127 16.531 22.0302 16.0889 21.667 15.718C21.4711 15.518 21.252 15.34 21.0868 15.1124C20.9717 14.9539 20.8866 14.7753 20.7778 14.6121C20.6198 14.3735 20.513 14.2886 20.1713 14.0119C20.1713 14.0119 19.675 15.0652 19.528 15.4575C19.3183 16.0188 19.1442 16.596 18.9517 17.1641C19.3146 17.2668 19.7001 17.2081 20.0736 17.1602C20.877 17.0574 21.6865 17.0094 22.4965 17.0165V17.0165Z" fill="#262626"/>
<path d="M17.245 17.1954C16.8959 17.6911 16.7055 18.3737 16.4131 18.9185C17.0169 19.1182 17.6758 19.0066 18.3024 18.8943C18.2219 18.9171 17.3795 17.3336 17.245 17.1954Z" fill="#262626"/>
<path d="M15.3722 9.53045C15.5033 9.56752 15.6381 9.58938 15.7742 9.59561C15.9762 9.60784 16.1777 9.5639 16.3563 9.46866C16.5877 9.33998 16.79 9.10688 17.0545 9.12115C17.2091 9.12961 17.3436 9.22436 17.4866 9.28276C17.8844 9.44491 18.3202 9.32386 18.751 9.24199C18.6556 8.67849 18.2721 8.11725 18.0056 7.57989C17.9237 7.41414 17.8525 7.24329 17.7926 7.06841C17.3774 5.85719 17.4964 4.46494 18.1371 3.3516C18.2789 3.10481 18.4504 2.8217 18.3486 2.55592C18.2588 2.32044 17.9754 2.20723 17.7246 2.23203C16.5259 2.35191 16.4216 4.92862 16.1868 5.88243C16.1373 6.10944 16.0695 6.33206 15.984 6.54813C15.8916 6.76444 15.7654 6.96349 15.6466 7.16769C15.5645 7.30403 15.4929 7.44648 15.4326 7.59378C15.1971 8.20315 15.2821 8.88344 15.3722 9.53045Z" fill="#262626"/>
<path d="M17.0562 9.12122C16.7916 9.10695 16.5894 9.34006 16.3579 9.46873C16.1793 9.56398 15.9779 9.60792 15.7758 9.59569C15.6398 9.58946 15.5049 9.5676 15.3738 9.53053C15.2377 9.49249 15.1049 9.44336 14.9767 9.38364C14.584 9.20181 14.2159 8.94327 13.7924 8.83845C14.021 9.17481 14.5194 9.48695 14.8631 9.76918C14.5369 10.0584 14.1363 10.2506 13.7066 10.3239C14.0662 10.4859 14.3828 10.73 14.631 11.0365C14.8792 11.3431 15.052 11.7036 15.1355 12.0891C15.5552 11.9926 15.7537 11.4322 16.1794 11.3669C16.5418 11.311 16.8352 11.6408 17.0522 11.9384C17.3112 11.6449 17.669 11.4566 18.0576 11.4092C18.137 11.054 18.6136 10.8588 18.9192 11.0564C19.2166 10.7747 19.5929 10.5903 19.9977 10.5278C19.7956 10.1948 19.5641 9.88061 19.3058 9.58902L20.68 9.59237C20.1951 9.27357 19.6139 9.13469 19.0373 9.19985C18.9441 9.21069 18.8499 9.22671 18.7552 9.24451C18.3244 9.32638 17.8876 9.44786 17.4909 9.28528C17.3459 9.22415 17.2107 9.12968 17.0562 9.12122Z" fill="#262626"/>
</svg>
