<svg width="120" height="120" viewBox="0 0 120 120" fill="none" xmlns="http://www.w3.org/2000/svg">
<path d="M2 119.488C1.99981 119.553 2.01231 119.616 2.03678 119.675C2.06126 119.735 2.09722 119.789 2.14261 119.834C2.188 119.879 2.24191 119.915 2.30124 119.94C2.36058 119.964 2.42417 119.977 2.48836 119.977H117.512C117.641 119.977 117.765 119.925 117.857 119.834C117.949 119.742 118 119.618 118 119.488C118 119.359 117.949 119.235 117.857 119.143C117.765 119.051 117.641 119 117.512 119H2.48836C2.42417 119 2.36059 119.012 2.30126 119.037C2.24192 119.061 2.18801 119.097 2.14262 119.143C2.09723 119.188 2.06126 119.242 2.03678 119.301C2.01231 119.361 1.99981 119.424 2 119.488Z" fill="#CCCCCC"/>
<path d="M16.6346 97.1438L16.2436 88.3525C12.1677 86.1738 7.62159 85.023 3 85C9.36068 90.2003 8.56577 100.225 12.8782 107.218C14.2399 109.389 16.0726 111.225 18.2406 112.592C20.4086 113.958 22.8562 114.819 25.4021 115.11L30.725 118.369C31.4553 114.297 31.2943 110.116 30.253 106.112C29.2116 102.109 27.3147 98.3785 24.6929 95.1787C23.2043 93.3981 21.4974 91.8121 19.6125 90.4581C18.3377 93.8196 16.6346 97.1438 16.6346 97.1438Z" fill="#F2F2F2"/>
<path d="M14.5927 76.4C14.228 76.3985 13.8732 76.2811 13.5797 76.0646L11.1386 74.291C10.936 74.1431 10.6917 74.0634 10.4409 74.0634C10.1901 74.0634 9.94581 74.1431 9.74327 74.291L7.30214 76.0646C7.00774 76.2785 6.65318 76.3937 6.28928 76.3937C5.92537 76.3937 5.5708 76.2785 5.27638 76.0647C4.98196 75.8508 4.76281 75.5492 4.65032 75.2031C4.53784 74.857 4.53778 74.4842 4.65019 74.1381L5.58266 71.2685C5.66061 71.0301 5.66086 70.7731 5.58338 70.5345C5.5059 70.296 5.35467 70.0882 5.15151 69.9411L2.71038 68.1676C2.41596 67.9537 2.19681 67.6521 2.08435 67.306C1.97189 66.9599 1.97188 66.587 2.08434 66.2409C2.19679 65.8948 2.41593 65.5932 2.71034 65.3793C3.00475 65.1654 3.35932 65.0502 3.72324 65.0502H6.74072C6.99148 65.0507 7.23591 64.9715 7.43878 64.8241C7.64166 64.6767 7.7925 64.4687 7.86957 64.2301L8.80189 61.3604C8.91433 61.0143 9.13348 60.7126 9.42791 60.4987C9.72235 60.2847 10.077 60.1695 10.4409 60.1695C10.8049 60.1695 11.1595 60.2847 11.4539 60.4987C11.7483 60.7126 11.9675 61.0143 12.0799 61.3604L13.0122 64.2301C13.0893 64.4687 13.2402 64.6767 13.443 64.8241C13.6459 64.9715 13.8903 65.0507 14.1411 65.0502H17.1586C17.5225 65.0502 17.877 65.1654 18.1714 65.3793C18.4658 65.5932 18.685 65.8949 18.7974 66.241C18.9099 66.587 18.9099 66.9599 18.7974 67.306C18.685 67.6521 18.4658 67.9537 18.1714 68.1676L15.7303 69.9411C15.5271 70.0882 15.3759 70.296 15.2984 70.5345C15.2209 70.7731 15.2212 71.0301 15.2992 71.2685L16.2316 74.1381C16.3482 74.4839 16.3502 74.858 16.2375 75.205C16.1247 75.552 15.9031 75.8534 15.6055 76.0646C15.3121 76.2811 14.9573 76.3985 14.5927 76.4V76.4Z" fill="#96588A"/>
<path d="M39.3298 76.4C38.9651 76.3985 38.6103 76.2811 38.3168 76.0646L35.8757 74.291C35.6732 74.1431 35.4288 74.0634 35.178 74.0634C34.9272 74.0634 34.6829 74.1431 34.4804 74.291L32.0393 76.0646C31.7449 76.2785 31.3903 76.3937 31.0264 76.3937C30.6625 76.3937 30.3079 76.2785 30.0135 76.0647C29.7191 75.8508 29.4999 75.5492 29.3874 75.2031C29.275 74.857 29.2749 74.4842 29.3873 74.1381L30.3198 71.2685C30.3977 71.0301 30.398 70.7731 30.3205 70.5345C30.243 70.296 30.0918 70.0882 29.8886 69.9411L27.4475 68.1676C27.1531 67.9536 26.934 67.652 26.8216 67.3059C26.7091 66.9598 26.7091 66.587 26.8216 66.2409C26.9341 65.8948 27.1532 65.5932 27.4476 65.3793C27.742 65.1654 28.0966 65.0502 28.4605 65.0502H31.4778C31.7286 65.0507 31.973 64.9715 32.1759 64.8241C32.3788 64.6767 32.5296 64.4687 32.6067 64.2301L33.5391 61.3604C33.6516 61.0143 33.8707 60.7126 34.1651 60.4987C34.4595 60.2847 34.8141 60.1695 35.1781 60.1695C35.542 60.1695 35.8966 60.2847 36.191 60.4987C36.4855 60.7126 36.7046 61.0143 36.817 61.3604L37.7494 64.2301C37.8265 64.4687 37.9773 64.6767 38.1802 64.8241C38.3831 64.9715 38.6276 65.0507 38.8783 65.0502H41.8957C42.2596 65.0502 42.6142 65.1654 42.9086 65.3793C43.203 65.5932 43.4221 65.8948 43.5346 66.2409C43.647 66.587 43.647 66.9598 43.5346 67.3059C43.4222 67.652 43.2031 67.9536 42.9087 68.1676L40.4675 69.9411C40.2643 70.0881 40.1131 70.2959 40.0356 70.5345C39.9581 70.773 39.9583 71.0301 40.0363 71.2685L40.9687 74.1381C41.0853 74.4839 41.0873 74.858 40.9746 75.205C40.8618 75.552 40.6402 75.8534 40.3426 76.0646C40.0492 76.281 39.6945 76.3985 39.3298 76.4V76.4Z" fill="#96588A"/>
<path d="M64.0669 76.4C63.7023 76.3985 63.3475 76.2811 63.0541 76.0646L60.6129 74.291C60.4102 74.1435 60.1659 74.064 59.9152 74.064C59.6645 74.064 59.4202 74.1435 59.2175 74.291L56.7764 76.0646C56.482 76.2785 56.1274 76.3937 55.7635 76.3937C55.3996 76.3937 55.0451 76.2785 54.7506 76.0647C54.4562 75.8508 54.2371 75.5492 54.1246 75.2031C54.0122 74.857 54.0121 74.4842 54.1246 74.1381L55.0569 71.2685C55.1349 71.0301 55.1351 70.7731 55.0576 70.5345C54.9801 70.296 54.8289 70.0882 54.6258 69.9411L52.1846 68.1676C51.8902 67.9536 51.6711 67.652 51.5587 67.3059C51.4463 66.9598 51.4463 66.587 51.5587 66.2409C51.6712 65.8948 51.8903 65.5932 52.1847 65.3793C52.4791 65.1654 52.8337 65.0502 53.1976 65.0502H56.2149C56.4657 65.0507 56.7101 64.9715 56.913 64.8241C57.1159 64.6767 57.2667 64.4687 57.3438 64.2301L58.2763 61.3604C58.3887 61.0143 58.6078 60.7126 58.9022 60.4987C59.1967 60.2847 59.5513 60.1695 59.9152 60.1695C60.2792 60.1695 60.6337 60.2847 60.9282 60.4987C61.2226 60.7126 61.4417 61.0143 61.5542 61.3604L62.4866 64.2301C62.5637 64.4687 62.7145 64.6767 62.9174 64.8241C63.1203 64.9715 63.3647 65.0507 63.6155 65.0502H66.6328C66.9967 65.0502 67.3513 65.1654 67.6457 65.3793C67.9401 65.5932 68.1592 65.8948 68.2717 66.2409C68.3842 66.587 68.3842 66.9598 68.2717 67.3059C68.1593 67.652 67.9402 67.9536 67.6458 68.1676L65.2047 69.9411C65.0015 70.0882 64.8503 70.296 64.7728 70.5345C64.6953 70.7731 64.6956 71.0301 64.7735 71.2685L65.7058 74.1381C65.8224 74.4838 65.8245 74.8579 65.7117 75.2049C65.599 75.5519 65.3774 75.8534 65.0799 76.0646C64.7864 76.2811 64.4316 76.3985 64.0669 76.4V76.4Z" fill="#96588A"/>
<path d="M88.8045 76.4C88.4398 76.3985 88.085 76.281 87.7915 76.0645L85.3504 74.291C85.1479 74.1431 84.9036 74.0634 84.6528 74.0634C84.402 74.0634 84.1576 74.1431 83.9551 74.291L81.5139 76.0645C81.2195 76.2785 80.865 76.3937 80.5011 76.3937C80.1372 76.3937 79.7826 76.2785 79.4882 76.0647C79.1938 75.8508 78.9746 75.5492 78.8621 75.2031C78.7496 74.857 78.7496 74.4842 78.862 74.1381L79.7945 71.2684C79.8724 71.0301 79.8727 70.7731 79.7952 70.5346C79.7177 70.2961 79.5664 70.0883 79.3632 69.9414L76.922 68.1676C76.6277 67.9536 76.4085 67.652 76.2961 67.3059C76.1837 66.9598 76.1837 66.587 76.2962 66.2409C76.4086 65.8948 76.6277 65.5932 76.9221 65.3793C77.2166 65.1654 77.5711 65.0502 77.935 65.0502H80.9524C81.2032 65.0506 81.4476 64.9715 81.6505 64.8241C81.8534 64.6767 82.0043 64.4687 82.0813 64.23L83.0137 61.3604C83.1261 61.0143 83.3452 60.7126 83.6397 60.4986C83.9341 60.2847 84.2887 60.1695 84.6526 60.1695C85.0166 60.1695 85.3712 60.2847 85.6656 60.4986C85.96 60.7126 86.1792 61.0143 86.2916 61.3604L87.224 64.23C87.3011 64.4687 87.4519 64.6767 87.6548 64.8241C87.8577 64.9715 88.1021 65.0506 88.3529 65.0502H91.3702C91.7342 65.0502 92.0887 65.1654 92.3831 65.3793C92.6775 65.5932 92.8967 65.8948 93.0091 66.2409C93.1216 66.587 93.1216 66.9598 93.0091 67.3059C92.8967 67.652 92.6776 67.9536 92.3832 68.1676L89.9421 69.9411C89.7389 70.0882 89.5877 70.296 89.5102 70.5345C89.4327 70.7731 89.433 71.03 89.5109 71.2684L90.4434 74.1381C90.56 74.4838 90.562 74.8579 90.4493 75.205C90.3365 75.552 90.1149 75.8534 89.8174 76.0645C89.5239 76.281 89.1692 76.3985 88.8045 76.4V76.4Z" fill="#96588A"/>
<path d="M105.238 76.5701C104.838 76.5685 104.448 76.4396 104.126 76.2021C103.799 75.97 103.555 75.6388 103.432 75.2576C103.308 74.8764 103.31 74.4653 103.438 74.0855L104.371 71.2159C104.437 71.0116 104.437 70.7914 104.371 70.587C104.305 70.3826 104.175 70.2046 104.001 70.0785L101.56 68.3048C101.236 68.0699 100.996 67.7386 100.872 67.3584C100.749 66.9782 100.749 66.5686 100.872 66.1885C100.996 65.8083 101.236 65.477 101.56 65.242C101.883 65.0071 102.273 64.8805 102.672 64.8806H105.69C105.905 64.881 106.114 64.8131 106.288 64.6867C106.462 64.5604 106.591 64.3821 106.657 64.1775L107.59 61.3079C107.713 60.9278 107.954 60.5965 108.277 60.3615C108.601 60.1265 108.99 60 109.39 60C109.79 60 110.179 60.1265 110.503 60.3615C110.826 60.5965 111.067 60.9278 111.19 61.3079L112.123 64.1775C112.189 64.3821 112.318 64.5604 112.492 64.6867C112.666 64.8131 112.875 64.8809 113.09 64.8806H116.108C116.507 64.8806 116.897 65.0071 117.22 65.2421C117.544 65.477 117.784 65.8083 117.908 66.1885C118.031 66.5687 118.031 66.9782 117.908 67.3584C117.784 67.7385 117.544 68.0698 117.22 68.3048L114.779 70.0785C114.605 70.2045 114.475 70.3825 114.409 70.587C114.343 70.7914 114.343 71.0116 114.41 71.2159L115.342 74.0855C115.466 74.4657 115.465 74.8752 115.342 75.2554C115.218 75.6356 114.978 75.9669 114.654 76.2018C114.331 76.4368 113.941 76.5633 113.542 76.5633C113.142 76.5633 112.752 76.4368 112.429 76.2018L109.988 74.4283C109.814 74.3016 109.605 74.2334 109.39 74.2334C109.175 74.2334 108.966 74.3016 108.792 74.4283L106.351 76.2018C106.029 76.4396 105.639 76.5686 105.238 76.5701V76.5701ZM109.39 73.3575C109.79 73.3575 110.179 73.4845 110.503 73.72L112.944 75.4935C113.117 75.6198 113.327 75.6879 113.542 75.6879C113.756 75.688 113.966 75.6199 114.14 75.4937C114.314 75.3674 114.443 75.1893 114.509 74.9849C114.576 74.7806 114.576 74.5605 114.509 74.3561L113.577 71.4865C113.453 71.1064 113.452 70.6966 113.576 70.3163C113.699 69.9359 113.941 69.6046 114.265 69.3702L116.706 67.5965C116.879 67.4702 117.009 67.2921 117.075 67.0878C117.142 66.8835 117.142 66.6634 117.075 66.4591C117.009 66.2547 116.879 66.0767 116.706 65.9504C116.532 65.8241 116.322 65.7561 116.108 65.7561H113.09C112.69 65.7568 112.301 65.6306 111.977 65.3955C111.653 65.1604 111.413 64.8287 111.29 64.4482L110.358 61.5786C110.291 61.3742 110.162 61.1961 109.988 61.0698C109.814 60.9435 109.605 60.8755 109.39 60.8755C109.175 60.8755 108.966 60.9435 108.792 61.0698C108.618 61.1961 108.489 61.3742 108.422 61.5786L107.49 64.4482C107.367 64.8287 107.127 65.1605 106.803 65.3955C106.479 65.6306 106.09 65.7569 105.69 65.7561H102.672C102.458 65.7561 102.248 65.8241 102.074 65.9504C101.901 66.0766 101.771 66.2547 101.705 66.459C101.638 66.6633 101.638 66.8835 101.705 67.0878C101.771 67.2921 101.901 67.4702 102.074 67.5965L104.516 69.3702C104.84 69.6047 105.081 69.936 105.204 70.3163C105.328 70.6966 105.327 71.1064 105.203 71.4865L104.271 74.3561C104.204 74.5604 104.204 74.7806 104.271 74.9849C104.337 75.1892 104.466 75.3673 104.64 75.4936C104.814 75.6198 105.023 75.6878 105.238 75.6878C105.453 75.6878 105.662 75.6198 105.836 75.4935L108.277 73.72C108.601 73.4845 108.99 73.3575 109.39 73.3575V73.3575Z" fill="#3F3D56"/>
<path d="M104.549 42.2278H16.451C16.0663 42.2274 15.6975 42.0743 15.4255 41.8023C15.1534 41.5303 15.0004 41.1615 15 40.7768V14.451C15.0004 14.0663 15.1534 13.6975 15.4255 13.4255C15.6975 13.1534 16.0663 13.0004 16.451 13H104.549C104.934 13.0004 105.303 13.1534 105.575 13.4255C105.847 13.6975 106 14.0663 106 14.451V40.7768C106 41.1615 105.847 41.5303 105.575 41.8023C105.303 42.0743 104.934 42.2274 104.549 42.2278V42.2278ZM16.451 13.4146C16.1762 13.4149 15.9128 13.5242 15.7185 13.7185C15.5242 13.9128 15.4149 14.1762 15.4146 14.451V40.7768C15.4149 41.0515 15.5242 41.315 15.7185 41.5093C15.9128 41.7036 16.1762 41.8129 16.451 41.8132H104.549C104.824 41.8129 105.087 41.7036 105.282 41.5093C105.476 41.315 105.585 41.0515 105.585 40.7768V14.451C105.585 14.1762 105.476 13.9128 105.282 13.7185C105.087 13.5242 104.824 13.4149 104.549 13.4146H16.451Z" fill="#3F3D56"/>
<path d="M26.4009 19.2187C26.0436 19.2187 25.7008 19.3606 25.4482 19.6133C25.1955 19.866 25.0535 20.2087 25.0535 20.566C25.0535 20.9234 25.1955 21.2661 25.4482 21.5188C25.7008 21.7715 26.0436 21.9134 26.4009 21.9134H94.5991C94.9564 21.9134 95.2991 21.7715 95.5518 21.5188C95.8045 21.2661 95.9464 20.9234 95.9464 20.566C95.9464 20.2087 95.8045 19.866 95.5518 19.6133C95.2991 19.3606 94.9564 19.2187 94.5991 19.2187H26.4009Z" fill="#CCCCCC"/>
<path d="M26.4009 26.2665C26.0436 26.2665 25.7008 26.4085 25.4482 26.6612C25.1955 26.9139 25.0535 27.2566 25.0535 27.6139C25.0535 27.9713 25.1955 28.314 25.4482 28.5667C25.7008 28.8193 26.0436 28.9613 26.4009 28.9613H94.5991C94.9564 28.9613 95.2991 28.8193 95.5518 28.5667C95.8045 28.314 95.9464 27.9713 95.9464 27.6139C95.9464 27.2566 95.8045 26.9139 95.5518 26.6612C95.2991 26.4085 94.9564 26.2665 94.5991 26.2665H26.4009Z" fill="#CCCCCC"/>
<path d="M26.4009 33.3143C26.0436 33.3143 25.7008 33.4563 25.4482 33.709C25.1955 33.9617 25.0535 34.3044 25.0535 34.6617C25.0535 35.0191 25.1955 35.3618 25.4482 35.6145C25.7008 35.8671 26.0436 36.0091 26.4009 36.0091H94.5991C94.9564 36.0091 95.2991 35.8671 95.5518 35.6145C95.8045 35.3618 95.9464 35.0191 95.9464 34.6617C95.9464 34.3044 95.8045 33.9617 95.5518 33.709C95.2991 33.4563 94.9564 33.3143 94.5991 33.3143H26.4009Z" fill="#CCCCCC"/>
</svg>
