<svg width="38" height="38" viewBox="0 0 38 38" fill="none" xmlns="http://www.w3.org/2000/svg">
<g clip-path="url(#clip0_50_58)">
<path d="M10.7944 15.9458L9.76125 19H7.125L11.5472 7.125H14.5967L19 19H16.2284L15.1952 15.9458H10.7944ZM14.6751 14.1978L13.0625 9.3955H12.9461L11.3335 14.1978H14.6775H14.6751Z" fill="#333333"/>
<path d="M0 4.75C0 3.49022 0.500445 2.28204 1.39124 1.39124C2.28204 0.500445 3.49022 0 4.75 0L21.375 0C22.6348 0 23.843 0.500445 24.7338 1.39124C25.6246 2.28204 26.125 3.49022 26.125 4.75V11.875H33.25C34.5098 11.875 35.718 12.3754 36.6088 13.2662C37.4996 14.157 38 15.3652 38 16.625V33.25C38 34.5098 37.4996 35.718 36.6088 36.6088C35.718 37.4996 34.5098 38 33.25 38H16.625C15.3652 38 14.157 37.4996 13.2662 36.6088C12.3754 35.718 11.875 34.5098 11.875 33.25V26.125H4.75C3.49022 26.125 2.28204 25.6246 1.39124 24.7338C0.500445 23.843 0 22.6348 0 21.375V4.75ZM4.75 2.375C4.12011 2.375 3.51602 2.62522 3.07062 3.07062C2.62522 3.51602 2.375 4.12011 2.375 4.75V21.375C2.375 22.0049 2.62522 22.609 3.07062 23.0544C3.51602 23.4998 4.12011 23.75 4.75 23.75H21.375C22.0049 23.75 22.609 23.4998 23.0544 23.0544C23.4998 22.609 23.75 22.0049 23.75 21.375V4.75C23.75 4.12011 23.4998 3.51602 23.0544 3.07062C22.609 2.62522 22.0049 2.375 21.375 2.375H4.75ZM21.7027 26.1131C22.1611 26.828 22.6575 27.4977 23.199 28.1224C21.4225 29.488 19.2256 30.4998 16.625 31.1909C17.0478 31.7063 17.6961 32.699 17.9431 33.25C20.615 32.3974 22.8831 31.2455 24.7974 29.7017C26.6427 31.2811 28.9275 32.4686 31.7561 33.1977C32.072 32.5945 32.7394 31.5994 33.25 31.084C30.5781 30.4831 28.3646 29.4357 26.5525 28.0345C28.1699 26.2604 29.4547 24.1134 30.4024 21.4866H33.25V19H26.125V21.4866H27.9419C27.1866 23.4911 26.1844 25.1584 24.9209 26.5454C24.5719 26.1736 24.2429 25.7835 23.9353 25.3769C23.2651 25.8066 22.4971 26.0599 21.7027 26.1131V26.1131Z" fill="#333333"/>
</g>
<defs>
<clipPath id="clip0_50_58">
<rect width="38" height="38" fill="white"/>
</clipPath>
</defs>
</svg>
