<svg width="24" height="24" viewBox="0 0 24 24" fill="none" xmlns="http://www.w3.org/2000/svg">
<path fill-rule="evenodd" clip-rule="evenodd" d="M21.2163 6.52383L16.7261 11.014L16.7253 11.0132L15.7828 11.9557C15.5223 12.2162 15.5223 12.6385 15.7828 12.899C16.3038 13.42 17.1485 13.42 17.6695 12.899L22.6305 7.93805C24.4464 6.12211 24.4464 3.17789 22.6305 1.36195C20.8145 -0.453985 17.8703 -0.453985 16.0544 1.36195L11.0947 6.32167C10.573 6.84337 10.573 7.68922 11.0947 8.21092C11.3555 8.47177 11.7784 8.47177 12.0393 8.21092L12.9812 7.26902L12.9785 7.26629L17.4686 2.77617C18.5035 1.74128 20.1814 1.74128 21.2163 2.77617C22.2512 3.81106 22.2512 5.48894 21.2163 6.52383ZM2.78378 17.4762L7.27391 12.986L7.27471 12.9868L8.21725 12.0443C8.47775 11.7838 8.47775 11.3614 8.21725 11.101C7.69626 10.58 6.85156 10.58 6.33057 11.101L1.36957 16.062C-0.446368 17.8779 -0.446368 20.8221 1.36957 22.638C3.18551 24.454 6.12972 24.454 7.94566 22.638L12.9054 17.6783C13.4271 17.1566 13.4271 16.3108 12.9054 15.7891C12.6445 15.5282 12.2216 15.5282 11.9608 15.7891L11.0189 16.731L11.0216 16.7337L6.53145 21.2238C5.49656 22.2587 3.81867 22.2587 2.78378 21.2238C1.74889 20.1889 1.74889 18.5111 2.78378 17.4762ZM15.0271 8.97211C14.6366 8.58158 14.0034 8.58158 13.6129 8.97211L8.96651 13.6185C8.57598 14.009 8.57598 14.6422 8.96651 15.0327C9.35703 15.4233 9.9902 15.4233 10.3807 15.0327L15.0271 10.3863C15.4177 9.9958 15.4177 9.36263 15.0271 8.97211Z" fill="black"/>
</svg>
