<svg width="60" height="60" viewBox="0 0 60 60" fill="none" xmlns="http://www.w3.org/2000/svg">
<g clip-path="url(#clip0_40_499)">
<path d="M59.9307 4.42001H0.0394287V41.715H59.9307V4.42001Z" fill="#E6E6E6"/>
<path d="M15.0248 11.6048H4.05566V18.7347H15.0248V11.6048Z" fill="white"/>
<path d="M28.6548 11.6048H17.6857V18.7347H28.6548V11.6048Z" fill="white"/>
<path d="M42.2847 11.6048H31.3156V18.7347H42.2847V11.6048Z" fill="white"/>
<path d="M55.9147 11.6048H44.9456V18.7347H55.9147V11.6048Z" fill="white"/>
<path d="M15.0248 21.6964H4.05566V28.8263H15.0248V21.6964Z" fill="white"/>
<path d="M28.6548 21.6964H17.6857V28.8263H28.6548V21.6964Z" fill="white"/>
<path d="M42.2847 21.6964H31.3156V28.8263H42.2847V21.6964Z" fill="white"/>
<path d="M55.9147 21.6964H44.9456V28.8263H55.9147V21.6964Z" fill="white"/>
<path d="M15.0248 31.7879H4.05566V38.9179H15.0248V31.7879Z" fill="white"/>
<path d="M28.6548 31.7879H17.6857V38.9179H28.6548V31.7879Z" fill="white"/>
<path d="M42.2847 31.7879H31.3156V38.9179H42.2847V31.7879Z" fill="white"/>
<path d="M55.9147 31.7879H44.9456V38.9179H55.9147V31.7879Z" fill="white"/>
<path d="M15.7254 8.80767C16.6342 8.80767 17.3708 8.07101 17.3708 7.1623C17.3708 6.25359 16.6342 5.51694 15.7254 5.51694C14.8167 5.51694 14.0801 6.25359 14.0801 7.1623C14.0801 8.07101 14.8167 8.80767 15.7254 8.80767Z" fill="white"/>
<path d="M42.9288 8.80766C43.8375 8.80766 44.5742 8.07101 44.5742 7.1623C44.5742 6.25359 43.8375 5.51694 42.9288 5.51694C42.0201 5.51694 41.2834 6.25359 41.2834 7.1623C41.2834 8.07101 42.0201 8.80766 42.9288 8.80766Z" fill="white"/>
<path d="M16.3834 0.0323792H15.0671V7.60106H16.3834V0.0323792Z" fill="#E6E6E6"/>
<path d="M43.5868 0.0323792H42.2705V7.60106H43.5868V0.0323792Z" fill="#E6E6E6"/>
<path d="M25.6506 25.2613C25.65 25.857 25.4345 26.4324 25.0436 26.882C24.6528 27.3315 24.1128 27.6249 23.523 27.7082C22.9332 27.7915 22.3331 27.6592 21.833 27.3355C21.333 27.0119 20.9665 26.5186 20.8009 25.9464C20.6354 25.3742 20.6819 24.7614 20.9319 24.2208C21.1819 23.6801 21.6187 23.2478 22.1618 23.0033C22.705 22.7589 23.3182 22.7186 23.8887 22.89C24.4592 23.0614 24.9487 23.4329 25.2672 23.9363C25.5181 24.3327 25.651 24.7922 25.6506 25.2613V25.2613Z" fill="#96588A"/>
<path d="M25.2673 23.9363L22.8256 26.3775C22.6721 26.14 21.8171 25.0358 21.8171 25.0358C21.9267 24.9251 22.0436 24.8219 22.1671 24.7269L22.8761 25.6722L24.9814 23.5669C25.0881 23.6807 25.1839 23.8044 25.2673 23.9363V23.9363Z" fill="white"/>
<path d="M12.0208 25.2613C12.0203 25.857 11.8048 26.4325 11.4139 26.882C11.023 27.3315 10.4831 27.6249 9.89327 27.7082C9.30345 27.7915 8.70337 27.6592 8.20329 27.3355C7.70321 27.0119 7.33673 26.5186 7.17118 25.9464C7.00563 25.3742 7.05213 24.7615 7.30215 24.2208C7.55217 23.6801 7.9889 23.2478 8.5321 23.0033C9.0753 22.7589 9.68848 22.7186 10.259 22.89C10.8295 23.0614 11.3189 23.4329 11.6375 23.9363C11.8883 24.3327 12.0213 24.7922 12.0208 25.2613V25.2613Z" fill="#96588A"/>
<path d="M11.6374 23.9363L9.1957 26.3775C9.04223 26.14 8.18726 25.0358 8.18726 25.0358C8.29683 24.9251 8.41375 24.8219 8.53723 24.7269L9.24621 25.6722L11.3515 23.5669C11.4583 23.6807 11.554 23.8044 11.6374 23.9363V23.9363Z" fill="white"/>
</g>
<g clip-path="url(#clip1_40_499)">
<path d="M39.2431 17.9875C39.2471 18.0953 39.2747 18.2009 39.3239 18.2968C39.3731 18.3928 39.4427 18.4768 39.5279 18.543C39.6131 18.6091 39.7117 18.6558 39.8169 18.6797C39.9221 18.7036 40.0312 18.7041 40.1366 18.6813L41.5011 20.9198L42.0818 19.6874L40.697 17.7506C40.6469 17.5761 40.5345 17.426 40.3812 17.3288C40.2278 17.2317 40.0441 17.1941 39.8649 17.2233C39.6857 17.2525 39.5234 17.3464 39.4088 17.4873C39.2942 17.6281 39.2353 17.8061 39.2431 17.9875H39.2431Z" fill="#FFB6B6"/>
<path d="M49.4829 24.4029L44.7805 21.8522L43.2973 20.4606C43.2973 20.4606 42.6525 20.288 42.8898 20.0784C43.1272 19.8687 42.4508 19.6665 42.4508 19.6665L41.6546 18.9195L40.5232 19.72L40.8506 20.2276C40.8506 20.2276 40.8281 21.0679 41.2884 20.9062C41.7488 20.7446 41.6337 21.4415 41.6337 21.4415L44.3813 25.7006L49.4829 24.4029Z" fill="#3F3D56"/>
<path d="M35.6022 21.9997C38.1389 21.9997 40.1953 19.9433 40.1953 17.4067C40.1953 14.87 38.1389 12.8136 35.6022 12.8136C33.0655 12.8136 31.0092 14.87 31.0092 17.4067C31.0092 19.9433 33.0655 21.9997 35.6022 21.9997Z" fill="#96588A"/>
<path d="M49.4975 57.8579H48.5425L48.088 54.1742H49.4975V57.8579Z" fill="#FFB6B6"/>
<path d="M50.0017 59.5126H49.3168L49.1945 58.8659L48.8814 59.5126H47.065C46.9779 59.5126 46.8931 59.4847 46.823 59.4331C46.7528 59.3815 46.701 59.3089 46.6751 59.2257C46.6492 59.1426 46.6505 59.0534 46.6789 58.9711C46.7073 58.8888 46.7613 58.8177 46.8329 58.7682L48.2835 57.7664V57.1127L49.8093 57.2038L50.0017 59.5126Z" fill="#2F2E41"/>
<path d="M41.8593 57.8579H40.9043L40.4498 54.1742H41.8593V57.8579Z" fill="#FFB6B6"/>
<path d="M42.3632 59.5126H41.6784L41.5561 58.8659L41.243 59.5126H39.4265C39.3395 59.5126 39.2547 59.4847 39.1845 59.4331C39.1144 59.3815 39.0626 59.3089 39.0367 59.2257C39.0108 59.1426 39.0121 59.0534 39.0405 58.9711C39.0689 58.8888 39.1229 58.8177 39.1945 58.7682L40.6451 57.7664V57.1127L42.1709 57.2038L42.3632 59.5126Z" fill="#2F2E41"/>
<path d="M48.4842 29.9987H43.6639V35.4864H48.4842V29.9987Z" fill="#FFB6B6"/>
<path d="M43.775 32.7055L42.9593 33.6696L41.5503 36.6359L38 45.0832L37.2491 46.8697L37.8555 50.0278C37.8555 50.0278 37.9536 52.2527 37.9536 52.6169C37.9536 53.3585 38.5739 53.7694 38.5739 53.7694L39.0289 56.1394L43.4413 55.954C43.4413 55.954 43.2874 53.3416 42.3632 52.6826C41.4391 52.0236 41.0142 48.5893 41.0142 48.5893L40.5121 47.0656L45.4065 41.2637L45.4381 43.2918L45.4534 44.2734C45.4534 44.2734 44.7366 50.6579 45.5721 51.897C46.4076 53.136 45.5892 52.9902 45.5892 52.9902L45.629 55.5461L50.8571 55.5832L49.7037 48.2247C49.7037 48.2247 49.118 47.7623 49.4314 47.2974C49.7447 46.8326 49.1277 46.2633 49.1277 46.2633L49.4044 40.5187C49.4044 40.5187 49.098 39.5264 49.4585 39.3974C49.8189 39.2685 49.5058 38.4152 49.5058 38.4152L49.5593 37.3033L48.4841 33.855L43.775 32.7055Z" fill="#2F2E41"/>
<path d="M48.5585 29.9987L49.0776 28.4414L49.4484 27.9223L49.5967 26.4392C49.5967 22.4346 48.7035 23.1015 48.7035 23.1015L48.1877 21.6931L45.8146 21.6189L44.2944 23.065L43.0337 23.5099L42.54 26.0751L43.4416 28.8122L43.6641 30.2954C43.2397 31.0788 43.2756 30.7083 43.627 31.2965L47.8169 32.4459C49.3001 32.9651 49.3001 31.6302 49.0026 31.2965C48.7052 30.9628 48.5585 29.9987 48.5585 29.9987Z" fill="#3F3D56"/>
<path d="M46.6945 21.1211C47.9095 21.1211 48.8944 20.1362 48.8944 18.9212C48.8944 17.7062 47.9095 16.7213 46.6945 16.7213C45.4796 16.7213 44.4946 17.7062 44.4946 18.9212C44.4946 20.1362 45.4796 21.1211 46.6945 21.1211Z" fill="#FFB6B6"/>
<path d="M49.6314 21.8577C49.6521 21.8927 49.6647 21.9319 49.6682 21.9724C49.6716 22.0129 49.6659 22.0536 49.6515 22.0916C49.637 22.1296 49.6141 22.1639 49.5846 22.1918C49.5551 22.2197 49.5196 22.2406 49.4809 22.253C49.1857 22.3508 49.004 22.6364 48.7919 22.8648C48.5806 23.0924 48.2402 23.2815 47.9703 23.1265C47.7011 22.9723 47.6825 22.5785 47.4571 22.3649C47.2376 22.1573 46.8727 22.1825 46.6147 22.3405L46.6069 22.3452C46.5624 22.3742 46.5103 22.3896 46.4571 22.3894C46.404 22.3891 46.352 22.3733 46.3077 22.3438C46.2635 22.3144 46.2288 22.2726 46.208 22.2237C46.1872 22.1747 46.1812 22.1208 46.1908 22.0685C46.2812 21.5876 46.3716 21.1067 46.4619 20.6259C46.2245 21.1977 45.8799 21.7188 45.4467 22.161C45.3273 22.2987 45.1761 22.4051 45.0062 22.471C44.8519 22.5199 44.7021 22.3605 44.5523 22.3894C44.9246 22.0638 46.1764 19.977 45.9524 18.5821C45.6892 18.6118 45.4259 18.6415 45.1627 18.6711C45.1342 18.5465 45.0733 18.4317 44.9862 18.3382C44.9968 18.4594 44.9814 18.5815 44.9409 18.6963C44.8312 18.7089 44.7207 18.7208 44.6109 18.7334C44.4582 18.7505 44.292 18.7653 44.1608 18.6852C43.942 18.5517 43.9353 18.2358 43.9976 17.9866C44.1801 17.2621 44.7333 16.6563 45.4103 16.3389C46.0874 16.0222 46.2876 16.7274 47.001 16.502C48.41 16.0571 49.4898 16.8179 49.8702 18.2299C50.1898 19.4142 49.9577 20.6712 49.6314 21.8577Z" fill="#2F2E41"/>
<path d="M55.7216 59.5604H53.0278L53.0163 59.5394C52.9818 59.477 52.9486 59.4108 52.9175 59.3428C52.64 58.7487 52.5227 58.0693 52.4193 57.4699L52.3413 57.0181C52.3319 56.9634 52.339 56.9071 52.3618 56.8564C52.3845 56.8058 52.4218 56.763 52.469 56.7337C52.5162 56.7044 52.571 56.6899 52.6265 56.6919C52.682 56.6939 52.7356 56.7125 52.7805 56.7452C53.1899 57.0431 53.5994 57.3407 54.0091 57.638C54.1642 57.7508 54.3414 57.8815 54.511 58.0226C54.5274 57.9431 54.5445 57.8634 54.5617 57.7848C54.5735 57.7305 54.6012 57.6809 54.6413 57.6425C54.6815 57.6041 54.7321 57.5785 54.7869 57.569C54.8416 57.5595 54.898 57.5666 54.9487 57.5894C54.9994 57.6121 55.0421 57.6494 55.0715 57.6966L55.3866 58.203C55.6165 58.5728 55.8194 58.9372 55.7781 59.3302C55.7783 59.3349 55.7779 59.3397 55.777 59.3444C55.7687 59.409 55.7534 59.4724 55.7313 59.5336L55.7216 59.5604Z" fill="#F0F0F0"/>
<path d="M58.4255 59.6187L32.828 59.6436C32.8024 59.6435 32.778 59.6333 32.7599 59.6151C32.7419 59.597 32.7318 59.5725 32.7318 59.547C32.7318 59.5214 32.7419 59.4969 32.7599 59.4788C32.778 59.4607 32.8024 59.4505 32.828 59.4503L58.4255 59.4254C58.4511 59.4255 58.4755 59.4358 58.4935 59.4539C58.5116 59.472 58.5217 59.4965 58.5217 59.522C58.5217 59.5476 58.5116 59.5721 58.4935 59.5902C58.4755 59.6083 58.4511 59.6185 58.4255 59.6187V59.6187Z" fill="#CACACA"/>
<path d="M34.2263 21.7035C34.333 21.7191 34.435 21.758 34.525 21.8174C34.6151 21.8767 34.691 21.9551 34.7475 22.0469C34.804 22.1388 34.8397 22.242 34.852 22.3491C34.8643 22.4562 34.853 22.5648 34.8188 22.6671L36.8957 24.2669L35.6075 24.7102L33.8328 23.123C33.6647 23.0542 33.5278 22.9262 33.4478 22.7631C33.3679 22.6001 33.3505 22.4134 33.399 22.2384C33.4475 22.0635 33.5585 21.9124 33.711 21.8138C33.8635 21.7152 34.0468 21.6759 34.2263 21.7035L34.2263 21.7035Z" fill="#FFB6B6"/>
<path d="M45.0389 22.4945L39.7215 25.7638C39.7215 25.7638 37.5776 24.9706 37.9966 24.6034C38.4156 24.2361 37.0817 23.9879 37.0817 23.9879L35.6082 22.9966L34.7532 23.9903C34.7532 23.9903 34.909 25.6043 35.1741 25.3249C35.4391 25.0454 35.8354 25.8088 35.8354 25.8088C35.8354 25.8088 35.9525 26.6613 36.7071 26.4468C37.4617 26.2323 39.4865 28.481 39.4865 28.481L46.0306 26.0403L45.0389 22.4945Z" fill="#3F3D56"/>
<path d="M35.4406 19.2491C35.379 19.2492 35.3182 19.2348 35.263 19.2072C35.2079 19.1796 35.16 19.1396 35.123 19.0903L34.1491 17.7918C34.1178 17.7501 34.0951 17.7026 34.0821 17.6521C34.0692 17.6016 34.0663 17.549 34.0737 17.4974C34.0811 17.4458 34.0985 17.3961 34.1251 17.3512C34.1517 17.3064 34.1868 17.2672 34.2285 17.2359C34.3128 17.1727 34.4187 17.1456 34.5229 17.1605C34.5746 17.1678 34.6242 17.1853 34.6691 17.2119C34.714 17.2384 34.7532 17.2736 34.7844 17.3153L35.4216 18.1648L37.058 15.7102C37.1164 15.6226 37.2072 15.5617 37.3105 15.5411C37.4138 15.5204 37.521 15.5416 37.6086 15.6C37.6963 15.6585 37.7571 15.7493 37.7778 15.8526C37.7984 15.9558 37.7772 16.0631 37.7188 16.1507L35.771 19.0723C35.7358 19.1252 35.6884 19.1688 35.6329 19.1995C35.5773 19.2303 35.5151 19.2472 35.4517 19.249C35.448 19.2491 35.4443 19.2491 35.4406 19.2491Z" fill="white"/>
</g>
<defs>
<clipPath id="clip0_40_499">
<rect width="60" height="41.7391" fill="white"/>
</clipPath>
<clipPath id="clip1_40_499">
<rect width="29" height="47.6429" fill="white" transform="translate(31 12.3571)"/>
</clipPath>
</defs>
</svg>
