<svg width="257" height="75" viewBox="0 0 257 75" fill="none" xmlns="http://www.w3.org/2000/svg">
<g clip-path="url(#clip0_25_23326)">
<path d="M127.397 67.3211C127.397 67.3014 127.382 67.1289 127.353 66.8036C127.323 66.4782 127.289 66.0444 127.249 65.5022C127.21 64.96 127.16 64.3389 127.101 63.639C127.052 62.9291 126.998 62.1897 126.939 61.4208C126.889 60.6419 126.835 59.8533 126.776 59.0547C126.727 58.2463 126.682 57.4773 126.643 56.7478C126.603 56.0084 126.569 55.3331 126.539 54.7219C126.52 54.1008 126.51 53.5881 126.51 53.1839C126.51 52.5825 126.584 52.1192 126.732 51.7939C126.889 51.4685 127.077 51.2319 127.293 51.084C127.51 50.9263 127.737 50.8376 127.974 50.8179C128.21 50.7883 128.417 50.7735 128.595 50.7735C128.96 50.7735 129.255 50.8228 129.482 50.9214C129.719 51.02 129.901 51.1678 130.029 51.365C130.167 51.5523 130.261 51.784 130.31 52.06C130.36 52.3361 130.384 52.6466 130.384 52.9917L131.035 70.5745L140.662 52.0896C140.731 51.853 140.849 51.6263 141.017 51.4094C141.184 51.1925 141.386 51.0052 141.623 50.8474C141.86 50.6798 142.121 50.5517 142.407 50.463C142.693 50.3644 142.988 50.3151 143.294 50.3151C143.649 50.3151 143.925 50.4728 144.122 50.7883C144.329 51.0939 144.433 51.4981 144.433 52.0009C144.433 52.3558 144.339 52.829 144.152 53.4205C143.964 54.012 143.713 54.6775 143.397 55.4169C143.092 56.1563 142.732 56.9499 142.318 57.7977C141.904 58.6456 141.47 59.5082 141.017 60.3856C140.573 61.263 140.119 62.1355 139.656 63.0031C139.203 63.8608 138.769 64.6692 138.355 65.4283C138.237 65.655 138.148 65.8916 138.089 66.1381C138.029 66.3846 138 66.631 138 66.8775C138 67.2521 138.074 67.6169 138.222 67.9718C138.37 68.3267 138.596 68.6422 138.902 68.9182C139.217 69.1943 139.612 69.4161 140.085 69.5837C140.568 69.7414 141.14 69.8203 141.8 69.8203C141.958 69.8203 142.131 69.7858 142.318 69.7168C142.515 69.6478 142.717 69.559 142.924 69.4506C143.131 69.3323 143.343 69.1992 143.56 69.0513C143.777 68.9034 143.989 68.7556 144.196 68.6077C144.669 68.2528 145.157 67.8486 145.66 67.3951L145.32 70.4562C144.502 71.1068 143.683 71.6293 142.865 72.0237C142.057 72.4082 141.298 72.6004 140.588 72.6004C139.917 72.6004 139.321 72.5117 138.798 72.3342C138.286 72.1469 137.847 71.8857 137.482 71.5505C137.118 71.2153 136.842 70.8111 136.654 70.3379C136.467 69.8646 136.373 69.3372 136.373 68.7556C136.373 68.4598 136.403 68.1394 136.462 67.7943C135.88 69.1548 135.333 70.2935 134.821 71.2103C134.318 72.1173 133.83 72.8469 133.357 73.3989C132.883 73.9412 132.425 74.3257 131.981 74.5524C131.538 74.789 131.099 74.9073 130.665 74.9073C130.074 74.9073 129.591 74.8087 129.216 74.6116C128.841 74.4144 128.541 74.1433 128.314 73.7982C128.097 73.4433 127.934 73.0243 127.826 72.5413C127.727 72.0582 127.653 71.5357 127.604 70.9737C127.565 70.4118 127.535 69.8203 127.515 69.1992C127.496 68.5781 127.456 67.9521 127.397 67.3211ZM159.354 70.7963C159.127 71.1118 158.821 71.4815 158.437 71.9054C158.062 72.3293 157.638 72.7335 157.165 73.118C156.692 73.5025 156.184 73.8278 155.642 74.094C155.1 74.3602 154.557 74.4933 154.015 74.4933C153.365 74.4933 152.822 74.2862 152.389 73.8722C151.955 73.4482 151.58 72.837 151.265 72.0385C151.028 72.3145 150.737 72.5955 150.392 72.8814C150.047 73.1673 149.668 73.4285 149.253 73.6651C148.849 73.8919 148.425 74.0792 147.982 74.2271C147.538 74.3749 147.094 74.4489 146.651 74.4489C146.178 74.4489 145.714 74.3552 145.261 74.1679C144.817 73.9707 144.423 73.6947 144.078 73.3398C143.733 72.975 143.457 72.5363 143.25 72.0237C143.043 71.5012 142.939 70.9146 142.939 70.2639C142.939 69.5245 143.043 68.7654 143.25 67.9866C143.457 67.2078 143.777 66.3648 144.211 65.4579C144.645 64.5509 145.108 63.7671 145.601 63.1066C146.104 62.4461 146.651 61.8693 147.242 61.3764C147.834 60.8835 148.455 60.4941 149.106 60.2082C149.766 59.9124 150.437 59.7645 151.117 59.7645C151.343 59.7645 151.521 59.8089 151.649 59.8976C151.777 59.9863 151.881 60.0899 151.96 60.2082C152.048 60.3166 152.132 60.4251 152.211 60.5335C152.29 60.6419 152.389 60.7208 152.507 60.7701C152.625 60.8194 152.743 60.8539 152.862 60.8736C152.99 60.8835 153.118 60.8884 153.246 60.8884C153.355 60.8884 153.463 60.8884 153.572 60.8884C153.69 60.8785 153.803 60.8736 153.912 60.8736C154.06 60.8736 154.198 60.8884 154.326 60.918C154.454 60.9476 154.567 61.0116 154.666 61.1102C154.764 61.2088 154.838 61.3468 154.888 61.5243C154.947 61.7017 154.976 61.9433 154.976 62.2489C154.976 62.7221 154.927 63.2495 154.829 63.8312C154.73 64.403 154.621 64.9945 154.503 65.6057C154.385 66.2071 154.242 66.8923 154.074 67.6613C153.907 68.4302 153.823 69.0858 153.823 69.628C153.823 70.0914 153.862 70.4562 153.941 70.7223C154.03 70.9787 154.212 71.1068 154.488 71.1068C154.695 71.1068 154.912 71.0575 155.139 70.9589C155.366 70.8505 155.593 70.7125 155.819 70.5449C156.056 70.3773 156.288 70.19 156.514 69.9829C156.751 69.7661 156.973 69.5442 157.18 69.3175C157.663 68.7851 158.151 68.1838 158.644 67.5134L159.354 70.7963ZM146.725 69.628C146.725 69.8745 146.74 70.116 146.769 70.3526C146.809 70.5794 146.873 70.7864 146.961 70.9737C147.05 71.1512 147.168 71.2991 147.316 71.4174C147.464 71.5258 147.651 71.58 147.878 71.58C148.243 71.58 148.573 71.4223 148.869 71.1068C149.165 70.7914 149.421 70.4118 149.638 69.9682C149.855 69.5245 150.027 69.0661 150.156 68.5929C150.294 68.1197 150.382 67.7253 150.422 67.4099L151.531 62.5742C151.127 62.5742 150.732 62.6777 150.348 62.8848C149.963 63.0819 149.599 63.3531 149.253 63.6981C148.918 64.0432 148.608 64.4375 148.322 64.8811C148.036 65.3248 147.755 65.8719 147.479 66.5226C147.203 67.1733 147.006 67.7451 146.887 68.238C146.779 68.7309 146.725 69.1943 146.725 69.628ZM162.799 74.4193C161.892 74.4193 161.094 74.2517 160.404 73.9165C159.723 73.5813 159.151 73.1328 158.688 72.5708C158.225 72.0089 157.875 71.3582 157.638 70.6188C157.402 69.8794 157.283 69.1105 157.283 68.3119C157.283 67.7401 157.382 67.0549 157.579 66.2564C157.776 65.4579 157.988 64.7628 158.215 64.1713C158.452 63.5699 158.737 62.9981 159.073 62.4559C159.418 61.9137 159.812 61.4405 160.256 61.0363C160.709 60.6222 161.212 60.2969 161.764 60.0603C162.316 59.8138 162.922 59.6906 163.583 59.6906C164.145 59.6906 164.662 59.7793 165.136 59.9568C165.619 60.1244 166.028 60.361 166.363 60.6666C166.708 60.9722 166.974 61.337 167.162 61.7609C167.359 62.175 167.457 62.6235 167.457 63.1066C167.457 63.4418 167.413 63.772 167.324 64.0974C167.236 64.4227 167.063 64.8072 166.807 65.2508C166.55 65.6846 166.299 65.9804 166.053 66.1381C165.816 66.2958 165.545 66.3747 165.239 66.3747C164.766 66.3747 164.46 66.2515 164.322 66.005C164.096 65.6205 164.027 65.2804 164.115 64.9846C164.145 64.8269 164.234 64.4621 164.381 63.8903C164.401 63.8115 164.406 63.634 164.396 63.358C164.396 63.1214 164.372 62.9242 164.322 62.7665C164.273 62.6087 164.165 62.5299 163.997 62.5299C163.593 62.5299 163.248 62.6284 162.962 62.8256C162.676 63.0129 162.429 63.2643 162.222 63.5798C162.025 63.8854 161.828 64.3241 161.631 64.8959C161.434 65.4579 161.291 65.9311 161.202 66.3156C161.123 66.7 161.074 67.0697 161.054 67.4246C161.034 67.7697 161.025 68.0605 161.025 68.2971C161.025 68.652 161.054 69.0217 161.113 69.4062C161.182 69.7907 161.311 70.1456 161.498 70.4709C161.695 70.7864 161.946 71.0526 162.252 71.2695C162.558 71.4765 162.952 71.58 163.435 71.58C163.908 71.58 164.431 71.4371 165.003 71.1512C165.574 70.8554 166.146 70.4857 166.718 70.0421C167.3 69.5985 167.852 69.1105 168.374 68.5781C168.897 68.0457 169.345 67.5429 169.72 67.0697L170.74 68.7851C170.001 69.84 169.202 70.7815 168.345 71.6096C167.98 71.9645 167.581 72.3096 167.147 72.6448C166.723 72.98 166.274 73.2806 165.801 73.5468C165.338 73.8032 164.85 74.0151 164.337 74.1827C163.834 74.3404 163.322 74.4193 162.799 74.4193ZM184.848 70.7963C184.621 71.1118 184.316 71.4815 183.931 71.9054C183.556 72.3293 183.132 72.7335 182.659 73.118C182.186 73.5025 181.678 73.8278 181.136 74.094C180.594 74.3602 180.052 74.4933 179.509 74.4933C178.859 74.4933 178.317 74.2862 177.883 73.8722C177.449 73.4482 177.074 72.837 176.759 72.0385C176.522 72.3145 176.231 72.5955 175.886 72.8814C175.541 73.1673 175.162 73.4285 174.748 73.6651C174.344 73.8919 173.92 74.0792 173.476 74.2271C173.032 74.3749 172.589 74.4489 172.145 74.4489C171.672 74.4489 171.209 74.3552 170.755 74.1679C170.311 73.9707 169.917 73.6947 169.572 73.3398C169.227 72.975 168.951 72.5363 168.744 72.0237C168.537 71.5012 168.433 70.9146 168.433 70.2639C168.433 69.5245 168.537 68.7654 168.744 67.9866C168.951 67.2078 169.271 66.3648 169.705 65.4579C170.139 64.5509 170.602 63.7671 171.095 63.1066C171.598 62.4461 172.145 61.8693 172.737 61.3764C173.328 60.8835 173.949 60.4941 174.6 60.2082C175.26 59.9124 175.931 59.7645 176.611 59.7645C176.838 59.7645 177.015 59.8089 177.143 59.8976C177.272 59.9863 177.375 60.0899 177.454 60.2082C177.543 60.3166 177.626 60.4251 177.705 60.5335C177.784 60.6419 177.883 60.7208 178.001 60.7701C178.119 60.8194 178.238 60.8539 178.356 60.8736C178.484 60.8835 178.612 60.8884 178.74 60.8884C178.849 60.8884 178.957 60.8884 179.066 60.8884C179.184 60.8785 179.298 60.8736 179.406 60.8736C179.554 60.8736 179.692 60.8884 179.82 60.918C179.948 60.9476 180.062 61.0116 180.16 61.1102C180.259 61.2088 180.333 61.3468 180.382 61.5243C180.441 61.7017 180.471 61.9433 180.471 62.2489C180.471 62.7221 180.421 63.2495 180.323 63.8312C180.224 64.403 180.116 64.9945 179.997 65.6057C179.879 66.2071 179.736 66.8923 179.569 67.6613C179.401 68.4302 179.317 69.0858 179.317 69.628C179.317 70.0914 179.357 70.4562 179.436 70.7223C179.524 70.9787 179.707 71.1068 179.983 71.1068C180.19 71.1068 180.407 71.0575 180.633 70.9589C180.86 70.8505 181.087 70.7125 181.314 70.5449C181.55 70.3773 181.782 70.19 182.009 69.9829C182.245 69.7661 182.467 69.5442 182.674 69.3175C183.157 68.7851 183.645 68.1838 184.138 67.5134L184.848 70.7963ZM172.219 69.628C172.219 69.8745 172.234 70.116 172.263 70.3526C172.303 70.5794 172.367 70.7864 172.456 70.9737C172.544 71.1512 172.663 71.2991 172.811 71.4174C172.958 71.5258 173.146 71.58 173.373 71.58C173.737 71.58 174.068 71.4223 174.363 71.1068C174.659 70.7914 174.915 70.4118 175.132 69.9682C175.349 69.5245 175.522 69.0661 175.65 68.5929C175.788 68.1197 175.877 67.7253 175.916 67.4099L177.025 62.5742C176.621 62.5742 176.227 62.6777 175.842 62.8848C175.458 63.0819 175.093 63.3531 174.748 63.6981C174.413 64.0432 174.102 64.4375 173.816 64.8811C173.53 65.3248 173.249 65.8719 172.973 66.5226C172.697 67.1733 172.5 67.7451 172.382 68.238C172.273 68.7309 172.219 69.1943 172.219 69.628ZM196.028 71.1068C195.081 71.6589 194.238 72.142 193.499 72.556C192.759 72.9701 192.099 73.3152 191.517 73.5912C190.945 73.8672 190.433 74.0743 189.979 74.2123C189.536 74.3503 189.131 74.4193 188.767 74.4193C188.017 74.4193 187.357 74.1926 186.785 73.7391C186.213 73.2856 185.735 72.6349 185.351 71.7871C184.966 70.9294 184.675 69.8942 184.478 68.6816C184.291 67.469 184.197 66.1036 184.197 64.5854C184.197 63.9939 184.222 63.3629 184.271 62.6925C184.32 62.0221 184.389 61.3567 184.478 60.6962C184.182 60.6567 183.951 60.6222 183.783 60.5926C183.625 60.5532 183.453 60.5187 183.266 60.4891C183.088 60.4497 182.856 60.4103 182.571 60.3708C182.295 60.3314 181.89 60.2821 181.358 60.223C181.121 60.1934 180.939 60.1392 180.811 60.0603C180.683 59.9716 180.589 59.873 180.53 59.7645C180.471 59.6462 180.436 59.5279 180.426 59.4096C180.416 59.2815 180.412 59.173 180.412 59.0843C180.412 58.8871 180.51 58.7392 180.707 58.6406C180.895 58.5322 181.141 58.4533 181.447 58.404C181.742 58.3547 182.068 58.3301 182.423 58.3301C182.787 58.3202 183.132 58.3202 183.458 58.3301C183.793 58.34 184.089 58.3498 184.345 58.3597C184.611 58.3597 184.794 58.3498 184.892 58.3301C185.158 56.9992 185.494 55.7126 185.898 54.4705C186.312 53.2184 186.77 52.1093 187.273 51.1432C187.786 50.1672 188.343 49.3884 188.944 48.8067C189.546 48.2152 190.176 47.9194 190.837 47.9194C191.261 47.9194 191.645 48.0377 191.99 48.2743C192.345 48.511 192.646 48.8264 192.892 49.2208C193.139 49.6151 193.326 50.0785 193.454 50.6108C193.592 51.1333 193.661 51.6805 193.661 52.2523C193.661 52.7354 193.592 53.248 193.454 53.7902C193.316 54.3226 193.129 54.8697 192.892 55.4317C192.656 55.9838 192.375 56.5457 192.05 57.1175C191.734 57.6893 191.399 58.2562 191.044 58.8181C191.133 58.828 191.281 58.8329 191.488 58.8329C191.695 58.8329 191.931 58.8427 192.197 58.8625C192.474 58.8723 192.769 58.8871 193.085 58.9068C193.4 58.9167 193.706 58.9265 194.002 58.9364C194.297 58.9463 194.573 58.9561 194.83 58.966C195.086 58.9758 195.298 58.9857 195.466 58.9956C195.663 59.0054 195.806 59.104 195.894 59.2913C195.983 59.4786 196.028 59.7152 196.028 60.0011C196.028 60.3462 195.929 60.6272 195.732 60.844C195.535 61.0609 195.318 61.1694 195.081 61.1694H189.403C189.117 61.5637 188.826 61.9531 188.53 62.3376C188.244 62.7122 187.978 63.0524 187.732 63.358C187.692 63.9692 187.658 64.5706 187.628 65.1621C187.618 65.4184 187.608 65.6846 187.598 65.9606C187.589 66.2268 187.579 66.493 187.569 66.7592C187.559 67.0254 187.549 67.2817 187.539 67.5282C187.539 67.7746 187.539 68.0014 187.539 68.2084C187.539 68.7408 187.589 69.1893 187.687 69.5541C187.786 69.9189 187.929 70.2196 188.116 70.4562C188.303 70.6829 188.53 70.8505 188.796 70.9589C189.072 71.0575 189.378 71.1068 189.713 71.1068C189.92 71.1068 190.176 71.0575 190.482 70.9589C190.798 70.8604 191.138 70.7273 191.502 70.5597C191.877 70.3822 192.266 70.1752 192.671 69.9386C193.085 69.702 193.489 69.4457 193.883 69.1696C194.287 68.8837 194.672 68.588 195.037 68.2823C195.402 67.9669 195.732 67.6465 196.028 67.3211V71.1068ZM191.295 52.3854C191.295 52.2769 191.286 52.1586 191.266 52.0305C191.256 51.8924 191.226 51.7643 191.177 51.646C191.128 51.5277 191.049 51.4291 190.94 51.3502C190.842 51.2714 190.699 51.2319 190.512 51.2319C190.255 51.2319 189.994 51.4587 189.728 51.9122C189.472 52.3657 189.22 52.9473 188.974 53.6571C188.737 54.3571 188.51 55.131 188.293 55.9788C188.086 56.8267 187.894 57.6499 187.717 58.4484C187.865 58.4681 188.012 58.4878 188.16 58.5076C188.308 58.5174 188.461 58.5322 188.619 58.5519C188.915 58.0491 189.22 57.5069 189.536 56.9253C189.861 56.3337 190.152 55.757 190.408 55.1951C190.664 54.6233 190.876 54.0909 191.044 53.598C191.212 53.1051 191.295 52.7009 191.295 52.3854ZM203.865 71.2695C203.51 71.5948 203.067 71.9448 202.534 72.3194C202.012 72.6842 201.445 73.0243 200.834 73.3398C200.222 73.6454 199.596 73.9017 198.956 74.1088C198.325 74.3158 197.723 74.4193 197.151 74.4193C196.639 74.4193 196.205 74.3503 195.85 74.2123C195.505 74.0644 195.224 73.8623 195.007 73.606C194.79 73.3497 194.633 73.0391 194.534 72.6743C194.445 72.2997 194.401 71.8906 194.401 71.4469C194.401 70.8259 194.47 70.1013 194.608 69.2731C194.884 67.676 195.061 66.7789 195.14 66.5817C195.278 66.148 195.554 65.1867 195.968 63.6981C196.304 62.4559 196.511 61.6475 196.589 61.2729C196.639 61.0264 196.777 60.8046 197.004 60.6074C197.211 60.43 197.442 60.287 197.699 60.1786C197.965 60.0603 198.236 59.9765 198.512 59.9272C198.798 59.868 199.054 59.8385 199.281 59.8385C199.695 59.8385 199.976 59.9173 200.124 60.0751C200.272 60.223 200.346 60.4251 200.346 60.6814C200.346 60.8983 200.296 61.2137 200.198 61.6278C200.099 62.032 199.976 62.4954 199.828 63.0179C199.68 63.5305 199.493 64.1516 199.266 64.8811C199.039 65.6008 198.852 66.2613 198.704 66.8627C198.556 67.4542 198.433 68.0359 198.334 68.6077C198.236 69.1696 198.187 69.6773 198.187 70.1308C198.187 70.5745 198.236 70.9294 198.334 71.1956C198.433 71.4519 198.635 71.58 198.941 71.58C199.296 71.58 199.69 71.4568 200.124 71.2103C200.558 70.9639 200.996 70.6681 201.44 70.3231C201.884 69.9682 202.317 69.6034 202.741 69.2288C203.165 68.8541 203.54 68.5337 203.865 68.2676V71.2695ZM197.255 55.7718C197.255 55.5451 197.304 55.2887 197.403 55.0028C197.501 54.7169 197.659 54.4508 197.876 54.2043C198.103 53.948 198.399 53.736 198.763 53.5684C199.138 53.391 199.601 53.3022 200.153 53.3022C200.498 53.3022 200.824 53.3417 201.129 53.4205C201.435 53.4994 201.701 53.6226 201.928 53.7902C202.155 53.948 202.332 54.1599 202.46 54.4261C202.598 54.6923 202.667 55.0078 202.667 55.3725C202.667 55.7077 202.613 56.0331 202.505 56.3485C202.396 56.664 202.224 56.945 201.987 57.1914C201.75 57.4379 201.45 57.64 201.085 57.7977C200.73 57.9456 200.301 58.0196 199.798 58.0196C198.931 58.0196 198.29 57.8175 197.876 57.4133C197.462 56.9992 197.255 56.452 197.255 55.7718ZM211.91 63.0179C212.196 63.5897 212.408 64.196 212.546 64.8368C212.693 65.4677 212.767 66.1825 212.767 66.981C212.767 67.5627 212.703 68.1493 212.575 68.7408C212.447 69.3323 212.26 69.9041 212.013 70.4562C211.777 71.0082 211.481 71.5258 211.126 72.0089C210.781 72.492 210.382 72.9109 209.928 73.2659C209.484 73.6208 208.996 73.9017 208.464 74.1088C207.932 74.3158 207.365 74.4193 206.764 74.4193C205.896 74.4193 205.152 74.232 204.531 73.8574C203.919 73.4729 203.417 72.975 203.022 72.3638C202.628 71.7526 202.337 71.0625 202.15 70.2935C201.972 69.5245 201.884 68.7457 201.884 67.957C201.884 66.6557 202.046 65.5367 202.372 64.6002C202.697 63.6537 203.16 62.8355 203.762 62.1454C204.373 61.4454 205.117 60.8983 205.995 60.5039C206.872 60.0997 207.858 59.8976 208.952 59.8976C209.889 59.8976 210.766 60.0455 211.584 60.3413C212.403 60.6272 213.167 61.0166 213.876 61.5095C214.596 61.9926 215.262 62.6038 215.873 63.3432C216.494 64.0826 217.071 64.7875 217.603 65.4579L217.322 67.5429C217.056 67.188 216.696 66.8036 216.243 66.3895C215.789 65.9754 215.306 65.517 214.793 65.0142C214.291 64.5114 213.793 64.0875 213.3 63.7425C212.807 63.3876 212.383 63.0918 212.028 62.8552L211.91 63.0179ZM207.34 71.58C207.675 71.58 208.001 71.4124 208.316 71.0773C208.632 70.7322 208.908 70.3034 209.144 69.7907C209.381 69.2682 209.568 68.6422 209.706 67.9126C209.854 67.1733 209.928 66.5177 209.928 65.9459C209.928 65.4924 209.894 65.0734 209.825 64.6889C209.756 64.2945 209.652 63.9544 209.514 63.6685C209.376 63.3826 209.199 63.1559 208.982 62.9883C208.765 62.8207 208.504 62.7369 208.198 62.7369C207.794 62.7369 207.409 62.9094 207.044 63.2545C206.68 63.5995 206.359 64.0432 206.083 64.5854C205.807 65.1177 205.59 65.7093 205.433 66.3599C205.275 67.0106 205.196 67.7451 205.196 68.5633C205.196 68.9774 205.235 69.3668 205.314 69.7316C205.393 70.0963 205.516 70.4167 205.684 70.6928C205.852 70.9589 206.073 71.1758 206.349 71.3434C206.626 71.5012 206.956 71.58 207.34 71.58ZM215.577 71.3286C215.577 70.678 215.617 69.9287 215.695 69.0809C215.774 68.2232 215.873 67.2866 215.991 66.2712C216.109 65.2459 216.243 64.3241 216.39 63.5059C216.538 62.6876 216.681 61.9876 216.819 61.406C216.928 60.9525 217.135 60.5729 217.44 60.2673C217.756 59.9617 218.18 59.8089 218.712 59.8089C219.244 59.8089 219.614 59.9716 219.821 60.2969C220.028 60.6222 220.132 61.056 220.132 61.5982C220.132 61.7461 220.117 61.9482 220.087 62.2045C220.058 62.451 220.018 62.727 219.969 63.0326C219.93 63.3284 219.885 63.639 219.836 63.9643C219.787 64.2798 219.737 64.6445 219.688 65.0586C219.649 65.4628 219.614 65.7684 219.585 65.9754C219.555 66.1726 219.54 66.3057 219.54 66.3747H219.836C219.895 66.2663 219.989 66.0937 220.117 65.8571C220.245 65.6107 220.393 65.2607 220.561 64.8072C220.728 64.3537 220.906 63.9544 221.093 63.6094C221.29 63.2545 221.473 62.9193 221.64 62.6038C221.808 62.2785 221.961 61.9926 222.099 61.7461C222.237 61.4996 222.34 61.3173 222.409 61.199C222.725 60.6666 223.084 60.3018 223.489 60.1046C223.893 59.9075 224.341 59.8089 224.834 59.8089C225.327 59.8089 225.717 60.0159 226.003 60.43C226.298 60.844 226.446 61.4158 226.446 62.1454C226.446 62.2538 226.422 62.4362 226.372 62.6925C226.333 62.9488 226.279 63.2545 226.21 63.6094C226.141 63.9643 226.062 64.4227 225.973 64.9846C225.894 65.5466 225.82 66.0494 225.751 66.493C225.682 66.9366 225.623 67.3754 225.574 67.8091C225.534 68.2429 225.515 68.6422 225.515 69.0069C225.515 69.6182 225.588 70.121 225.736 70.5153C225.894 70.9097 226.136 71.1068 226.461 71.1068C226.579 71.1068 226.747 71.0625 226.964 70.9737C227.289 70.8554 227.496 70.7519 227.585 70.6632C228.019 70.328 228.245 70.1653 228.265 70.1752C228.295 70.185 228.625 69.9879 229.256 69.5837C230.045 69.0809 230.986 68.4647 232.08 67.7352L232.066 71.0477L231.326 71.6096C231.267 71.6589 230.804 71.9152 229.936 72.3786C228.684 73.049 227.9 73.4532 227.585 73.5912C226.816 73.9362 226.338 74.1334 226.15 74.1827C225.657 74.3404 225.14 74.4193 224.598 74.4193C224.055 74.4193 223.597 74.0299 223.222 73.2511C222.858 72.4624 222.675 71.3139 222.675 69.8055C222.675 69.214 222.715 68.5781 222.794 67.8979C222.872 67.2078 222.971 66.4684 223.089 65.6797H222.853L218.978 73.3694C218.771 73.7834 218.549 74.0595 218.313 74.1975C218.066 74.3454 217.78 74.4193 217.455 74.4193C217.051 74.4193 216.726 74.3355 216.479 74.1679C216.233 73.9905 216.04 73.7588 215.902 73.4729C215.774 73.1771 215.686 72.8469 215.636 72.4821C215.597 72.1075 215.577 71.723 215.577 71.3286Z" fill="white"/>
<path d="M115.878 63.8307H96.3756V62.2655H115.878V63.8307Z" fill="white"/>
<path d="M256 63.8307H236.497V62.2655H256V63.8307Z" fill="white"/>
<path d="M122.214 2.6773C122.013 2.82095 121.819 2.88559 121.633 2.87122C120.828 3.80491 119.952 4.42976 119.004 4.74578C118.717 5.16235 118.401 5.47837 118.056 5.69384C117.697 6.51261 117.323 7.20211 116.935 7.76232C116.562 8.46618 116.181 9.03357 115.794 9.46451C115.133 16.5462 117.711 21.3224 123.529 23.7931L123.723 24.1809L124.283 24.3533L124.477 24.7411L125.037 24.935C125.813 25.4521 126.438 25.9549 126.912 26.4433L128.226 26.8096C129.418 27.9157 130.237 29.0433 130.682 30.1924C130.524 32.3758 129.583 33.8913 127.86 34.7388L128.054 37.5614C127.91 39.4575 127.967 41.0304 128.226 42.2801C129.921 42.1652 131.372 41.7199 132.578 40.9442C136.414 37.8271 138.109 33.999 137.663 29.4598C137.319 28.8996 137.132 28.3322 137.103 27.7576L136.715 27.0035L135.013 23.5991L134.647 23.4268C133.842 22.4787 133.088 21.782 132.384 21.3367L131.63 20.5826C130.524 20.0655 129.641 19.4406 128.98 18.708C126.452 17.7169 124.383 16.3307 122.775 14.5495C122.76 13.6158 122.825 12.8617 122.969 12.2871C123.342 11.6838 123.716 11.1811 124.089 10.7789C124.175 10.2043 124.304 9.70152 124.477 9.27059L124.283 8.71037L124.477 8.34408C124.434 7.58276 124.491 6.88609 124.649 6.25405C124.462 5.07617 124.405 4.07065 124.477 3.23752C123.658 2.8784 122.904 2.69167 122.214 2.6773ZM126.718 3.43144C126.904 3.90546 126.969 4.40822 126.912 4.9397V9.27059L127.666 10.4126C128.37 10.8291 128.872 11.3319 129.174 11.9208C129.16 12.6821 129.224 13.3716 129.368 13.9893L129.928 14.3772H130.488L131.242 14.1832H131.997C132.198 14.0396 132.392 13.9749 132.578 13.9893H133.139C134.431 13.7451 135.502 13.6158 136.349 13.6015C136.694 12.4667 136.694 11.4037 136.349 10.4126C134.625 5.75848 131.48 3.2447 126.912 2.87122L126.718 3.43144ZM119.952 29.6322C116.476 29.5891 114.838 30.5372 115.039 32.4764C116.303 37.3459 119.004 40.6138 123.141 42.2801H123.723L125.037 42.6464C125.382 39.8884 125.382 37.626 125.037 35.8592C122.969 34.6095 121.776 32.5338 121.46 29.6322H119.952ZM160.094 3.06514H158.628H157.723H157.163H155.892H155.332C153.996 3.28061 152.839 3.34525 151.863 3.25906H151.324H148.027H146.024H145.463C144.027 3.2016 142.806 3.25906 141.8 3.43144L141.628 3.79773L141.8 4.72424V6.72808C141.743 7.94906 141.865 8.99048 142.167 9.85235L142.727 10.0247H143.266H143.826C144.731 9.96726 145.521 10.0319 146.196 10.2186C146.928 9.97445 147.596 9.85235 148.2 9.85235L148.566 10.2186L148.76 12.5888L148.566 13.86V23.0174C148.695 24.1378 148.695 25.1146 148.566 25.9477V26.6588C148.753 27.5781 148.753 28.3753 148.566 29.0504C148.882 30.9322 148.947 32.5195 148.76 33.8123C148.918 33.9272 148.975 34.0493 148.932 34.1786V37.2813C149.09 38.2581 149.033 39.1702 148.76 40.0177L149.493 42.2155C150.283 42.2155 150.951 42.0934 151.496 41.8492C153.292 42.2083 154.815 42.0862 156.064 41.4829V40.2116V38.9188V38.3802V37.6476C155.892 36.484 155.834 35.5073 155.892 34.7172V33.0797V31.7869V30.688V29.5891C155.921 28.4687 155.856 27.4919 155.698 26.6588L155.892 25.9477V24.8488L155.698 24.1163L155.892 23.0174L155.698 22.2848V21.5522V19.5268V18.6218V16.2517V15.5191V12.3949V11.8562V9.65843L156.258 9.85235L156.991 9.65843L157.357 9.85235H157.896H158.456H162.097C162.557 7.38166 162.435 5.11926 161.731 3.06514L160.826 2.89277L160.094 3.06514ZM174.293 3.10824C171.793 3.99883 169.84 5.28445 168.432 6.96509L167.893 8.23635L167.699 8.77501C167.541 10.0678 167.362 11.1092 167.161 11.8993V13.1705L166.967 13.7308L166.773 14.291V18.6865C166.572 20.8412 166.572 22.6654 166.773 24.1593L166.601 24.7196C166.787 25.1792 166.845 25.6676 166.773 26.1847C166.773 27.3195 166.902 28.2963 167.161 29.1151V29.6753L167.333 32.2178C167.606 32.9217 167.728 33.5393 167.699 34.0708L167.893 35.1482C168.468 36.6564 168.827 37.8774 168.971 38.8111L169.359 38.6387C170.996 41.1381 173.194 42.237 175.952 41.9354L176.124 41.3967C175.966 40.1613 175.966 39.1199 176.124 38.2724C176.067 37.5686 176.067 36.9581 176.124 36.441L175.758 35.3421C174.867 35.0117 174.257 34.5233 173.926 33.8769C173.768 32.7134 173.711 31.7366 173.754 30.9466C173.812 30.0272 173.747 29.23 173.56 28.5549L173.754 27.2836L173.56 26.3571V25.4521V22.3494L173.366 19.9577C173.467 18.9235 173.467 18.0688 173.366 17.3937V16.8335L173.56 16.1009C173.431 15.9285 173.366 15.749 173.366 15.5622V11.8993L173.754 11.3606L173.926 10.628C174.688 10.2258 175.176 9.67279 175.392 8.96893C175.722 5.24854 175.356 3.29497 174.293 3.10824ZM178.15 4.57341C178.379 6.03858 178.379 7.3242 178.15 8.43027C178.265 8.84684 178.322 9.27059 178.322 9.70152C179.414 10.5203 180.146 11.4971 180.52 12.6319V25.0859L180.153 26.0124L180.52 26.551L180.347 27.4775C180.548 29.8477 180.606 31.7366 180.52 33.1443C180.003 34.0349 179.392 34.7029 178.688 35.1482V35.8807C178.387 38.3658 178.695 40.5061 179.615 42.3017C182.358 41.4398 184.427 39.9172 185.82 37.7338L186.208 35.8807L186.553 34.8034C186.553 33.5106 186.74 32.4045 187.113 31.4852V30.9466V29.8477V29.2875V28.5549V28.0162C187.386 25.8184 187.443 24.0444 187.285 22.6942L187.479 21.9616L187.285 21.229V20.4964V19.7638C187.056 18.787 186.998 17.9395 187.113 17.2213V16.4887L186.941 15.7561C186.625 14.5926 186.495 13.5512 186.553 12.6319L186.38 12.0932L186.208 11.7054L185.82 8.77501C185.332 8.25789 185.03 7.71204 184.915 7.13746C183.019 5.12644 180.944 3.90546 178.688 3.47453L178.15 4.57341ZM196.313 2.6773C195.078 2.9215 193.965 2.98614 192.974 2.87122C192.442 3.2016 191.882 3.38834 191.293 3.43144V3.9701C191.48 5.65074 191.544 7.01537 191.487 8.06397L191.659 10.4987L191.487 11.2313V13.2783C191.702 14.9876 191.76 16.3523 191.659 17.3721V18.6865C191.631 20.5682 191.695 22.1196 191.853 23.3406V24.2671L191.659 24.8273L191.853 25.3875C191.753 26.5654 191.753 27.5565 191.853 28.3609L191.659 29.2875C191.76 30.2786 191.76 31.1477 191.659 31.8946V32.8211L191.853 33.3813V42.1293H192.586H193.34H193.9H194.633H197.994L198.554 40.8365V37.1089L198.36 33.015L198.166 31.7007C198.396 30.0631 198.461 28.6985 198.36 27.6068V26.314C198.274 23.9295 198.339 22.0047 198.554 20.5395L198.36 19.9793V18.4926C198.461 17.3434 198.461 16.3523 198.36 15.5191V14.2048V13.4722L198.166 12.7181V11.4253L198.36 10.4987L198.166 9.93853V9.37832V8.62419V7.8916V7.33139V6.57725L198.36 6.21096C198.145 5.0618 198.08 4.07065 198.166 3.23752C197.434 2.95023 196.816 2.76349 196.313 2.6773ZM203.747 2.87122C202.239 3.01487 201.499 3.75464 201.528 5.09053C202.145 6.26842 202.268 7.4463 201.894 8.62419C205.184 10.2043 205.988 13.6158 204.307 18.8589C203.072 19.2036 202.268 19.8285 201.894 20.7334V21.2936C202.11 22.7444 202.174 23.9798 202.088 24.9997L202.454 26.1201C203.474 26.1201 204.279 26.4936 204.868 27.2405V27.8007C205.083 28.6626 205.148 29.467 205.061 30.214V37.4752C204.932 39.3426 204.99 40.8939 205.234 42.1293H206.182L206.721 41.9354L207.108 42.1293H207.669L208.401 41.9354C209.766 42.0934 210.886 42.0934 211.762 41.9354L211.935 41.3751V40.8365V40.0823V39.5221V35.7946V34.6957V33.9415V33.015V32.4548V30.9681V27.2405C211.748 26.7809 211.626 26.2853 211.569 25.7538L211.008 24.461L210.642 24.2671C209.895 23.5201 209.148 23.0246 208.401 22.7804V22.0262C211.82 19.4263 212.94 15.8926 211.762 11.4253C211.691 6.12477 209.019 3.27343 203.747 2.87122ZM217.925 2.46183C217.494 2.99332 217.12 3.3668 216.804 3.58226C217.049 5.24854 217.113 6.60598 216.998 7.65459V10.2617C216.869 11.6838 216.804 12.7971 216.804 13.6015V38.8111C216.776 39.9602 216.84 40.9514 216.998 41.7845L218.097 41.9785L218.851 41.6122H219.584L221.631 41.9785H223.484H229.603L230.163 42.1508H231.456H232.016H232.577C233.726 42.0934 234.717 42.158 235.55 42.3447C235.665 42.1293 235.787 42.0072 235.916 41.9785L236.11 41.4182V40.4917L236.283 39.9315V39.3713V35.6653L236.476 35.1051C235.916 34.7029 235.356 34.4587 234.796 34.3725L233.869 34.5448H231.456H230.896H228.871H228.116L227.556 34.3725H227.018L223.29 34.5448L223.678 33.0797V32.5195L223.85 31.2051V27.8654V24.5472L224.41 24.9135H224.971H225.531H226.091C226.795 24.9709 227.413 24.9709 227.944 24.9135L228.483 25.0859C229.33 24.8417 230.077 24.7842 230.724 24.9135L231.456 24.1593L231.65 23.7931V22.3063V18.6003L231.09 18.0401H229.797H229.237H228.677C227.01 17.9252 225.524 18.0473 224.216 18.4064L223.29 18.0401V17.3075L223.678 16.7473V15.9932C223.793 15.0738 223.85 14.3341 223.85 13.7738V13.2136V12.675C223.793 11.2098 223.857 9.96726 224.044 8.94739H224.777C225.466 8.97612 226.084 9.1054 226.63 9.33523C227.621 9.36396 228.49 9.29932 229.237 9.14131C230.171 9.19876 230.91 9.19876 231.456 9.14131C233.438 9.3855 235.047 9.3855 236.283 9.14131L236.843 8.2148L236.649 7.46067L236.843 6.16786C236.469 5.27727 236.469 4.47286 236.843 3.75464C236.627 3.45298 236.505 3.14415 236.476 2.82813H235.356C234.092 2.89995 233.043 2.84249 232.21 2.65575L231.284 2.82813H230.53C229.538 2.71321 228.677 2.71321 227.944 2.82813H227.384L226.091 2.65575L225.703 2.82813C224.841 2.64139 224.102 2.58393 223.484 2.65575H222.924L222.363 2.46183H220.877H220.338H217.925Z" fill="white"/>
<path fill-rule="evenodd" clip-rule="evenodd" d="M50.3245 67.8517C46.3299 44.4629 56.181 29.0861 59.574 24.612C59.8745 25.9154 60.0925 27.5052 59.8198 28.8005L61.2407 30.0793L59.8198 30.3635C59.8198 30.3635 59.3935 33.2053 58.6831 34.0578L59.6777 34.7683L58.1147 35.4787C58.1147 35.4787 56.6938 38.3205 55.2729 40.0256C55.2729 40.0256 63.2299 38.6047 64.5087 32.3528L63.372 31.5002H65.0771C65.0771 31.5002 64.243 27.0913 63.5569 25.5847C65.0412 27.123 66.4789 28.9685 67.0664 30.7898L70.7607 31.5002L68.3452 32.9211C68.3452 32.9211 70.0503 37.6101 69.7661 39.5993H72.1816L69.9082 42.299C69.9082 42.299 70.3344 47.6984 69.0556 51.3928C69.0556 51.3928 81.7016 42.299 78.2914 31.9265L75.7338 31.6423L78.5756 30.0793C78.5756 30.0793 72.0395 23.1169 69.7661 22.4065L68.4873 24.2536L69.0556 21.8381C69.0556 21.8381 68.2355 21.5306 66.9925 21.266C67.6724 21.2886 68.3273 21.3755 68.9135 21.554L70.9028 19.7068L70.7607 21.8382C70.7607 21.8382 74.313 22.8328 75.3076 23.8274L76.3022 22.4065L76.8705 24.822C76.8705 24.822 80.2807 26.9534 81.9858 29.3689C81.9858 29.3689 81.9858 17.8596 74.4551 15.4441L73.0342 16.865L73.4604 14.4495C73.4604 14.4495 66.498 15.302 65.0771 16.2966L65.6455 17.8596L64.5087 16.4387C64.5087 16.4387 63.9815 16.8038 63.2947 17.4419C63.6599 16.3571 63.7983 15.5862 63.7983 15.5862L61.667 15.0178L63.6562 14.8757C64.0825 12.7444 61.8091 4.50316 61.8091 4.50316L59.2515 6.06616L60.104 3.79271C53.7099 -3.59596 40.7798 2.08764 40.7798 2.08764C44.1899 2.94018 48.3105 5.63988 48.3105 5.63988L51.2944 5.07153L50.2998 6.9187C52.0048 7.62915 54.7046 11.0393 54.7046 11.0393L56.978 10.0447L55.8413 13.1706C57.633 15.2453 58.486 19.0725 58.857 21.4121C56.5832 17.8991 52.0049 16.2966 52.0049 16.2966L51.0102 18.5701L51.1523 16.2966C48.8789 15.4441 39.5009 16.4387 39.5009 16.4387L40.6377 19.5647L38.5063 18.1438C29.2705 23.8274 33.1069 39.031 33.1069 39.031C34.5278 35.3367 38.2221 31.5002 38.2221 31.5002V27.948L40.0693 29.3689C41.064 27.8059 45.4687 25.2483 45.4687 25.2483L44.6162 22.6907L47.8843 24.5379C51.0233 22.4452 56.8259 22.5404 58.8318 22.6442C42.9056 35.0539 42.0712 56.7573 42.6508 66.8423C36.8022 66.2419 30.7511 66.0304 24.9791 66.5225C25.4613 60.8374 25.614 45.5348 14.677 37.0345L14.68 37.0259C15.98 37 19.6591 37.0491 21.7397 38.3205L23.8711 37.0417L23.3027 38.7468C23.3027 38.7468 26.0024 40.3098 26.7129 41.4465L27.8496 40.4519V42.7253C27.8496 42.7253 30.2651 45.2829 31.1177 47.5564C31.1177 47.5564 33.6753 37.8943 27.7075 34.1999L26.2866 35.1946L27.1392 33.2053C27.1392 33.2053 21.0293 32.4949 19.6084 33.0632L19.7505 34.4841L19.04 33.0632C19.04 33.0632 16.2064 34.0833 14.6897 36.2248C14.953 34.7207 15.5209 32.3615 16.6245 31.0739L15.9141 29.0847L17.335 29.7951C17.335 29.7951 19.1822 27.5217 20.1768 27.0954L19.4663 25.9587L21.4556 26.2429C21.4556 26.2429 24.0132 24.5378 26.2866 23.9695C26.2866 23.9695 18.0454 20.4172 13.9248 25.1062L14.4932 26.5271L12.7881 25.5324C12.7881 25.5324 11.3672 30.7897 11.6514 32.2106H12.9302L11.6514 32.6369C11.6514 32.6369 11.7419 33.1798 11.9951 33.9317C11.493 33.4706 11.083 33.2053 11.083 33.2053L10.3725 34.0578L10.7988 33.0632C9.8042 32.4949 5.39939 31.9265 5.39939 31.9265L5.68359 33.3474L4.83104 32.4949C-8.80798e-06 34.0579 0 41.4465 0 41.4465C1.13672 39.8835 3.12599 38.6047 3.12599 38.6047L3.55224 36.8996L4.26269 37.7522C4.97314 37.1838 7.10449 36.6155 7.10449 36.6155V35.1946L8.38329 36.4734C8.69653 36.3615 9.045 36.2954 9.40985 36.2635C8.69858 36.4325 8.24118 36.6154 8.24118 36.6154L8.52538 38.1784L7.81493 36.8996C6.39403 37.468 2.13134 41.8727 2.13134 41.8727L3.97849 42.8674L2.27343 43.0095C0.142088 49.5456 8.24118 55.5134 8.24118 55.5134C7.38864 53.0978 7.67283 49.6877 7.67283 49.6877L6.25193 47.9826L7.67283 47.8405C7.53074 46.7038 8.66747 43.7199 8.66747 43.7199L7.10448 42.7253L9.52002 42.299C9.88692 41.076 10.8591 39.853 11.8477 38.8565C11.31 39.6577 10.7988 42.7253 10.7988 42.7253H11.7934L11.0829 43.2937C11.9355 47.2722 17.0507 48.1247 17.0507 48.1247C16.0561 47.1301 15.2036 45.2829 15.2036 45.2829L14.2089 44.8567L14.7773 44.4304C14.351 43.862 14.0668 42.0149 14.0668 42.0149L13.2143 41.8728L14.0668 41.0202C13.9272 40.1822 14.0964 39.1381 14.3047 38.2931C16.4797 41.1795 23.0752 51.5046 19.9489 67.151C13.4026 68.2511 7.43912 70.4532 2.8418 74.2692H76.8705C76.8705 74.2692 65.0564 70.1921 50.3245 67.8517ZM62.9621 24.986L62.2353 25.8166L63.2751 25.2968C63.1706 25.1915 63.0662 25.0879 62.9621 24.986ZM12.0725 38.6339C12.031 38.6742 11.9895 38.715 11.948 38.7562L12.5038 39.1731L12.0725 38.6339Z" fill="white"/>
</g>
<defs>
<clipPath id="clip0_25_23326">
<rect width="257" height="75" fill="white"/>
</clipPath>
</defs>
</svg>
